<svg width="18" height="14" viewBox="0 0 18 14" fill="none" xmlns="http://www.w3.org/2000/svg">
<mask id="mask0_788_43" style="mask-type:luminance" maskUnits="userSpaceOnUse" x="0" y="0" width="18" height="14">
<path d="M0 0H18V13.5013H0V0Z" fill="white"/>
</mask>
<g mask="url(#mask0_788_43)">
<path fill-rule="evenodd" clip-rule="evenodd" d="M-1.12585 10.126H19.1261V13.5013H-1.12585V10.126ZM-1.12585 0H19.1261V3.37533H-1.12585V0Z" fill="#FF0000"/>
<path fill-rule="evenodd" clip-rule="evenodd" d="M-1.12585 3.37549H19.1261V10.1261H-1.12585V3.37549Z" fill="white"/>
<path d="M8.89719 3.42817C8.69151 3.83691 8.55439 3.83691 8.21158 4.11379C8.07446 4.24827 7.86877 4.31684 8.14302 4.4566C7.86613 4.59108 7.72901 4.65964 7.59189 4.93389L7.66045 5.00245C7.66045 5.00245 7.92415 4.87587 7.9347 4.93389C7.98216 4.98926 7.59189 5.19759 7.54179 5.23187L7.25172 5.41645C6.90628 5.68806 6.69795 5.6195 6.49491 6.03087L7.18052 5.96231C7.31764 6.44224 6.83771 6.5108 6.49491 6.71648L5.94378 7.05929C6.08354 7.53922 6.49491 7.26497 6.83771 7.12785L6.90628 7.19641V7.33354L6.22066 7.67634C6.22066 7.67634 5.40847 8.14045 5.39529 8.15627C5.39001 8.18264 5.39529 8.2934 5.39529 8.2934C5.66953 8.36196 6.0809 8.43052 6.35778 8.2934C6.70059 8.15627 6.76915 8.01915 7.18052 8.01915C6.78458 8.32809 6.30907 8.51829 5.80929 8.56764V8.84189C6.22066 8.84189 6.49491 8.84189 6.83771 8.77333L7.72901 8.49908C7.9347 8.49908 8.14302 8.70476 8.07182 8.91045C7.86877 9.66462 7.0434 9.5275 6.76915 10.1446L7.86613 9.73055C8.14038 9.59342 8.41463 9.45894 8.75743 9.5275C9.1688 9.66462 9.1688 9.93887 9.71729 10.076L9.58017 9.73318C9.71729 9.80175 9.85442 9.80175 9.99418 9.87031C10.337 10.0074 10.4055 10.1446 10.8169 10.076C10.4741 9.66462 10.4055 9.73318 10.1313 9.45894C9.85705 9.04757 9.71729 8.43052 10.1313 8.36196L10.6112 8.49908C11.0912 8.56764 11.0912 8.43052 11.7768 8.70476C12.1908 8.84189 12.3279 9.04757 12.8052 8.91045C12.6021 8.43052 11.848 8.08771 11.3654 7.95059C11.9165 7.60778 11.7768 8.08771 12.5336 7.88203V7.7449C11.9877 7.3309 11.7794 6.98809 11.0252 6.98809L12.1934 6.85097V6.71385C12.1934 6.71385 11.0411 6.41323 11.0147 6.40005C11.0226 6.36577 11.0516 6.31303 11.1281 6.28138C11.3469 6.42378 12.0062 6.40796 12.0457 6.40532C12.0246 6.23655 11.7108 6.09679 11.4392 5.95967C11.4392 5.95967 10.2605 5.2345 10.2552 5.17122C10.279 4.98663 10.7378 5.20022 11.2309 5.34262C11.0938 5.06837 10.8195 4.93125 10.5453 4.86269L10.9567 4.79413C10.6824 4.17708 9.99681 4.24564 9.58544 3.97139C9.30856 3.76571 9.30856 3.62858 8.89719 3.42554V3.42817Z" fill="#007900"/>
<path fill-rule="evenodd" clip-rule="evenodd" d="M8.15601 7.9901C8.20612 7.82925 8.27204 7.68422 7.96615 7.54446C7.66026 7.4047 8.1191 8.10086 8.15601 7.99274V7.9901ZM8.51728 7.66576C8.45663 7.67367 8.42235 7.89781 8.54629 7.9611C8.68341 7.98219 8.57266 7.66839 8.51728 7.66576ZM8.87327 7.63939C8.80998 7.66048 8.80735 7.97692 9.03149 7.91891C9.25827 7.86353 9.03149 7.61565 8.87327 7.64202V7.63939ZM9.28991 6.82984C9.33738 6.75073 9.28728 6.43429 9.09478 6.56614C8.89964 6.70062 9.22663 6.85093 9.28991 6.82984ZM8.868 6.56614C8.92865 6.5424 8.93392 6.34727 8.76252 6.40001C8.59639 6.45011 8.82317 6.60569 8.868 6.56614ZM8.48827 6.64261C8.48827 6.64261 8.36961 6.47912 8.27732 6.5134C8.16393 6.62415 8.49618 6.64525 8.48827 6.64261ZM7.18033 7.16473C7.23044 7.17001 7.60225 7.10408 7.73146 6.95905C7.86067 6.81401 7.06958 7.0197 7.06958 7.02233C7.06958 7.02497 7.14342 7.15155 7.18033 7.16473ZM10.9011 6.24179C10.9196 6.20751 10.7033 6.05456 10.5741 6.11521C10.5398 6.2286 10.9011 6.26552 10.9011 6.24179ZM10.168 5.87261C10.2102 5.8146 10.0757 5.57463 9.80676 5.70912C9.53779 5.84097 10.0889 5.96754 10.168 5.87525V5.87261ZM9.32156 5.73285C9.32156 5.73285 9.38748 5.51662 9.54834 5.55881C9.73293 5.69857 9.32947 5.74076 9.32156 5.73285ZM9.16334 5.56936C9.13697 5.50871 8.97084 5.54299 8.77834 5.6722C8.5832 5.79614 9.22135 5.70912 9.16334 5.56672V5.56936ZM9.65645 4.98659C9.65645 4.98659 9.82786 4.90748 9.8806 4.98659C9.95179 5.09998 9.65382 4.98659 9.65645 4.98659ZM9.51142 4.91012C9.47714 4.84156 9.28728 4.83364 9.29255 4.93649C9.26091 5.0156 9.54043 4.99977 9.51142 4.91012ZM9.05786 4.91012C9.0394 4.87056 8.76779 4.91012 8.68868 5.07361C8.82053 5.1369 9.11851 5.01296 9.05786 4.91012ZM8.47772 5.07625C8.47772 5.07625 8.12437 5.29512 8.10064 5.45333C8.11119 5.59046 8.54365 5.20546 8.54365 5.20546C8.54365 5.20546 8.58057 5.05251 8.48036 5.07625H8.47772ZM8.08482 4.87847C8.09536 4.83364 8.26149 4.7308 8.27468 4.73871C8.28786 4.78354 8.14019 4.90484 8.08482 4.87847ZM8.19821 5.71176C8.20612 5.64583 7.77629 5.65111 7.93714 5.84888C8.07427 6.01501 8.22721 5.74076 8.19821 5.71176ZM7.80266 5.99391C7.78156 5.95172 7.74992 5.8357 7.69191 5.82515C7.6418 5.82515 7.38338 5.87789 7.36228 5.92008C7.35174 5.95436 7.4704 6.16795 7.50995 6.17323C7.55742 6.19169 7.79739 6.01501 7.8053 5.99391H7.80266ZM10.1337 7.44952C10.1469 7.40206 10.5899 7.25175 10.7403 7.39679C10.9196 7.64202 10.1232 7.52863 10.1337 7.44952ZM11.3468 7.73696C11.4443 7.57346 11.0488 7.37833 10.8826 7.56555C10.9407 7.78969 11.2676 7.87144 11.3468 7.73696Z" fill="white"/>
<path fill-rule="evenodd" clip-rule="evenodd" d="M8.23377 4.74232C8.23377 4.74231 8.23375 4.74242 8.23369 4.74263ZM8.27537 4.69611C8.2798 4.69634 8.28801 4.69735 8.29658 4.70249C8.30567 4.70794 8.31237 4.7166 8.31535 4.72676C8.32067 4.74485 8.31671 4.76185 8.31219 4.77367C8.30746 4.78607 8.30021 4.79783 8.2924 4.80832C8.2767 4.82941 8.25476 4.85061 8.23147 4.86862C8.20818 4.88663 8.18144 4.90309 8.15524 4.91332C8.13151 4.92259 8.09735 4.93103 8.06688 4.91652C8.04895 4.90798 8.0394 4.8881 8.04395 4.86876C8.04737 4.85421 8.05562 4.84189 8.06251 4.83313C8.06999 4.82363 8.07917 4.81426 8.08877 4.80546C8.10803 4.78781 8.13197 4.76974 8.1552 4.75391C8.17849 4.73803 8.20222 4.72363 8.22153 4.7135C8.23103 4.70852 8.24049 4.70402 8.2488 4.70097C8.25282 4.69949 8.25803 4.69779 8.26363 4.69684C8.26645 4.69637 8.27057 4.69586 8.27537 4.69611ZM9.47753 4.83149C9.50496 4.84217 9.53421 4.8609 9.54936 4.8912C9.55031 4.8931 9.55111 4.89507 9.55176 4.89708C9.55888 4.91908 9.55674 4.94111 9.54633 4.96031C9.53666 4.97813 9.52146 4.99068 9.50676 4.99941C9.47763 5.01672 9.43942 5.02565 9.40475 5.02859C9.37025 5.03151 9.33203 5.0291 9.30246 5.01765C9.28783 5.012 9.27036 5.00222 9.25896 4.98481C9.24784 4.96782 9.24567 4.94851 9.25047 4.93018C9.25111 4.89314 9.26886 4.86403 9.29527 4.84504C9.32169 4.82604 9.35489 4.81821 9.38545 4.81683C9.41647 4.81543 9.44916 4.82044 9.47753 4.83149ZM9.34453 4.91355C9.33773 4.91844 9.33436 4.92392 9.33489 4.93428C9.33498 4.93608 9.33496 4.93787 9.33482 4.93965C9.3482 4.94425 9.37116 4.94674 9.39764 4.9445C9.42527 4.94216 9.44952 4.93527 9.46365 4.92687C9.46609 4.92542 9.46788 4.92413 9.46916 4.92308C9.46498 4.91917 9.45797 4.91443 9.44691 4.91012C9.4302 4.90362 9.40932 4.90022 9.38926 4.90113C9.36872 4.90206 9.3533 4.90724 9.34453 4.91355ZM9.09518 4.88999C9.08392 4.86844 9.06179 4.86101 9.05057 4.85815C9.0361 4.85446 9.01945 4.85336 9.0027 4.85376C8.96878 4.85457 8.92665 4.86177 8.88347 4.87545C8.79867 4.90232 8.69782 4.95822 8.6509 5.05519C8.64602 5.06528 8.64535 5.0769 8.64905 5.08749C8.65275 5.09807 8.66052 5.10675 8.67063 5.1116C8.71322 5.13204 8.76523 5.13588 8.81471 5.13118C8.86492 5.12641 8.9169 5.11245 8.96235 5.09286C9.00712 5.07358 9.04927 5.04723 9.07656 5.01533C9.09038 4.99918 9.10198 4.97974 9.1064 4.95743C9.11093 4.9346 9.10738 4.91137 9.09518 4.88999ZM8.75673 5.04772C8.77185 5.04903 8.78863 5.0489 8.80673 5.04718C8.84758 5.0433 8.89102 5.03172 8.92896 5.01537C8.96759 4.99873 8.9968 4.97876 9.01244 4.96048C9.02009 4.95153 9.02286 4.94492 9.02363 4.94101C9.02378 4.94029 9.02387 4.93958 9.0239 4.93887C9.01931 4.93829 9.01294 4.93792 9.00472 4.93812C8.98005 4.93871 8.94588 4.9442 8.90896 4.9559C8.85163 4.97406 8.79482 5.00479 8.75673 5.04772ZM9.8301 4.91149C9.86117 4.9164 9.8942 4.93059 9.9159 4.96314L9.91654 4.9641C9.92676 4.98037 9.93716 5.00247 9.93308 5.02623C9.92802 5.05579 9.90495 5.06962 9.88746 5.07482C9.87105 5.0797 9.85278 5.07968 9.83713 5.07843C9.82063 5.07712 9.80284 5.07407 9.78548 5.0703C9.75071 5.06275 9.71431 5.05158 9.68718 5.0425C9.67351 5.03792 9.66194 5.03378 9.65377 5.03075C9.6497 5.02924 9.64635 5.02796 9.64394 5.027C9.64281 5.02655 9.64154 5.02604 9.64041 5.02554C9.64009 5.0254 9.6387 5.02481 9.63714 5.02399C9.63668 5.02374 9.63585 5.0233 9.63485 5.02269C9.63421 5.02231 9.63174 5.02081 9.629 5.01844C9.62741 5.01699 9.62349 5.01267 9.62134 5.00968C9.61804 5.00361 9.61447 4.98498 9.61668 4.973C9.62128 4.9641 9.63178 4.95412 9.63935 4.94902C9.63899 4.94823 9.63899 4.94823 9.63899 4.94823L9.63925 4.94811L9.63977 4.94787L9.64155 4.94708C9.64304 4.94642 9.64515 4.9455 9.6478 4.94439C9.65311 4.94217 9.66062 4.93914 9.66976 4.9358C9.6879 4.92916 9.71315 4.92101 9.74067 4.91551C9.76775 4.91009 9.79965 4.90669 9.8301 4.91149ZM8.58487 5.21529C8.58487 5.2153 8.58486 5.21531 8.54385 5.20541L8.57189 5.23694L8.57154 5.23725L8.57057 5.23811L8.56684 5.24139C8.5636 5.24424 8.55887 5.24838 8.55287 5.25358C8.54086 5.26398 8.52372 5.27866 8.50313 5.29583C8.46205 5.3301 8.40683 5.37461 8.35102 5.41496C8.29607 5.45468 8.23742 5.49268 8.19018 5.51158C8.16791 5.52049 8.14021 5.52855 8.11454 5.52336C8.10007 5.52044 8.08545 5.51311 8.07453 5.49936C8.06403 5.48616 8.05986 5.47071 8.05877 5.45652C8.05853 5.45336 8.05864 5.45017 8.05911 5.44703C8.06685 5.39543 8.09987 5.34457 8.13766 5.30025C8.17643 5.25478 8.22497 5.21078 8.27161 5.17272C8.31843 5.13452 8.36434 5.10151 8.39847 5.07809C8.41556 5.06635 8.42977 5.05698 8.43974 5.05051C8.44473 5.04728 8.44867 5.04477 8.45139 5.04305L8.45452 5.04107L8.45537 5.04054L8.4556 5.0404C8.46167 5.03664 8.46868 5.03442 8.47578 5.03406C8.5091 5.02739 8.54042 5.03362 8.56307 5.05706C8.58373 5.07845 8.58984 5.10714 8.59179 5.12798C8.59386 5.15012 8.59197 5.17204 8.58986 5.18756C8.58878 5.19551 8.58758 5.20223 8.58664 5.20703C8.58616 5.20944 8.58575 5.21139 8.58544 5.21279L8.58506 5.21449L8.58493 5.21501L8.58487 5.21529ZM8.4928 5.11671C8.49079 5.118 8.48839 5.11954 8.48565 5.12132C8.47621 5.12744 8.46262 5.1364 8.44622 5.14766C8.41335 5.17022 8.36944 5.20181 8.32495 5.2381C8.28029 5.27455 8.23604 5.31493 8.20188 5.35499C8.17571 5.38568 8.15791 5.41339 8.14882 5.4369C8.15175 5.43594 8.15508 5.43474 8.15884 5.43323C8.19565 5.41851 8.24709 5.38597 8.30158 5.34658C8.3552 5.30782 8.40876 5.26466 8.44909 5.23102C8.46921 5.21424 8.48594 5.19991 8.49762 5.1898C8.50045 5.18735 8.50298 5.18514 8.50519 5.18321C8.50554 5.18108 8.5059 5.17873 8.50624 5.17621C8.50793 5.16379 8.509 5.14897 8.50777 5.13583C8.50658 5.12304 8.50373 5.11758 8.50269 5.11608C8.50168 5.1159 8.49865 5.11557 8.4928 5.11671ZM8.54385 5.20541L8.57189 5.23694C8.57831 5.23122 8.58285 5.22364 8.58487 5.21529L8.54385 5.20541ZM9.19305 5.53652C9.17638 5.51396 9.15016 5.50354 9.1255 5.49989C9.09559 5.49547 9.06031 5.49935 9.02315 5.5086C8.9483 5.52722 8.85431 5.57054 8.75546 5.63684C8.74206 5.64538 8.73038 5.65415 8.72132 5.66332C8.71299 5.67175 8.70229 5.68508 8.69969 5.70298C8.69644 5.7253 8.70705 5.74317 8.7204 5.75374C8.73167 5.76265 8.745 5.76685 8.75532 5.76916C8.77677 5.77396 8.80417 5.77454 8.83233 5.77292C8.86127 5.77125 8.89399 5.76705 8.92742 5.76076C8.99358 5.74831 9.06652 5.72691 9.12046 5.69779C9.14709 5.68341 9.17282 5.66519 9.18972 5.64207C9.208 5.61704 9.21648 5.5848 9.20261 5.55076C9.20037 5.54526 9.19708 5.54046 9.19305 5.53652ZM9.12478 5.58668C9.12331 5.5858 9.11998 5.58437 9.11316 5.58337C9.09848 5.5812 9.07526 5.58259 9.04352 5.59048C8.98721 5.60449 8.91295 5.63674 8.83083 5.68847C8.85484 5.68691 8.88268 5.68331 8.91182 5.67783C8.97355 5.66622 9.03708 5.64691 9.08037 5.62354C9.10236 5.61167 9.11544 5.60069 9.12158 5.59229C9.1234 5.58979 9.12435 5.58802 9.12478 5.58668ZM9.32176 5.73281L9.2814 5.7205C9.27685 5.73542 9.2809 5.75162 9.29192 5.76264C9.2994 5.77012 9.30763 5.77272 9.30965 5.77336C9.31289 5.77438 9.31574 5.77488 9.31739 5.77513C9.32081 5.77564 9.32408 5.7758 9.32648 5.77587C9.33154 5.77601 9.33754 5.77582 9.34381 5.77545C9.35659 5.7747 9.37342 5.77303 9.39231 5.77039C9.42985 5.76516 9.47815 5.75578 9.52103 5.74107C9.54244 5.73372 9.56383 5.7246 9.58222 5.7132C9.60011 5.7021 9.61871 5.68668 9.62967 5.66522C9.64177 5.6415 9.64222 5.61489 9.6305 5.58919C9.61976 5.56563 9.59971 5.54459 9.57401 5.52513C9.5696 5.5218 9.56458 5.51936 9.55924 5.51796C9.45473 5.49054 9.38234 5.54963 9.34107 5.60465C9.32027 5.63239 9.30551 5.66114 9.296 5.68258C9.2912 5.6934 9.28764 5.7026 9.28525 5.7092C9.28404 5.71251 9.28313 5.71518 9.28249 5.7171L9.28174 5.71941L9.28152 5.72011L9.2814 5.7205C9.28139 5.72052 9.2814 5.7205 9.32176 5.73281ZM9.40858 5.65528C9.40109 5.66527 9.39451 5.67562 9.38881 5.68564C9.42176 5.68067 9.46051 5.67262 9.49364 5.66126C9.51162 5.65509 9.52661 5.64839 9.53775 5.64148C9.54939 5.63426 9.55347 5.62888 9.55451 5.62685C9.55455 5.62678 9.55449 5.6269 9.55451 5.62685C9.55443 5.62645 9.5543 5.62546 9.55372 5.6242C9.55153 5.61939 9.54528 5.6104 9.52986 5.59775C9.47759 5.5875 9.43897 5.61476 9.40858 5.65528ZM10.2088 5.88674C10.2072 5.89256 10.2043 5.898 10.2003 5.90266C10.1816 5.92438 10.1538 5.93523 10.1285 5.94108C10.1019 5.94722 10.0713 5.94942 10.0399 5.94891C9.97708 5.9479 9.90506 5.9359 9.84417 5.91637C9.8137 5.90659 9.78474 5.89453 9.76063 5.88017C9.73739 5.86634 9.71424 5.8478 9.70139 5.82312C9.68665 5.79482 9.68799 5.76306 9.70683 5.73458C9.72345 5.70945 9.75216 5.68897 9.78824 5.67126C9.93629 5.5973 10.0551 5.62421 10.1309 5.68591C10.1675 5.71572 10.1933 5.75302 10.2068 5.78862C10.2136 5.8064 10.2178 5.82494 10.218 5.84278C10.2182 5.85671 10.216 5.87233 10.2088 5.88674ZM10.0776 5.75136C10.0296 5.71222 9.94668 5.68639 9.82583 5.74681L9.82553 5.74696C9.79444 5.7622 9.78159 5.7745 9.7772 5.78113C9.77554 5.78365 9.77564 5.7837 9.77594 5.78387C9.77604 5.78393 9.77615 5.78399 9.77623 5.78415C9.77847 5.78844 9.78593 5.79703 9.80379 5.80766C9.82077 5.81777 9.8434 5.8275 9.86995 5.83602C9.92311 5.85307 9.9869 5.86366 10.0413 5.86454C10.0685 5.86498 10.0918 5.86296 10.1095 5.85887C10.1212 5.85616 10.1282 5.85306 10.1321 5.85077C10.1325 5.85015 10.1329 5.84953 10.1333 5.84893C10.1334 5.84826 10.1337 5.8467 10.1337 5.84396C10.1336 5.8381 10.1321 5.82943 10.128 5.81866C10.1198 5.79714 10.103 5.77198 10.0776 5.75136ZM8.23995 5.69991C8.23565 5.67483 8.21497 5.65997 8.20294 5.65346C8.18618 5.64439 8.16527 5.639 8.1448 5.63582C8.10309 5.62935 8.05006 5.63016 8.002 5.64006C7.95649 5.64945 7.90316 5.66952 7.87591 5.71187C7.86112 5.73485 7.85561 5.7621 7.86128 5.79145C7.8667 5.81955 7.8819 5.84754 7.90461 5.87546L7.90481 5.87569C7.94568 5.92521 7.99351 5.94785 8.04361 5.94362C8.09074 5.93964 8.13059 5.91252 8.15991 5.88338C8.18974 5.85374 8.21322 5.81761 8.22752 5.78624C8.23462 5.77067 8.24026 5.75456 8.24275 5.73975C8.24398 5.7324 8.24474 5.72368 8.24363 5.71469C8.24313 5.71057 8.24209 5.70539 8.23995 5.69991ZM7.96997 5.82208C7.95255 5.80063 7.94602 5.78523 7.94413 5.77546C7.94248 5.76693 7.9441 5.76184 7.94687 5.75754C7.95472 5.74534 7.9782 5.73113 8.01904 5.72271C8.05735 5.71481 8.10023 5.7143 8.13187 5.71921C8.14427 5.72113 8.1531 5.72361 8.15863 5.72579C8.15882 5.72632 8.15902 5.72684 8.15923 5.72737C8.15813 5.7326 8.15552 5.74076 8.15075 5.75123C8.14025 5.77426 8.12236 5.80174 8.10043 5.82352C8.07801 5.84581 8.05572 5.85791 8.03651 5.85953C8.0203 5.8609 7.99762 5.85553 7.96997 5.82208ZM7.61507 5.79246C7.6464 5.7869 7.67538 5.78291 7.69211 5.78291C7.69464 5.78291 7.69716 5.78314 7.69965 5.78359C7.72715 5.78859 7.74785 5.80535 7.7626 5.82212C7.7775 5.83906 7.78945 5.85952 7.79906 5.87875C7.80879 5.89821 7.81708 5.91838 7.82395 5.93542C7.82486 5.93768 7.82574 5.93987 7.82658 5.94197C7.83016 5.95087 7.83317 5.95835 7.83581 5.96453C7.8374 5.96616 7.83886 5.96793 7.84017 5.96984C7.84806 5.98121 7.84986 5.99573 7.845 6.00868C7.84146 6.01813 7.83505 6.02524 7.83287 6.02766C7.82943 6.03149 7.82523 6.03559 7.82104 6.03945C7.81255 6.04725 7.80145 6.05653 7.78884 6.06649C7.76353 6.08649 7.73037 6.11065 7.69602 6.13349C7.66185 6.15622 7.62541 6.17837 7.59372 6.19384C7.57799 6.20151 7.56211 6.2082 7.5475 6.21228C7.53617 6.21544 7.51765 6.21948 7.49939 6.21406C7.48302 6.21025 7.47041 6.19961 7.46354 6.19333C7.45406 6.18465 7.44457 6.17368 7.43557 6.16208C7.41744 6.1387 7.39814 6.10863 7.38089 6.0784C7.36361 6.04812 7.34765 6.01639 7.33653 5.98937C7.33101 5.97595 7.32627 5.96273 7.32328 5.9509C7.32178 5.94498 7.3205 5.93857 7.31994 5.93212C7.31943 5.92624 7.31921 5.91721 7.32216 5.90763C7.32284 5.9054 7.32371 5.90324 7.32475 5.90117C7.33315 5.88436 7.34878 5.87373 7.35903 5.86761C7.37105 5.86044 7.38549 5.85393 7.40055 5.84808C7.43086 5.83629 7.46861 5.82525 7.50614 5.81583C7.54389 5.80635 7.58252 5.79823 7.61507 5.79246ZM7.75353 5.98644C7.75175 5.98208 7.74998 5.97766 7.74822 5.97328C7.74737 5.97116 7.74652 5.96904 7.74568 5.96695C7.73886 5.95004 7.73166 5.93263 7.72359 5.91649C7.7154 5.90012 7.70725 5.88696 7.69924 5.87786C7.69367 5.87152 7.68956 5.86872 7.68704 5.8675C7.67642 5.86821 7.65654 5.8708 7.6298 5.87555C7.59914 5.88098 7.56245 5.88869 7.52669 5.89767C7.49072 5.9067 7.45677 5.91676 7.43113 5.92673C7.42119 5.93059 7.4132 5.93417 7.40716 5.93735C7.40892 5.94284 7.41137 5.9495 7.41456 5.95725C7.42396 5.98009 7.43816 6.00851 7.45418 6.03658C7.47022 6.06469 7.48734 6.09114 7.50225 6.11037C7.50978 6.12007 7.51596 6.12692 7.5205 6.13107C7.52081 6.13136 7.52111 6.13162 7.52138 6.13186C7.52229 6.13167 7.52342 6.13139 7.5248 6.13101C7.53243 6.12888 7.54315 6.12462 7.55671 6.118C7.58361 6.10487 7.61655 6.085 7.64929 6.06323C7.68186 6.04157 7.71314 6.01876 7.73653 6.00028C7.74295 5.9952 7.74865 5.99056 7.75353 5.98644ZM10.9414 6.25527C10.9502 6.2319 10.9389 6.21044 10.9341 6.2023C10.9267 6.1901 10.9161 6.17842 10.9048 6.168C10.8818 6.14674 10.8492 6.12422 10.8125 6.10534C10.7757 6.08643 10.733 6.07016 10.6894 6.06292C10.6461 6.05571 10.599 6.05699 10.5564 6.07698C10.5456 6.08206 10.5374 6.09151 10.5339 6.10296C10.5262 6.12862 10.5298 6.15339 10.5417 6.17471C10.5528 6.19465 10.5702 6.20984 10.5878 6.22141C10.623 6.24445 10.6705 6.26032 10.7152 6.27093C10.7607 6.28172 10.8072 6.28801 10.843 6.29005C10.8607 6.29105 10.8772 6.29111 10.8903 6.28973C10.8964 6.28908 10.9045 6.28785 10.9123 6.2849C10.9161 6.28347 10.9225 6.28059 10.9287 6.27496C10.9334 6.27071 10.9386 6.26409 10.9414 6.25527ZM10.6252 6.14431C10.6276 6.14633 10.6305 6.14852 10.6341 6.15083C10.657 6.16586 10.6933 6.179 10.7347 6.18883C10.7611 6.19509 10.7878 6.19963 10.8118 6.20253C10.8005 6.19501 10.7877 6.18747 10.7739 6.18037C10.7427 6.16435 10.7084 6.15161 10.6756 6.14616C10.6573 6.14311 10.6403 6.14248 10.6252 6.14431ZM8.88977 6.60265C8.91843 6.58855 8.93429 6.55953 8.94176 6.53501C8.95029 6.50707 8.95169 6.4739 8.94313 6.44307C8.93443 6.4117 8.91451 6.38027 8.8788 6.36254C8.84346 6.345 8.7998 6.34443 8.75042 6.3596C8.70277 6.374 8.66388 6.40234 8.66071 6.44981C8.65801 6.49029 8.68416 6.52485 8.707 6.54696C8.7318 6.57098 8.7639 6.59131 8.79402 6.60314C8.80904 6.60904 8.82551 6.61359 8.84163 6.61449C8.85512 6.61524 8.87358 6.61365 8.88977 6.60265ZM8.84128 6.43813C8.83133 6.43319 8.8114 6.42913 8.77513 6.44029L8.7749 6.44036C8.75781 6.44551 8.74978 6.45089 8.74651 6.45395C8.74559 6.4548 8.74512 6.4554 8.74491 6.45571C8.74505 6.45806 8.74789 6.4691 8.7657 6.48634C8.78243 6.50254 8.80504 6.51681 8.82487 6.5246C8.83455 6.5284 8.84173 6.52992 8.84599 6.53022C8.84816 6.52888 8.85044 6.52773 8.85282 6.5268C8.85249 6.52693 8.85233 6.527 8.85231 6.52698C8.85223 6.52684 8.85705 6.52353 8.86105 6.5104C8.86522 6.49673 8.8658 6.47996 8.86182 6.46563C8.858 6.45184 8.85089 6.4429 8.84128 6.43813ZM8.84844 6.53022C8.84845 6.53023 8.84832 6.53025 8.84805 6.53026ZM8.52115 6.61579L8.52087 6.61543C8.51984 6.61405 8.51837 6.61211 8.5165 6.6097C8.51275 6.60489 8.50737 6.59816 8.50064 6.59024C8.48727 6.5745 8.46816 6.55357 8.44562 6.53356C8.42337 6.5138 8.39608 6.4934 8.36627 6.4804C8.33642 6.46739 8.29979 6.46007 8.26282 6.4738C8.25729 6.47586 8.25225 6.47905 8.24803 6.48317C8.23061 6.50019 8.21647 6.52042 8.21268 6.54417C8.20856 6.57 8.21787 6.59202 8.23178 6.60817C8.24472 6.62319 8.26201 6.63387 8.27831 6.64166C8.29508 6.64969 8.31377 6.65605 8.33219 6.66114C8.36902 6.67134 8.40861 6.6775 8.43796 6.68096C8.45275 6.68271 8.46535 6.68382 8.47422 6.68441C8.47855 6.6847 8.48243 6.68489 8.48538 6.68495C8.48637 6.68497 8.48907 6.68502 8.49188 6.68478C8.49267 6.68471 8.49442 6.68454 8.49658 6.68412C8.49766 6.68391 8.49955 6.6835 8.50184 6.68274C8.50357 6.68216 8.50849 6.68046 8.51377 6.67653C8.51875 6.67283 8.53123 6.66146 8.53079 6.64171C8.53052 6.62964 8.52545 6.62101 8.52115 6.61579ZM8.30012 6.55106C8.29892 6.55258 8.29805 6.55384 8.29744 6.55484C8.30032 6.55745 8.3057 6.56122 8.31473 6.56554C8.32554 6.57072 8.33916 6.57552 8.35469 6.57982C8.36162 6.58173 8.36874 6.5835 8.37592 6.58512C8.36131 6.57346 8.34656 6.56386 8.33255 6.55776C8.31896 6.55183 8.30841 6.55015 8.30012 6.55106ZM9.34889 6.73555C9.34999 6.77672 9.34444 6.82125 9.32629 6.8515C9.32111 6.86013 9.31301 6.86663 9.30346 6.86982C9.28554 6.87579 9.26511 6.87431 9.24885 6.87169C9.23099 6.86881 9.21117 6.86334 9.19111 6.85607C9.15115 6.84159 9.10625 6.81855 9.06942 6.78934C9.03394 6.76121 8.99872 6.72156 8.9924 6.67238C8.98543 6.61825 9.01487 6.57006 9.07103 6.53135C9.12622 6.49356 9.18048 6.48203 9.22897 6.50135C9.27502 6.5197 9.30404 6.56134 9.32139 6.6024C9.33913 6.64435 9.34775 6.69255 9.34889 6.73555ZM9.11888 6.60086C9.07751 6.62938 9.07465 6.65041 9.07609 6.66162C9.07817 6.67778 9.09207 6.69961 9.12185 6.72323C9.15029 6.74577 9.1868 6.76476 9.21985 6.77673C9.23556 6.78242 9.24958 6.7862 9.26072 6.78812C9.26336 6.77565 9.2651 6.75863 9.26454 6.73779C9.26362 6.70334 9.25659 6.66583 9.24367 6.63526C9.23037 6.6038 9.21374 6.58612 9.19774 6.57974C9.18418 6.57434 9.15991 6.57278 9.11888 6.60086ZM7.78688 6.94413C7.78338 6.96148 7.77305 6.97597 7.76316 6.98707C7.72574 7.02908 7.67286 7.06328 7.61672 7.09092C7.56011 7.11879 7.49755 7.14126 7.43834 7.15869C7.37905 7.17614 7.32229 7.18876 7.2769 7.19673C7.25422 7.20071 7.23408 7.20357 7.21766 7.20528C7.20238 7.20687 7.18719 7.20781 7.17612 7.20665C7.17278 7.2063 7.1695 7.20555 7.16634 7.20442C7.1547 7.20026 7.14494 7.19308 7.13782 7.18701C7.13021 7.18053 7.12283 7.1729 7.11598 7.16512C7.10228 7.14956 7.08851 7.13087 7.07652 7.11341C7.06443 7.09579 7.0536 7.07859 7.04576 7.06558C7.04184 7.05907 7.03857 7.05345 7.0362 7.04922C7.03504 7.04715 7.03394 7.04513 7.03305 7.04339C7.03264 7.04258 7.03203 7.04136 7.03143 7.04001C7.03115 7.03939 7.03061 7.03814 7.03005 7.03656C7.02978 7.03578 7.02931 7.03441 7.02888 7.03267C7.02858 7.03147 7.02759 7.02749 7.02759 7.02229C7.02875 7.01244 7.035 6.99839 7.03842 6.99405C7.04059 6.99182 7.04441 6.98856 7.04598 6.98744C7.04879 6.98551 7.05122 6.98436 7.05194 6.98402C7.05381 6.98314 7.0554 6.98256 7.05592 6.98237C7.05729 6.98187 7.05865 6.98144 7.05957 6.98116C7.06161 6.98053 7.06425 6.97977 7.06724 6.97893C7.07333 6.97722 7.08203 6.97487 7.09284 6.97205C7.11451 6.96638 7.14517 6.95863 7.18148 6.94988C7.25404 6.93239 7.34968 6.91078 7.44149 6.89378C7.53223 6.87699 7.62282 6.86399 7.68356 6.86515C7.699 6.86545 7.71398 6.86666 7.7273 6.86948C7.73966 6.8721 7.7556 6.87709 7.76838 6.88846C7.78409 6.90246 7.79118 6.92281 7.78688 6.94413ZM7.13458 7.04842C7.15311 7.04369 7.17574 7.03806 7.20125 7.03191C7.27299 7.01462 7.36705 6.99338 7.45685 6.97676C7.54749 6.95998 7.63024 6.9486 7.68152 6.94951C7.65526 6.97302 7.62033 6.99509 7.57944 7.01522C7.52843 7.04033 7.47068 7.06121 7.41452 7.07773C7.35845 7.09424 7.30478 7.10616 7.26232 7.11361C7.24108 7.11734 7.22295 7.11989 7.20894 7.12135C7.20223 7.12204 7.19671 7.12246 7.1924 7.12266C7.18893 7.11969 7.18453 7.11528 7.17932 7.10937C7.1688 7.09741 7.15719 7.08182 7.1461 7.06566C7.14209 7.05982 7.13823 7.05402 7.13458 7.04842ZM10.2036 7.45098C10.211 7.44746 10.2195 7.44375 10.229 7.43993C10.272 7.4225 10.3307 7.40455 10.3938 7.39235C10.457 7.38011 10.5227 7.37405 10.5804 7.37915C10.637 7.38416 10.6808 7.39944 10.7086 7.42469C10.7258 7.44919 10.7249 7.46067 10.7243 7.46331C10.7239 7.4652 10.7213 7.47249 10.7022 7.48122C10.6629 7.49929 10.5894 7.50636 10.5023 7.50259C10.4173 7.49892 10.3273 7.48538 10.2599 7.46821C10.2376 7.46253 10.2186 7.45667 10.2036 7.45098ZM10.5878 7.29509C10.6552 7.30105 10.7223 7.32055 10.7697 7.36638C10.7715 7.36806 10.7731 7.36988 10.7745 7.37184C10.7999 7.40655 10.8151 7.44433 10.8066 7.48201C10.7978 7.52055 10.7677 7.54403 10.7375 7.55791C10.6783 7.58508 10.5869 7.59071 10.4987 7.58689C10.4083 7.58298 10.3124 7.56867 10.2391 7.54999C10.2027 7.54072 10.1698 7.52988 10.1455 7.51773C10.1336 7.51178 10.1212 7.50429 10.1114 7.49472C10.1022 7.48566 10.0889 7.46809 10.0921 7.4439C10.0924 7.44197 10.0928 7.44006 10.0933 7.43819C10.0974 7.42357 10.1071 7.41357 10.1128 7.40837C10.1195 7.4022 10.1275 7.39662 10.1356 7.39166C10.152 7.38164 10.1732 7.37144 10.1973 7.36171C10.2457 7.34213 10.3096 7.32268 10.3778 7.3095C10.4457 7.29635 10.5198 7.28907 10.5878 7.29509ZM11.3739 7.59118C11.4067 7.63969 11.4179 7.70034 11.3832 7.75846C11.3832 7.75849 11.3832 7.75844 11.3832 7.75846M10.9308 7.5774C10.9984 7.51924 11.1054 7.51934 11.1972 7.5585C11.2459 7.57927 11.2839 7.60873 11.304 7.63847C11.3231 7.66666 11.3248 7.69168 11.3107 7.71529L11.3106 7.71552C11.2988 7.73561 11.2761 7.75062 11.2417 7.75687C11.2071 7.76314 11.1641 7.75968 11.1198 7.74551C11.0377 7.71923 10.9615 7.65987 10.9308 7.5774ZM7.9257 7.48618C7.94348 7.48963 7.96291 7.49645 7.98389 7.50604C8.1417 7.57814 8.21651 7.65744 8.23607 7.75066C8.24552 7.79568 8.24103 7.83982 8.23191 7.88128C8.2248 7.91358 8.21423 7.94675 8.20419 7.97829C8.20214 7.9847 8.20012 7.99106 8.19815 7.99732C8.19781 8.00038 8.19714 8.00341 8.19614 8.00633C8.19017 8.02383 8.17588 8.04156 8.15149 8.04558C8.13216 8.04876 8.11516 8.04146 8.10476 8.03581C8.08268 8.02381 8.05897 8.0015 8.03671 7.97696C7.99076 7.9263 7.93775 7.85111 7.89602 7.77749C7.87509 7.74056 7.85653 7.7032 7.843 7.66877C7.82982 7.63523 7.81998 7.60092 7.81959 7.57125C7.81939 7.55621 7.82156 7.53919 7.82975 7.52356C7.8386 7.50668 7.85317 7.49406 7.87205 7.48788C7.88959 7.48215 7.90818 7.48278 7.9257 7.48618ZM8.12561 7.9469C8.11813 7.94019 8.10928 7.93137 8.09921 7.92026C8.0583 7.87517 8.0088 7.80532 7.96944 7.73588C7.94982 7.70128 7.9332 7.66761 7.92154 7.63791C7.90952 7.60732 7.90415 7.5844 7.90397 7.57014C7.90396 7.56943 7.90396 7.56877 7.90398 7.56817C7.90551 7.56832 7.90739 7.56859 7.90964 7.56902C7.91873 7.57078 7.93156 7.5749 7.94882 7.58279C8.09689 7.65044 8.14206 7.71353 8.15349 7.76799C8.15953 7.7968 8.15727 7.82782 8.14949 7.86316C8.14355 7.89017 8.13501 7.91734 8.12561 7.9469ZM8.88344 7.59835C8.87583 7.5965 8.86776 7.59677 8.86013 7.59932C8.83748 7.60687 8.8237 7.62505 8.81577 7.63977C8.80732 7.65544 8.80177 7.67393 8.79843 7.69268C8.79174 7.73028 8.79268 7.77616 8.80397 7.81943C8.81521 7.86248 8.83797 7.90738 8.87883 7.93685C8.92112 7.96734 8.97636 7.9767 9.04198 7.95978C9.10624 7.94402 9.15193 7.9109 9.16566 7.85939C9.17859 7.81089 9.15838 7.76216 9.13097 7.72481C9.1027 7.68627 9.06135 7.65188 9.01601 7.62875C8.97591 7.60829 8.92937 7.59498 8.88344 7.59835ZM8.88868 7.68258C8.88612 7.68818 8.88347 7.69649 8.88151 7.70747C8.87691 7.73332 8.87746 7.76688 8.88562 7.79811C8.89383 7.82955 8.90848 7.8542 8.92819 7.86841C8.94641 7.88154 8.97479 7.89001 9.02112 7.87802L9.02168 7.87787C9.07066 7.86591 9.08155 7.84731 9.08412 7.83766C9.08751 7.82494 9.08366 7.80297 9.06294 7.77472C9.04308 7.74766 9.01225 7.72157 8.97765 7.70391C8.94613 7.68783 8.91492 7.68044 8.88868 7.68258ZM8.51202 7.62388C8.5145 7.62355 8.51699 7.62345 8.51949 7.62357C8.54415 7.62474 8.56194 7.64125 8.57135 7.65151C8.58257 7.66376 8.59279 7.67937 8.60172 7.69577C8.61969 7.72881 8.63575 7.77127 8.64529 7.81285C8.6545 7.85298 8.65926 7.89917 8.64797 7.93642C8.64203 7.95598 8.63067 7.97623 8.61006 7.98978C8.58916 8.00352 8.56462 8.00653 8.54007 8.00275C8.53562 8.00207 8.53131 8.00068 8.5273 7.99863C8.44431 7.95625 8.41985 7.86378 8.42057 7.79219C8.42095 7.75523 8.42783 7.71888 8.44016 7.68982C8.44631 7.67532 8.45449 7.66104 8.46529 7.64939C8.47605 7.63779 8.49162 7.62654 8.51202 7.62388ZM8.5186 7.72101C8.52142 7.72528 8.52444 7.73031 8.52759 7.7361C8.54168 7.76198 8.55512 7.79716 8.56305 7.83172C8.57131 7.86773 8.57198 7.8962 8.56721 7.91193C8.56564 7.91713 8.56409 7.91889 8.56369 7.91928C8.56321 7.91948 8.56189 7.91987 8.55931 7.91989C8.52261 7.89709 8.50439 7.84822 8.50495 7.79304C8.50524 7.76507 8.51055 7.73994 8.51784 7.72278C8.51809 7.72217 8.51835 7.72158 8.5186 7.72101Z" fill="white"/>
</g>
</svg>
