<svg width="1725" height="186" viewBox="0 0 1725 186" fill="none" xmlns="http://www.w3.org/2000/svg">
<path d="M955.762 0H768.762V186H955.762V0Z" fill="#7A7A7A"/>
<path d="M799.455 35.8224V59.7165H804.685V28.5047H800.519L795.581 34.1002V39.5906H795.676L799.455 35.8224ZM824.055 51.7168V36.5974C824.055 31.6839 821.631 28.1206 816.21 28.1206C810.882 28.1206 808.462 31.6839 808.462 36.5974V51.7219C808.462 56.5442 810.886 60.1987 816.21 60.1987C821.536 60.1023 824.055 56.539 824.055 51.7219M813.691 52.4918V35.7311C813.691 33.8039 814.37 32.4589 816.21 32.4589C818.051 32.4589 818.728 33.8074 818.728 35.7311V52.4918C818.728 54.4189 818.051 55.764 816.21 55.764C814.37 55.764 813.691 54.4155 813.691 52.4918Z" fill="white"/>
<path d="M836.257 35.3453V41.1251H834.127V28.4168H837.227C839.357 28.4168 840.132 29.4777 840.132 31.2119V32.8498C840.132 34.1983 839.647 34.9681 838.389 35.2609L840.423 41.0407H838.195L836.257 35.3453ZM836.257 30.1425V34.1001H836.936C837.71 34.1001 838.001 33.7143 838.001 33.0392V31.2033C838.001 30.5282 837.71 30.1425 836.936 30.1425H836.257ZM841.585 28.4168H846.719V30.139H843.715V33.8004H845.846V35.5347H843.715V39.3873H846.719V41.1216H841.585V28.4168ZM853.981 31.8853V37.7616C853.981 39.6887 853.207 41.1337 850.883 41.1337H847.593V28.4168H850.883C853.207 28.4168 853.981 29.8531 853.981 31.8767V31.8853ZM850.592 39.3908C851.458 39.3908 851.851 38.9086 851.851 38.1387V31.491C851.851 30.7211 851.56 30.2389 850.592 30.2389H849.726V39.3908H850.592ZM861.632 28.4168V37.9545C861.632 39.8799 860.766 41.2267 858.63 41.2267C856.403 41.2267 855.433 39.9729 855.433 37.9545V28.4168H857.565V38.2335C857.565 39.0033 857.856 39.4855 858.63 39.4855C859.404 39.4855 859.696 39.0033 859.696 38.2335V28.4168H861.632ZM862.99 37.858V31.689C862.99 29.6671 863.957 28.3169 866.184 28.3169C868.51 28.3169 869.188 29.6671 869.188 31.4961V33.0461H867.251V31.2998C867.251 30.5282 866.96 30.046 866.184 30.046C865.408 30.046 865.119 30.6247 865.119 31.3945V38.2335C865.119 39.0033 865.41 39.582 866.184 39.582C866.958 39.582 867.251 39.0997 867.251 38.3299V36.0187H869.188V38.2335C869.188 40.0625 868.413 41.411 866.184 41.411C863.957 41.2215 862.99 39.7835 862.99 37.8494V37.858ZM870.544 28.4168H875.676V30.139H872.674V33.8004H874.803V35.5347H872.674V39.3873H875.676V41.1216H870.544V28.4168ZM883.424 31.8853V37.7616C883.424 39.6887 882.649 41.1337 880.325 41.1337H877.035V28.4168H880.325C882.649 28.4168 883.424 29.8531 883.424 31.8767V31.8853ZM880.034 39.3994C880.9 39.3994 881.293 38.9172 881.293 38.1473V31.4996C881.293 30.7297 881.002 30.2475 880.034 30.2475H879.169V39.3994H880.034Z" fill="white"/>
<path d="M834.127 46.9048H836.257V59.5235H834.127V46.9048ZM839.454 51.5289V59.5235H837.613V46.9048H839.753L842.078 54.1295V46.9048H843.82V59.5235H841.973L839.454 51.5289ZM845.072 46.9048H850.204V48.639H847.198V52.2988H849.33V54.033H847.198V57.8874H850.201V59.6199H845.072V46.9048ZM853.401 60.3915V59.5304C851.657 59.2428 850.977 57.9907 850.977 56.2581V50.0926C850.977 48.069 851.944 46.7205 854.171 46.7205C856.398 46.7205 857.461 48.1654 857.461 50.0926V56.2581C857.461 57.6066 856.976 58.7623 855.911 59.2445L857.461 59.5321V61.0735L853.401 60.3915ZM855.336 56.7318V49.7946C855.336 49.0248 855.047 48.4461 854.272 48.4461C853.496 48.4461 853.207 49.0248 853.207 49.7946V56.7318C853.207 57.5016 853.498 58.0802 854.272 58.0802C854.95 57.9838 855.336 57.5016 855.336 56.7318ZM864.828 46.9048V56.4424C864.828 58.3679 863.963 59.7146 861.826 59.7146C859.599 59.7146 858.63 58.4626 858.63 56.4424V46.9048H860.761V56.7318C860.761 57.5016 861.052 57.9838 861.826 57.9838C862.6 57.9838 862.893 57.5016 862.893 56.7318V46.9048H864.828ZM865.507 59.5235L867.931 46.9048H870.355L872.779 59.5235H870.544L870.156 57.2123H867.928L867.542 59.5235H865.507ZM868.219 55.478H869.962L869.096 50.3733L868.219 55.478ZM873.739 46.9048H875.87V57.7909H878.388V59.5235H873.739V46.9048ZM879.356 46.9048H881.482V59.5235H879.356V46.9048ZM882.455 46.9048H888.169V48.639H886.427V59.5235H884.295V48.639H882.552V46.9048H882.455ZM889.138 46.9048H891.27V59.5235H889.138V46.9048ZM892.529 46.9048H897.661V48.639H894.66V52.2988H896.79V54.033H894.66V57.8874H897.661V59.6199H892.529V46.9048ZM898.533 56.8334V55.0939H900.566V56.8334C900.566 57.5085 900.857 57.9907 901.633 57.9907C902.31 57.9907 902.601 57.5085 902.601 56.8334V56.3529C902.601 55.5813 902.31 55.1972 901.633 54.5221L900.372 53.2701C899.113 52.1145 898.63 51.3429 898.63 49.898V49.5122C898.63 47.9708 899.598 46.7188 901.633 46.7188C903.762 46.7188 904.635 47.7779 904.635 49.6086V50.6678H902.698V49.6C902.698 48.8302 902.407 48.5409 901.73 48.5409C901.148 48.5409 900.76 48.8302 900.76 49.6V49.8894C900.76 50.5645 901.148 51.045 901.73 51.6236L903.085 52.9721C904.247 54.1277 904.829 54.8993 904.829 56.2444V56.8334C904.829 58.5676 903.859 59.8197 901.73 59.8197C899.316 59.7164 898.533 58.4643 898.533 56.8334Z" fill="white"/>
<path d="M835.771 100.177L821.147 114.723L835.771 129.362V100.177ZM888.847 129.365L903.472 114.726L888.847 100.18V129.365ZM877.032 88.4243L862.314 73.8784L847.69 88.4243H877.032ZM847.687 141.124L862.311 155.67L877.028 141.124H847.687ZM846.428 101.146H878.287V109.912H846.428V101.146ZM846.428 119.256H878.287V128.407H846.428V119.256Z" fill="white"/>
<path d="M1724.76 0H1539.76V186H1724.76V0Z" fill="#7A7A7A"/>
<path d="M1578.27 28.5044V59.8127H1572.99V35.8221L1569.26 39.6799V34.1895L1574.06 28.5061L1578.27 28.5044ZM1580.67 28.5044H1593.7V33.411L1586.89 59.8127H1581.72L1588.71 32.841H1580.66L1580.67 28.5044ZM1671.4 109.521C1671.4 98.635 1662.78 89.7724 1652.05 89.3867C1649.27 81.585 1641.79 75.9017 1633.07 75.9017C1628.91 75.9019 1624.86 77.1984 1621.46 79.6127C1618.06 82.027 1615.49 85.4404 1614.1 89.3832C1603.37 89.769 1594.75 98.6316 1594.75 109.518C1594.75 112.587 1595.45 115.614 1596.8 118.369C1598.14 121.124 1600.1 123.533 1602.51 125.412C1602.01 127.232 1601.75 129.111 1601.74 130.999C1601.74 133.656 1602.26 136.288 1603.27 138.743C1604.28 141.198 1605.77 143.429 1607.64 145.308C1609.5 147.187 1611.72 148.677 1614.16 149.694C1616.61 150.711 1619.22 151.234 1621.87 151.233C1625.91 151.234 1629.85 149.99 1633.17 147.668C1636.2 149.69 1639.72 150.848 1643.36 151.018C1646.99 151.188 1650.6 150.365 1653.81 148.635C1657.01 146.905 1659.69 144.334 1661.56 141.195C1663.42 138.056 1664.41 134.467 1664.41 130.81C1664.4 128.953 1664.14 127.106 1663.64 125.319C1668.44 121.756 1671.4 115.976 1671.4 109.521M1649.17 96.1309C1649.17 104.225 1643.23 110.87 1635.47 112.025C1635.35 111.195 1635.29 110.359 1635.28 109.521C1635.28 101.427 1641.22 94.7824 1648.98 93.6268C1649.1 94.4567 1649.16 95.293 1649.17 96.1309M1633.27 142.467C1631.73 140.966 1630.5 139.169 1629.66 137.184C1628.82 135.198 1628.39 133.063 1628.38 130.906C1628.41 126.617 1630.09 122.505 1633.08 119.443C1634.61 120.934 1635.83 122.716 1636.66 124.686C1637.5 126.655 1637.94 128.772 1637.96 130.915C1637.98 133.057 1637.57 135.182 1636.77 137.165C1635.96 139.148 1634.77 140.95 1633.27 142.467ZM1617.36 93.6268C1625.12 94.7824 1631.06 101.43 1631.06 109.521C1631.05 110.359 1630.98 111.195 1630.87 112.025C1623.11 110.87 1617.17 104.222 1617.17 96.1309C1617.17 95.2698 1617.17 94.3966 1617.36 93.6268ZM1629.34 116.746C1626.65 122.045 1621.29 125.701 1615.06 125.701C1612.49 125.702 1609.96 125.074 1607.68 123.871C1610.37 118.573 1615.73 114.915 1622.05 114.915C1624.59 114.939 1627.09 115.567 1629.34 116.746ZM1637 116.649C1638.89 115.65 1640.97 115.044 1643.1 114.868C1645.23 114.691 1647.37 114.948 1649.4 115.622C1651.43 116.296 1653.31 117.374 1654.91 118.792C1656.52 120.21 1657.83 121.938 1658.76 123.874C1656.48 125.066 1653.95 125.694 1651.38 125.705C1648.38 125.713 1645.44 124.867 1642.89 123.264C1640.35 121.662 1638.31 119.369 1637.01 116.649M1633.17 79.9472C1639.78 79.9472 1645.44 83.8962 1647.83 89.676C1644.66 90.2425 1641.67 91.5719 1639.11 93.5511C1636.56 95.5302 1634.52 98.1004 1633.17 101.043C1631.82 98.1002 1629.78 95.5297 1627.23 93.5505C1624.68 91.5713 1621.69 90.2421 1618.51 89.676C1619.74 86.7882 1621.78 84.3264 1624.39 82.5967C1626.99 80.867 1630.05 79.9456 1633.17 79.9472ZM1598.97 109.521C1598.97 101.237 1605.29 94.3966 1613.24 93.5303C1613.13 94.393 1613.07 95.2611 1613.05 96.1309C1613.05 98.9369 1613.63 101.713 1614.75 104.283C1615.87 106.853 1617.51 109.161 1619.56 111.063C1616.34 111.435 1613.25 112.585 1610.57 114.414C1607.88 116.243 1605.67 118.697 1604.13 121.568C1602.49 120.027 1601.19 118.162 1600.3 116.09C1599.41 114.018 1598.95 111.783 1598.96 109.526M1605.87 131.099C1605.85 129.963 1605.98 128.83 1606.25 127.727C1608.93 128.981 1611.81 129.75 1614.97 129.75C1618.36 129.78 1621.69 128.916 1624.64 127.246C1624.41 128.485 1624.28 129.742 1624.26 131.002C1624.26 136.495 1626.47 141.408 1629.91 145.068C1627.48 146.527 1624.7 147.293 1621.86 147.284C1613.05 147.188 1605.86 139.963 1605.86 131.095M1660.48 130.903C1660.48 133.721 1659.74 136.491 1658.34 138.933C1656.94 141.375 1654.92 143.405 1652.5 144.819C1650.07 146.234 1647.32 146.983 1644.52 146.992C1641.71 147.001 1638.96 146.27 1636.52 144.871C1639.97 141.222 1642.08 136.4 1642.08 131.002C1642.1 129.708 1641.98 128.415 1641.7 127.15C1644.69 128.819 1648.05 129.682 1651.46 129.654C1654.49 129.647 1657.47 128.956 1660.18 127.632C1660.28 128.788 1660.47 129.847 1660.47 130.904M1646.77 110.868C1648.8 108.973 1650.41 106.677 1651.52 104.125C1652.62 101.572 1653.19 98.8168 1653.19 96.0327C1653.17 95.163 1653.11 94.2948 1653 93.4322C1656.06 93.7677 1658.97 94.9881 1661.37 96.9464C1663.76 98.9046 1665.54 101.517 1666.49 104.469C1667.44 107.421 1667.53 110.587 1666.73 113.586C1665.93 116.584 1664.29 119.287 1662 121.368C1659.13 115.781 1653.48 111.734 1646.77 110.863" fill="white"/>
<path d="M1604.34 28.5046H1607.5C1609.61 28.5046 1610.38 29.5655 1610.38 31.2998V33.9968C1610.38 35.7311 1609.61 36.8867 1607.5 36.8867H1606.45V41.2215H1604.34V28.5046ZM1606.54 30.2389V35.2489H1607.31C1608.08 35.2489 1608.36 34.8631 1608.36 34.1897V31.2998C1608.36 30.6247 1608.08 30.2389 1607.31 30.2389H1606.54ZM1610.67 41.2215L1613.06 28.6011H1615.46L1617.86 41.2215H1615.65L1615.26 38.9086H1613.05L1612.67 41.2215H1610.67ZM1613.35 37.176H1615.06L1614.21 32.0696L1613.35 37.176ZM1621.11 35.3453V41.1251H1618.99V28.5046H1622.06C1624.17 28.5046 1624.93 29.5655 1624.93 31.2998V32.9359C1624.93 34.2861 1624.45 35.056 1623.21 35.347L1625.22 41.1268H1623.01L1621.11 35.3453ZM1621.11 30.2389V34.1897H1621.78C1622.54 34.1897 1622.83 33.8039 1622.83 33.1288V31.2998C1622.83 30.6247 1622.54 30.2389 1621.78 30.2389H1621.11ZM1625.71 28.5046H1631.36V30.2389H1629.63V41.1251H1627.52V30.2389H1625.79V28.5046H1625.71ZM1634.43 33.2253V41.2215H1632.6V28.6011H1634.71L1637.01 35.8344V28.6011H1638.74V41.2215H1636.91L1634.43 33.2253ZM1640.56 28.5046H1645.62V30.2389H1642.66V33.9004H1644.77V35.6346H1642.66V39.4873H1645.62V41.2215H1640.55L1640.56 28.5046ZM1649.09 35.3453V41.1251H1646.97V28.5046H1650.04C1652.14 28.5046 1652.91 29.5655 1652.91 31.2998V32.9359C1652.91 34.2861 1652.43 35.056 1651.19 35.347L1653.2 41.1268H1650.99L1649.09 35.3453ZM1649.09 30.2389V34.1897H1649.76C1650.52 34.1897 1650.81 33.8039 1650.81 33.1288V31.2998C1650.81 30.6247 1650.52 30.2389 1649.76 30.2389H1649.09ZM1653.97 38.4264V36.7903H1655.99V38.5228C1655.99 39.1979 1656.27 39.6801 1657.04 39.6801C1657.71 39.6801 1658 39.1979 1658 38.5228V38.0423C1658 37.2708 1657.71 36.8867 1657.04 36.2116L1655.78 34.9613C1654.54 33.8056 1654.06 33.0341 1654.06 31.5891V31.2051C1654.06 29.6551 1655.02 28.4099 1657.03 28.4099C1659.14 28.4099 1660 29.4708 1660 31.3015V32.3607H1658.09V31.3015C1658.09 30.53 1657.8 30.2406 1657.13 30.2406C1656.55 30.2406 1656.17 30.53 1656.17 31.3015V31.5891C1656.17 32.2643 1656.55 32.7465 1657.13 33.3234L1658.47 34.6719C1659.62 35.8293 1660.19 36.5991 1660.19 37.9441V38.5211C1660.19 40.2554 1659.23 41.5074 1657.13 41.5074C1654.83 41.318 1653.96 40.1606 1653.96 38.4264H1653.97ZM1665.57 35.6346H1663.55V41.2215H1661.34V28.6011H1663.45V33.9968H1665.46V28.6011H1667.57V41.2215H1665.46V35.6346H1665.57ZM1669.11 28.5046H1671.22V41.1251H1669.1L1669.11 28.5046ZM1672.56 28.5046H1675.72C1677.83 28.5046 1678.6 29.5655 1678.6 31.2998V33.9968C1678.6 35.7311 1677.83 36.8867 1675.72 36.8867H1674.76V41.2215H1672.66L1672.56 28.5046ZM1674.76 30.2389V35.2489H1675.53C1676.3 35.2489 1676.59 34.8631 1676.59 34.1897V31.2998C1676.59 30.6247 1676.3 30.2389 1675.53 30.2389H1674.76ZM1679.46 38.4264V36.7903H1681.47V38.5228C1681.47 39.1979 1681.76 39.6801 1682.53 39.6801C1683.2 39.6801 1683.49 39.1979 1683.49 38.5228V38.0423C1683.49 37.2708 1683.2 36.8867 1682.53 36.2116L1681.27 34.9613C1680.03 33.8039 1679.54 33.0324 1679.54 31.5874V31.2034C1679.54 29.6534 1680.5 28.4082 1682.51 28.4082C1684.62 28.4082 1685.48 29.4691 1685.48 31.2998V32.359H1683.57V31.2998C1683.57 30.5283 1683.28 30.2389 1682.61 30.2389C1682.04 30.2389 1681.66 30.5283 1681.66 31.2998V31.5874C1681.66 32.2625 1682.04 32.7448 1682.61 33.3217L1683.95 34.6702C1685.11 35.8275 1685.68 36.5974 1685.68 37.9424V38.5194C1685.68 40.2536 1684.72 41.5057 1682.61 41.5057C1680.31 41.318 1679.45 40.1606 1679.45 38.4264H1679.46Z" fill="white"/>
<path d="M1604.34 46.9048H1609.31V48.639H1606.44V52.2988H1608.55V54.033H1606.44V59.6199H1604.34V46.9048ZM1610.09 56.346V50.1804C1610.09 48.1568 1611.05 46.8083 1613.25 46.8083C1615.46 46.8083 1616.51 48.2533 1616.51 50.1804V56.346C1616.51 58.2731 1615.55 59.7164 1613.25 59.7164C1611.04 59.7164 1610.08 58.2731 1610.08 56.346H1610.09ZM1614.4 56.6353V49.7946C1614.4 49.0248 1614.11 48.4461 1613.35 48.4461C1612.58 48.4461 1612.29 49.0248 1612.29 49.7946V56.6353C1612.29 57.4051 1612.58 57.9838 1613.35 57.9838C1614.01 57.9838 1614.39 57.4051 1614.39 56.6353H1614.4ZM1619.96 53.7437V59.5235H1617.85V46.9048H1620.92C1623.02 46.9048 1623.79 47.9639 1623.79 49.6982V51.336C1623.79 52.6845 1623.31 53.4561 1622.07 53.7471L1624.08 59.5269H1621.87L1619.96 53.7437ZM1619.96 48.639V52.5881H1620.61C1621.38 52.5881 1621.67 52.2023 1621.67 51.5289V49.6982C1621.67 49.0248 1621.38 48.639 1620.61 48.639H1619.96ZM1627.24 46.9048H1632.89V48.639H1631.16V59.5235H1629.05V48.639H1627.33V46.9048H1627.24ZM1637.97 54.033H1635.95V59.6199H1633.84V47.0012H1635.95V52.3952H1637.96V47.0012H1640.07V59.6199H1637.96L1637.97 54.033ZM1641.51 46.9048H1646.59V48.639H1643.62V52.2988H1645.72V54.033H1643.62V57.8874H1646.59V59.6199H1641.51V46.9048ZM1653.39 52.8723H1656.36V59.6147H1654.83V58.268C1654.54 59.2307 1653.97 59.8076 1652.81 59.8076C1650.99 59.8076 1650.13 58.3627 1650.13 56.4373V50.2717C1650.13 48.2481 1651.09 46.8996 1653.29 46.8996C1655.59 46.8996 1656.36 48.2481 1656.36 50.0788V51.2344H1654.44V49.9824C1654.44 49.2108 1654.16 48.7303 1653.39 48.7303C1652.62 48.7303 1652.33 49.3073 1652.33 50.0788V56.9177C1652.33 57.6893 1652.62 58.268 1653.39 58.268C1654.06 58.268 1654.44 57.8822 1654.44 57.0142V54.8046H1653.49V52.8723H1653.39ZM1657.5 56.3408V50.1753C1657.5 48.1516 1658.46 46.8031 1660.66 46.8031C1662.87 46.8031 1663.92 48.2481 1663.92 50.1753V56.3408C1663.92 58.268 1662.96 59.7112 1660.66 59.7112C1658.56 59.7164 1657.51 58.2731 1657.51 56.346L1657.5 56.3408ZM1661.81 56.6301V49.7946C1661.81 49.0248 1661.52 48.4461 1660.76 48.4461C1659.99 48.4461 1659.71 49.0248 1659.71 49.7946V56.6353C1659.71 57.4051 1659.99 57.9838 1660.76 57.9838C1661.53 57.9838 1661.82 57.4051 1661.82 56.6353L1661.81 56.6301ZM1664.59 59.6147L1666.99 46.996H1669.39L1671.79 59.6147H1669.58L1669.2 57.3035H1666.99L1666.61 59.6147H1664.59ZM1667.18 55.5693H1668.92L1668.06 50.4646L1667.18 55.5693ZM1672.83 46.8996H1674.94V57.7858H1677.43V59.5183H1672.84L1672.83 46.8996ZM1678.21 56.8334V55.0939H1680.23V56.8334C1680.23 57.5085 1680.51 57.9907 1681.28 57.9907C1681.95 57.9907 1682.24 57.5085 1682.24 56.8334V56.3529C1682.24 55.5813 1681.95 55.1972 1681.28 54.5221L1680.03 53.2701C1678.79 52.1145 1678.31 51.3429 1678.31 49.898V49.5122C1678.31 47.9708 1679.27 46.7188 1681.28 46.7188C1683.39 46.7188 1684.25 47.7779 1684.25 49.6086V50.6678H1682.33V49.6C1682.33 48.8302 1682.04 48.5409 1681.37 48.5409C1680.79 48.5409 1680.41 48.8302 1680.41 49.6V49.8894C1680.41 50.5645 1680.79 51.045 1681.37 51.6236L1682.71 52.9721C1683.86 54.1277 1684.43 54.8993 1684.43 56.2444V56.8334C1684.43 58.5676 1683.48 59.8197 1681.37 59.8197C1679.07 59.7164 1678.21 58.5556 1678.21 56.8334Z" fill="white"/>
<g clip-path="url(#clip0_434_5)">
<path d="M185.381 0H0V185.381H185.381V0Z" fill="#7A7A7A"/>
<path d="M39.6509 59.6138H44.6288V54.5261H46.7418V50.3979H44.6288V28.4097H39.445L30.4265 51.2613V54.43H39.6509V59.6138ZM35.0422 50.3979L39.7454 37.5242V50.3979H35.0422Z" fill="white"/>
<path d="M83.2327 98.3072L55.4856 82.2734V134.12L83.2327 142.469V98.3072ZM86.2091 98.4033V142.469L114.147 134.024V82.2734L86.2091 98.4033ZM135.848 81.0187C135.848 80.1537 135.505 79.3242 134.893 78.7125C134.281 78.1009 133.452 77.7573 132.587 77.7573C131.722 77.7573 130.893 78.1009 130.281 78.7125C129.669 79.3242 129.326 80.1537 129.326 81.0187V84.5701H135.848V81.0187ZM130.184 133.154H129.326L132.587 144.579L135.848 133.154V87.0744H129.326V133.161L130.184 133.154Z" fill="white"/>
<path d="M120.103 84.5769L117.127 82.1738V135.464L86.3053 145.451H83.2327L52.5075 136.904V82.1773L49.5311 84.5803V138.924L83.0388 148.238H86.4958L117.315 138.444L120.101 137.586L120.103 84.5769Z" fill="white"/>
<path d="M59.6138 46.941H64.7118V48.6695H61.7268V52.3171H63.8381V54.0456H61.7268V57.8871H64.7118V59.6139H59.6138V46.941ZM72.2884 50.3019V56.1586C72.2884 58.0794 71.5194 59.5178 69.2158 59.5178H65.9545V46.941H69.2158C71.5194 46.941 72.2884 48.3812 72.2884 50.3019ZM68.9275 57.791C69.7857 57.791 70.1753 57.3104 70.1753 56.5431V49.9174C70.1753 49.1484 69.887 48.6695 68.9275 48.6695H68.0692V57.791H68.9275ZM79.8735 46.941V56.447C79.8735 58.366 79.0153 59.7083 76.8971 59.7083C74.688 59.7083 73.7285 58.4604 73.7285 56.447V46.941H75.8398V56.725C75.8398 57.494 76.1281 57.9746 76.8971 57.9746C77.6661 57.9746 77.9528 57.494 77.9528 56.725V46.941H79.8735ZM81.2175 56.2547V50.1097C81.2175 48.0928 82.1771 46.7488 84.3845 46.7488C86.6897 46.7488 87.3609 48.0928 87.3609 49.9174V51.4537H85.4418V49.8213C85.4418 49.0523 85.1535 48.5734 84.3845 48.5734C83.6155 48.5734 83.3288 49.1484 83.3288 49.9174V56.7336C83.3288 57.5026 83.6172 58.0794 84.3845 58.0794C85.1517 58.0794 85.4418 57.5987 85.4418 56.8297V54.5262H87.3694V56.7336C87.3694 58.5583 86.6022 59.9023 84.3931 59.9023C82.1771 59.71 81.2175 58.2699 81.2175 56.2547ZM88.1299 59.5161L90.5329 46.9393H92.936L95.3391 59.5161H93.1231L92.7386 57.2125H90.5295L90.1467 59.5161H88.1299ZM90.7218 55.5801H92.4503L91.592 50.4907L90.7218 55.5801ZM95.0422 46.9393H100.707V48.6678H98.9798V59.5161H96.8668V48.6678H95.1383V46.941L95.0422 46.9393ZM101.86 46.9393H103.971V59.5161H101.86V46.9393ZM105.411 56.253V50.108C105.411 48.0911 106.373 46.7471 108.58 46.7471C110.788 46.7471 111.841 48.1872 111.841 50.108V56.253C111.841 58.172 110.882 59.6122 108.58 59.6122C106.373 59.71 105.411 58.2699 105.411 56.2547V56.253ZM109.732 56.6444V49.8213C109.732 49.0523 109.445 48.4773 108.676 48.4773C107.907 48.4773 107.621 49.0523 107.621 49.8213V56.6444C107.621 57.4134 107.909 57.9901 108.676 57.9901C109.349 57.8871 109.732 57.4065 109.732 56.6444ZM115.014 51.6528V59.6139H113.189V47.032H115.302L117.605 54.2413V47.032H119.334V59.6139H117.509L115.014 51.6528Z" fill="white"/>
<path d="M62.0134 41.8516V40.9934C60.2866 40.705 59.6104 39.4571 59.6104 37.732V31.5835C59.6104 29.5684 60.5699 28.2227 62.779 28.2227C64.9881 28.2227 66.0403 29.6645 66.0403 31.5835V37.7286C66.0403 39.0726 65.5597 40.2244 64.5041 40.705L66.0403 40.9934V42.5382L62.0134 41.8516ZM63.9342 38.2041V31.29C63.9342 30.5228 63.6458 29.946 62.8786 29.946C62.1113 29.946 61.8229 30.5228 61.8229 31.29V38.2041C61.8229 38.9713 62.1096 39.5481 62.8786 39.5481C63.5497 39.5481 63.9342 38.9645 63.9342 38.2041ZM73.5363 28.4098V37.9157C73.5363 39.8347 72.678 41.177 70.5599 41.177C68.3507 41.177 67.3912 39.9274 67.3912 37.9157V28.4098H69.5042V38.2041C69.5042 38.9713 69.7909 39.4519 70.5599 39.4519C71.3288 39.4519 71.6155 38.9713 71.6155 38.2041V28.4098H73.5363ZM74.3945 40.9882L76.7976 28.4098H79.2007L81.6038 40.9882H79.3929L79.0084 38.683H76.801L76.4165 40.9882H74.3945ZM76.9881 37.0523H78.7166L77.8584 31.9629L76.9881 37.0523ZM82.5633 28.4098H84.6746V39.2597H87.1721V40.9882H82.5633V28.4098ZM88.2277 28.4098H90.339V40.9882H88.2277V28.4098ZM91.3964 28.4098H97.0608V30.1383H95.3306V40.9882H93.2193V30.1383H91.489L91.3964 28.4098ZM102.15 36.1872V40.9934H100.035V36.1872L97.6324 28.4098H99.8398L101.089 33.2159L102.337 28.4098H104.363L102.15 36.1872Z" fill="white"/>
</g>
<g clip-path="url(#clip1_434_5)">
<path d="M441.381 0H256.381V186H441.381V0Z" fill="#7A7A7A"/>
<path d="M301.788 52.1075V48.6389C301.788 45.6526 300.733 43.4361 298.338 42.3769C300.447 41.3177 301.405 39.487 301.405 36.9829V35.7309C301.405 30.8174 298.914 28.2168 294.027 28.2168C289.231 28.2168 286.745 30.8174 286.745 35.7309V36.9829C286.745 39.487 287.703 41.4125 289.715 42.3769C287.317 43.4361 286.266 45.6491 286.266 48.6389V52.011C286.266 56.7316 288.47 60.1055 294.027 60.1055C299.488 60.2019 301.788 56.8332 301.788 52.1109M291.632 35.3485C291.632 33.4214 292.302 32.3622 293.931 32.3622C295.656 32.3622 296.329 33.4214 296.329 35.3485V37.4669C296.329 39.394 295.659 40.4532 293.931 40.4532C292.203 40.4532 291.632 39.2976 291.632 37.4669V35.3485ZM296.518 52.6879C296.518 54.615 295.848 55.9601 293.931 55.9601C292.112 55.9601 291.44 54.6116 291.44 52.6879V47.578C291.44 45.6526 292.112 44.4005 293.931 44.4005C295.848 44.4005 296.518 45.749 296.518 47.578V52.6879Z" fill="white"/>
<path d="M378.824 91.7945L363.109 106.823C362.535 107.4 362.253 107.882 362.253 109.037V151.039C362.253 151.267 362.343 151.486 362.503 151.648C362.664 151.809 362.882 151.9 363.109 151.9H379.303C379.531 151.9 379.748 151.809 379.909 151.648C380.07 151.486 380.16 151.267 380.16 151.039V92.182C380.256 91.6034 379.872 90.7354 378.819 91.7963M333.694 111.256L317.981 126.284C317.405 126.861 317.125 127.343 317.125 128.499V150.944C317.125 151.173 317.215 151.392 317.375 151.553C317.536 151.715 317.754 151.805 317.981 151.805H334.174C334.401 151.805 334.619 151.715 334.779 151.553C334.94 151.392 335.03 151.173 335.03 150.944V111.64C335.124 111.159 334.742 110.291 333.687 111.256" fill="white"/>
<path d="M386.01 73.5889C386.024 73.453 385.99 73.3163 385.914 73.2031C385.876 73.1665 385.83 73.1389 385.781 73.1222C385.731 73.1055 385.678 73.1002 385.626 73.1067H385.434L373.457 75.8054H373.267C373.194 75.8161 373.127 75.8499 373.075 75.9018C373.03 75.9453 372.994 75.9975 372.969 76.0554C372.944 76.1133 372.932 76.1756 372.932 76.2385C372.932 76.3015 372.944 76.3638 372.969 76.4217C372.994 76.4796 373.03 76.5318 373.075 76.5752L375.946 79.4651L348.737 106.824L336.186 94.2056C336.115 94.1584 336.032 94.1332 335.947 94.1332C335.861 94.1332 335.778 94.1584 335.707 94.2056L332.265 97.6724L312.136 117.902C312.089 117.973 312.064 118.057 312.064 118.143C312.064 118.229 312.089 118.312 312.136 118.384L315.586 121.852C315.657 121.9 315.74 121.925 315.825 121.925C315.91 121.925 315.993 121.9 316.064 121.852L335.995 101.911L348.539 114.528C348.61 114.574 348.693 114.599 348.778 114.599C348.863 114.599 348.947 114.574 349.018 114.528L379.886 83.5106L382.76 86.4005C382.803 86.4461 382.855 86.4824 382.913 86.5072C382.97 86.532 383.032 86.5448 383.095 86.5448C383.158 86.5448 383.22 86.532 383.277 86.5072C383.335 86.4824 383.387 86.4461 383.43 86.4005C383.466 86.3625 383.494 86.3168 383.51 86.2667C383.527 86.2167 383.532 86.1635 383.526 86.1112L386.21 73.7818L386.01 73.5889Z" fill="white"/>
<path d="M356.403 113.953L348.833 121.659C348.762 121.708 348.679 121.733 348.593 121.733C348.508 121.733 348.424 121.708 348.354 121.659L341.455 114.626C340.21 113.374 339.922 114.435 339.922 114.915V151.137C339.922 151.365 340.013 151.584 340.173 151.746C340.334 151.907 340.552 151.998 340.779 151.998H356.973C357.2 151.998 357.418 151.907 357.579 151.746C357.739 151.584 357.83 151.365 357.83 151.137V114.338C357.83 113.663 357.446 112.797 356.392 113.953" fill="white"/>
<path d="M319.61 31.8767V37.753C319.61 39.6801 318.843 41.1251 316.544 41.1251H313.289V28.5046H316.544C318.843 28.5046 319.61 29.9496 319.61 31.8767ZM316.256 39.3908C317.113 39.3908 317.501 38.9086 317.501 38.1387V31.491C317.501 30.7211 317.214 30.2389 316.256 30.2389H315.4V39.3908H316.256ZM320.96 28.5046H326.037V30.2389H323.058V33.9003H325.167V35.6346H323.058V39.4872H326.028V41.2215H320.96V28.5046ZM327.092 37.8494V31.689C327.092 29.6671 328.05 28.3169 330.254 28.3169C332.553 28.3169 333.225 29.6671 333.225 31.4961V33.0461H331.299V31.2998C331.299 30.5282 331.011 30.046 330.246 30.046C329.48 30.046 329.191 30.6247 329.191 31.3945V38.2335C329.191 39.0033 329.478 39.582 330.246 39.582C331.013 39.582 331.299 39.0997 331.299 38.3299V36.0187H333.216V38.2335C333.216 40.0625 332.449 41.411 330.246 41.411C328.041 41.318 327.084 39.7835 327.084 37.8494H327.092ZM334.566 28.5046H339.631V30.2389H336.664V33.9003H338.775V35.6346H336.664V39.4872H339.631V41.2215H334.557L334.566 28.5046ZM342.617 33.1288V41.1251H340.784V28.5046H342.886L345.185 35.7379V28.5046H346.91V41.1251H345.095L342.617 33.1288ZM348.079 28.5046H353.732V30.2389H351.995V41.1251H349.887V30.2389H348.162V28.5046H348.079ZM361.492 33.3268L360.343 41.1302H358.32L356.589 28.5046H358.602L359.56 36.5009L360.613 28.5046H362.338L363.488 36.5009L364.445 28.5046H366.266L364.64 41.1251H362.725L361.492 33.3268ZM367.145 37.8546V31.689C367.145 29.6671 368.102 28.3169 370.307 28.3169C372.511 28.3169 373.562 29.7636 373.562 31.689V37.8546C373.562 39.7817 372.604 41.2267 370.307 41.2267C368.092 41.318 367.134 39.7835 367.134 37.8494L367.145 37.8546ZM371.35 38.2335V31.3945C371.35 30.6247 371.062 30.046 370.297 30.046C369.531 30.046 369.241 30.6247 369.241 31.3945V38.2335C369.241 39.0033 369.529 39.582 370.297 39.582C371.062 39.4872 371.35 39.005 371.35 38.2335ZM377.003 35.3436V41.1233H374.896V28.5046H377.962C380.069 28.5046 380.836 29.5655 380.836 31.2998V32.9359C380.836 34.2861 380.357 35.056 379.111 35.347L381.123 41.1268H378.92L377.003 35.3436ZM377.003 30.2372V34.1879H377.674C378.44 34.1879 378.728 33.8022 378.728 33.1271V31.2998C378.728 30.6247 378.44 30.2389 377.674 30.2389L377.003 30.2372ZM384.285 34.9612V41.1268H382.178V28.5046H384.285V34.1001L386.583 28.5115H388.692L386.201 34.1948L388.692 41.1302H386.488L384.285 34.9612ZM391.662 41.1268L394.061 28.5063H396.459L398.857 41.1268H396.645L396.262 38.8138H394.059L393.675 41.1268H391.662ZM394.345 37.0813H396.07L395.213 31.9749L394.345 37.0813ZM401.341 33.1305V41.1268H399.52V28.5046H401.628L403.927 35.7379V28.5046H405.65V41.1251H403.831L401.341 33.1305ZM413.412 31.8785V37.7547C413.412 39.6818 412.646 41.1268 410.346 41.1268H407.091V28.5046H410.346C412.646 28.5046 413.412 29.9496 413.412 31.8767V31.8785ZM410.06 39.3925C410.916 39.3925 411.305 38.9103 411.305 38.1405V31.4927C411.305 30.7228 411.017 30.2406 410.06 30.2406H409.203V39.3925H410.06Z" fill="white"/>
<path d="M313.286 47.0977H318.363V48.832H315.394V52.4917H317.501V54.2259H315.394V58.0803H318.363V59.8128H313.286V47.0977ZM319.226 56.4425V50.2769C319.226 48.2533 320.184 46.9048 322.388 46.9048C324.687 46.9048 325.359 48.2533 325.359 50.084V51.6254H323.442V49.9876C323.442 49.216 323.154 48.7355 322.388 48.7355C321.623 48.7355 321.333 49.3125 321.333 50.084V56.9229C321.333 57.6945 321.621 58.2732 322.388 58.2732C323.156 58.2732 323.442 57.7909 323.442 57.0194V54.7082H325.359V56.9229C325.359 58.7537 324.591 60.1022 322.388 60.1022C320.184 59.9093 319.226 58.4643 319.226 56.4425ZM326.508 56.4425V50.2769C326.508 48.2533 327.466 46.9048 329.67 46.9048C331.875 46.9048 332.925 48.3497 332.925 50.2769V56.4425C332.925 58.3679 331.967 59.8128 329.67 59.8128C327.562 59.9093 326.508 58.4643 326.508 56.4425ZM330.82 56.8334V49.9876C330.82 49.216 330.532 48.6391 329.766 48.6391C329 48.6391 328.713 49.216 328.713 49.9876V56.8334C328.713 57.605 328.999 58.1836 329.766 58.1836C330.532 58.0803 330.82 57.5981 330.82 56.8334ZM335.995 51.8252V59.8128H334.174V47.189H336.282L338.581 54.4223V47.189H340.306V59.8128H338.485L335.995 51.8252ZM341.551 56.4493V50.2838C341.551 48.2602 342.509 46.9117 344.713 46.9117C346.918 46.9117 347.968 48.3566 347.968 50.2838V56.4493C347.968 58.3748 347.009 59.8197 344.713 59.8197C342.509 59.9093 341.551 58.4643 341.551 56.4425V56.4493ZM345.767 56.8334V49.9876C345.767 49.216 345.479 48.6391 344.713 48.6391C343.948 48.6391 343.658 49.216 343.658 49.9876V56.8334C343.658 57.605 343.946 58.1836 344.713 58.1836C345.479 58.0803 345.767 57.5981 345.767 56.8334ZM354.966 51.5358L353.432 59.7233H352.478L350.937 51.5358V59.7233H349.224V47.0977H351.708L353.049 54.2259L354.294 47.0977H356.978V59.7164H355.062L354.966 51.5358ZM358.131 47.0977H360.238V59.7164H358.131V47.0977ZM361.386 56.4425V50.2769C361.386 48.2533 362.345 46.9048 364.548 46.9048C366.848 46.9048 367.518 48.2533 367.518 50.084V51.6254H365.601V49.9876C365.601 49.216 365.314 48.7355 364.546 48.7355C363.779 48.7355 363.493 49.3125 363.493 50.084V56.9229C363.493 57.6945 363.78 58.2732 364.546 58.2732C365.312 58.2732 365.601 57.7909 365.601 57.0194V54.7082H367.516V56.9229C367.516 58.7537 366.751 60.1022 364.546 60.1022C362.343 59.9093 361.386 58.4643 361.386 56.4425ZM374.418 52.9739H377.388V59.7164H375.855V58.3679C375.567 59.3323 374.999 59.9093 373.842 59.9093C372.022 59.9093 371.16 58.4643 371.16 56.5389V50.3733C371.16 48.3497 372.117 47.0012 374.322 47.0012C376.621 47.0012 377.388 48.3497 377.388 50.1804V51.3361H375.47V50.084C375.47 49.3125 375.182 48.832 374.416 48.832C373.651 48.832 373.363 49.4089 373.363 50.1804V57.0194C373.363 57.7909 373.649 58.3679 374.416 58.3679C375.086 58.3679 375.47 57.9838 375.47 57.1158V54.9011H374.512V52.9739H374.418ZM380.927 53.9366V59.7164H378.824V47.0977H381.89C383.997 47.0977 384.764 48.1568 384.764 49.8911V51.529C384.764 52.8775 384.285 53.649 383.039 53.9401L385.05 59.7198H382.847L380.927 53.9366ZM380.927 48.832V52.781H381.599C382.364 52.781 382.652 52.3952 382.652 51.7218V49.8911C382.652 49.216 382.364 48.832 381.599 48.832H380.927ZM385.724 56.4425V50.2769C385.724 48.2533 386.681 46.9048 388.886 46.9048C391.09 46.9048 392.14 48.3497 392.14 50.2769V56.4425C392.14 58.3679 391.181 59.8128 388.886 59.8128C386.679 59.9093 385.722 58.4643 385.722 56.4425H385.724ZM390.033 56.8334V49.9876C390.033 49.216 389.746 48.6391 388.98 48.6391C388.214 48.6391 387.926 49.216 387.926 49.9876V56.8334C387.926 57.605 388.212 58.1836 388.98 58.1836C389.746 58.0803 390.033 57.5981 390.033 56.8334ZM397.603 51.9216L396.454 59.7233H394.446L392.716 47.0977H394.729L395.686 55.094L396.741 47.0977H398.466L399.616 55.094L400.573 47.0977H402.394L400.765 59.7164H398.752L397.603 51.9216ZM403.162 47.0994H408.814V48.8337H407.089V59.7181H404.885V48.8337H403.162V47.0994ZM413.611 54.1312H411.593V59.7181H409.484V47.0977H411.593V52.4917H413.604V47.0977H415.712V59.7164H413.604L413.611 54.1312Z" fill="white"/>
</g>
<g clip-path="url(#clip2_434_5)">
<path d="M697.762 0H512.381V185.381H697.762V0Z" fill="#7A7A7A"/>
<path d="M556.152 36.1869C556.152 31.3807 554.039 27.8345 548.567 27.8345C542.998 27.8345 540.885 30.907 540.885 35.708V40.3151C540.885 45.4045 542.902 47.9964 546.647 47.9964C548.855 47.9964 550.199 46.9407 550.966 45.5006V52.2207C550.966 54.1414 550.199 55.3893 548.374 55.3893C546.455 55.3893 545.782 54.3337 545.782 52.3168V50.2055H540.976V51.8379C540.976 56.4467 542.609 59.6136 548.465 59.6136C553.937 59.6136 556.147 56.0622 556.147 51.165L556.152 36.1869ZM550.966 40.9931C550.87 42.7216 550.108 43.8734 548.47 43.8734C546.647 43.8734 545.975 42.816 545.975 40.7047V35.3235C545.975 33.3066 546.742 32.1549 548.47 32.1549C550.199 32.1549 550.873 33.3066 550.873 35.3235V40.988L550.966 40.9931ZM643.715 117.034L625.378 106.469V85.2494C625.378 84.7688 625.186 84.3912 624.707 84.1938L605.697 73.2477C605.502 73.1529 605.288 73.1036 605.072 73.1036C604.855 73.1036 604.642 73.1529 604.447 73.2477L585.437 84.1938C585.245 84.2992 585.083 84.4511 584.966 84.6357C584.849 84.8202 584.78 85.0312 584.766 85.2494V106.469L566.427 117.03C566.235 117.137 566.074 117.291 565.959 117.477C565.843 117.663 565.776 117.876 565.764 118.094V139.976C565.764 140.457 565.955 140.835 566.435 141.034L585.437 151.978C585.641 152.099 585.873 152.165 586.11 152.17C586.344 152.152 586.572 152.086 586.781 151.978L605.12 141.416L623.459 151.978C623.66 152.104 623.893 152.17 624.131 152.17C624.368 152.17 624.601 152.104 624.803 151.978L643.813 141.034C644.005 140.928 644.167 140.776 644.284 140.591C644.401 140.406 644.47 140.195 644.484 139.976V118.094C644.292 117.605 644.101 117.223 643.717 117.03L643.715 117.034ZM603.776 137.865L588.509 129.03L603.776 120.199V137.865ZM621.538 107.14L606.273 115.973V98.4029L621.538 107.14ZM603.776 115.877L588.509 107.044L603.776 98.2107V115.877ZM607.616 118.094L624.125 108.58L640.644 118.094L624.125 127.59L607.616 118.094ZM622.786 104.941L607.519 96.1079L622.786 87.2663V104.941ZM602.531 96.2041L587.265 105.037V87.4568L602.531 96.2041ZM584.862 148.809L568.347 139.305V120.295L584.862 129.799V148.809ZM587.358 148.809V131.239L602.624 140.066L587.358 148.809ZM641.805 139.305L625.29 148.809V129.799L641.805 120.295V139.305Z" fill="white"/>
<path d="M564.315 28.6018H566.331V40.3151H564.315V28.6018ZM569.122 33.0183V40.4112H567.481V28.6979H569.403L571.516 35.4197V28.6979H573.145V40.4112H571.429L569.122 33.0183ZM580.26 31.7704V37.2477C580.26 39.0724 579.491 40.4164 577.38 40.4164H574.307V28.6979H577.38C579.58 28.6018 580.253 29.9458 580.253 31.7704H580.26ZM577.187 38.7789C577.955 38.7789 578.339 38.2982 578.339 37.6271V31.4821C578.339 30.8109 578.051 30.3303 577.187 30.3303H576.329V38.875L577.187 38.7789ZM587.268 28.6018V37.4348C587.268 39.2595 586.501 40.4112 584.484 40.4112C582.371 40.4112 581.508 39.2595 581.508 37.4348V28.6018H583.525V37.6271C583.525 38.2982 583.811 38.7789 584.484 38.7789C585.157 38.7789 585.444 38.2982 585.444 37.6271V28.6018H587.268ZM588.324 37.8193V36.2745H590.138V37.9069C590.138 38.578 590.427 38.9625 591.1 38.9625C591.675 38.9625 591.958 38.578 591.958 37.9069V37.4263C591.958 36.7551 591.669 36.3706 591.1 35.7956L589.946 34.6421C588.794 33.4903 588.314 32.8175 588.314 31.4735V31.0907C588.314 29.6506 589.172 28.4971 591.1 28.4971C593.115 28.4971 593.884 29.4583 593.884 31.1868V32.1463H592.062V31.0907C592.062 30.4178 591.774 30.1295 591.103 30.1295C590.526 30.1295 590.142 30.4178 590.142 31.0907V31.3773C590.142 32.0502 590.526 32.4347 591.103 33.0097L592.351 34.2593C593.406 35.315 593.982 35.9861 593.982 37.3301V37.9069C593.982 39.5393 593.123 40.691 591.103 40.691C589.086 40.5091 588.317 39.3556 588.317 37.8193H588.324ZM594.469 28.6018H599.751V30.2342H598.12V40.3151H596.095V30.2342H594.462L594.469 28.6018ZM602.631 34.9391V40.3151H600.703V28.6018H603.584C605.6 28.6018 606.272 29.563 606.272 31.1954V32.7317C606.272 33.9795 605.793 34.7468 604.727 35.0352L606.647 40.3151H604.543L602.631 34.9391ZM602.631 30.2342V33.8834H603.302C603.975 33.8834 604.263 33.4989 604.263 32.9222V31.1954C604.263 30.5225 603.975 30.2342 603.302 30.2342H602.631ZM610.887 35.8986V40.3151H608.865V35.8986L606.656 28.6018H608.676L609.828 33.0183L610.98 28.6018H612.901L610.887 35.8986ZM615.007 38.5866L614.047 41.2746H612.896L613.184 38.4905H615.007V38.5866ZM618.175 28.6018H620.194V40.3151H618.177L618.175 28.6018ZM622.982 33.0183V40.4112H621.349V28.6979H623.267L625.378 35.4197V28.6979H627.01V40.4112H625.282L622.982 33.0183ZM629.894 33.0183V40.4112H628.262V28.6979H630.182L632.295 35.4197V28.6979H633.928V40.4112H632.192L629.894 33.0183ZM635.176 37.3387V31.6743C635.176 29.8497 636.034 28.5057 638.152 28.5057C640.27 28.5057 641.118 29.8497 641.118 31.6743V37.3387C641.118 39.1634 640.26 40.5074 638.142 40.5074C636.024 40.5074 635.172 39.1634 635.172 37.3387H635.176ZM639.208 37.6271V31.2898C639.208 30.6187 638.919 30.0419 638.152 30.0419C637.479 30.0419 637.192 30.5225 637.192 31.2898V37.6271C637.192 38.2982 637.479 38.875 638.152 38.875C638.825 38.875 639.204 38.3944 639.204 37.6271H639.208ZM648.714 28.6018L646.504 40.3151H644.388L642.181 28.6018H644.197L645.541 36.7637L646.886 28.6018H648.714ZM648.425 40.3151L650.633 28.6018H652.842L655.049 40.3151H653.031L652.646 38.2038H650.629L650.246 40.3151H648.425ZM650.828 36.6676H652.373L651.589 31.9627L650.828 36.6676ZM654.862 28.6001H660.142V30.2324H658.51V40.3134H656.488V30.2342H654.85L654.862 28.6001ZM661.101 28.6001H663.118V40.3134H661.095L661.101 28.6001ZM664.363 37.337V31.6726C664.363 29.8479 665.221 28.5039 667.339 28.5039C669.457 28.5039 670.316 29.8479 670.316 31.6726V37.337C670.316 39.1616 669.457 40.5056 667.339 40.5056C665.221 40.5056 664.359 39.1634 664.359 37.3387L664.363 37.337ZM668.299 37.6254V31.2898C668.299 30.6187 668.012 30.0419 667.243 30.0419C666.57 30.0419 666.284 30.5225 666.284 31.2898V37.6271C666.284 38.2982 666.57 38.875 667.243 38.875C668.009 38.875 668.295 38.3944 668.295 37.6271L668.299 37.6254ZM673.196 33.0166V40.4095H671.564V28.6979H673.484L675.597 35.4197V28.6979H677.23V40.4112H675.498L673.196 33.0166Z" fill="white"/>
<path d="M563.931 58.9425L566.138 47.2292H568.347L570.555 58.9425H568.54L568.155 56.8295H566.138L565.764 58.9425H563.931ZM566.427 55.1971H567.963L567.196 50.4922L566.427 55.1971ZM573.051 51.5496V58.9425H571.428V47.2292H573.348L575.461 53.9492V47.2292H577.093V58.9425H575.356L573.051 51.5496ZM584.189 50.3017V55.7739C584.189 57.5985 583.422 58.9425 581.309 58.9425H578.236V47.2292H581.309C583.422 47.2292 584.189 48.5766 584.189 50.3017ZM581.116 57.3101C581.885 57.3101 582.268 56.8295 582.268 56.1584V50.0133C582.268 49.3405 581.981 48.8616 581.116 48.8616H580.258V57.4063L581.116 57.3101ZM587.261 47.2292H589.28V58.9425H587.261V47.2292ZM592.159 51.5496V58.9425H590.526V47.2292H592.447L594.558 53.9492V47.2292H596.191V58.9425H594.462L592.159 51.5496ZM597.438 47.2292H602.047V48.8616H599.359V52.2207H601.374V53.8531H599.359V59.0472H597.348L597.438 47.2292ZM604.928 53.5648V58.9425H602.911V47.2292H605.793C607.808 47.2292 608.481 48.1887 608.481 49.8211V51.3573C608.481 52.6052 608 53.3742 606.936 53.6609L608.857 58.9425H606.752L604.928 53.5648ZM604.928 48.7586V52.4061H605.6C606.272 52.4061 606.56 52.0216 606.56 51.4466V49.725C606.56 49.0521 606.272 48.7654 605.6 48.7654L604.928 48.7586ZM609.44 58.9357L611.649 47.2223H613.857L616.066 58.9357H614.049L613.664 56.8227H611.553L611.169 58.9357H609.44ZM611.843 55.1903H613.38L612.611 50.4854L611.843 55.1903ZM616.744 56.3506V54.8058H618.569V56.4382C618.569 57.1093 618.857 57.4938 619.528 57.4938C620.105 57.4938 620.386 57.1093 620.386 56.4382V55.9575C620.386 55.2847 620.098 54.9019 619.528 54.3252L618.376 53.1734C617.225 52.0199 616.744 51.3488 616.744 50.0047V49.6203C616.744 48.1801 617.602 47.0284 619.528 47.0284C621.545 47.0284 622.312 47.9879 622.312 49.7164V50.6759H620.481V49.6203C620.481 48.9474 620.194 48.6607 619.521 48.6607C618.944 48.6607 618.562 48.9474 618.562 49.6203V49.9086C618.562 50.5798 618.944 50.9643 619.521 51.541L620.769 52.7889C621.826 53.8445 622.401 54.5174 622.401 55.8614V56.4382C622.401 58.0705 621.543 59.2223 619.521 59.2223C617.499 59.2223 616.744 57.8869 616.744 56.3506ZM622.985 47.2292H628.265V48.8616H626.633V58.9425H624.611V48.8616H622.978L622.985 47.2292ZM631.241 53.5648V58.9425H629.219V47.2292H632.1C634.117 47.2292 634.788 48.1887 634.788 49.8211V51.3573C634.788 52.6052 634.307 53.3742 633.243 53.6609L635.164 58.9425H633.059L631.241 53.5648ZM631.241 48.7586V52.4061H631.914C632.587 52.4061 632.874 52.0216 632.874 51.4466V49.725C632.874 49.0521 632.587 48.7654 631.914 48.7654L631.241 48.7586ZM641.712 47.2137V56.0468C641.712 57.8714 640.945 59.0232 638.928 59.0232C636.817 59.0232 635.951 57.8714 635.951 56.0468V47.2292H637.968V56.2545C637.968 56.9256 638.257 57.4063 638.928 57.4063C639.599 57.4063 639.887 56.9256 639.887 56.2545V47.2292L641.712 47.2137ZM642.96 55.8546V50.1901C642.96 48.3655 643.818 47.0215 645.936 47.0215C648.145 47.0215 648.722 48.2694 648.722 49.9979V51.3419H646.885V49.8056C646.885 49.0366 646.597 48.6539 645.924 48.6539C645.251 48.6539 644.965 49.1328 644.965 49.9018V56.239C644.965 56.9102 645.253 57.4869 645.924 57.4869C646.595 57.4869 646.885 57.0063 646.885 56.3352V54.1415H648.71V56.1584C648.71 57.7908 648.037 59.0386 645.924 59.0386C643.811 59.0386 642.948 57.6946 642.948 55.87L642.96 55.8546ZM649.105 47.2137H654.387V48.8461H652.754V58.9271H650.73V48.8616H649.098L649.105 47.2137ZM661.107 47.2137V56.0468C661.107 57.8714 660.339 59.0232 658.322 59.0232C656.211 59.0232 655.346 57.8714 655.346 56.0468V47.2292H657.363V56.2545C657.363 56.9256 657.651 57.4063 658.322 57.4063C658.994 57.4063 659.284 56.9256 659.284 56.2545V47.2292L661.107 47.2137ZM664.275 53.5493V58.9271H662.246V47.2292H665.127C667.144 47.2292 667.816 48.1887 667.816 49.8211V51.3573C667.816 52.6052 667.336 53.3742 666.28 53.6609L668.199 58.9425H666.088L664.275 53.5493ZM664.275 48.7431V52.3907H664.948C665.619 52.3907 665.908 52.0062 665.908 51.4312V49.725C665.908 49.0521 665.619 48.7654 664.948 48.7654L664.275 48.7431ZM669.081 47.1983H673.786V48.8307H671.081V52.1898H673V53.8222H671.081V57.3754H673.769V59.0472H669.064L669.081 47.1983Z" fill="white"/>
</g>
<g clip-path="url(#clip3_434_5)">
<path d="M1211.76 0H1026.76V185H1211.76V0Z" fill="#7A7A7A"/>
<path d="M1053.29 34.0056V39.4665L1057.03 35.6295V59.3951H1062.3V28.3511H1058.08L1053.29 34.0056ZM1065.17 34.0056V39.4665H1065.27L1068.91 35.6295V59.3951H1074.18V28.3511H1069.96L1065.17 34.0056Z" fill="white"/>
<path d="M1067.67 132.791H1090.85C1091 132.781 1091.14 132.717 1091.25 132.611C1091.35 132.505 1091.42 132.365 1091.43 132.215C1091.43 132.141 1091.41 132.068 1091.38 132.002C1091.34 131.935 1091.3 131.877 1091.24 131.831L1079.74 116.886L1079.64 116.79C1079.6 116.73 1079.54 116.682 1079.47 116.649C1079.41 116.615 1079.33 116.598 1079.26 116.598C1079.19 116.598 1079.11 116.615 1079.05 116.649C1078.98 116.682 1078.92 116.73 1078.88 116.79L1078.68 116.982L1067.38 131.736L1067.19 131.927C1067.15 131.965 1067.12 132.011 1067.11 132.06C1067.09 132.11 1067.09 132.163 1067.09 132.215C1067.1 132.364 1067.17 132.505 1067.27 132.61C1067.38 132.716 1067.52 132.78 1067.67 132.791ZM1090.76 134.898H1067.47C1067.32 134.908 1067.18 134.972 1067.08 135.077C1066.97 135.183 1066.91 135.324 1066.9 135.473V153.679C1066.91 153.828 1066.97 153.968 1067.08 154.073C1067.18 154.179 1067.33 154.242 1067.47 154.252H1074.95V142.851C1074.96 142.702 1075.02 142.561 1075.13 142.456C1075.23 142.35 1075.37 142.287 1075.52 142.277H1082.42C1082.57 142.287 1082.71 142.35 1082.82 142.456C1082.92 142.561 1082.99 142.702 1083 142.851V154.252H1090.66C1090.8 154.242 1090.95 154.179 1091.05 154.073C1091.16 153.968 1091.22 153.828 1091.23 153.679V135.473C1091.34 135.185 1091.14 134.898 1090.76 134.898ZM1171.05 130.101H1148.06C1147.91 130.111 1147.77 130.175 1147.66 130.28C1147.55 130.386 1147.49 130.526 1147.48 130.675V153.87C1147.49 154.019 1147.55 154.16 1147.66 154.265C1147.77 154.371 1147.91 154.434 1148.06 154.444H1171.05C1171.2 154.434 1171.34 154.371 1171.45 154.265C1171.55 154.16 1171.62 154.019 1171.63 153.87V130.682C1171.63 130.606 1171.62 130.53 1171.59 130.458C1171.56 130.387 1171.52 130.323 1171.46 130.269C1171.41 130.215 1171.35 130.173 1171.27 130.145C1171.2 130.117 1171.13 130.105 1171.05 130.108M1158.5 145.343C1158.49 145.492 1158.42 145.632 1158.32 145.738C1158.21 145.843 1158.07 145.907 1157.92 145.917H1151.03C1150.88 145.907 1150.74 145.844 1150.63 145.738C1150.52 145.633 1150.46 145.492 1150.45 145.343V141.126C1150.46 140.977 1150.52 140.837 1150.63 140.731C1150.74 140.626 1150.88 140.562 1151.03 140.552H1157.92C1158.07 140.562 1158.21 140.626 1158.32 140.731C1158.42 140.837 1158.49 140.977 1158.5 141.126V145.343ZM1158.5 137.582C1158.49 137.731 1158.42 137.871 1158.32 137.976C1158.21 138.082 1158.07 138.146 1157.92 138.156H1151.03C1150.88 138.146 1150.74 138.082 1150.63 137.977C1150.52 137.871 1150.46 137.731 1150.45 137.582V133.365C1150.46 133.216 1150.52 133.075 1150.63 132.97C1150.74 132.864 1150.88 132.801 1151.03 132.791H1157.92C1158.07 132.801 1158.21 132.864 1158.32 132.97C1158.42 133.075 1158.49 133.216 1158.5 133.365V137.582ZM1169.04 145.343C1169.03 145.492 1168.96 145.633 1168.86 145.738C1168.75 145.844 1168.61 145.907 1168.46 145.917H1161.57C1161.42 145.907 1161.28 145.843 1161.18 145.738C1161.07 145.632 1161.01 145.492 1161 145.343V141.126C1161.01 140.977 1161.07 140.837 1161.18 140.732C1161.28 140.626 1161.42 140.563 1161.57 140.552H1168.47C1168.62 140.562 1168.76 140.626 1168.87 140.731C1168.97 140.837 1169.04 140.977 1169.05 141.126L1169.04 145.343ZM1169.04 137.582C1169.03 137.731 1168.96 137.871 1168.86 137.977C1168.75 138.082 1168.61 138.146 1168.46 138.156H1161.57C1161.42 138.145 1161.28 138.082 1161.18 137.976C1161.07 137.871 1161.01 137.731 1161 137.582V133.365C1161.01 133.216 1161.07 133.076 1161.18 132.97C1161.28 132.865 1161.42 132.801 1161.57 132.791H1168.47C1168.62 132.801 1168.76 132.864 1168.87 132.97C1168.97 133.075 1169.04 133.216 1169.05 133.365L1169.04 137.582ZM1117.59 76.2578H1095.16C1095.02 76.2679 1094.87 76.3318 1094.77 76.4377C1094.66 76.5436 1094.6 76.6842 1094.59 76.8334V153.775C1094.6 153.923 1094.66 154.064 1094.77 154.169C1094.88 154.275 1095.02 154.338 1095.16 154.348H1117.68C1117.83 154.338 1117.97 154.275 1118.08 154.169C1118.18 154.064 1118.25 153.924 1118.26 153.775V76.8351C1118.16 76.4514 1117.97 76.2595 1117.59 76.2595M1104.27 145.533C1104.27 145.573 1104.27 145.613 1104.26 145.65C1104.24 145.688 1104.22 145.722 1104.2 145.75C1104.17 145.778 1104.13 145.799 1104.1 145.811C1104.06 145.824 1104.02 145.827 1103.98 145.821H1098.81C1098.77 145.827 1098.73 145.824 1098.69 145.811C1098.65 145.799 1098.62 145.778 1098.59 145.75C1098.56 145.722 1098.54 145.688 1098.53 145.65C1098.52 145.613 1098.51 145.573 1098.52 145.533V139.778C1098.51 139.739 1098.52 139.699 1098.53 139.661C1098.54 139.624 1098.56 139.59 1098.59 139.562C1098.62 139.534 1098.65 139.513 1098.69 139.5C1098.73 139.488 1098.77 139.484 1098.81 139.49H1103.98C1104.02 139.484 1104.06 139.488 1104.1 139.5C1104.13 139.513 1104.17 139.534 1104.2 139.562C1104.22 139.59 1104.24 139.624 1104.26 139.661C1104.27 139.699 1104.27 139.739 1104.27 139.778V145.533ZM1104.27 132.311C1104.27 132.35 1104.27 132.39 1104.26 132.428C1104.24 132.465 1104.22 132.499 1104.2 132.527C1104.17 132.555 1104.13 132.576 1104.1 132.589C1104.06 132.601 1104.02 132.605 1103.98 132.599H1098.81C1098.77 132.605 1098.73 132.601 1098.69 132.589C1098.65 132.576 1098.62 132.555 1098.59 132.527C1098.56 132.499 1098.54 132.465 1098.53 132.428C1098.52 132.39 1098.51 132.35 1098.52 132.311V126.562C1098.51 126.523 1098.52 126.483 1098.53 126.446C1098.54 126.408 1098.56 126.374 1098.59 126.346C1098.62 126.318 1098.65 126.297 1098.69 126.285C1098.73 126.272 1098.77 126.269 1098.81 126.275H1103.98C1104.02 126.269 1104.06 126.272 1104.1 126.285C1104.13 126.297 1104.17 126.318 1104.2 126.346C1104.22 126.374 1104.24 126.408 1104.26 126.446C1104.27 126.483 1104.27 126.523 1104.27 126.562V132.311ZM1104.27 119.089C1104.27 119.128 1104.27 119.168 1104.26 119.205C1104.24 119.243 1104.22 119.277 1104.2 119.305C1104.17 119.333 1104.13 119.354 1104.1 119.366C1104.06 119.379 1104.02 119.382 1103.98 119.377H1098.81C1098.77 119.382 1098.73 119.379 1098.69 119.366C1098.65 119.354 1098.62 119.333 1098.59 119.305C1098.56 119.277 1098.54 119.243 1098.53 119.205C1098.52 119.168 1098.51 119.128 1098.52 119.089V113.34C1098.51 113.301 1098.52 113.261 1098.53 113.223C1098.54 113.186 1098.56 113.152 1098.59 113.124C1098.62 113.096 1098.65 113.075 1098.69 113.062C1098.73 113.05 1098.77 113.046 1098.81 113.052H1103.98C1104.02 113.046 1104.06 113.05 1104.1 113.062C1104.13 113.075 1104.17 113.096 1104.2 113.124C1104.22 113.152 1104.24 113.186 1104.26 113.223C1104.27 113.261 1104.27 113.301 1104.27 113.34V119.089ZM1104.27 105.962C1104.27 106.001 1104.27 106.041 1104.26 106.079C1104.24 106.116 1104.22 106.151 1104.2 106.179C1104.17 106.207 1104.13 106.228 1104.1 106.24C1104.06 106.252 1104.02 106.256 1103.98 106.25H1098.81C1098.77 106.256 1098.73 106.252 1098.69 106.24C1098.65 106.228 1098.62 106.207 1098.59 106.179C1098.56 106.151 1098.54 106.116 1098.53 106.079C1098.52 106.041 1098.51 106.001 1098.52 105.962V100.208C1098.51 100.169 1098.52 100.129 1098.53 100.092C1098.54 100.054 1098.56 100.02 1098.59 99.9922C1098.62 99.9643 1098.65 99.9432 1098.69 99.9308C1098.73 99.9184 1098.77 99.9149 1098.81 99.9207H1103.98C1104.02 99.9149 1104.06 99.9184 1104.1 99.9308C1104.13 99.9432 1104.17 99.9643 1104.2 99.9922C1104.22 100.02 1104.24 100.054 1104.26 100.092C1104.27 100.129 1104.27 100.169 1104.27 100.208V105.962ZM1104.27 92.7399C1104.27 92.7791 1104.27 92.819 1104.26 92.8565C1104.24 92.8941 1104.22 92.9282 1104.2 92.9562C1104.17 92.9841 1104.13 93.0052 1104.1 93.0176C1104.06 93.03 1104.02 93.0335 1103.98 93.0277H1098.81C1098.77 93.0335 1098.73 93.03 1098.69 93.0176C1098.65 93.0052 1098.62 92.9841 1098.59 92.9562C1098.56 92.9282 1098.54 92.8941 1098.53 92.8565C1098.52 92.819 1098.51 92.7791 1098.52 92.7399V86.9912C1098.51 86.9521 1098.52 86.9122 1098.53 86.8746C1098.54 86.8371 1098.56 86.803 1098.59 86.775C1098.62 86.747 1098.65 86.726 1098.69 86.7136C1098.73 86.7012 1098.77 86.6977 1098.81 86.7035H1103.98C1104.02 86.6977 1104.06 86.7012 1104.1 86.7136C1104.13 86.726 1104.17 86.747 1104.2 86.775C1104.22 86.803 1104.24 86.8371 1104.26 86.8746C1104.27 86.9122 1104.27 86.9521 1104.27 86.9912V92.7399ZM1114.33 145.533C1114.33 145.573 1114.33 145.613 1114.32 145.65C1114.3 145.688 1114.28 145.722 1114.26 145.75C1114.23 145.778 1114.19 145.799 1114.16 145.811C1114.12 145.824 1114.08 145.827 1114.04 145.821H1108.87C1108.83 145.827 1108.79 145.824 1108.75 145.811C1108.71 145.799 1108.68 145.778 1108.65 145.75C1108.62 145.722 1108.6 145.688 1108.59 145.65C1108.58 145.613 1108.57 145.573 1108.58 145.533V139.778C1108.57 139.739 1108.58 139.699 1108.59 139.661C1108.6 139.624 1108.62 139.59 1108.65 139.562C1108.68 139.534 1108.71 139.513 1108.75 139.5C1108.79 139.488 1108.83 139.484 1108.87 139.49H1114.04C1114.08 139.484 1114.12 139.488 1114.16 139.5C1114.19 139.513 1114.23 139.534 1114.26 139.562C1114.28 139.59 1114.3 139.624 1114.32 139.661C1114.33 139.699 1114.33 139.739 1114.33 139.778V145.533ZM1114.33 132.311C1114.33 132.35 1114.33 132.39 1114.32 132.428C1114.3 132.465 1114.28 132.499 1114.26 132.527C1114.23 132.555 1114.19 132.576 1114.16 132.589C1114.12 132.601 1114.08 132.605 1114.04 132.599H1108.87C1108.83 132.605 1108.79 132.601 1108.75 132.589C1108.71 132.576 1108.68 132.555 1108.65 132.527C1108.62 132.499 1108.6 132.465 1108.59 132.428C1108.58 132.39 1108.57 132.35 1108.58 132.311V126.562C1108.57 126.523 1108.58 126.483 1108.59 126.446C1108.6 126.408 1108.62 126.374 1108.65 126.346C1108.68 126.318 1108.71 126.297 1108.75 126.285C1108.79 126.272 1108.83 126.269 1108.87 126.275H1114.04C1114.08 126.269 1114.12 126.272 1114.16 126.285C1114.19 126.297 1114.23 126.318 1114.26 126.346C1114.28 126.374 1114.3 126.408 1114.32 126.446C1114.33 126.483 1114.33 126.523 1114.33 126.562V132.311ZM1114.33 119.089C1114.33 119.128 1114.33 119.168 1114.32 119.205C1114.3 119.243 1114.28 119.277 1114.26 119.305C1114.23 119.333 1114.19 119.354 1114.16 119.366C1114.12 119.379 1114.08 119.382 1114.04 119.377H1108.87C1108.83 119.382 1108.79 119.379 1108.75 119.366C1108.71 119.354 1108.68 119.333 1108.65 119.305C1108.62 119.277 1108.6 119.243 1108.59 119.205C1108.58 119.168 1108.57 119.128 1108.58 119.089V113.34C1108.57 113.301 1108.58 113.261 1108.59 113.223C1108.6 113.186 1108.62 113.152 1108.65 113.124C1108.68 113.096 1108.71 113.075 1108.75 113.062C1108.79 113.05 1108.83 113.046 1108.87 113.052H1114.04C1114.08 113.046 1114.12 113.05 1114.16 113.062C1114.19 113.075 1114.23 113.096 1114.26 113.124C1114.28 113.152 1114.3 113.186 1114.32 113.223C1114.33 113.261 1114.33 113.301 1114.33 113.34V119.089ZM1114.33 105.962C1114.33 106.001 1114.33 106.041 1114.32 106.079C1114.3 106.116 1114.28 106.151 1114.26 106.179C1114.23 106.207 1114.19 106.228 1114.16 106.24C1114.12 106.252 1114.08 106.256 1114.04 106.25H1108.87C1108.83 106.256 1108.79 106.252 1108.75 106.24C1108.71 106.228 1108.68 106.207 1108.65 106.179C1108.62 106.151 1108.6 106.116 1108.59 106.079C1108.58 106.041 1108.57 106.001 1108.58 105.962V100.208C1108.57 100.169 1108.58 100.129 1108.59 100.092C1108.6 100.054 1108.62 100.02 1108.65 99.9922C1108.68 99.9643 1108.71 99.9432 1108.75 99.9308C1108.79 99.9184 1108.83 99.9149 1108.87 99.9207H1114.04C1114.08 99.9149 1114.12 99.9184 1114.16 99.9308C1114.19 99.9432 1114.23 99.9643 1114.26 99.9922C1114.28 100.02 1114.3 100.054 1114.32 100.092C1114.33 100.129 1114.33 100.169 1114.33 100.208V105.962ZM1114.33 92.7399C1114.33 92.7791 1114.33 92.819 1114.32 92.8565C1114.3 92.8941 1114.28 92.9282 1114.26 92.9562C1114.23 92.9841 1114.19 93.0052 1114.16 93.0176C1114.12 93.03 1114.08 93.0335 1114.04 93.0277H1108.87C1108.83 93.0335 1108.79 93.03 1108.75 93.0176C1108.71 93.0052 1108.68 92.9841 1108.65 92.9562C1108.62 92.9282 1108.6 92.8941 1108.59 92.8565C1108.58 92.819 1108.57 92.7791 1108.58 92.7399V86.9912C1108.57 86.9521 1108.58 86.9122 1108.59 86.8746C1108.6 86.8371 1108.62 86.803 1108.65 86.775C1108.68 86.747 1108.71 86.726 1108.75 86.7136C1108.79 86.7012 1108.83 86.6977 1108.87 86.7035H1114.04C1114.08 86.6977 1114.12 86.7012 1114.16 86.7136C1114.19 86.726 1114.23 86.747 1114.26 86.775C1114.28 86.803 1114.3 86.8371 1114.32 86.8746C1114.33 86.9122 1114.33 86.9521 1114.33 86.9912V92.7399ZM1171.63 127.808C1171.63 127.872 1171.62 127.936 1171.6 127.996C1171.57 128.055 1171.54 128.11 1171.49 128.155C1171.45 128.2 1171.39 128.236 1171.33 128.258C1171.27 128.281 1171.21 128.291 1171.15 128.287H1147.96C1147.9 128.291 1147.83 128.281 1147.77 128.258C1147.71 128.236 1147.66 128.2 1147.61 128.155C1147.57 128.11 1147.53 128.055 1147.51 127.996C1147.49 127.936 1147.48 127.872 1147.48 127.808V123.21C1147.48 123.146 1147.49 123.082 1147.51 123.022C1147.53 122.962 1147.57 122.908 1147.61 122.863C1147.66 122.817 1147.71 122.782 1147.77 122.759C1147.83 122.737 1147.9 122.727 1147.96 122.73H1171.15C1171.21 122.727 1171.27 122.737 1171.33 122.759C1171.39 122.782 1171.45 122.817 1171.49 122.863C1171.54 122.908 1171.57 122.962 1171.6 123.022C1171.62 123.082 1171.63 123.146 1171.63 123.21V127.808ZM1144.8 90.7272C1144.76 90.6045 1144.69 90.498 1144.58 90.4274C1144.48 90.3569 1144.35 90.327 1144.22 90.3435C1144.17 90.337 1144.11 90.3427 1144.06 90.3602C1144.01 90.3777 1143.97 90.4065 1143.93 90.4446L1143.74 90.6364L1121.61 118.708L1121.51 118.804C1121.39 118.936 1121.33 119.106 1121.32 119.284V153.775C1121.33 153.923 1121.4 154.064 1121.5 154.169C1121.61 154.275 1121.75 154.338 1121.9 154.348H1144.41C1144.56 154.338 1144.7 154.275 1144.81 154.169C1144.91 154.064 1144.98 153.924 1144.99 153.775V90.9191C1144.89 90.9191 1144.89 90.8231 1144.8 90.7272ZM1135.5 105.962L1135.69 105.77C1137.24 103.854 1139.72 100.693 1140.96 99.1601L1141.16 98.9683C1141.29 98.8483 1141.46 98.7801 1141.64 98.7764C1141.92 98.7764 1142.21 98.9683 1142.21 99.2561V106.346C1142.21 106.728 1141.92 106.92 1141.64 107.016H1136.08C1135.69 107.016 1135.5 106.728 1135.5 106.346C1135.46 106.293 1135.43 106.225 1135.43 106.154C1135.43 106.084 1135.46 106.015 1135.5 105.962ZM1131.96 145.247C1131.95 145.396 1131.88 145.536 1131.78 145.642C1131.67 145.747 1131.53 145.811 1131.38 145.821H1124.68C1124.53 145.811 1124.39 145.747 1124.28 145.642C1124.18 145.536 1124.11 145.396 1124.1 145.247V141.03C1124.11 140.883 1124.18 140.744 1124.28 140.64C1124.39 140.536 1124.53 140.473 1124.68 140.463H1131.38C1131.53 140.473 1131.67 140.537 1131.78 140.643C1131.88 140.748 1131.95 140.888 1131.96 141.037V145.247ZM1131.96 137.582C1131.95 137.731 1131.88 137.871 1131.78 137.976C1131.67 138.082 1131.53 138.145 1131.38 138.156H1124.68C1124.53 138.145 1124.39 138.082 1124.28 137.976C1124.18 137.871 1124.11 137.731 1124.1 137.582V133.365C1124.11 133.216 1124.18 133.076 1124.28 132.97C1124.39 132.865 1124.53 132.801 1124.68 132.791H1131.38C1131.53 132.801 1131.67 132.865 1131.78 132.97C1131.88 133.076 1131.95 133.216 1131.96 133.365V137.582ZM1131.96 129.82C1131.95 129.969 1131.88 130.11 1131.78 130.215C1131.67 130.321 1131.53 130.384 1131.38 130.394H1124.68C1124.53 130.384 1124.39 130.321 1124.28 130.215C1124.18 130.11 1124.11 129.969 1124.1 129.82V125.605C1124.11 125.456 1124.18 125.315 1124.28 125.21C1124.39 125.104 1124.53 125.04 1124.68 125.029H1131.38C1131.53 125.04 1131.67 125.104 1131.78 125.21C1131.88 125.315 1131.95 125.456 1131.96 125.605V129.82ZM1132.05 112.764V121.963C1132.04 122.112 1131.98 122.253 1131.87 122.358C1131.77 122.464 1131.63 122.528 1131.48 122.539H1124.77C1124.62 122.528 1124.48 122.464 1124.38 122.358C1124.27 122.253 1124.21 122.112 1124.2 121.963V120.526C1124.2 120.513 1124.2 120.501 1124.2 120.489C1124.21 120.477 1124.22 120.467 1124.22 120.458C1124.23 120.449 1124.24 120.442 1124.26 120.437C1124.27 120.432 1124.28 120.43 1124.29 120.43C1124.29 120.417 1124.3 120.405 1124.3 120.393C1124.3 120.381 1124.31 120.371 1124.32 120.362C1124.33 120.353 1124.34 120.346 1124.35 120.341C1124.36 120.336 1124.38 120.334 1124.39 120.334C1125.25 119.089 1129.08 114.298 1130.71 112.382L1130.91 112.199C1131.04 112.079 1131.21 112.011 1131.39 112.007C1131.68 112.007 1131.96 112.199 1131.96 112.487V112.773L1132.05 112.764ZM1142.31 145.247C1142.3 145.396 1142.23 145.536 1142.13 145.642C1142.02 145.748 1141.88 145.811 1141.73 145.821H1135.02C1134.87 145.811 1134.73 145.748 1134.63 145.642C1134.52 145.536 1134.46 145.396 1134.45 145.247V141.03C1134.46 140.882 1134.52 140.744 1134.63 140.64C1134.73 140.536 1134.87 140.473 1135.02 140.463H1141.73C1141.88 140.473 1142.02 140.537 1142.12 140.642C1142.23 140.748 1142.29 140.888 1142.3 141.037L1142.31 145.247ZM1142.31 137.582C1142.3 137.731 1142.23 137.871 1142.13 137.976C1142.02 138.082 1141.88 138.146 1141.73 138.156H1135.02C1134.87 138.146 1134.73 138.082 1134.63 137.976C1134.52 137.871 1134.46 137.731 1134.45 137.582V133.365C1134.46 133.216 1134.52 133.075 1134.63 132.97C1134.73 132.864 1134.87 132.801 1135.02 132.791H1141.73C1141.88 132.801 1142.02 132.864 1142.12 132.97C1142.23 133.075 1142.29 133.216 1142.3 133.365L1142.31 137.582ZM1142.31 129.82C1142.3 129.969 1142.23 130.11 1142.13 130.215C1142.02 130.321 1141.88 130.385 1141.73 130.394H1135.02C1134.87 130.385 1134.73 130.321 1134.63 130.215C1134.52 130.11 1134.46 129.969 1134.45 129.82V125.605C1134.46 125.456 1134.52 125.315 1134.63 125.209C1134.73 125.103 1134.87 125.039 1135.02 125.029H1141.73C1141.88 125.039 1142.02 125.103 1142.12 125.209C1142.23 125.315 1142.29 125.456 1142.3 125.605L1142.31 129.82ZM1142.31 122.059C1142.3 122.208 1142.23 122.349 1142.13 122.455C1142.02 122.561 1141.88 122.624 1141.73 122.635H1135.02C1134.87 122.624 1134.73 122.561 1134.63 122.455C1134.52 122.349 1134.46 122.208 1134.45 122.059V117.852C1134.46 117.703 1134.52 117.562 1134.63 117.456C1134.73 117.35 1134.87 117.286 1135.02 117.276H1141.73C1141.88 117.286 1142.02 117.35 1142.12 117.456C1142.23 117.562 1142.29 117.703 1142.3 117.852L1142.31 122.059ZM1142.31 114.298C1142.3 114.447 1142.23 114.587 1142.13 114.693C1142.02 114.799 1141.88 114.863 1141.73 114.873H1135.02C1134.87 114.863 1134.73 114.799 1134.63 114.693C1134.52 114.587 1134.46 114.447 1134.45 114.298V110.082C1134.46 109.933 1134.52 109.792 1134.63 109.686C1134.73 109.58 1134.87 109.516 1135.02 109.506H1141.73C1141.88 109.516 1142.02 109.58 1142.12 109.686C1142.23 109.792 1142.29 109.933 1142.3 110.082L1142.31 114.298Z" fill="white"/>
<path d="M1084.34 38.2194V36.4962H1086.35V38.2194C1086.35 38.8909 1086.64 39.3705 1087.4 39.3705C1088.07 39.3705 1088.36 38.8909 1088.36 38.2194V37.7415C1088.36 36.9758 1088.07 36.5921 1087.4 35.9206L1086.16 34.6753C1084.91 33.5259 1084.43 32.7585 1084.43 31.3213V30.9393C1084.43 29.3977 1085.39 28.1592 1087.4 28.1592C1089.51 28.1592 1090.37 29.2144 1090.37 31.0352V32.0887H1088.46V31.0352C1088.46 30.2678 1088.17 29.9801 1087.5 29.9801C1086.93 29.9801 1086.54 30.2678 1086.54 31.0352V31.3213C1086.54 31.9928 1086.93 32.4724 1087.5 33.0463L1088.84 34.3875C1089.99 35.5386 1090.57 36.3043 1090.57 37.6421V38.216C1090.57 39.9409 1089.61 41.1863 1087.5 41.1863C1085.39 41.1863 1084.34 39.8484 1084.34 38.2194ZM1097.46 28.351V37.8374C1097.46 39.7525 1096.61 41.0921 1094.49 41.0921C1092.29 41.0921 1091.33 39.845 1091.33 37.8374V28.351H1093.44V38.1252C1093.44 38.8909 1093.73 39.3705 1094.49 39.3705C1095.26 39.3705 1095.55 38.8909 1095.55 38.1252V28.351H1097.46ZM1098.61 38.2194V36.4962H1100.63V38.2194C1100.63 38.8909 1100.91 39.3705 1101.68 39.3705C1102.35 39.3705 1102.64 38.8909 1102.64 38.2194V37.7415C1102.64 36.9758 1102.35 36.5921 1101.68 35.9206L1100.44 34.6753C1099.19 33.5259 1098.71 32.7585 1098.71 31.3213V30.9393C1098.71 29.3977 1099.57 28.1592 1101.68 28.1592C1103.79 28.1592 1104.65 29.2144 1104.65 31.0352V32.0887H1102.73V31.0352C1102.73 30.2678 1102.45 29.9801 1101.78 29.9801C1101.2 29.9801 1100.82 30.2678 1100.82 31.0352V31.3213C1100.82 31.9928 1101.2 32.4724 1101.78 33.0463L1103.12 34.3875C1104.27 35.5386 1104.84 36.3043 1104.84 37.6421V38.216C1104.84 39.9409 1103.89 41.1863 1101.78 41.1863C1099.38 41.0955 1098.61 39.8484 1098.61 38.2194ZM1105.12 28.351H1110.78V30.076H1109.06V40.9036H1106.95V30.076H1105.23V28.351H1105.12ZM1110.39 40.9036L1112.79 28.351H1115.19L1117.59 40.9036H1115.38L1115 38.6031H1112.79L1112.41 40.9036H1110.39ZM1113.08 36.8799H1114.81L1113.95 31.8009L1113.08 36.8799ZM1118.44 28.351H1120.55V40.9036H1118.44V28.351ZM1123.52 32.9503V40.9036H1121.71V28.351H1123.81L1126.11 35.5455V28.351H1127.84V40.9036H1126.02L1123.52 32.9503ZM1128.6 40.9036L1131 28.351H1133.39L1135.79 40.9036H1133.59L1133.2 38.6031H1131L1130.62 40.9036H1128.6ZM1131.29 36.8799H1133.01L1132.16 31.8009L1131.29 36.8799ZM1136.46 28.351H1139.53C1141.64 28.351 1142.31 29.3103 1142.31 31.1312V32.3748C1142.31 33.4283 1141.92 34.0997 1141.06 34.3858C1142.11 34.6736 1142.6 35.3451 1142.6 36.4945V38.1235C1142.6 39.9427 1141.84 40.9019 1139.73 40.9019H1136.47L1136.46 28.351ZM1138.57 33.6218H1139.33C1140.01 33.6218 1140.29 33.2381 1140.29 32.5683V31.0352C1140.29 30.3638 1140.01 29.9801 1139.24 29.9801H1138.47L1138.57 33.6218ZM1138.57 35.2508V39.1787H1139.53C1140.2 39.1787 1140.58 38.795 1140.58 38.1252V36.2084C1140.58 35.5386 1140.29 35.1549 1139.53 35.1549H1138.57V35.2508ZM1143.55 28.351H1145.66V39.1787H1148.15V40.9036H1143.55V28.351ZM1149.01 28.351H1154.09V30.076H1151.12V33.7177H1153.23V35.4427H1151.12V39.2746H1154.09V40.9996H1149.01V28.351ZM1157.63 37.6456V31.5183C1157.63 29.5073 1158.59 28.1643 1160.79 28.1643C1163.09 28.1643 1163.77 29.5073 1163.77 31.3264V32.8681H1161.85V31.1312C1161.85 30.3638 1161.56 29.8841 1160.8 29.8841C1160.03 29.8841 1159.74 30.4597 1159.74 31.2254V38.0276C1159.74 38.7933 1160.03 39.3688 1160.8 39.3688C1161.57 39.3688 1161.85 38.8892 1161.85 38.1235V35.8247H1163.77V38.0276C1163.77 39.8467 1163 41.188 1160.8 41.188C1158.5 41.0955 1157.63 39.5692 1157.63 37.6456ZM1164.72 28.351H1166.83V40.9036H1164.73L1164.72 28.351ZM1167.6 28.351H1173.25V30.076H1171.53V40.9036H1169.42V30.076H1167.7V28.351H1167.6ZM1174.11 28.351H1176.21V40.9036H1174.11V28.351ZM1177.36 28.351H1182.44V30.076H1179.48V33.7177H1181.59V35.4427H1179.48V39.2746H1182.45V40.9996H1177.37L1177.36 28.351ZM1182.92 38.2194V36.4962H1184.93V38.2194C1184.93 38.8909 1185.22 39.3705 1185.98 39.3705C1186.66 39.3705 1186.94 38.8909 1186.94 38.2194V37.7415C1186.94 36.9758 1186.66 36.5921 1185.98 35.9206L1184.74 34.6753C1183.49 33.5259 1183.01 32.7585 1183.01 31.3213V30.9393C1183.01 29.3977 1183.97 28.1592 1185.98 28.1592C1188.09 28.1592 1188.95 29.2144 1188.95 31.0352V32.0887H1187.05V31.0352C1187.05 30.2678 1186.77 29.9801 1186.09 29.9801C1185.52 29.9801 1185.14 30.2678 1185.14 31.0352V31.3213C1185.14 31.9928 1185.52 32.4724 1186.09 33.0463L1187.43 34.3875C1188.58 35.5386 1189.16 36.3043 1189.16 37.6421V38.216C1189.16 39.9409 1188.2 41.1863 1186.09 41.1863C1183.98 41.1863 1182.93 39.8484 1182.93 38.2194H1182.92Z" fill="white"/>
<path d="M1084.34 59.3953L1086.74 46.8444H1089.13L1091.53 59.3953H1089.42L1089.03 57.0965H1086.83L1086.45 59.3953H1084.34ZM1087.02 55.4675H1088.74L1087.89 50.3886L1087.02 55.4675ZM1094.22 51.5397V59.4912H1092.39V46.9352H1094.49L1096.79 54.1297V46.9352H1098.52V59.4912H1096.7L1094.22 51.5397ZM1106.1 50.1984V56.0431C1106.1 57.9599 1105.33 59.3953 1103.03 59.3953H1099.78V46.8444H1103.03C1105.23 46.8444 1106.09 48.2816 1106.09 50.1984H1106.1ZM1102.74 57.6721C1103.6 57.6721 1103.99 57.1925 1103.99 56.4268V49.8147C1103.99 49.0473 1103.7 48.5694 1102.74 48.5694H1101.89V57.6721H1102.74ZM1109.16 56.139V50.0066C1109.16 47.9938 1110.11 46.6526 1112.32 46.6526C1114.62 46.6526 1115.29 47.9938 1115.29 49.8147V51.3478H1113.37V49.7188C1113.37 48.9514 1113.08 48.4735 1112.32 48.4735C1111.55 48.4735 1111.26 49.0473 1111.26 49.8147V56.6169C1111.26 57.3843 1111.55 57.9599 1112.32 57.9599C1113.08 57.9599 1113.37 57.4802 1113.37 56.7128V54.414H1115.29V56.6169C1115.29 58.4378 1114.52 59.779 1112.32 59.779C1110.01 59.5872 1109.16 58.15 1109.16 56.139ZM1116.44 56.139V50.0066C1116.44 47.9938 1117.4 46.6526 1119.6 46.6526C1121.8 46.6526 1122.85 48.0898 1122.85 50.0066V56.139C1122.85 58.0541 1121.9 59.4912 1119.6 59.4912C1117.39 59.5872 1116.44 58.15 1116.44 56.139H1116.44ZM1120.65 56.5278V49.7188C1120.65 48.9514 1120.36 48.3775 1119.6 48.3775C1118.83 48.3775 1118.54 48.9514 1118.54 49.7188V56.5278C1118.54 57.2952 1118.83 57.8708 1119.6 57.8708C1120.36 57.768 1120.65 57.2884 1120.65 56.5278ZM1129.85 51.2587L1128.32 59.4022H1127.36L1125.83 51.2587V59.4022H1124.1V46.8444H1126.59L1127.93 53.9344L1129.18 46.8444H1131.86V59.3953H1129.95L1129.85 51.2587ZM1138.76 51.2587L1137.22 59.4022H1136.26L1134.72 51.2587V59.4022H1133.01V46.8444H1135.5L1136.84 53.9344L1138.09 46.8444H1140.77V59.3953H1138.86V51.2519L1138.76 51.2587ZM1148.05 46.8513V56.3377C1148.05 58.2528 1147.2 59.5923 1145.08 59.5923C1142.88 59.5923 1141.92 58.347 1141.92 56.3377V46.8444H1144.03V56.6083C1144.03 57.3757 1144.31 57.8554 1145.08 57.8554C1145.85 57.8554 1146.14 57.3757 1146.14 56.6083V46.8444L1148.05 46.8513ZM1150.93 51.5465V59.4912H1149.11V46.9352H1151.22L1153.52 54.1297V46.9352H1155.23V59.4912H1153.42L1150.93 51.5465ZM1156.48 46.8513H1158.59V59.4022H1156.48V46.8513ZM1159.55 46.8513H1165.2V48.5762H1163.48V59.4022H1161.28V48.5762H1159.55L1159.55 46.8513ZM1166.16 46.8513H1168.27V59.4022H1166.16L1166.16 46.8513ZM1169.41 46.8513H1174.49V48.5762H1171.53V52.2163H1173.64V53.9412H1171.53V57.7749H1174.5V59.4912H1169.42L1169.41 46.8513ZM1175.36 56.7197V54.9862H1177.37V56.7111C1177.37 57.3826 1177.65 57.8622 1178.42 57.8622C1179.09 57.8622 1179.38 57.3826 1179.38 56.7111V56.2332C1179.38 55.4658 1179.09 55.0821 1178.42 54.4123L1177.18 53.167C1175.93 52.0159 1175.45 51.2502 1175.45 49.813V49.4293C1175.45 47.8962 1176.31 46.6509 1178.42 46.6509C1180.53 46.6509 1181.39 47.7044 1181.39 49.5252V50.5787H1179.48V49.5252C1179.48 48.7595 1179.19 48.4718 1178.52 48.4718C1177.95 48.4718 1177.57 48.7595 1177.57 49.5252V49.813C1177.57 50.4828 1177.95 50.9624 1178.52 51.538L1179.87 52.8792C1181.01 54.0286 1181.59 54.796 1181.59 56.1338V56.7077C1181.59 58.4326 1180.63 59.678 1178.52 59.678C1176.22 59.5872 1175.36 58.3418 1175.36 56.7128L1175.36 56.7197Z" fill="white"/>
</g>
<g clip-path="url(#clip4_434_5)">
<path d="M1468.76 1H1282.76V186H1468.76V1Z" fill="#7A7A7A"/>
<path d="M1317.82 29.351V60.491H1312.52V36.6294L1308.86 40.4664H1308.77V35.0055L1313.59 29.3527L1317.82 29.351ZM1335.16 36.1549V38.8374C1335.16 41.424 1333.71 43.1489 1331.59 43.9146C1334.19 44.4902 1335.45 46.3128 1335.45 49.1854V53.7847C1335.45 58.0962 1333.14 60.8747 1327.84 60.8747C1322.54 60.8747 1320.6 57.8085 1320.6 53.1132V48.9936H1325.43V53.401C1325.43 55.2219 1326.1 56.4672 1327.84 56.4672C1329.47 56.4672 1330.15 55.3178 1330.15 53.6888V48.5139C1330.15 46.8849 1329.38 46.0233 1327.55 46.0233H1325.33V41.9995H1327.35C1329.09 41.9995 1330.15 41.143 1330.15 39.5072V36.1549C1330.15 34.4299 1329.57 33.3765 1327.93 33.3765C1326.29 33.3765 1325.72 34.4299 1325.72 36.4427V39.6031H1320.89V36.8247C1320.89 32.2254 1322.82 29.0649 1328.22 29.0649C1333.04 29.0649 1335.15 31.7474 1335.15 36.1549M1432.65 112.998C1428.6 107.346 1410.11 84.541 1375.71 84.541C1341.32 84.541 1322.92 107.25 1318.78 112.998C1318.64 113.238 1318.48 113.462 1318.3 113.668C1318.4 113.86 1318.59 114.052 1318.78 114.34C1322.83 119.992 1341.32 142.797 1375.71 142.797C1410.01 142.797 1428.51 120.088 1432.65 114.34C1432.78 114.1 1432.94 113.875 1433.13 113.668C1432.93 113.476 1432.84 113.19 1432.65 112.998ZM1356.54 98.9127C1356.83 98.4348 1357.89 97.1895 1357.99 96.9976C1358.28 96.6139 1358.76 96.6139 1359.14 96.518C1359.53 96.4221 1360.01 96.6139 1360.01 96.9017C1360.1 97.1895 1359.91 98.243 1359.72 98.4348C1359.23 98.9127 1357.89 99.6801 1357.21 99.5842C1356.73 99.4883 1356.44 99.1046 1356.54 98.9127M1355.38 101.311C1355.48 101.215 1355.48 101.215 1355.48 101.119C1355.86 100.639 1356.73 100.543 1357.4 100.448C1357.98 100.353 1358.75 100.639 1358.85 101.023C1358.94 101.407 1357.4 102.172 1357.02 102.364C1356.16 103.132 1354.9 104.663 1354.13 104.855C1354.03 104.896 1353.93 104.909 1353.83 104.892C1353.72 104.875 1353.63 104.829 1353.55 104.759C1354.03 103.706 1354.71 102.46 1355.38 101.311ZM1368.19 127.564C1367.71 129.385 1367.23 130.054 1366.75 130.63C1366.27 131.206 1364.53 131.971 1363.48 131.875C1362.42 131.779 1362.22 128.905 1362.22 127.468C1362.22 126.988 1361.45 128.521 1361.07 125.361C1360.78 123.348 1359.53 125.553 1359.43 124.21C1359.33 122.867 1358.66 123.156 1357.99 122.295C1357.31 121.433 1356.44 122.391 1355.57 122.773C1354.61 123.156 1355 123.444 1353.74 122.964H1353.65C1352.36 120.033 1351.71 116.868 1351.72 113.67C1351.7 112.869 1351.74 112.068 1351.82 111.272C1351.82 111.222 1351.84 111.175 1351.88 111.14C1351.91 111.104 1351.96 111.083 1352.01 111.08C1353.26 109.547 1353.26 109.259 1353.26 109.259L1354.71 108.781C1356.04 109.017 1357.36 109.337 1358.66 109.739C1360.01 110.218 1362.22 111.464 1363.48 110.888C1364.44 110.504 1365.12 110.032 1365.02 109.259C1364.92 108.301 1364.16 108.11 1363.29 108.685C1362.9 108.875 1362.23 107.248 1361.65 107.342C1361.07 107.436 1362.32 109.355 1361.84 109.355C1361.36 109.451 1360.4 107.342 1360.21 107.056C1360.01 106.77 1359.34 105.905 1358.66 106.577C1357.22 107.918 1355 107.822 1354.52 108.206C1353.08 109.259 1352.79 107.822 1352.79 107.056C1352.88 106.864 1352.88 106.672 1352.98 106.481C1353.46 106.001 1355.1 105.811 1355.68 106.193C1356.26 106.575 1356.74 106.097 1357.03 105.811C1357.32 105.525 1357.22 105.139 1357.03 104.852C1356.83 104.564 1357.31 104.278 1357.7 104.182C1357.99 104.086 1359.05 103.325 1359.53 103.128C1359.92 102.841 1362.13 102.649 1363.19 103.128C1363.59 103.331 1364.04 103.394 1364.48 103.307C1364.92 103.22 1365.31 102.988 1365.6 102.649C1366.07 102.049 1366.66 101.557 1367.33 101.208C1367.72 101.016 1366.47 99.9628 1365.5 101.112C1364.54 102.357 1364.06 102.453 1363.58 102.453C1363.09 102.453 1360.4 101.784 1360.01 100.92C1359.72 100.064 1360.87 99.3786 1361.94 98.9076C1363 98.4365 1365.79 98.4297 1366.47 98.2378C1367.91 97.95 1369.74 97.1843 1370.7 97.8541C1371.67 98.4297 1366.85 99.5791 1368.39 100.441C1368.97 100.728 1371.48 99.0035 1372.34 98.5256C1374.37 97.4704 1370.32 97.0884 1370.9 94.9798C1371.48 92.5816 1365.89 93.4467 1363.19 93.7344C1367.04 91.2667 1371.53 89.9679 1376.11 89.9967C1381.47 89.9956 1386.68 91.7913 1390.89 95.0941C1395.1 98.397 1398.07 103.015 1399.32 108.202C1399.32 108.682 1399.23 109.059 1399.23 109.256C1399.03 110.112 1397.4 110.885 1396.43 109.447C1396.14 109.064 1395.18 108.106 1395.18 109.831C1395.18 111.46 1396.82 111.652 1395.28 112.61C1393.74 113.567 1393.45 113.377 1392.77 113.567C1392.1 113.855 1391.42 115.484 1391.52 116.443C1391.71 117.3 1393.83 119.795 1392.29 119.698C1391.91 119.698 1389.02 117.687 1388.53 116.443C1388.05 115.1 1387.48 113.855 1387.09 112.801C1386.71 111.844 1385.65 111.556 1384.87 112.13C1384.01 112.705 1385.07 113.281 1384.49 114.528C1383.91 115.775 1383.43 116.827 1382.56 115.869C1380.25 113.187 1376.88 114.528 1376.3 111.558C1376.01 109.929 1374.66 110.121 1373.51 109.16C1372.35 108.303 1371.68 107.722 1371.48 108.394C1371.29 108.968 1375.14 112.034 1375.43 112.801C1375.82 113.951 1374.28 115.004 1373.12 115.2C1371.96 115.487 1371.48 114.53 1370.33 113.38C1369.17 112.231 1368.69 111.368 1368.69 112.325C1368.59 113.666 1369.75 115.58 1370.91 116.255C1371.87 116.829 1372.93 117.111 1372.64 118.17C1372.35 119.129 1372.64 118.554 1371.58 119.712C1370.52 120.767 1370.33 121.149 1370.33 122.588C1370.42 124.129 1370.04 124.129 1369.75 125.366C1369.27 126.803 1368.69 125.748 1368.2 127.569M1393.92 118.082C1394.69 117.988 1395.94 119.138 1395.46 119.521C1394.98 119.905 1393.82 119.807 1393.15 119.33C1392.57 118.85 1393.54 118.082 1393.92 118.082ZM1392.86 117.31C1392.57 117.214 1392.38 116.926 1392.19 116.352C1391.99 115.779 1392.48 115.393 1392.96 115.681C1393.44 115.969 1394.11 116.638 1394.11 117.022C1394.11 117.502 1393.15 117.502 1392.86 117.31ZM1382.27 117.31C1381.78 117.694 1380.63 117.598 1379.95 117.118C1379.38 116.638 1380.34 115.873 1380.72 115.873C1381.59 115.777 1382.75 116.926 1382.27 117.31M1372.54 122.005C1372.25 122.581 1371.29 126.509 1370.71 126.029C1370.13 125.549 1371 121.43 1371.1 121.048C1372.06 119.419 1374.08 119.506 1372.54 122.005ZM1375.82 137.526C1373.54 137.504 1371.27 137.182 1369.07 136.569C1368.78 136.281 1368.59 135.897 1368.78 135.419C1369.55 133.503 1371.77 132.735 1373.5 132.545C1377.36 132.161 1382.46 135.036 1383.33 134.556C1384.1 134.078 1385.74 131.969 1388.15 132.065C1389.79 132.161 1389.79 132.449 1390.37 132.639C1386.18 135.805 1381.07 137.52 1375.81 137.523M1392.67 130.625C1392.42 130.513 1392.16 130.417 1391.9 130.337C1390.55 129.666 1390.74 130.721 1390.07 130.529C1389.39 130.337 1390.84 128.804 1388.82 130.049C1386.89 131.295 1387.37 129.857 1386.6 127.75C1385.74 125.642 1387.56 123.247 1389.1 122.672C1391.22 121.906 1392.48 121.815 1393.44 121.522C1396.33 120.852 1396.91 119.124 1397.48 120.181L1397.77 120.756C1398.03 121.231 1398.16 121.76 1398.16 122.298C1396.93 125.425 1395.06 128.263 1392.67 130.633M1399.21 118.656C1398.54 118.464 1395.84 114.824 1398.06 112.332C1398.44 111.948 1397.38 110.799 1397.67 110.703C1398.83 110.607 1399.41 111.375 1399.79 112.332V113.673C1399.7 115.344 1399.51 117.008 1399.21 118.656ZM1347.69 38.7415V32.6091C1347.69 30.598 1348.65 29.2551 1350.87 29.2551C1353.18 29.2551 1353.86 30.598 1353.86 32.4172V33.9589H1351.92V32.3298C1351.92 31.5642 1351.63 31.0845 1350.86 31.0845C1350.09 31.0845 1349.8 31.6601 1349.8 32.4258V39.228C1349.8 39.9954 1350.09 40.5709 1350.86 40.5709C1351.63 40.5709 1351.92 40.0913 1351.92 39.3239V37.0165H1353.85V39.2194C1353.85 41.0403 1353.08 42.3815 1350.86 42.3815C1348.64 42.0955 1347.69 40.6566 1347.69 38.7415ZM1355.2 29.351H1357.32V40.1786H1359.83V41.9036H1355.2L1355.2 29.351ZM1361.08 29.351H1363.19V41.9036H1361.07L1361.08 29.351ZM1370.62 33.7585L1369.07 41.9036H1368.11L1366.57 33.7585V41.9036H1364.83V29.351H1367.33L1368.68 36.4427L1369.93 29.351H1372.63V41.9036H1370.7L1370.62 33.7585ZM1373.7 41.9995L1376.11 29.4469H1378.52L1380.93 41.9995H1378.7L1378.31 39.699H1376.11L1375.72 41.9995H1373.7ZM1376.3 37.9758H1378.03L1377.17 32.8968L1376.3 37.9758ZM1380.63 29.351H1386.32V31.076H1384.58V41.9036H1382.46V31.076H1380.72L1380.63 29.351ZM1387.47 29.351H1392.58V31.076H1389.59V34.7177H1391.7V36.4427H1389.59V40.2746H1392.57V41.9995H1387.47L1387.47 29.351ZM1347.3 60.2032L1349.71 47.6523H1352.12L1354.53 60.2032H1352.41L1352.02 57.9044H1349.8L1349.41 60.2032H1347.3ZM1349.99 56.1794H1351.73L1350.87 51.1022L1349.99 56.1794ZM1355.2 56.9468V50.8144C1355.2 48.8017 1356.16 47.4605 1358.37 47.4605C1360.69 47.4605 1361.36 48.8017 1361.36 50.6226V52.1557H1359.43V50.5267C1359.43 49.761 1359.14 49.2813 1358.37 49.2813C1357.6 49.2813 1357.31 49.8552 1357.31 50.6226V57.4265C1357.31 58.1922 1357.6 58.7677 1358.37 58.7677C1359.15 58.7677 1359.43 58.2881 1359.43 57.5207V55.2219H1361.36V57.4265C1361.36 59.2456 1360.59 60.5869 1358.37 60.5869C1356.06 60.395 1355.2 58.8636 1355.2 56.9468ZM1362.13 47.6523H1367.81V49.3773H1366.08V60.2032H1363.96V49.3773H1362.23L1362.13 47.6523ZM1368.97 47.6523H1371.09V60.2032H1368.97V47.6523ZM1372.53 56.9468V50.8144C1372.53 48.8017 1373.5 47.4605 1375.71 47.4605C1377.93 47.4605 1378.99 48.8976 1378.99 50.8144V56.9468C1378.99 58.8636 1378.02 60.2991 1375.71 60.2991C1373.5 60.395 1372.53 58.8636 1372.53 56.9468ZM1376.77 57.3305V50.5267C1376.77 49.761 1376.49 49.1854 1375.71 49.1854C1374.94 49.1854 1374.65 49.761 1374.65 50.5267V57.3305C1374.65 58.0962 1374.94 58.6718 1375.71 58.6718C1376.49 58.5759 1376.77 58.0962 1376.77 57.3305ZM1382.17 52.2516V60.2032H1380.34V47.6523H1382.46L1384.77 54.8382V47.6523H1386.5V60.2032H1384.67L1382.17 52.2516Z" fill="white"/>
</g>
<defs>
<clipPath id="clip0_434_5">
<rect width="185.381" height="185.381" fill="white"/>
</clipPath>
<clipPath id="clip1_434_5">
<rect width="185" height="186" fill="white" transform="translate(256.381)"/>
</clipPath>
<clipPath id="clip2_434_5">
<rect width="185.381" height="185.381" fill="white" transform="translate(512.381)"/>
</clipPath>
<clipPath id="clip3_434_5">
<rect width="185" height="185" fill="white" transform="translate(1026.76)"/>
</clipPath>
<clipPath id="clip4_434_5">
<rect width="186" height="185" fill="white" transform="translate(1282.76 1)"/>
</clipPath>
</defs>
</svg>
