<svg width="40" height="28" viewBox="0 0 40 28" fill="none" xmlns="http://www.w3.org/2000/svg">
<path d="M38 9.5C37.6022 9.5 37.2206 9.65804 36.9393 9.93934C36.658 10.2206 36.5 10.6022 36.5 11V23C36.5 23.3978 36.342 23.7794 36.0607 24.0607C35.7794 24.342 35.3978 24.5 35 24.5H5C4.60218 24.5 4.22064 24.342 3.93934 24.0607C3.65804 23.7794 3.5 23.3978 3.5 23V11C3.5 10.6022 3.34196 10.2206 3.06066 9.93934C2.77936 9.65804 2.39782 9.5 2 9.5C1.60218 9.5 1.22064 9.65804 0.93934 9.93934C0.658035 10.2206 0.5 10.6022 0.5 11V23C0.50105 24.1931 0.975845 25.3369 1.82 26.18C2.6631 27.0242 3.80693 27.4989 5 27.5H35C36.1931 27.4989 37.3369 27.0242 38.18 26.18C39.0242 25.3369 39.499 24.1931 39.5 23V11C39.5 10.6022 39.342 10.2206 39.0607 9.93934C38.7794 9.65804 38.3978 9.5 38 9.5Z" fill="#004E67"/>
<path d="M19.1 18.2C19.3596 18.3947 19.6754 18.5 20 18.5C20.3245 18.5 20.6403 18.3947 20.9 18.2L38.615 4.91C38.8913 4.7016 39.0871 4.40405 39.1691 4.06778C39.2511 3.73152 39.2143 3.37723 39.065 3.065C38.8416 2.60348 38.5424 2.18266 38.18 1.82C37.3369 0.975845 36.193 0.50105 35 0.5H4.99996C3.80689 0.50105 2.66307 0.975845 1.81997 1.82C1.4575 2.18266 1.15836 2.60348 0.934965 3.065C0.78559 3.37723 0.748791 3.73152 0.830807 4.06778C0.912823 4.40405 1.10861 4.7016 1.38496 4.91L19.1 18.2ZM4.99996 3.5H35C35.1391 3.47809 35.2808 3.47809 35.42 3.5L20 15.125L4.57996 3.5C4.71911 3.47809 4.86082 3.47809 4.99996 3.5Z" fill="#004E67"/>
</svg>
