<svg width="18" height="12" viewBox="0 0 18 12" fill="none" xmlns="http://www.w3.org/2000/svg">
<g clip-path="url(#clip0_7_33)">
<path fill-rule="evenodd" clip-rule="evenodd" d="M0.142822 0H24.3678V0.92345H0.142822V0ZM0.142822 1.84688H24.3678V2.77033H0.142822V1.84688ZM0.142822 3.6914H24.3678V4.61718H0.142822V3.6914ZM0.142822 5.53828H24.3678V6.46172H0.142822V5.53828ZM0.142822 7.38515H24.3678V8.3086H0.142822V7.38515ZM0.142822 9.22968H24.3678V10.1531H0.142822V9.22968ZM0.142822 11.0766H24.3678V12H0.142822V11.0766Z" fill="#BD3D44"/>
<path fill-rule="evenodd" clip-rule="evenodd" d="M0.142822 0.92334H24.3678V1.84676H0.142822V0.92334ZM0.142822 2.77019H24.3678V3.69129H0.142822V2.77019ZM0.142822 4.61474H24.3678V5.53817H0.142822V4.61474ZM0.142822 6.46161H24.3678V7.38504H0.142822V6.46161ZM0.142822 8.30849H24.3678V9.23192H0.142822V8.30849ZM0.142822 10.153H24.3678V11.0765H0.142822V10.153Z" fill="white"/>
<path fill-rule="evenodd" clip-rule="evenodd" d="M0.142822 0H9.83232V6.46172H0.142822V0Z" fill="#192F5D"/>
<path fill-rule="evenodd" clip-rule="evenodd" d="M0.949694 0.276611L1.03934 0.532036H1.32324L1.09411 0.689086L1.18129 0.946886L0.949694 0.787511L0.720592 0.944536L0.807744 0.689086L0.576172 0.532036H0.865039L0.949694 0.276611ZM2.56586 0.276611L2.65301 0.532036H2.93938L2.70779 0.689086L2.79496 0.946886L2.56586 0.787511L2.33426 0.944536L2.42142 0.689086L2.19231 0.532036H2.47621L2.56586 0.276611ZM4.17953 0.276611L4.26918 0.532061H4.55059L4.32148 0.689111L4.40861 0.946911L4.17704 0.787536L3.94794 0.944561L4.03509 0.689111L3.80349 0.532061H4.08989L4.17953 0.276611ZM5.7957 0.276611L5.88283 0.532061H6.16923L5.93763 0.689111L6.02728 0.946911L5.79568 0.787536L5.5641 0.944561L5.65375 0.689111L5.42215 0.532061H5.70605L5.7957 0.276611ZM7.40938 0.276611L7.49902 0.532061H7.7829L7.5538 0.689111L7.64095 0.946911L7.40935 0.787536L7.18025 0.944561L7.26743 0.689111L7.03832 0.532061H7.3222L7.40938 0.276611ZM9.02552 0.276611L9.11267 0.532061H9.39907L9.16747 0.689111L9.25712 0.946911L9.02552 0.787536L8.79392 0.944561L8.88357 0.689111L8.652 0.532061H8.93837L9.02552 0.276611ZM1.75903 0.923436L1.84618 1.17894H2.13255L1.90095 1.33594L1.98563 1.59144L1.7615 1.43439L1.52993 1.59141L1.61208 1.33596L1.38798 1.17891H1.67188L1.75903 0.923436ZM3.3727 0.923436L3.46235 1.17894H3.74622L3.51462 1.33594L3.6043 1.59144L3.37267 1.43439L3.1411 1.59141L3.23075 1.33596L2.99915 1.17891H3.28552L3.3727 0.923436ZM4.98887 0.923436L5.07599 1.17894H5.36239L5.13079 1.33594L5.21794 1.59144L4.98884 1.43439L4.75727 1.59141L4.84442 1.33599L4.61532 1.17894H4.89922L4.98887 0.923436ZM6.60254 0.923436L6.69219 1.17894H6.97606L6.74446 1.33594L6.83411 1.59144L6.60251 1.43439L6.37341 1.59141L6.46059 1.33596L6.22899 1.17891H6.51786L6.60254 0.923436ZM8.21868 0.923436L8.30583 1.17894H8.59223L8.36063 1.33594L8.44778 1.59144L8.21868 1.43439L7.98708 1.59141L8.07426 1.33596L7.84516 1.17891H8.12903L8.21868 0.923436ZM0.949694 1.56804L1.03934 1.82819H1.32324L1.09411 1.98521L1.18129 2.24069L0.949694 2.08131L0.720592 2.24069L0.807744 1.98286L0.576172 1.82586H0.865039L0.949694 1.56804ZM2.56586 1.56804L2.65301 1.82579H2.93938L2.70779 1.98281L2.79496 2.23831L2.56586 2.07891L2.33426 2.23829L2.42142 1.98049L2.19231 1.82346H2.47621L2.56586 1.56804ZM4.17953 1.56804L4.26918 1.82584H4.55059L4.32148 1.98286L4.40861 2.23836L4.17704 2.07896L3.94794 2.23834L4.03509 1.98054L3.80349 1.82351H4.08989L4.17953 1.56804ZM5.7957 1.56804L5.88283 1.82584H6.16923L5.93763 1.98286L6.02728 2.23836L5.79568 2.07896L5.5641 2.23834L5.65375 1.98054L5.42215 1.82351H5.70605L5.7957 1.56804ZM7.40938 1.56804L7.49902 1.82584H7.7829L7.5538 1.98284L7.64095 2.23834L7.40935 2.07894L7.18025 2.23831L7.26743 1.98051L7.03832 1.82349H7.3222L7.40938 1.56804ZM9.02552 1.56804L9.11267 1.82584H9.39907L9.16747 1.98286L9.25712 2.23836L9.02552 2.07896L8.79392 2.23834L8.88357 1.98054L8.652 1.82351H8.93837L9.02552 1.56804ZM1.75903 2.21489L1.84618 2.47036H2.13255L1.90095 2.62736L1.98813 2.88519L1.75903 2.72581L1.52743 2.88284L1.61458 2.62739L1.38548 2.47036H1.6694L1.75903 2.21489ZM3.3727 2.21489L3.46235 2.47036H3.74622L3.51462 2.62736L3.6043 2.88519L3.37267 2.72581L3.1411 2.88284L3.23075 2.62739L2.99915 2.47036H3.28552L3.3727 2.21489ZM4.98887 2.21489L5.07599 2.47036H5.36239L5.13079 2.62736L5.21794 2.88519L4.98884 2.72581L4.75727 2.88284L4.84442 2.62739L4.61532 2.47036H4.89922L4.98887 2.21489ZM6.60254 2.21489L6.69219 2.47036H6.97606L6.74696 2.62736L6.83411 2.88519L6.60251 2.72581L6.37341 2.88284L6.46059 2.62739L6.22899 2.47036H6.51786L6.60254 2.21489ZM8.21868 2.21489L8.30583 2.47036H8.59223L8.36063 2.62736L8.44778 2.88519L8.21868 2.72581L7.98708 2.88284L8.07426 2.62739L7.84516 2.47036H8.12903L8.21868 2.21489ZM0.949694 2.86176L1.03934 3.11724H1.32324L1.09411 3.27424L1.18129 3.53206L0.949694 3.37269L0.720592 3.52971L0.807744 3.27426L0.576172 3.11724H0.865039L0.949694 2.86176ZM2.56586 2.86176L2.65301 3.11724H2.93938L2.70779 3.27424L2.79496 3.52974L2.56586 3.37269L2.33426 3.52971L2.42142 3.27426L2.19231 3.11724H2.47621L2.56586 2.86176ZM4.17953 2.86176L4.26918 3.11724H4.55059L4.32148 3.27424L4.40861 3.53206L4.17704 3.37269L3.94794 3.52971L4.03509 3.27426L3.80349 3.11724H4.08989L4.17953 2.86176ZM5.7957 2.86176L5.88283 3.11724H6.16923L5.93763 3.27424L6.02728 3.53206L5.79568 3.37269L5.5641 3.52971L5.65375 3.27426L5.42215 3.11724H5.70605L5.7957 2.86176ZM7.40938 2.86176L7.49902 3.11724H7.7829L7.5538 3.27424L7.64095 3.53206L7.40935 3.37269L7.18025 3.52971L7.26743 3.27426L7.03832 3.11724H7.3222L7.40938 2.86176ZM9.02552 2.86176L9.11267 3.11724H9.39907L9.16747 3.27424L9.25712 3.53206L9.02552 3.37269L8.79392 3.52971L8.88357 3.27426L8.652 3.11724H8.93837L9.02552 2.86176ZM1.75903 3.50864L1.84618 3.76411H2.13255L1.90095 3.92111L1.98813 4.17661L1.75903 4.01724L1.52743 4.17661L1.61458 3.91879L1.38548 3.76176H1.6694L1.75903 3.50864ZM3.3727 3.50864L3.46235 3.76411H3.74622L3.51462 3.92111L3.6043 4.17661L3.37267 4.01724L3.1411 4.17661L3.23075 3.91879L2.99915 3.76176H3.28552L3.3727 3.50864ZM4.98887 3.50864L5.07599 3.76411H5.36239L5.13079 3.92111L5.21794 4.17661L4.98884 4.01724L4.75727 4.17661L4.84442 3.91879L4.61532 3.76176H4.89922L4.98887 3.50864ZM6.60254 3.50864L6.69219 3.76411H6.97606L6.74696 3.92111L6.83411 4.17661L6.60251 4.01724L6.37341 4.17661L6.46059 3.91879L6.22899 3.76176H6.51786L6.60254 3.50864ZM8.21868 3.50864L8.30583 3.76411H8.59223L8.36063 3.92111L8.44778 4.17661L8.21868 4.01724L7.98708 4.17661L8.07426 3.91879L7.84516 3.76176H8.12903L8.21868 3.50864ZM0.949694 4.15316L1.03934 4.41099H1.32324L1.09411 4.56799L1.18129 4.82114L0.949694 4.66411L0.720592 4.82111L0.807744 4.56566L0.576172 4.40864H0.865039L0.949694 4.15316ZM2.56586 4.15316L2.65301 4.41099H2.93938L2.70779 4.56799L2.79746 4.82114L2.56584 4.66411L2.33426 4.82111L2.42391 4.56566L2.19231 4.40864H2.47621L2.56586 4.15316ZM4.17953 4.15316L4.26918 4.41099H4.55059L4.32148 4.56799L4.40861 4.82114L4.17704 4.66411L3.94794 4.82111L4.03509 4.56566L3.80349 4.40864H4.08989L4.17953 4.15316ZM5.7957 4.15316L5.88283 4.41099H6.16923L5.93763 4.56799L6.02728 4.82114L5.79568 4.66411L5.5641 4.82111L5.65375 4.56566L5.42215 4.40864H5.70605L5.7957 4.15316ZM7.40938 4.15316L7.49902 4.41099H7.7829L7.5538 4.56799L7.64095 4.82114L7.40935 4.66411L7.18025 4.82111L7.26743 4.56566L7.03832 4.40864H7.3222L7.40938 4.15316ZM9.02552 4.15316L9.11267 4.41099H9.39907L9.16747 4.56799L9.25712 4.82114L9.02552 4.66411L8.79392 4.82111L8.88357 4.56566L8.652 4.40864H8.93837L9.02552 4.15316ZM1.75903 4.80004L1.84618 5.05551H2.13255L1.90095 5.21254L1.98813 5.47036L1.75903 5.31099L1.52743 5.46799L1.61458 5.21254L1.38548 5.05551H1.6694L1.75903 4.80004ZM3.3727 4.80004L3.46235 5.05551H3.74622L3.51462 5.21254L3.6043 5.47036L3.37267 5.31099L3.1411 5.46799L3.23075 5.21254L2.99915 5.05551H3.28552L3.3727 4.80004ZM4.98887 4.80004L5.07599 5.05551H5.36239L5.13079 5.21254L5.21794 5.47036L4.98884 5.31099L4.75727 5.46799L4.84442 5.21254L4.61532 5.05551H4.89922L4.98887 4.80004ZM6.60254 4.80004L6.69219 5.05551H6.97606L6.74696 5.21254L6.83411 5.47036L6.60251 5.31099L6.37341 5.46799L6.46059 5.21254L6.22899 5.05551H6.51786L6.60254 4.80004ZM8.21868 4.80004L8.30583 5.05551H8.59223L8.36063 5.21254L8.44778 5.47036L8.21868 5.31099L7.98708 5.46799L8.07426 5.21254L7.84516 5.05551H8.12903L8.21868 4.80004ZM0.949694 5.44691L1.03934 5.70239H1.32324L1.09411 5.85941L1.18129 6.11489L0.949694 5.95786L0.720592 6.11486L0.807744 5.85706L0.576172 5.70004H0.865039L0.949694 5.44691ZM2.56586 5.44691L2.65301 5.70239H2.93938L2.70779 5.85941L2.79746 6.11489L2.56584 5.95786L2.33426 6.11486L2.42391 5.85706L2.19231 5.70004H2.47621L2.56586 5.44691ZM4.17953 5.44691L4.26918 5.70239H4.55059L4.32645 5.85941L4.4136 6.11489L4.182 5.95786L3.9529 6.11486L4.04008 5.85706L3.80848 5.70004H4.09485L4.17953 5.44691ZM5.7957 5.44691L5.88283 5.70239H6.16923L5.93763 5.85941L6.02728 6.11489L5.79568 5.95786L5.5641 6.11486L5.65375 5.85706L5.42215 5.70004H5.70605L5.7957 5.44691ZM7.40938 5.44691L7.49902 5.70239H7.7829L7.5538 5.85941L7.64095 6.11489L7.40935 5.95786L7.18025 6.11486L7.26743 5.85706L7.03832 5.70004H7.3222L7.40938 5.44691ZM9.02552 5.44691L9.11267 5.70239H9.39907L9.16747 5.85941L9.25712 6.11489L9.02552 5.95786L8.79392 6.11486L8.88357 5.85706L8.652 5.70004H8.93837L9.02552 5.44691Z" fill="white"/>
</g>
<defs>
<clipPath id="clip0_7_33">
<rect width="17" height="12" fill="white" transform="translate(0.142822)"/>
</clipPath>
</defs>
</svg>
