<svg width="21" height="21" viewBox="0 0 21 21" fill="none" xmlns="http://www.w3.org/2000/svg">
<path d="M15.3415 0H4.69638C2.10264 0 0 2.10264 0 4.69638V15.3415C0 17.9353 2.10264 20.0379 4.69638 20.0379H15.3415C17.9353 20.0379 20.0379 17.9353 20.0379 15.3415V4.69638C20.0379 2.10264 17.9353 0 15.3415 0Z" fill="url(#paint0_radial_34_179)"/>
<path d="M15.3415 0H4.69638C2.10264 0 0 2.10264 0 4.69638V15.3415C0 17.9353 2.10264 20.0379 4.69638 20.0379H15.3415C17.9353 20.0379 20.0379 17.9353 20.0379 15.3415V4.69638C20.0379 2.10264 17.9353 0 15.3415 0Z" fill="url(#paint1_radial_34_179)"/>
<path d="M10.0198 2.19141C7.89404 2.19141 7.62721 2.20072 6.79235 2.23868C5.95906 2.27688 5.39025 2.40877 4.89259 2.60234C4.3777 2.80225 3.94102 3.06971 3.50598 3.50491C3.07054 3.94003 2.80309 4.37671 2.60255 4.89136C2.40843 5.38917 2.27639 5.95822 2.23889 6.79112C2.20156 7.62606 2.19177 7.89297 2.19177 10.0188C2.19177 12.1446 2.20117 12.4106 2.23905 13.2454C2.2774 14.0787 2.40929 14.6476 2.60271 15.1452C2.80277 15.6601 3.07023 16.0968 3.50543 16.5318C3.94039 16.9673 4.37708 17.2353 4.89157 17.4352C5.38962 17.6288 5.95851 17.7607 6.79165 17.7989C7.62659 17.8369 7.89318 17.8462 10.0188 17.8462C12.1448 17.8462 12.4108 17.8369 13.2457 17.7989C14.0789 17.7607 14.6484 17.6288 15.1464 17.4352C15.6611 17.2353 16.0971 16.9673 16.532 16.5318C16.9675 16.0968 17.2348 15.6601 17.4355 15.1454C17.6278 14.6476 17.76 14.0786 17.7991 13.2456C17.8366 12.4107 17.8464 12.1446 17.8464 10.0188C17.8464 7.89297 17.8366 7.62622 17.7991 6.79128C17.76 5.95799 17.6278 5.38925 17.4355 4.89159C17.2348 4.37671 16.9675 3.94003 16.532 3.50491C16.0967 3.06955 15.6612 2.80209 15.146 2.60242C14.647 2.40877 14.0779 2.2768 13.2446 2.23868C12.4096 2.20072 12.1438 2.19141 10.0174 2.19141H10.0198ZM9.3176 3.60197C9.52604 3.60165 9.75859 3.60197 10.0198 3.60197C12.1098 3.60197 12.3574 3.60948 13.1827 3.64697C13.9459 3.68188 14.3601 3.80939 14.636 3.91655C15.0013 4.05838 15.2617 4.22799 15.5355 4.50203C15.8095 4.77598 15.979 5.03687 16.1212 5.40217C16.2284 5.67769 16.3561 6.09191 16.3908 6.85507C16.4283 7.68023 16.4365 7.92804 16.4365 10.017C16.4365 12.1059 16.4283 12.3538 16.3908 13.1789C16.3559 13.9421 16.2284 14.3563 16.1212 14.6319C15.9794 14.9972 15.8095 15.2573 15.5355 15.5311C15.2616 15.8051 15.0015 15.9746 14.636 16.1165C14.3604 16.2241 13.9459 16.3513 13.1827 16.3862C12.3576 16.4237 12.1098 16.4319 10.0198 16.4319C7.92974 16.4319 7.682 16.4237 6.85693 16.3862C6.09376 16.351 5.67954 16.2235 5.40339 16.1163C5.03817 15.9744 4.77721 15.8049 4.50325 15.5309C4.2293 15.257 4.05976 14.9967 3.91754 14.6313C3.81038 14.3557 3.68272 13.9414 3.64796 13.1783C3.61047 12.3531 3.60296 12.1053 3.60296 10.015C3.60296 7.92483 3.61047 7.67827 3.64796 6.85312C3.68287 6.08995 3.81038 5.67573 3.91754 5.39982C4.05945 5.03452 4.2293 4.77364 4.50333 4.49968C4.77729 4.22572 5.03817 4.05611 5.40347 3.91396C5.67939 3.80634 6.09376 3.67914 6.85693 3.64408C7.57899 3.61144 7.85882 3.60165 9.3176 3.60001V3.60197ZM14.198 4.90161C13.6794 4.90161 13.2587 5.32194 13.2587 5.84058C13.2587 6.35914 13.6794 6.77985 14.198 6.77985C14.7166 6.77985 15.1373 6.35914 15.1373 5.84058C15.1373 5.32202 14.7166 4.9013 14.198 4.9013V4.90161ZM10.0198 5.99908C7.79996 5.99908 6.00015 7.79889 6.00015 10.0188C6.00015 12.2387 7.79996 14.0376 10.0198 14.0376C12.2397 14.0376 14.0389 12.2387 14.0389 10.0188C14.0389 7.79897 12.2395 5.99908 10.0196 5.99908H10.0198ZM10.0198 7.40964C11.4607 7.40964 12.6289 8.57771 12.6289 10.0188C12.6289 11.4597 11.4607 12.6279 10.0198 12.6279C8.57878 12.6279 7.41071 11.4597 7.41071 10.0188C7.41071 8.57771 8.57878 7.40964 10.0198 7.40964Z" fill="white"/>
<defs>
<radialGradient id="paint0_radial_34_179" cx="0" cy="0" r="1" gradientUnits="userSpaceOnUse" gradientTransform="translate(5.32257 21.5812) rotate(-90) scale(19.8591 18.4705)">
<stop stop-color="#FFDD55"/>
<stop offset="0.1" stop-color="#FFDD55"/>
<stop offset="0.5" stop-color="#FF543E"/>
<stop offset="1" stop-color="#C837AB"/>
</radialGradient>
<radialGradient id="paint1_radial_34_179" cx="0" cy="0" r="1" gradientUnits="userSpaceOnUse" gradientTransform="translate(-3.35643 1.44343) rotate(78.681) scale(8.87711 36.5917)">
<stop stop-color="#3771C8"/>
<stop offset="0.128" stop-color="#3771C8"/>
<stop offset="1" stop-color="#6600FF" stop-opacity="0"/>
</radialGradient>
</defs>
</svg>
