<svg width="1557" height="501" viewBox="0 0 1557 501" fill="none" xmlns="http://www.w3.org/2000/svg">
<path d="M428.76 396.33C428.759 388.448 427.169 380.644 424.081 373.373C420.992 366.101 416.468 359.507 410.771 353.974C405.15 348.387 398.449 343.967 391.065 340.975C383.682 337.982 375.764 336.478 367.78 336.551C351.69 336.603 336.26 342.856 324.79 353.974C320.814 358.115 316.047 361.441 310.762 363.761C305.477 366.081 299.779 367.349 293.995 367.492C267.164 367.492 245.516 341.657 245.516 309.515V69.1956C245.516 53.2615 239.092 37.98 227.656 26.7128C216.22 15.4457 200.71 9.11587 184.537 9.11587C168.364 9.11587 152.854 15.4457 141.418 26.7128C129.982 37.98 123.558 53.2615 123.558 69.1956V134.382H75.384C67.0339 133.799 58.6515 134.917 50.7588 137.664C42.866 140.412 35.632 144.731 29.5073 150.354C23.3825 155.976 18.4982 162.78 15.1586 170.342C11.8189 177.905 10.0954 186.064 10.0954 194.312C10.0954 202.559 11.8189 210.718 15.1586 218.281C18.4982 225.844 23.3825 232.648 29.5073 238.27C35.632 243.892 42.866 248.211 50.7588 250.959C58.6515 253.707 67.0339 254.824 75.384 254.241H123.558V309.515C123.558 407.745 200.087 487.351 293.995 487.351C315.815 487.319 337.409 482.998 357.513 474.642C377.616 466.286 395.826 454.062 411.076 438.686C422.36 427.385 428.707 412.183 428.76 396.33ZM437.602 396.33C437.58 414.572 430.237 432.066 417.174 444.995C401.119 461.148 381.956 473.984 360.805 482.753C339.655 491.522 316.942 496.046 293.995 496.062C195.208 496.062 114.716 412.551 114.716 309.515V262.953H75.384C65.8473 263.575 56.2826 262.261 47.2822 259.093C38.2818 255.925 30.0374 250.97 23.0596 244.535C16.0818 238.1 10.5192 230.323 6.71629 221.684C2.91339 213.045 0.951172 203.728 0.951172 194.312C0.951172 184.895 2.91339 175.579 6.71629 166.94C10.5192 158.301 16.0818 150.523 23.0596 144.088C30.0374 137.653 38.2818 132.699 47.2822 129.53C56.2826 126.362 65.8473 125.049 75.384 125.671H114.716V69.1956C114.716 50.951 122.072 33.4537 135.166 20.5528C148.26 7.65195 166.019 0.404297 184.537 0.404297C203.055 0.404297 220.814 7.65195 233.908 20.5528C247.002 33.4537 254.359 50.951 254.359 69.1956V309.515C254.359 336.851 272.043 358.78 293.995 358.78C298.584 358.654 303.103 357.633 307.289 355.777C311.476 353.921 315.247 351.266 318.387 347.966C331.509 335.095 349.265 327.86 367.78 327.839C376.946 327.759 386.037 329.474 394.524 332.884C403.012 336.294 410.728 341.332 417.223 347.704C423.719 354.075 428.865 361.655 432.364 370.003C435.862 378.35 437.642 387.299 437.602 396.33V396.33ZM228.747 194.462V69.1956C228.747 57.6434 224.089 46.5643 215.798 38.3956C207.507 30.2269 196.262 25.6378 184.537 25.6378C172.812 25.6378 161.567 30.2269 153.276 38.3956C144.985 46.5643 140.327 57.6434 140.327 69.1956V150.604H75.384C64.2533 151.514 53.8766 156.513 46.3125 164.609C38.7485 172.706 34.55 183.308 34.55 194.312C34.55 205.316 38.7485 215.918 46.3125 224.014C53.8766 232.111 64.2533 237.11 75.384 238.02H184.537C196.262 238.02 207.507 233.431 215.798 225.262C224.089 217.093 228.747 206.014 228.747 194.462V194.462ZM411.99 396.33C412.133 402.078 411.069 407.793 408.866 413.118C406.662 418.442 403.366 423.26 399.185 427.271C385.468 441.074 369.108 452.059 351.051 459.587C332.995 467.116 313.602 471.039 293.995 471.129C209.234 471.129 140.327 398.733 140.327 309.515V297.499C140.327 285.946 144.985 274.867 153.276 266.699C161.567 258.53 172.812 253.941 184.537 253.941C196.262 253.941 207.507 258.53 215.798 266.699C224.089 274.867 228.747 285.946 228.747 297.499V309.515C228.747 350.669 258.017 383.713 293.995 383.713C301.925 383.661 309.763 382.039 317.044 378.943C324.324 375.846 330.899 371.339 336.376 365.689C340.474 361.585 345.363 358.329 350.756 356.111C356.149 353.893 361.937 352.758 367.78 352.772V352.772C373.609 352.691 379.394 353.763 384.795 355.923C390.196 358.083 395.103 361.289 399.224 365.35C403.346 369.411 406.599 374.245 408.792 379.566C410.985 384.887 412.072 390.587 411.99 396.33" fill="#3989C7"/>
<g clip-path="url(#clip0_6634_17411)">
<path d="M354.892 132.399C340.897 132.338 327.2 136.388 315.538 144.032C303.876 151.677 294.776 162.572 289.392 175.336C284.009 188.1 282.584 202.156 285.299 215.721C288.014 229.286 294.747 241.748 304.643 251.526C314.539 261.303 327.152 267.956 340.881 270.639C354.61 273.322 368.836 271.914 381.754 266.595C394.672 261.275 405.699 252.284 413.436 240.761C421.173 229.239 425.271 215.705 425.21 201.877C425.21 183.45 417.802 165.778 404.614 152.748C391.427 139.719 373.541 132.399 354.892 132.399ZM354.583 260.081C342.994 260.081 331.664 256.685 322.028 250.323C312.391 243.961 304.88 234.919 300.445 224.339C296.01 213.759 294.849 202.118 297.111 190.887C299.372 179.655 304.953 169.339 313.148 161.241C321.343 153.144 331.784 147.63 343.151 145.396C354.518 143.162 366.301 144.308 377.008 148.69C387.716 153.073 396.867 160.494 403.306 170.015C409.745 179.537 413.182 190.731 413.182 202.182C413.182 217.538 407.008 232.265 396.019 243.123C385.029 253.981 370.125 260.081 354.583 260.081V260.081Z" fill="#FC4F00"/>
<path d="M354.889 246.681C379.758 246.681 399.917 226.762 399.917 202.19C399.917 177.618 379.758 157.699 354.889 157.699C330.021 157.699 309.861 177.618 309.861 202.19C309.861 226.762 330.021 246.681 354.889 246.681Z" fill="#FC4F00"/>
<mask id="mask0_6634_17411" style="mask-type:alpha" maskUnits="userSpaceOnUse" x="309" y="157" width="91" height="90">
<path d="M354.889 246.681C379.758 246.681 399.917 226.762 399.917 202.19C399.917 177.618 379.758 157.699 354.889 157.699C330.021 157.699 309.861 177.618 309.861 202.19C309.861 226.762 330.021 246.681 354.889 246.681Z" fill="#D15634"/>
</mask>
<g mask="url(#mask0_6634_17411)">
<path d="M399.919 202.199C399.919 177.628 379.759 157.708 354.89 157.708C341.152 157.708 323.762 150.971 312.396 184.604C337.402 162.143 399.919 180.111 378.322 240.757C396.508 227.28 399.919 212.329 399.919 202.199Z" fill="#FC4F00"/>
</g>
</g>
<path d="M901.359 314.003C859.183 314.003 838.095 290.367 838.095 243.7C838.095 220.973 843.819 203.095 855.267 189.458C866.715 175.822 882.681 169.155 903.167 169.155C918.229 169.155 930.279 173.398 939.618 182.186V303.094C929.677 310.367 917.024 314.003 901.359 314.003V314.003ZM965.827 116.125C962.391 116.098 958.985 116.783 955.823 118.139C952.661 119.494 949.811 121.491 947.451 124.004C943.979 127.249 941.564 131.474 940.522 136.125C927.02 128.412 911.765 124.341 896.238 124.307C863.401 124.307 836.288 135.216 815.2 156.731C794.112 178.246 783.568 207.337 783.568 243.7C783.568 280.064 792.907 308.246 811.284 328.245C829.66 348.245 855.267 358.245 887.803 358.245C909.794 358.245 927.267 354.912 939.618 347.942V409.457C939.585 412.96 940.263 416.433 941.61 419.663C942.956 422.893 944.944 425.814 947.451 428.245C949.826 430.718 952.686 432.668 955.849 433.972C959.012 435.276 962.41 435.906 965.827 435.821C969.29 435.911 972.735 435.285 975.948 433.982C979.161 432.679 982.073 430.726 984.505 428.245C989.347 423.205 992.049 416.466 992.037 409.457V142.489C992.037 135.497 989.275 128.791 984.36 123.847C979.445 118.903 972.779 116.125 965.827 116.125" fill="#061F6F"/>
<path d="M1243.9 124.314C1231.85 124.471 1219.93 126.727 1208.65 130.981C1198.26 134.719 1188.87 140.84 1181.24 148.859C1166.17 132.496 1143.88 124.314 1114.06 124.314C1095.47 123.815 1077.38 130.42 1063.45 142.799V142.799C1063.53 139.361 1062.9 135.943 1061.61 132.762C1060.31 129.58 1058.37 126.703 1055.91 124.314C1053.5 121.792 1050.59 119.793 1047.38 118.438C1044.17 117.083 1040.72 116.402 1037.24 116.435C1033.8 116.408 1030.39 117.093 1027.23 118.448C1024.07 119.804 1021.22 121.801 1018.86 124.314C1016.4 126.703 1014.46 129.58 1013.17 132.762C1011.87 135.943 1011.24 139.361 1011.33 142.799V331.889C1011.24 335.372 1011.86 338.837 1013.16 342.069C1014.45 345.3 1016.39 348.23 1018.86 350.676C1021.24 353.149 1024.1 355.1 1027.26 356.404C1030.42 357.708 1033.82 358.337 1037.24 358.252C1040.7 358.335 1044.15 357.71 1047.36 356.414C1050.58 355.119 1053.5 353.18 1055.95 350.715C1058.4 348.25 1060.33 345.311 1061.62 342.075C1062.91 338.839 1063.53 335.373 1063.45 331.889V191.889C1067.76 185.3 1073.54 179.803 1080.32 175.829C1086.65 171.48 1094.05 168.965 1101.71 168.556C1114.36 168.556 1124 171.586 1130.63 178.253C1134.07 181.682 1136.76 185.8 1138.53 190.342C1140.29 194.883 1141.09 199.746 1140.87 204.617V331.586C1140.84 335.088 1141.51 338.561 1142.86 341.792C1144.21 345.022 1146.19 347.942 1148.7 350.373C1151.08 352.846 1153.94 354.797 1157.1 356.101C1160.26 357.405 1163.66 358.034 1167.08 357.949C1170.54 358.04 1173.99 357.414 1177.2 356.111C1180.41 354.808 1183.32 352.855 1185.76 350.373C1190.6 345.333 1193.3 338.595 1193.29 331.586V331.586V191.283C1196.94 184.759 1202.24 179.323 1208.65 175.526C1215.31 170.953 1223.19 168.523 1231.24 168.556C1257.45 168.556 1270.71 183.405 1270.71 212.798V331.586C1270.63 335.07 1271.25 338.536 1272.54 341.772C1273.82 345.008 1275.75 347.947 1278.2 350.412C1280.65 352.877 1283.57 354.816 1286.79 356.111C1290.01 357.407 1293.45 358.032 1296.92 357.949C1300.34 358.034 1303.73 357.405 1306.9 356.101C1310.06 354.797 1312.92 352.846 1315.29 350.373C1317.8 347.942 1319.79 345.022 1321.14 341.792C1322.48 338.561 1323.16 335.088 1323.13 331.586V205.223C1323.13 179.97 1316.2 160.273 1302.34 146.132C1288.18 131.587 1268.9 124.314 1243.9 124.314" fill="#061F6F"/>
<path d="M1488.21 296.12C1483.83 302.332 1477.99 307.355 1471.21 310.739C1464.42 314.124 1456.91 315.764 1449.35 315.513C1413.8 315.513 1396.03 290.665 1396.03 240.968C1396.03 217.635 1400.85 199.756 1410.49 186.726C1414.92 180.572 1420.77 175.592 1427.54 172.214C1434.31 168.836 1441.79 167.161 1449.35 167.332C1484.9 167.332 1502.67 191.878 1502.67 240.968C1502.67 264.605 1497.85 283.089 1488.21 296.12ZM1528.88 155.514C1509.9 134.908 1483.39 124.302 1449.35 124.302C1415.31 124.302 1390.9 135.211 1371.32 156.726C1351.74 178.241 1341.8 206.423 1341.8 240.968C1341.8 275.514 1351.14 304.907 1370.12 326.119C1389.1 347.331 1415.31 358.24 1449.35 358.24C1483.39 358.24 1509 347.634 1528.28 326.422C1547.56 305.21 1556.9 276.726 1556.9 240.968C1556.9 205.211 1547.56 176.423 1528.88 155.514" fill="#061F6F"/>
<path d="M739.281 135.818H615.465V92.7883C615.465 85.3944 612.545 78.3034 607.347 73.0752C602.15 67.8469 595.1 64.9097 587.749 64.9097C580.399 64.9097 573.349 67.8469 568.152 73.0752C562.954 78.3034 560.034 85.3944 560.034 92.7883V135.818H534.126C528.345 135.818 522.797 138.107 518.681 142.19C514.566 146.273 512.214 151.822 512.135 157.636C512.135 160.541 512.703 163.418 513.809 166.102C514.914 168.786 516.534 171.224 518.576 173.278C520.618 175.333 523.042 176.962 525.71 178.074C528.378 179.185 531.238 179.758 534.126 179.758H560.034V291.575C560.034 311.052 567.705 329.736 581.369 343.537C595.032 357.337 613.575 365.131 632.938 365.211C649.56 365.175 665.687 359.518 678.728 349.151C684.481 344.529 688.173 337.799 688.992 330.439C689.811 323.08 687.691 315.695 683.097 309.908C678.502 304.122 671.811 300.408 664.495 299.584C657.179 298.76 649.837 300.893 644.084 305.514C641.504 307.666 638.363 309.026 635.035 309.431C631.708 309.837 628.335 309.272 625.318 307.802C622.302 306.333 619.769 304.022 618.022 301.145C616.274 298.268 615.387 294.946 615.465 291.575V179.758H712.469V332.787C712.069 336.589 712.468 340.434 713.641 344.071C714.813 347.708 716.733 351.057 719.276 353.899C721.818 356.742 724.926 359.015 728.399 360.57C731.871 362.126 735.63 362.93 739.431 362.93C743.232 362.93 746.991 362.126 750.463 360.57C753.936 359.015 757.044 356.742 759.587 353.899C762.129 351.057 764.049 347.708 765.222 344.071C766.394 340.434 766.794 336.589 766.393 332.787V163.091C766.393 155.858 763.537 148.921 758.452 143.806C753.368 138.692 746.471 135.818 739.281 135.818" fill="#061F6F"/>
<path d="M738.259 123.359C753.145 123.359 765.213 111.186 765.213 96.1689C765.213 81.1524 753.145 68.979 738.259 68.979C723.373 68.979 711.305 81.1524 711.305 96.1689C711.305 111.186 723.373 123.359 738.259 123.359Z" fill="#FC4F00"/>
<defs>
<clipPath id="clip0_6634_17411">
<rect width="140.945" height="139.262" fill="white" transform="translate(284.264 132.399)"/>
</clipPath>
</defs>
</svg>
