<svg width="109" height="109" viewBox="0 0 109 109" fill="none" xmlns="http://www.w3.org/2000/svg">
<g clip-path="url(#clip0_427_259)">
<path d="M27.4736 108.979C25.4809 108.378 24.1588 106.973 22.9816 105.345C21.9171 103.884 20.7696 102.5 19.6669 101.087C18.6471 99.7712 18.6471 99.0027 19.6413 97.6806C20.3779 96.8993 21.3657 96.7992 22.2833 97.44C22.8492 97.8693 23.3454 98.3835 23.7544 98.9643C24.9409 100.511 26.1472 102.044 27.3735 103.563C28.2634 104.67 28.8382 104.666 29.7302 103.531C34.682 97.2321 39.614 90.9164 44.5261 84.5836C46.4421 82.1247 48.4518 79.7467 49.8313 76.9004C51.9496 72.5276 52.799 67.9589 52.0369 63.1668C50.5764 53.9848 45.482 47.5619 36.8493 44.2195C25.9727 39.9979 13.7123 44.4537 7.92381 54.6575C3.93424 61.6936 3.71922 69.0277 6.98284 76.4277C8.19418 79.174 10.0932 81.4945 11.9538 83.8214C12.4895 84.4341 12.9677 85.0947 13.3823 85.7949C14.004 86.9552 13.7506 88.109 12.7692 88.7498C11.1406 89.4545 10.47 89.297 9.3885 87.8983C7.14463 84.9859 4.6602 82.229 3.12739 78.8334C-1.50298 68.5891 -0.789799 58.7259 5.85665 49.6312C11.6175 41.7542 19.6775 37.8285 29.4215 38.2032C40.4918 38.629 48.8712 43.964 53.7741 53.8698C59.0963 64.6144 57.6295 74.963 50.3678 84.4431C44.7198 91.8091 38.9484 99.0814 33.2621 106.418C32.3204 107.608 31.0502 108.496 29.6089 108.972L27.4736 108.979Z" fill="#004E67"/>
<path d="M108.979 42.152C108.37 43.9808 107.978 45.8755 107.137 47.634C106.06 49.8949 104.548 51.8471 103.02 53.8078C99.0899 58.8292 95.1699 63.8598 91.2598 68.8996C90.0591 70.4473 88.6115 71.3202 86.5869 70.9199C85.4841 70.7071 84.6581 70.0684 83.9875 69.204C79.2421 63.1111 74.3819 57.1012 69.7855 50.8954C61.9512 40.3105 66.1111 24.4629 78.0478 18.9235C90.2486 13.2649 103.976 19.2067 108.178 31.978C108.495 32.9424 108.715 33.9387 108.979 34.9201V42.152Z" fill="#004E67"/>
<path d="M50.6681 0.0214844C52.3712 0.521777 54.0892 0.977363 55.6561 1.90557C62.0279 5.68225 63.9589 14.2703 59.6329 20.3014C57.3422 23.4948 54.8748 26.5626 52.4095 29.6261C50.5595 31.9231 47.5343 31.9913 45.7056 29.7431C43.2467 26.7222 40.8091 23.6694 38.5504 20.5037C32.6469 12.267 37.9436 1.46914 47.049 0.198184C47.1299 0.187539 47.198 0.0810938 47.2618 0.0214844H48.7521C49.2335 0.195998 49.7609 0.195998 50.2423 0.0214844H50.6681Z" fill="#004E67"/>
<path d="M50.2422 0.0214844C50.0292 0.187211 49.767 0.27719 49.4971 0.27719C49.2272 0.27719 48.965 0.187211 48.752 0.0214844H50.2422Z" fill="#181818"/>
<path d="M62.8027 86.934C62.7772 88.1347 61.0996 89.5887 59.7797 89.5632C59.4961 89.5556 59.217 89.4914 58.9586 89.3744C58.7002 89.2575 58.4679 89.09 58.2751 88.882C58.0823 88.674 57.9331 88.4295 57.8361 88.163C57.7391 87.8964 57.6964 87.6132 57.7104 87.33C57.7657 86.1229 59.4561 84.7157 60.7888 84.7753C61.3384 84.8049 61.8552 85.0463 62.2307 85.4488C62.6062 85.8513 62.8112 86.3836 62.8027 86.934Z" fill="#004E67"/>
<path d="M49.6035 92.4499C49.6035 91.2087 51.1789 89.8398 52.584 89.8398C53.1354 89.8463 53.6628 90.0665 54.0552 90.4541C54.4475 90.8416 54.6741 91.3663 54.6873 91.9177C54.698 93.1716 53.0225 94.6363 51.6153 94.6022C51.3407 94.5968 51.0699 94.5364 50.819 94.4246C50.5682 94.3128 50.3423 94.1517 50.1547 93.9511C49.9671 93.7504 49.8217 93.5142 49.727 93.2563C49.6323 92.9985 49.5903 92.7242 49.6035 92.4499Z" fill="#004E67"/>
<path d="M58.6279 38.3009C58.6241 38.8512 58.409 39.379 58.027 39.7752C57.6451 40.1714 57.1255 40.4058 56.5757 40.4298C55.3856 40.4532 53.7229 38.8459 53.6718 37.6218C53.6229 36.4892 54.6511 35.4354 55.8007 35.4375C57.0206 35.4503 58.613 37.0555 58.6279 38.3009Z" fill="#004E67"/>
<path d="M70.9202 81.8437C70.9075 83.0848 69.3427 84.4899 67.9589 84.5027C67.6757 84.5027 67.3954 84.4463 67.1343 84.3366C66.8732 84.227 66.6366 84.0664 66.4383 83.8641C66.24 83.6619 66.0841 83.4222 65.9797 83.159C65.8752 82.8957 65.8244 82.6143 65.83 82.3312C65.8726 81.09 67.4842 79.7169 68.868 79.7446C69.1425 79.7409 69.4148 79.7931 69.6686 79.8979C69.9223 80.0027 70.1521 80.158 70.344 80.3542C70.5359 80.5505 70.6859 80.7838 70.785 81.0398C70.8841 81.2958 70.9301 81.5693 70.9202 81.8437Z" fill="#004E67"/>
<path d="M76.0978 79.4321C75.8241 79.4389 75.5519 79.3908 75.2972 79.2905C75.0425 79.1902 74.8105 79.0398 74.6149 78.8483C74.4194 78.6567 74.2643 78.4278 74.1588 78.1752C74.0533 77.9226 73.9996 77.6514 74.0008 77.3777C73.9774 76.0663 75.5336 74.6825 77.0153 74.6974C77.5486 74.6965 78.0613 74.9031 78.4451 75.2733C78.8289 75.6436 79.0536 76.1486 79.0719 76.6815C79.1123 77.9823 77.5603 79.4193 76.0978 79.4321Z" fill="#004E67"/>
<path d="M64.7017 44.6108C64.6717 45.1621 64.4312 45.6808 64.03 46.0599C63.6287 46.439 63.0972 46.6496 62.5451 46.6482C61.9583 46.6221 61.4038 46.3725 60.9952 45.9505C60.5867 45.5285 60.3551 44.9661 60.3481 44.3788C60.3702 43.8261 60.6065 43.3037 61.0071 42.9222C61.4076 42.5408 61.9409 42.3302 62.494 42.335C63.6543 42.3499 64.7336 43.4548 64.7017 44.6108Z" fill="#004E67"/>
<path d="M15.3579 92.013C16.7587 91.4212 17.7657 91.6234 18.4065 92.6283C19.0133 93.5778 18.8174 94.5443 17.8211 95.5023C16.565 96.0345 15.6347 95.877 14.9875 95.0254C14.2637 94.0823 14.3808 93.1988 15.3579 92.013Z" fill="#004E67"/>
<path d="M87.0893 21.031C96.0307 20.9054 103.695 27.5987 104.759 36.0462C105.372 40.9427 104.208 45.3261 101.195 49.2114C96.8312 54.8423 92.4307 60.4499 88.0686 66.0829C87.6194 66.6641 87.4044 66.6897 86.9382 66.0829C82.5569 60.4179 78.0926 54.8168 73.756 49.1177C66.3389 39.3737 70.5626 25.7253 82.1652 21.8464C82.838 21.6257 83.5242 21.4479 84.2196 21.3142C85.1643 21.1244 86.1257 21.0295 87.0893 21.031Z" fill="#FDDA24"/>
<path d="M49.0159 27.0864C48.422 26.3348 47.8514 25.6217 47.2915 24.9C45.4947 22.5795 43.6362 20.2994 41.9203 17.9193C40.8851 16.5105 40.3166 14.8131 40.2944 13.065C40.2723 11.3168 40.7976 9.6056 41.7968 8.17102C43.7128 5.33957 46.5102 3.97707 49.9122 4.36453C53.7698 4.80309 56.3245 7.0576 57.3889 10.7768C58.1872 13.5678 57.4932 16.1736 55.7305 18.4664C53.5292 21.3255 51.3066 24.1591 49.0159 27.0864Z" fill="white"/>
<path d="M44.8497 66.5685C44.624 75.6696 37.2388 82.9377 28.4039 82.7482C19.3411 82.5587 12.0113 75.1097 12.2242 66.296C12.4371 57.1971 19.8691 49.8928 28.67 50.1163C37.7924 50.3675 45.069 57.7591 44.8497 66.5685Z" fill="#004E67"/>
<path d="M87.4981 50.7148C80.7068 50.7148 75.1504 45.1669 75.1823 38.4055C75.1806 35.9688 75.9017 33.5863 77.2543 31.5595C78.6068 29.5327 80.5302 27.9525 82.7809 27.019C85.0317 26.0854 87.5088 25.8404 89.8988 26.3149C92.2889 26.7894 94.4845 27.9621 96.208 29.6847C97.9314 31.4072 99.1052 33.6022 99.581 35.992C100.057 38.3818 99.813 40.859 98.8806 43.1103C97.9482 45.3616 96.3691 47.2857 94.3429 48.6393C92.3168 49.9929 89.9347 50.7152 87.4981 50.7148Z" fill="#004E67"/>
<path d="M40.5855 66.1839C40.8686 72.6345 35.5166 78.2314 28.8148 78.4911C22.3216 78.7444 16.8333 73.5094 16.4927 66.7395C16.1648 60.2613 21.5062 54.6814 28.3123 54.3919C34.7608 54.1194 40.2874 59.431 40.5855 66.1839Z" fill="#FEFEFE"/>
<path d="M87.5193 46.4548C83.1146 46.4761 79.4295 42.8186 79.4295 38.4352C79.4568 36.3205 80.3144 34.3014 81.8172 32.8134C83.32 31.3255 85.3475 30.4879 87.4623 30.4815C89.577 30.4751 91.6096 31.3003 93.1214 32.7791C94.6332 34.2579 95.503 36.2718 95.5432 38.3862C95.6134 42.7441 91.939 46.4356 87.5193 46.4548Z" fill="#FEFEFE"/>
</g>
<defs>
<clipPath id="clip0_427_259">
<rect width="109" height="109" fill="white"/>
</clipPath>
</defs>
</svg>
