<svg width="170" height="170" viewBox="0 0 170 170" fill="none" xmlns="http://www.w3.org/2000/svg">
<g clip-path="url(#clip0_1161_11)">
<path d="M169.18 0H0V169.18H169.18V0Z" fill="#7A7A7A"/>
<path d="M27.7675 32.5829V54.3163H32.4998V25.927H28.7309L24.2632 31.0165V36.0104H24.3494L27.7675 32.5829ZM50.024 47.04V33.2879C50.024 28.8187 47.831 25.5776 42.9263 25.5776C38.1062 25.5776 35.9163 28.8187 35.9163 33.2879V47.0447C35.9163 51.4309 38.1094 54.7549 42.9263 54.7549C47.7448 54.6672 50.024 51.4262 50.024 47.0447M40.6471 47.7449V32.4999C40.6471 30.747 41.2611 29.5236 42.9263 29.5236C44.5915 29.5236 45.204 30.7502 45.204 32.4999V47.7449C45.204 49.4978 44.5915 50.7212 42.9263 50.7212C41.2611 50.7212 40.6471 49.4947 40.6471 47.7449Z" fill="white"/>
<path d="M61.0631 32.1487V37.4058H59.1363V25.8467H61.9403C63.8671 25.8467 64.5689 26.8117 64.5689 28.3891V29.8788C64.5689 31.1054 64.1302 31.8056 62.9914 32.0719L64.832 37.329H62.816L61.0631 32.1487ZM61.0631 27.4163V31.0161H61.6771C62.3773 31.0161 62.6405 30.6652 62.6405 30.0512V28.3813C62.6405 27.7672 62.3773 27.4163 61.6771 27.4163H61.0631ZM65.8831 25.8467H70.5278V27.4132H67.8099V30.7435H69.7382V32.321H67.8099V35.8252H70.5278V37.4027H65.8831V25.8467ZM77.0976 29.0016V34.3464C77.0976 36.0993 76.3974 37.4136 74.2951 37.4136H71.3188V25.8467H74.2951C76.3974 25.8467 77.0976 27.1532 77.0976 28.9938V29.0016ZM74.032 35.8283C74.8152 35.8283 75.1708 35.3897 75.1708 34.6895V28.6429C75.1708 27.9427 74.9076 27.5041 74.032 27.5041H73.2487V35.8283H74.032ZM84.0199 25.8467V34.5219C84.0199 36.2732 83.2366 37.4982 81.3036 37.4982C79.2891 37.4982 78.4119 36.3578 78.4119 34.5219V25.8467H80.3402V34.7757C80.3402 35.4759 80.6034 35.9145 81.3036 35.9145C82.0038 35.9145 82.2685 35.4759 82.2685 34.7757V25.8467H84.0199ZM85.248 34.4342V28.823C85.248 26.984 86.1237 25.7559 88.1381 25.7559C90.2419 25.7559 90.856 26.984 90.856 28.6476V30.0574H89.1031V28.469C89.1031 27.7672 88.8399 27.3286 88.1381 27.3286C87.4364 27.3286 87.1748 27.8549 87.1748 28.5552V34.7757C87.1748 35.4759 87.4379 36.0022 88.1381 36.0022C88.8384 36.0022 89.1031 35.5636 89.1031 34.8634V32.7612H90.856V34.7757C90.856 36.4393 90.1542 37.6658 88.1381 37.6658C86.1237 37.4935 85.248 36.1855 85.248 34.4263V34.4342ZM92.0826 25.8467H96.7256V27.4132H94.0093V30.7435H95.9361V32.321H94.0093V35.8252H96.7256V37.4027H92.0826V25.8467ZM103.736 29.0016V34.3464C103.736 36.0993 103.034 37.4136 100.932 37.4136H97.9553V25.8467H100.932C103.034 25.8467 103.736 27.1532 103.736 28.9938V29.0016ZM100.668 35.8362C101.452 35.8362 101.807 35.3976 101.807 34.6973V28.6507C101.807 27.9505 101.544 27.5119 100.668 27.5119H99.8852V35.8362H100.668Z" fill="white"/>
<path d="M59.1363 42.6633H61.0631V54.1409H59.1363V42.6633ZM63.9548 46.8693V54.1409H62.2896V42.6633H64.2258L66.3296 49.2347V42.6633H67.9055V54.1409H66.234L63.9548 46.8693ZM69.038 42.6633H73.6811V44.2408H70.9617V47.5695H72.89V49.147H70.9617V52.6528H73.6779V54.2287H69.038V42.6633ZM76.5728 54.9304V54.1472C74.9954 53.8856 74.3797 52.7468 74.3797 51.1709V45.5629C74.3797 43.7223 75.2554 42.4957 77.2699 42.4957C79.2844 42.4957 80.2462 43.81 80.2462 45.5629V51.1709C80.2462 52.3974 79.8076 53.4486 78.8442 53.8872L80.2462 54.1488V55.5508L76.5728 54.9304ZM78.3241 51.6017V45.2919C78.3241 44.5917 78.0625 44.0653 77.3607 44.0653C76.659 44.0653 76.3974 44.5917 76.3974 45.2919V51.6017C76.3974 52.3019 76.6605 52.8282 77.3607 52.8282C77.9748 52.7405 78.3241 52.3019 78.3241 51.6017ZM86.9116 42.6633V51.3385C86.9116 53.0898 86.1283 54.3148 84.1953 54.3148C82.1808 54.3148 81.3036 53.176 81.3036 51.3385V42.6633H83.2319V51.6017C83.2319 52.3019 83.4951 52.7405 84.1953 52.7405C84.8955 52.7405 85.1603 52.3019 85.1603 51.6017V42.6633H86.9116ZM87.5256 54.1409L89.7187 42.6633H91.9118L94.1049 54.1409H92.0826L91.7317 52.0387H89.7156L89.3663 54.1409H87.5256ZM89.9788 50.4613H91.5562L90.773 45.8182L89.9788 50.4613ZM94.9727 42.6633H96.9011V52.5651H99.1787V54.1409H94.9727V42.6633ZM100.054 42.6633H101.978V54.1409H100.054V42.6633ZM102.858 42.6633H108.028V44.2408H106.452V54.1409H104.524V44.2408H102.946V42.6633H102.858ZM108.905 42.6633H110.833V54.1409H108.905V42.6633ZM111.972 42.6633H116.615V44.2408H113.901V47.5695H115.827V49.147H113.901V52.6528H116.615V54.2287H111.972V42.6633ZM117.405 51.6941V50.1119H119.244V51.6941C119.244 52.3082 119.507 52.7468 120.209 52.7468C120.821 52.7468 121.084 52.3082 121.084 51.6941V51.257C121.084 50.5553 120.821 50.2059 120.209 49.5919L119.068 48.453C117.93 47.4019 117.492 46.7001 117.492 45.3859V45.035C117.492 43.633 118.368 42.4941 120.209 42.4941C122.136 42.4941 122.925 43.4575 122.925 45.1227V46.0861H121.172V45.1149C121.172 44.4146 120.909 44.1515 120.296 44.1515C119.77 44.1515 119.419 44.4146 119.419 45.1149V45.378C119.419 45.9921 119.77 46.4291 120.296 46.9555L121.523 48.182C122.574 49.2331 123.1 49.9349 123.1 51.1584V51.6941C123.1 53.2715 122.223 54.4104 120.296 54.4104C118.113 54.3164 117.405 53.1776 117.405 51.6941Z" fill="white"/>
<path d="M60.6228 91.1175L47.3923 104.348L60.6228 117.663V91.1175ZM108.642 117.666L121.872 104.351L108.642 91.1206V117.666ZM97.9521 80.4278L84.637 67.1973L71.4065 80.4278H97.9521ZM71.4034 128.362L84.6339 141.593L97.949 128.362H71.4034ZM70.2645 91.9994H99.0878V99.9728H70.2645V91.9994ZM70.2645 108.471H99.0878V116.795H70.2645V108.471Z" fill="white"/>
</g>
<defs>
<clipPath id="clip0_1161_11">
<rect width="169.18" height="169.18" fill="white"/>
</clipPath>
</defs>
</svg>
