<svg width="170" height="170" viewBox="0 0 170 170" fill="none" xmlns="http://www.w3.org/2000/svg">
<g clip-path="url(#clip0_1161_17)">
<path d="M169.18 0H0V169.18H169.18V0Z" fill="#7A7A7A"/>
<path d="M24.2632 31.0977V36.0917L27.6797 32.5827V54.3161H32.4998V25.9268H28.6431L24.2632 31.0977ZM35.1268 31.0977V36.0917H35.2145L38.5449 32.5827V54.3161H43.3634V25.9268H39.5083L35.1268 31.0977Z" fill="white"/>
<path d="M37.406 121.435H58.6099C58.7465 121.426 58.8751 121.368 58.9719 121.271C59.0687 121.174 59.1271 121.046 59.1363 120.909C59.135 120.841 59.1186 120.775 59.0882 120.714C59.0579 120.653 59.0143 120.6 58.9608 120.558L48.4466 106.891L48.3589 106.803C48.318 106.748 48.265 106.704 48.2041 106.674C48.1432 106.643 48.0761 106.627 48.008 106.627C47.9399 106.627 47.8727 106.643 47.8118 106.674C47.7509 106.704 47.6979 106.748 47.6571 106.803L47.4816 106.978L37.1428 120.47L36.969 120.646C36.9357 120.681 36.9106 120.722 36.8954 120.768C36.8802 120.813 36.8754 120.861 36.8812 120.909C36.8904 121.045 36.9485 121.174 37.045 121.271C37.1415 121.367 37.2697 121.426 37.406 121.435ZM58.5222 123.362H37.2306C37.094 123.371 36.9654 123.43 36.8686 123.527C36.7718 123.623 36.7134 123.752 36.7042 123.889V140.537C36.7138 140.673 36.7723 140.802 36.8691 140.898C36.9658 140.995 37.0942 141.053 37.2306 141.062H44.0651V130.635C44.0743 130.499 44.1328 130.371 44.2296 130.274C44.3264 130.177 44.455 130.119 44.5915 130.111H50.8997C51.0361 130.119 51.1647 130.177 51.2615 130.274C51.3584 130.371 51.4168 130.499 51.426 130.635V141.062H58.4298C58.5661 141.053 58.6945 140.995 58.7913 140.898C58.888 140.802 58.9466 140.673 58.9561 140.537V123.889C59.0564 123.625 58.8731 123.362 58.5222 123.362ZM131.949 118.976H110.921C110.785 118.985 110.656 119.043 110.559 119.139C110.462 119.236 110.404 119.364 110.395 119.501V140.713C110.404 140.849 110.463 140.977 110.56 141.074C110.656 141.17 110.785 141.228 110.921 141.237H131.949C132.086 141.228 132.214 141.17 132.311 141.074C132.408 140.977 132.466 140.849 132.476 140.713V119.507C132.479 119.437 132.467 119.368 132.442 119.303C132.416 119.237 132.377 119.178 132.328 119.129C132.278 119.08 132.219 119.041 132.154 119.016C132.089 118.991 132.019 118.979 131.949 118.982M120.47 132.915C120.461 133.051 120.403 133.179 120.306 133.275C120.21 133.372 120.082 133.43 119.946 133.439H113.637C113.501 133.43 113.373 133.372 113.276 133.276C113.179 133.179 113.121 133.051 113.111 132.915V129.058C113.121 128.922 113.179 128.793 113.276 128.697C113.373 128.6 113.501 128.542 113.637 128.533H119.946C120.082 128.542 120.21 128.601 120.306 128.697C120.403 128.794 120.461 128.922 120.47 129.058V132.915ZM120.47 125.817C120.461 125.953 120.403 126.081 120.306 126.178C120.21 126.274 120.082 126.332 119.946 126.342H113.637C113.501 126.333 113.373 126.274 113.276 126.178C113.179 126.081 113.121 125.953 113.111 125.817V121.96C113.121 121.824 113.179 121.696 113.276 121.599C113.373 121.503 113.501 121.445 113.637 121.435H119.946C120.082 121.445 120.21 121.503 120.306 121.599C120.403 121.696 120.461 121.824 120.47 121.96V125.817ZM130.11 132.915C130.101 133.051 130.042 133.179 129.946 133.276C129.849 133.372 129.72 133.43 129.584 133.439H123.282C123.146 133.43 123.018 133.372 122.922 133.275C122.825 133.179 122.767 133.051 122.757 132.915V129.058C122.767 128.922 122.825 128.794 122.922 128.697C123.018 128.601 123.146 128.543 123.282 128.533H129.592C129.728 128.542 129.857 128.6 129.953 128.697C130.05 128.793 130.109 128.922 130.118 129.058L130.11 132.915ZM130.11 125.817C130.101 125.953 130.042 126.081 129.946 126.178C129.849 126.274 129.72 126.333 129.584 126.342H123.282C123.146 126.332 123.018 126.274 122.922 126.177C122.825 126.081 122.767 125.953 122.757 125.817V121.96C122.767 121.824 122.825 121.696 122.922 121.6C123.018 121.503 123.146 121.445 123.282 121.435H129.592C129.728 121.445 129.857 121.503 129.953 121.599C130.05 121.696 130.109 121.824 130.118 121.96L130.11 125.817ZM83.0564 69.7368H62.5527C62.4163 69.746 62.2879 69.8045 62.1914 69.9013C62.0949 69.9981 62.0368 70.1267 62.028 70.2632V140.625C62.0371 140.761 62.0954 140.889 62.1919 140.986C62.2884 141.082 62.4166 141.14 62.5527 141.15H83.1442C83.2805 141.14 83.4089 141.082 83.5056 140.986C83.6024 140.889 83.661 140.761 83.6705 140.625V70.2647C83.5828 69.9138 83.4073 69.7384 83.0564 69.7384M70.877 133.088C70.8823 133.124 70.8791 133.161 70.8678 133.195C70.8564 133.229 70.8372 133.261 70.8116 133.286C70.786 133.312 70.7548 133.331 70.7205 133.342C70.6862 133.354 70.6496 133.357 70.6139 133.352H65.8831C65.8473 133.357 65.8108 133.354 65.7765 133.342C65.7421 133.331 65.7109 133.312 65.6853 133.286C65.6598 133.261 65.6405 133.229 65.6292 133.195C65.6178 133.161 65.6146 133.124 65.6199 133.088V127.825C65.6146 127.789 65.6178 127.753 65.6292 127.718C65.6405 127.684 65.6598 127.653 65.6853 127.627C65.7109 127.602 65.7421 127.583 65.7765 127.571C65.8108 127.56 65.8473 127.557 65.8831 127.562H70.6139C70.6496 127.557 70.6862 127.56 70.7205 127.571C70.7548 127.583 70.786 127.602 70.8116 127.627C70.8372 127.653 70.8564 127.684 70.8678 127.718C70.8791 127.753 70.8823 127.789 70.877 127.825V133.088ZM70.877 120.997C70.8823 121.033 70.8791 121.069 70.8678 121.103C70.8564 121.138 70.8372 121.169 70.8116 121.195C70.786 121.22 70.7548 121.239 70.7205 121.251C70.6862 121.262 70.6496 121.265 70.6139 121.26H65.8831C65.8473 121.265 65.8108 121.262 65.7765 121.251C65.7421 121.239 65.7109 121.22 65.6853 121.195C65.6598 121.169 65.6405 121.138 65.6292 121.103C65.6178 121.069 65.6146 121.033 65.6199 120.997V115.74C65.6146 115.704 65.6178 115.667 65.6292 115.633C65.6405 115.599 65.6598 115.568 65.6853 115.542C65.7109 115.516 65.7421 115.497 65.7765 115.486C65.8108 115.474 65.8473 115.471 65.8831 115.477H70.6139C70.6496 115.471 70.6862 115.474 70.7205 115.486C70.7548 115.497 70.786 115.516 70.8116 115.542C70.8372 115.568 70.8564 115.599 70.8678 115.633C70.8791 115.667 70.8823 115.704 70.877 115.74V120.997ZM70.877 108.905C70.8823 108.941 70.8791 108.977 70.8678 109.012C70.8564 109.046 70.8372 109.077 70.8116 109.103C70.786 109.128 70.7548 109.148 70.7205 109.159C70.6862 109.17 70.6496 109.174 70.6139 109.168H65.8831C65.8473 109.174 65.8108 109.17 65.7765 109.159C65.7421 109.148 65.7109 109.128 65.6853 109.103C65.6598 109.077 65.6405 109.046 65.6292 109.012C65.6178 108.977 65.6146 108.941 65.6199 108.905V103.648C65.6146 103.612 65.6178 103.576 65.6292 103.541C65.6405 103.507 65.6598 103.476 65.6853 103.45C65.7109 103.425 65.7421 103.405 65.7765 103.394C65.8108 103.383 65.8473 103.38 65.8831 103.385H70.6139C70.6496 103.38 70.6862 103.383 70.7205 103.394C70.7548 103.405 70.786 103.425 70.8116 103.45C70.8372 103.476 70.8564 103.507 70.8678 103.541C70.8791 103.576 70.8823 103.612 70.877 103.648V108.905ZM70.877 96.9012C70.8823 96.937 70.8791 96.9735 70.8678 97.0078C70.8564 97.0422 70.8372 97.0734 70.8116 97.0989C70.786 97.1245 70.7548 97.1437 70.7205 97.1551C70.6862 97.1665 70.6496 97.1696 70.6139 97.1644H65.8831C65.8473 97.1696 65.8108 97.1665 65.7765 97.1551C65.7421 97.1437 65.7109 97.1245 65.6853 97.0989C65.6598 97.0734 65.6405 97.0422 65.6292 97.0078C65.6178 96.9735 65.6146 96.937 65.6199 96.9012V91.6394C65.6146 91.6036 65.6178 91.5671 65.6292 91.5327C65.6405 91.4984 65.6598 91.4672 65.6853 91.4416C65.7109 91.4161 65.7421 91.3968 65.7765 91.3855C65.8108 91.3741 65.8473 91.3709 65.8831 91.3762H70.6139C70.6496 91.3709 70.6862 91.3741 70.7205 91.3855C70.7548 91.3968 70.786 91.4161 70.8116 91.4416C70.8372 91.4672 70.8564 91.4984 70.8678 91.5327C70.8791 91.5671 70.8823 91.6036 70.877 91.6394V96.9012ZM70.877 84.8095C70.8823 84.8453 70.8791 84.8818 70.8678 84.9161C70.8564 84.9505 70.8372 84.9817 70.8116 85.0073C70.786 85.0328 70.7548 85.0521 70.7205 85.0634C70.6862 85.0748 70.6496 85.078 70.6139 85.0727H65.8831C65.8473 85.078 65.8108 85.0748 65.7765 85.0634C65.7421 85.0521 65.7109 85.0328 65.6853 85.0073C65.6598 84.9817 65.6405 84.9505 65.6292 84.9161C65.6178 84.8818 65.6146 84.8453 65.6199 84.8095V79.5524C65.6146 79.5166 65.6178 79.4801 65.6292 79.4458C65.6405 79.4114 65.6598 79.3802 65.6853 79.3547C65.7109 79.3291 65.7421 79.3098 65.7765 79.2985C65.8108 79.2871 65.8473 79.284 65.8831 79.2892H70.6139C70.6496 79.284 70.6862 79.2871 70.7205 79.2985C70.7548 79.3098 70.786 79.3291 70.8116 79.3547C70.8372 79.3802 70.8564 79.4114 70.8678 79.4458C70.8791 79.4801 70.8823 79.5166 70.877 79.5524V84.8095ZM80.077 133.088C80.0823 133.124 80.0791 133.161 80.0677 133.195C80.0564 133.229 80.0371 133.261 80.0116 133.286C79.986 133.312 79.9548 133.331 79.9204 133.342C79.8861 133.354 79.8496 133.357 79.8138 133.352H75.083C75.0473 133.357 75.0107 133.354 74.9764 133.342C74.9421 133.331 74.9109 133.312 74.8853 133.286C74.8597 133.261 74.8405 133.229 74.8291 133.195C74.8178 133.161 74.8146 133.124 74.8199 133.088V127.825C74.8146 127.789 74.8178 127.753 74.8291 127.718C74.8405 127.684 74.8597 127.653 74.8853 127.627C74.9109 127.602 74.9421 127.583 74.9764 127.571C75.0107 127.56 75.0473 127.557 75.083 127.562H79.8138C79.8496 127.557 79.8861 127.56 79.9204 127.571C79.9548 127.583 79.986 127.602 80.0116 127.627C80.0371 127.653 80.0564 127.684 80.0677 127.718C80.0791 127.753 80.0823 127.789 80.077 127.825V133.088ZM80.077 120.997C80.0823 121.033 80.0791 121.069 80.0677 121.103C80.0564 121.138 80.0371 121.169 80.0116 121.195C79.986 121.22 79.9548 121.239 79.9204 121.251C79.8861 121.262 79.8496 121.265 79.8138 121.26H75.083C75.0473 121.265 75.0107 121.262 74.9764 121.251C74.9421 121.239 74.9109 121.22 74.8853 121.195C74.8597 121.169 74.8405 121.138 74.8291 121.103C74.8178 121.069 74.8146 121.033 74.8199 120.997V115.74C74.8146 115.704 74.8178 115.667 74.8291 115.633C74.8405 115.599 74.8597 115.568 74.8853 115.542C74.9109 115.516 74.9421 115.497 74.9764 115.486C75.0107 115.474 75.0473 115.471 75.083 115.477H79.8138C79.8496 115.471 79.8861 115.474 79.9204 115.486C79.9548 115.497 79.986 115.516 80.0116 115.542C80.0371 115.568 80.0564 115.599 80.0677 115.633C80.0791 115.667 80.0823 115.704 80.077 115.74V120.997ZM80.077 108.905C80.0823 108.941 80.0791 108.977 80.0677 109.012C80.0564 109.046 80.0371 109.077 80.0116 109.103C79.986 109.128 79.9548 109.148 79.9204 109.159C79.8861 109.17 79.8496 109.174 79.8138 109.168H75.083C75.0473 109.174 75.0107 109.17 74.9764 109.159C74.9421 109.148 74.9109 109.128 74.8853 109.103C74.8597 109.077 74.8405 109.046 74.8291 109.012C74.8178 108.977 74.8146 108.941 74.8199 108.905V103.648C74.8146 103.612 74.8178 103.576 74.8291 103.541C74.8405 103.507 74.8597 103.476 74.8853 103.45C74.9109 103.425 74.9421 103.405 74.9764 103.394C75.0107 103.383 75.0473 103.38 75.083 103.385H79.8138C79.8496 103.38 79.8861 103.383 79.9204 103.394C79.9548 103.405 79.986 103.425 80.0116 103.45C80.0371 103.476 80.0564 103.507 80.0677 103.541C80.0791 103.576 80.0823 103.612 80.077 103.648V108.905ZM80.077 96.9012C80.0823 96.937 80.0791 96.9735 80.0677 97.0078C80.0564 97.0422 80.0371 97.0734 80.0116 97.0989C79.986 97.1245 79.9548 97.1437 79.9204 97.1551C79.8861 97.1665 79.8496 97.1696 79.8138 97.1644H75.083C75.0473 97.1696 75.0107 97.1665 74.9764 97.1551C74.9421 97.1437 74.9109 97.1245 74.8853 97.0989C74.8597 97.0734 74.8405 97.0422 74.8291 97.0078C74.8178 96.9735 74.8146 96.937 74.8199 96.9012V91.6394C74.8146 91.6036 74.8178 91.5671 74.8291 91.5327C74.8405 91.4984 74.8597 91.4672 74.8853 91.4416C74.9109 91.4161 74.9421 91.3968 74.9764 91.3855C75.0107 91.3741 75.0473 91.3709 75.083 91.3762H79.8138C79.8496 91.3709 79.8861 91.3741 79.9204 91.3855C79.9548 91.3968 79.986 91.4161 80.0116 91.4416C80.0371 91.4672 80.0564 91.4984 80.0677 91.5327C80.0791 91.5671 80.0823 91.6036 80.077 91.6394V96.9012ZM80.077 84.8095C80.0823 84.8453 80.0791 84.8818 80.0677 84.9161C80.0564 84.9505 80.0371 84.9817 80.0116 85.0073C79.986 85.0328 79.9548 85.0521 79.9204 85.0634C79.8861 85.0748 79.8496 85.078 79.8138 85.0727H75.083C75.0473 85.078 75.0107 85.0748 74.9764 85.0634C74.9421 85.0521 74.9109 85.0328 74.8853 85.0073C74.8597 84.9817 74.8405 84.9505 74.8291 84.9161C74.8178 84.8818 74.8146 84.8453 74.8199 84.8095V79.5524C74.8146 79.5166 74.8178 79.4801 74.8291 79.4458C74.8405 79.4114 74.8597 79.3802 74.8853 79.3547C74.9109 79.3291 74.9421 79.3098 74.9764 79.2985C75.0107 79.2871 75.0473 79.284 75.083 79.2892H79.8138C79.8496 79.284 79.8861 79.2871 79.9204 79.2985C79.9548 79.3098 79.986 79.3291 80.0116 79.3547C80.0371 79.3802 80.0564 79.4114 80.0677 79.4458C80.0791 79.4801 80.0823 79.5166 80.077 79.5524V84.8095ZM132.476 116.879C132.479 116.937 132.47 116.996 132.449 117.05C132.429 117.105 132.396 117.155 132.355 117.196C132.314 117.238 132.264 117.27 132.209 117.291C132.154 117.312 132.096 117.321 132.037 117.317H110.833C110.775 117.321 110.716 117.312 110.661 117.291C110.607 117.27 110.557 117.238 110.516 117.196C110.474 117.155 110.442 117.105 110.421 117.05C110.4 116.996 110.391 116.937 110.395 116.879V112.674C110.391 112.616 110.4 112.557 110.421 112.502C110.442 112.448 110.474 112.398 110.516 112.356C110.557 112.315 110.607 112.283 110.661 112.262C110.716 112.241 110.775 112.232 110.833 112.235H132.037C132.096 112.232 132.154 112.241 132.209 112.262C132.264 112.283 132.314 112.315 132.355 112.356C132.396 112.398 132.429 112.448 132.449 112.502C132.47 112.557 132.479 112.616 132.476 112.674V116.879ZM107.942 82.9689C107.911 82.8567 107.841 82.7592 107.744 82.6947C107.647 82.6302 107.531 82.6029 107.415 82.618C107.367 82.612 107.317 82.6172 107.271 82.6332C107.224 82.6493 107.182 82.6757 107.147 82.7104L106.973 82.8859L86.7361 108.557L86.65 108.645C86.5402 108.765 86.4778 108.921 86.4745 109.084V140.625C86.4837 140.761 86.5419 140.889 86.6384 140.986C86.7349 141.082 86.8631 141.14 86.9993 141.15H107.591C107.727 141.14 107.855 141.082 107.952 140.986C108.049 140.889 108.107 140.761 108.117 140.625V83.1443C108.029 83.1443 108.029 83.0566 107.942 82.9689ZM99.4418 96.9012L99.6173 96.7257C101.027 94.9728 103.297 92.0827 104.436 90.6807L104.611 90.5052C104.731 90.3955 104.887 90.3331 105.05 90.3298C105.313 90.3298 105.576 90.5052 105.576 90.7684V97.2521C105.576 97.6014 105.313 97.7768 105.05 97.8646H99.9682C99.6173 97.8646 99.4418 97.6014 99.4418 97.2521C99.3993 97.2035 99.3759 97.1412 99.3759 97.0766C99.3759 97.0121 99.3993 96.9497 99.4418 96.9012ZM96.1992 132.827C96.1897 132.963 96.1314 133.091 96.035 133.187C95.9385 133.284 95.8105 133.342 95.6745 133.352H89.5401C89.4041 133.342 89.276 133.284 89.1796 133.187C89.0832 133.091 89.0248 132.963 89.0153 132.827V128.97C89.0263 128.835 89.0852 128.709 89.1815 128.614C89.2778 128.518 89.4051 128.461 89.5401 128.452H95.6745C95.8105 128.461 95.9385 128.52 96.035 128.616C96.1314 128.712 96.1897 128.84 96.1992 128.976V132.827ZM96.1992 125.817C96.1897 125.953 96.1314 126.081 96.035 126.177C95.9385 126.274 95.8105 126.332 95.6745 126.342H89.5401C89.4041 126.332 89.276 126.274 89.1796 126.177C89.0832 126.081 89.0248 125.953 89.0153 125.817V121.96C89.0248 121.824 89.0832 121.696 89.1796 121.6C89.276 121.503 89.4041 121.445 89.5401 121.435H95.6745C95.8105 121.445 95.9385 121.503 96.035 121.6C96.1314 121.696 96.1897 121.824 96.1992 121.96V125.817ZM96.1992 118.719C96.1901 118.855 96.1318 118.984 96.0353 119.08C95.9388 119.177 95.8106 119.235 95.6745 119.244H89.5401C89.4039 119.235 89.2757 119.177 89.1792 119.08C89.0827 118.984 89.0245 118.855 89.0153 118.719V114.864C89.0245 114.728 89.0826 114.599 89.1791 114.503C89.2756 114.406 89.4038 114.347 89.5401 114.338H95.6745C95.8107 114.347 95.939 114.406 96.0354 114.503C96.1319 114.599 96.1901 114.728 96.1992 114.864V118.719ZM96.2869 103.122V111.534C96.2778 111.67 96.2196 111.798 96.1232 111.895C96.0267 111.992 95.8985 112.05 95.7622 112.06H89.6278C89.4915 112.05 89.3633 111.992 89.2668 111.895C89.1704 111.798 89.1122 111.67 89.1031 111.534V110.219C89.1028 110.208 89.105 110.196 89.1093 110.186C89.1136 110.175 89.1201 110.165 89.1283 110.157C89.1365 110.149 89.1462 110.142 89.157 110.138C89.1677 110.134 89.1792 110.131 89.1908 110.132C89.1906 110.12 89.1927 110.109 89.197 110.098C89.2014 110.087 89.2078 110.077 89.216 110.069C89.2242 110.061 89.2339 110.055 89.2447 110.05C89.2554 110.046 89.2669 110.044 89.2785 110.044C90.0617 108.905 93.5722 104.524 95.0604 102.772L95.2421 102.605C95.3622 102.495 95.5181 102.433 95.6807 102.429C95.9423 102.429 96.2055 102.605 96.2055 102.868V103.13L96.2869 103.122ZM105.662 132.827C105.653 132.963 105.595 133.091 105.498 133.188C105.402 133.284 105.274 133.343 105.138 133.352H99.0017C98.8655 133.343 98.7373 133.284 98.6408 133.188C98.5443 133.091 98.4861 132.963 98.4769 132.827V128.97C98.4875 128.835 98.5464 128.708 98.6427 128.613C98.7391 128.518 98.8665 128.461 99.0017 128.452H105.136C105.272 128.461 105.4 128.519 105.497 128.616C105.593 128.712 105.652 128.84 105.661 128.976L105.662 132.827ZM105.662 125.817C105.653 125.953 105.595 126.081 105.498 126.178C105.402 126.274 105.274 126.332 105.138 126.342H99.0017C98.8655 126.332 98.7373 126.274 98.6408 126.178C98.5443 126.081 98.4861 125.953 98.4769 125.817V121.96C98.4861 121.824 98.5443 121.696 98.6408 121.599C98.7373 121.503 98.8655 121.445 99.0017 121.435H105.136C105.272 121.445 105.4 121.503 105.497 121.599C105.593 121.696 105.652 121.824 105.661 121.96L105.662 125.817ZM105.662 118.719C105.654 118.855 105.595 118.984 105.499 119.08C105.402 119.177 105.274 119.235 105.138 119.244H99.0017C98.8654 119.235 98.737 119.177 98.6404 119.08C98.5439 118.984 98.4857 118.855 98.4769 118.719V114.864C98.4857 114.728 98.5438 114.599 98.6403 114.502C98.7368 114.405 98.8652 114.347 99.0017 114.338H105.136C105.272 114.347 105.401 114.405 105.497 114.502C105.594 114.599 105.652 114.728 105.661 114.864L105.662 118.719ZM105.662 111.621C105.654 111.758 105.595 111.886 105.499 111.983C105.402 112.08 105.274 112.139 105.138 112.148H99.0017C98.8652 112.139 98.7368 112.08 98.6403 111.983C98.5438 111.886 98.4857 111.758 98.4769 111.621V107.774C98.4857 107.638 98.5438 107.509 98.6403 107.412C98.7368 107.315 98.8652 107.257 99.0017 107.248H105.136C105.272 107.257 105.401 107.315 105.497 107.412C105.594 107.509 105.652 107.638 105.661 107.774L105.662 111.621ZM105.662 104.524C105.654 104.66 105.595 104.789 105.499 104.886C105.402 104.982 105.274 105.041 105.138 105.05H99.0017C98.8652 105.041 98.7368 104.982 98.6403 104.886C98.5438 104.789 98.4857 104.66 98.4769 104.524V100.669C98.4857 100.532 98.5438 100.404 98.6403 100.307C98.7368 100.21 98.8652 100.151 99.0017 100.142H105.136C105.272 100.151 105.401 100.21 105.497 100.307C105.594 100.404 105.652 100.532 105.661 100.669L105.662 104.524Z" fill="white"/>
<path d="M52.6526 34.9514V33.3755H54.4916V34.9514C54.4916 35.5655 54.7548 36.0041 55.455 36.0041C56.0691 36.0041 56.3323 35.5655 56.3323 34.9514V34.5144C56.3323 33.8141 56.0691 33.4633 55.455 32.8492L54.3162 31.7104C53.1774 30.6593 52.7403 29.9575 52.7403 28.6432V28.2939C52.7403 26.884 53.616 25.7515 55.455 25.7515C57.3834 25.7515 58.1713 26.7164 58.1713 28.3816V29.345H56.42V28.3816C56.42 27.6798 56.1568 27.4166 55.5427 27.4166C55.018 27.4166 54.6671 27.6798 54.6671 28.3816V28.6432C54.6671 29.2573 55.018 29.6959 55.5427 30.2206L56.7693 31.4472C57.822 32.4999 58.3468 33.2001 58.3468 34.4235V34.9483C58.3468 36.5257 57.4711 37.6646 55.5427 37.6646C53.6144 37.6646 52.6526 36.4411 52.6526 34.9514ZM64.6565 25.9269V34.6021C64.6565 36.3534 63.8733 37.5784 61.9403 37.5784C59.9242 37.5784 59.0485 36.438 59.0485 34.6021V25.9269H60.9753V34.8653C60.9753 35.5655 61.2385 36.0041 61.9403 36.0041C62.642 36.0041 62.9036 35.5655 62.9036 34.8653V25.9269H64.6565ZM65.7077 34.9514V33.3755H67.5483V34.9514C67.5483 35.5655 67.8099 36.0041 68.5117 36.0041C69.1257 36.0041 69.3873 35.5655 69.3873 34.9514V34.5144C69.3873 33.8141 69.1257 33.4633 68.5117 32.8492L67.3728 31.7104C66.234 30.6593 65.7954 29.9575 65.7954 28.6432V28.2939C65.7954 26.884 66.5786 25.7515 68.5117 25.7515C70.4447 25.7515 71.2279 26.7164 71.2279 28.3816V29.345H69.475V28.3816C69.475 27.6798 69.2119 27.4166 68.5994 27.4166C68.073 27.4166 67.7237 27.6798 67.7237 28.3816V28.6432C67.7237 29.2573 68.073 29.6959 68.5994 30.2206L69.8259 31.4472C70.877 32.4999 71.4034 33.2001 71.4034 34.4235V34.9483C71.4034 36.5257 70.5277 37.6646 68.5994 37.6646C66.4079 37.5815 65.7077 36.4411 65.7077 34.9514ZM71.6603 25.9269H76.8297V27.5044H75.2585V37.4061H73.3302V27.5044H71.7543V25.9269H71.6603ZM76.4788 37.4061L78.6719 25.9269H80.8649L83.058 37.4061H81.0419L80.6911 35.3023H78.675L78.3241 37.4061H76.4788ZM78.9319 33.7264H80.5172L79.7339 29.0818L78.9319 33.7264ZM83.8397 25.9269H85.7665V37.4061H83.8397V25.9269ZM88.4827 30.1329V37.4061H86.8238V25.9269H88.7522L90.856 32.5061V25.9269H92.4318V37.4061H90.7682L88.4827 30.1329ZM93.1274 37.4061L95.3204 25.9269H97.5135L99.7066 37.4061H97.689L97.3381 35.3023H95.3236L94.9727 37.4061H93.1274ZM95.5867 33.7264H97.1642L96.381 29.0818L95.5867 33.7264ZM100.318 25.9269H103.122C105.05 25.9269 105.662 26.8041 105.662 28.4693V29.6066C105.662 30.57 105.313 31.184 104.524 31.4456C105.488 31.7088 105.933 32.3229 105.933 33.374V34.8637C105.933 36.5273 105.233 37.4045 103.305 37.4045H100.328L100.318 25.9269ZM102.246 30.747H102.946C103.56 30.747 103.823 30.3961 103.823 29.7836V28.3816C103.823 27.7675 103.56 27.4166 102.858 27.4166H102.158L102.246 30.747ZM102.246 32.2367V35.8286H103.122C103.736 35.8286 104.086 35.4778 104.086 34.8653V33.1124C104.086 32.4999 103.823 32.149 103.122 32.149H102.246V32.2367ZM106.803 25.9269H108.73V35.8286H111.009V37.4061H106.803V25.9269ZM111.797 25.9269H116.44V27.5044H113.727V30.8347H115.653V32.4121H113.727V35.9164H116.441V37.4938H111.797V25.9269ZM119.679 34.4266V28.8233C119.679 26.9843 120.555 25.7562 122.571 25.7562C124.673 25.7562 125.287 26.9843 125.287 28.6479V30.0577H123.537V28.4693C123.537 27.7675 123.274 27.3289 122.574 27.3289C121.874 27.3289 121.611 27.8552 121.611 28.5555V34.776C121.611 35.4762 121.872 36.0025 122.574 36.0025C123.276 36.0025 123.537 35.5639 123.537 34.8637V32.7615H125.29V34.776C125.29 36.4396 124.589 37.6661 122.574 37.6661C120.47 37.5815 119.679 36.1858 119.679 34.4266ZM126.163 25.9269H128.091V37.4061H126.166L126.163 25.9269ZM128.791 25.9269H133.961V27.5044H132.388V37.4061H130.46V27.5044H128.882V25.9269H128.791ZM134.744 25.9269H136.671V37.4061H134.744V25.9269ZM137.72 25.9269H142.363V27.5044H139.66V30.8347H141.588V32.4121H139.66V35.9164H142.376V37.4938H137.733L137.72 25.9269ZM142.802 34.9514V33.3755H144.643V34.9514C144.643 35.5655 144.906 36.0041 145.606 36.0041C146.22 36.0041 146.482 35.5655 146.482 34.9514V34.5144C146.482 33.8141 146.22 33.4633 145.606 32.8492L144.467 31.7104C143.328 30.6593 142.89 29.9575 142.89 28.6432V28.2939C142.89 26.884 143.765 25.7515 145.606 25.7515C147.534 25.7515 148.322 26.7164 148.322 28.3816V29.345H146.582V28.3816C146.582 27.6798 146.32 27.4166 145.706 27.4166C145.18 27.4166 144.831 27.6798 144.831 28.3816V28.6432C144.831 29.2573 145.18 29.6959 145.706 30.2206L146.933 31.4472C147.984 32.4999 148.51 33.2001 148.51 34.4235V34.9483C148.51 36.5257 147.635 37.6646 145.706 37.6646C143.778 37.6646 142.815 36.4411 142.815 34.9514H142.802Z" fill="white"/>
<path d="M52.6526 54.3162L54.8457 42.8386H57.0387L59.2318 54.3162H57.2956L56.9447 52.214H54.9303L54.5794 54.3162H52.6526ZM55.1057 50.7243H56.6816L55.8983 46.0797L55.1057 50.7243ZM61.6849 47.1324V54.404H60.0119V42.9217H61.9403L64.0425 49.5009V42.9217H65.6199V54.404H63.9548L61.6849 47.1324ZM72.55 45.9058V51.2506C72.55 53.0035 71.8498 54.3162 69.746 54.3162H66.7697V42.8386H69.746C71.7543 42.8386 72.5422 44.1529 72.5422 45.9058H72.55ZM69.4829 52.7404C70.2661 52.7404 70.6217 52.3018 70.6217 51.6015V45.5549C70.6217 44.8531 70.3601 44.4161 69.4829 44.4161H68.6996V52.7404H69.4829ZM75.3478 51.3384V45.7304C75.3478 43.8897 76.2234 42.6632 78.2395 42.6632C80.3417 42.6632 80.9558 43.8897 80.9558 45.5549V46.9569H79.2013V45.4672C79.2013 44.7654 78.9382 44.3284 78.2379 44.3284C77.5377 44.3284 77.273 44.8531 77.273 45.5549V51.7754C77.273 52.4772 77.5362 53.0035 78.2379 53.0035C78.9397 53.0035 79.2013 52.5649 79.2013 51.8631V49.7609H80.9542V51.7754C80.9542 53.4406 80.2524 54.6671 78.2379 54.6671C76.131 54.4917 75.3478 53.1774 75.3478 51.3384ZM82.0069 51.3384V45.7304C82.0069 43.8897 82.8826 42.6632 84.8986 42.6632C86.9147 42.6632 87.8749 43.9775 87.8749 45.7304V51.3384C87.8749 53.0897 86.9977 54.404 84.8986 54.404C82.881 54.4917 82.0053 53.1774 82.0053 51.3384H82.0069ZM85.8604 51.694V45.4672C85.8604 44.7654 85.5973 44.2406 84.8971 44.2406C84.1968 44.2406 83.9321 44.7654 83.9321 45.4672V51.694C83.9321 52.3957 84.1953 52.9221 84.8971 52.9221C85.5973 52.8281 85.8604 52.3895 85.8604 51.694ZM94.2725 46.8755L92.8705 54.3225H91.9948L90.5928 46.8755V54.3225H89.0153V42.8386H91.293L92.5196 49.3223L93.6584 42.8386H96.1115V54.3162H94.3602L94.2725 46.8755ZM102.418 46.8755L101.008 54.3225H100.131L98.7291 46.8755V54.3225H97.1642V42.8386H99.4418L100.668 49.3223L101.807 42.8386H104.26V54.3162H102.509V46.8692L102.418 46.8755ZM110.918 42.8449V51.5201C110.918 53.2714 110.135 54.4964 108.202 54.4964C106.186 54.4964 105.31 53.3576 105.31 51.5201V42.8386H107.237V51.7676C107.237 52.4694 107.5 52.908 108.202 52.908C108.903 52.908 109.165 52.4694 109.165 51.7676V42.8386L110.918 42.8449ZM113.546 47.1386V54.404H111.884V42.9217H113.813L115.92 49.5009V42.9217H117.486V54.404H115.827L113.546 47.1386ZM118.628 42.8449H120.555V54.3225H118.628V42.8449ZM121.432 42.8449H126.602V44.4223H125.027V54.3225H123.013V44.4223H121.435L121.432 42.8449ZM127.477 42.8449H129.406V54.3225H127.48L127.477 42.8449ZM130.454 42.8449H135.098V44.4223H132.388V47.7511H134.315V49.3286H132.388V52.8344H135.104V54.404H130.46L130.454 42.8449ZM135.886 51.8694V50.2841H137.727V51.8616C137.727 52.4756 137.988 52.9142 138.69 52.9142C139.304 52.9142 139.566 52.4756 139.566 51.8616V51.4245C139.566 50.7227 139.304 50.3718 138.69 49.7594L137.551 48.6205C136.412 47.5678 135.974 46.8676 135.974 45.5533V45.2025C135.974 43.8005 136.757 42.6616 138.69 42.6616C140.623 42.6616 141.406 43.625 141.406 45.2902V46.2536H139.66V45.2902C139.66 44.59 139.397 44.3268 138.784 44.3268C138.258 44.3268 137.908 44.59 137.908 45.2902V45.5533C137.908 46.1658 138.258 46.6045 138.784 47.1308L140.011 48.3574C141.062 49.4085 141.588 50.1102 141.588 51.3337V51.8584C141.588 53.4359 140.712 54.5747 138.784 54.5747C136.68 54.4917 135.892 53.3529 135.892 51.8631L135.886 51.8694Z" fill="white"/>
</g>
<defs>
<clipPath id="clip0_1161_17">
<rect width="169.18" height="169.18" fill="white"/>
</clipPath>
</defs>
</svg>
