<svg width="170" height="170" viewBox="0 0 170 170" fill="none" xmlns="http://www.w3.org/2000/svg">
<g clip-path="url(#clip0_1161_23)">
<path d="M169.18 0H0V169.18H169.18V0Z" fill="#7A7A7A"/>
<path d="M31.8857 25.9266V54.4037H27.0672V32.5826L23.7369 36.0915H23.6539V31.0976L28.04 25.9282L31.8857 25.9266ZM47.6571 32.1487V34.6018C47.6571 36.9672 46.3428 38.5447 44.416 39.2449C46.7814 39.7712 47.9202 41.4379 47.9202 44.0649V48.2709C47.9202 52.2138 45.818 54.7546 40.998 54.7546C36.1779 54.7546 34.4187 51.9506 34.4187 47.6569V43.8895H38.8049V47.9201C38.8049 49.5852 39.4174 50.7241 40.998 50.7241C42.4877 50.7241 43.1017 49.6729 43.1017 48.1832V43.4509C43.1017 41.9612 42.4 41.1732 40.7348 41.1732H38.7203V37.4935H40.5593C42.1368 37.4935 43.1017 36.7103 43.1017 35.2143V32.1487C43.1017 30.5713 42.5754 29.6079 41.0857 29.6079C39.596 29.6079 39.0696 30.5713 39.0696 32.4119V35.302H34.6835V32.7612C34.6835 28.5552 36.4348 25.665 41.3426 25.665C45.7287 25.665 47.6508 28.1182 47.6508 32.1487M136.331 102.421C132.651 97.2517 115.827 76.3971 84.5462 76.3971C53.2651 76.3971 36.5288 97.164 32.7614 102.421C32.6375 102.64 32.491 102.845 32.3244 103.034C32.4121 103.209 32.5875 103.384 32.7614 103.648C36.4411 108.817 53.2651 129.672 84.5462 129.672C115.74 129.672 132.564 108.905 136.331 103.648C136.455 103.428 136.601 103.223 136.768 103.034C136.593 102.858 136.505 102.597 136.331 102.421ZM67.1097 89.5399C67.3728 89.1029 68.3362 87.964 68.4239 87.7886C68.6871 87.4377 69.1257 87.4377 69.475 87.35C69.8244 87.2623 70.2583 87.4377 70.2583 87.7009C70.346 87.964 70.1706 88.9274 69.9951 89.1029C69.5565 89.5399 68.3299 90.2417 67.7175 90.154C67.2788 90.0663 67.0157 89.7154 67.1034 89.5399M66.0523 91.733C66.14 91.6453 66.14 91.6453 66.14 91.5575C66.4893 91.1189 67.2788 91.0312 67.8913 90.9435C68.4177 90.8573 69.1195 91.1189 69.2056 91.4698C69.2918 91.8207 67.8913 92.5209 67.542 92.6964C66.7588 93.3982 65.6137 94.7986 64.9134 94.974C64.8266 95.0116 64.7307 95.0233 64.6374 95.0078C64.544 94.9922 64.4571 94.95 64.3871 94.8863C64.8257 93.9229 65.4382 92.7841 66.0523 91.733ZM77.7053 115.741C77.2667 117.406 76.8297 118.019 76.3911 118.545C75.9524 119.071 74.3766 119.771 73.4147 119.684C72.4529 119.596 72.2759 116.967 72.2759 115.653C72.2759 115.215 71.5757 116.617 71.2248 113.726C70.9616 111.886 69.8228 113.902 69.7351 112.674C69.6474 111.446 69.0349 111.71 68.4208 110.922C67.8067 110.134 67.0188 111.01 66.2277 111.359C65.3505 111.71 65.7014 111.974 64.5626 111.535H64.4748C63.3071 108.854 62.7102 105.959 62.7219 103.035C62.7072 102.303 62.7365 101.571 62.8097 100.842C62.8126 100.797 62.832 100.754 62.8643 100.721C62.8966 100.689 62.9395 100.67 62.9851 100.667C64.1239 99.2646 64.1239 99.0015 64.1239 99.0015L65.4382 98.5644C66.6533 98.7805 67.8535 99.073 69.0317 99.4401C70.2583 99.8787 72.2728 101.018 73.4179 100.491C74.2951 100.14 74.9076 99.708 74.8199 99.0015C74.7322 98.1258 74.0366 97.9504 73.244 98.4767C72.8931 98.6506 72.279 97.1624 71.7543 97.2486C71.2295 97.3347 72.3668 99.0892 71.9297 99.0892C71.4911 99.1769 70.6139 97.2486 70.44 96.987C70.2661 96.7254 69.6568 95.9343 69.038 96.5484C67.7237 97.7749 65.7077 97.6872 65.269 98.0381C63.9548 99.0015 63.6916 97.6872 63.6916 96.987C63.7793 96.8115 63.7793 96.6361 63.867 96.4606C64.3057 96.022 65.7954 95.8481 66.3217 96.1975C66.8481 96.5468 67.2851 96.1097 67.5483 95.8481C67.8114 95.5865 67.7237 95.2341 67.5483 94.9709C67.3728 94.7077 67.8099 94.4461 68.1608 94.3584C68.4239 94.2707 69.3873 93.5752 69.8259 93.395C70.1768 93.1319 72.1913 92.9564 73.1563 93.395C73.5177 93.5803 73.9311 93.6378 74.3293 93.5581C74.7275 93.4785 75.087 93.2664 75.3494 92.9564C75.7712 92.4078 76.308 91.9582 76.9221 91.639C77.273 91.4636 76.1389 90.5002 75.2585 91.5513C74.3828 92.6901 73.9442 92.7778 73.5056 92.7778C73.067 92.7778 70.6139 92.1654 70.2645 91.3758C70.0014 90.5926 71.0478 89.966 72.0159 89.5352C72.984 89.1044 75.5217 89.0982 76.1342 88.9227C77.4484 88.6596 79.1105 87.9593 79.9893 88.5718C80.8665 89.0982 76.4851 90.1493 77.8871 90.9372C78.4118 91.2004 80.6911 89.623 81.479 89.1859C83.3196 88.221 79.6399 87.8716 80.1647 85.9433C80.6911 83.7502 75.6078 84.5413 73.1563 84.8044C76.6572 82.5478 80.7398 81.36 84.9049 81.3864C89.7833 81.3854 94.5199 83.0275 98.3508 86.0479C102.182 89.0683 104.884 93.291 106.021 98.035C106.021 98.4736 105.933 98.8182 105.933 98.9983C105.758 99.7816 104.268 100.488 103.393 99.1738C103.129 98.8229 102.254 97.9472 102.254 99.5247C102.254 101.014 103.743 101.19 102.341 102.066C100.939 102.941 100.676 102.767 100.062 102.941C99.4497 103.204 98.8356 104.694 98.9233 105.571C99.0988 106.355 101.027 108.637 99.6251 108.548C99.2742 108.548 96.6488 106.709 96.2071 105.571C95.77 104.343 95.2437 103.204 94.8928 102.241C94.5435 101.365 93.5801 101.102 92.8783 101.627C92.095 102.153 93.0537 102.68 92.5274 103.82C92.0011 104.96 91.564 105.922 90.7761 105.047C88.6723 102.593 85.6067 103.82 85.0803 101.104C84.8172 99.614 83.5906 99.7894 82.5379 98.9106C81.4868 98.1274 80.8743 97.5963 80.6989 98.2104C80.5234 98.7352 84.0277 101.539 84.2908 102.241C84.6417 103.292 83.2397 104.255 82.1886 104.434C81.1359 104.697 80.6989 103.822 79.6478 102.77C78.5967 101.719 78.1581 100.93 78.1581 101.805C78.0703 103.032 79.1214 104.782 80.1726 105.399C81.0498 105.924 82.0132 106.182 81.75 107.15C81.4868 108.028 81.75 107.501 80.7866 108.56C79.8217 109.525 79.6478 109.874 79.6478 111.19C79.7339 112.6 79.3846 112.6 79.1214 113.731C78.6828 115.045 78.1581 114.08 77.7116 115.746M101.107 107.07C101.807 106.984 102.946 108.035 102.509 108.386C102.072 108.737 101.019 108.648 100.405 108.211C99.8805 107.772 100.756 107.07 101.107 107.07ZM100.142 106.364C99.8805 106.276 99.705 106.013 99.5296 105.488C99.3541 104.964 99.7927 104.611 100.23 104.874C100.667 105.137 101.282 105.75 101.282 106.101C101.282 106.539 100.405 106.539 100.142 106.364ZM90.5051 106.364C90.0665 106.715 89.0154 106.627 88.4013 106.188C87.8765 105.75 88.7522 105.05 89.1031 105.05C89.8863 104.962 90.9421 106.013 90.5129 106.364M81.6623 110.658C81.3991 111.184 80.5234 114.776 79.9971 114.337C79.4708 113.899 80.2603 110.131 80.348 109.782C81.2237 108.292 83.0643 108.372 81.6623 110.658ZM84.6386 124.852C82.5642 124.831 80.5015 124.537 78.5042 123.976C78.2426 123.713 78.0672 123.362 78.2426 122.925C78.9429 121.172 80.9589 120.47 82.5348 120.296C86.0406 119.945 90.6805 122.574 91.4732 122.135C92.1749 121.698 93.6662 119.77 95.8593 119.858C97.3475 119.945 97.3475 120.209 97.8738 120.382C94.0669 123.278 89.4166 124.846 84.6339 124.848M99.9682 118.54C99.7399 118.438 99.5056 118.35 99.2664 118.277C98.0398 117.663 98.2153 118.628 97.6012 118.452C96.9872 118.277 98.303 116.875 96.4624 118.014C94.7111 119.153 95.1481 117.838 94.4479 115.912C93.6647 113.983 95.3236 111.793 96.7256 111.267C98.6523 110.567 99.7927 110.484 100.668 110.216C103.297 109.603 103.823 108.023 104.348 108.989L104.611 109.516C104.843 109.949 104.963 110.434 104.962 110.926C103.844 113.785 102.143 116.381 99.9682 118.548M105.921 107.595C105.308 107.42 102.854 104.091 104.87 101.812C105.221 101.461 104.256 100.41 104.519 100.322C105.571 100.234 106.096 100.936 106.447 101.812V103.038C106.363 104.566 106.188 106.088 105.921 107.595ZM59.0564 34.5141V28.9061C59.0564 27.067 59.932 25.8389 61.9481 25.8389C64.0503 25.8389 64.6644 27.067 64.6644 28.7306V30.1405H62.9037V28.6508C62.9037 27.9505 62.6405 27.5119 61.9403 27.5119C61.24 27.5119 60.9753 28.0383 60.9753 28.7385V34.959C60.9753 35.6608 61.2385 36.1871 61.9403 36.1871C62.642 36.1871 62.9037 35.7485 62.9037 35.0467V32.9366H64.6565V34.9511C64.6565 36.6163 63.9548 37.8429 61.9403 37.8429C59.9242 37.5813 59.0564 36.2654 59.0564 34.5141ZM65.8909 25.9266H67.8177V35.8284H70.0969V37.4058H65.8831L65.8909 25.9266ZM71.2358 25.9266H73.1547V37.4058H71.2279L71.2358 25.9266ZM79.9094 29.9572L78.5074 37.4058H77.6317L76.2297 29.9572V37.4058H74.6444V25.9266H76.9221L78.1502 32.4119L79.2891 25.9266H81.7422V37.4058H79.9893L79.9094 29.9572ZM82.7103 37.4935L84.9033 26.0144H87.0964L89.2895 37.4935H87.2625L86.9116 35.3898H84.9033L84.5524 37.4935H82.7103ZM85.0772 33.8139H86.6547L85.8714 29.1693L85.0772 33.8139ZM89.0201 25.9266H94.1894V27.5041H92.6073V37.4058H90.6805V27.5041H89.1031L89.0201 25.9266ZM95.2405 25.9266H99.8852V27.5041H97.1642V30.8344H99.091V32.4119H97.1642V35.9161H99.8805V37.4935H95.2421L95.2405 25.9266ZM58.6976 54.1406L60.8907 42.6629H63.0838L65.2769 54.1406H63.3501L62.9992 52.0383H60.9753L60.6229 54.1406H58.6976ZM61.1508 50.4609H62.7282L61.945 45.8178L61.1508 50.4609ZM65.8831 51.1627V45.5547C65.8831 43.714 66.7588 42.4875 68.7748 42.4875C70.877 42.4875 71.4911 43.7141 71.4911 45.3792V46.7812H69.7382V45.2915C69.7382 44.5913 69.475 44.1527 68.7748 44.1527C68.0746 44.1527 67.8099 44.6774 67.8099 45.3792V51.6013C67.8099 52.3015 68.073 52.8278 68.7748 52.8278C69.4766 52.8278 69.7382 52.3892 69.7382 51.6874V49.5852H71.4911V51.6013C71.4911 53.2649 70.7893 54.4914 68.7748 54.4914C66.671 54.316 65.8831 52.9156 65.8831 51.1627ZM72.1913 42.6629H77.3607V44.2404H75.7833V54.1406H73.8565V44.2404H72.279L72.1913 42.6629ZM78.4118 42.6629H80.3402V54.1406H78.4118V42.6629ZM81.6544 51.1627V45.5547C81.6544 43.714 82.5301 42.4875 84.5462 42.4875C86.5622 42.4875 87.5225 43.8018 87.5225 45.5547V51.1627C87.5225 52.9156 86.6468 54.2283 84.5462 54.2283C82.5301 54.316 81.6544 52.9156 81.6544 51.1627ZM85.5096 51.5136V45.2915C85.5096 44.5913 85.248 44.0649 84.5462 44.0649C83.8444 44.0649 83.5828 44.5913 83.5828 45.2915V51.5136C83.5828 52.2138 83.8459 52.7401 84.5462 52.7401C85.248 52.6524 85.5096 52.2138 85.5096 51.5136ZM90.4174 46.8689V54.1406H88.7522V42.6629H90.6805L92.7827 49.2343V42.6629H94.3602V54.1406H92.695L90.4174 46.8689Z" fill="white"/>
</g>
<defs>
<clipPath id="clip0_1161_23">
<rect width="169.18" height="169.18" fill="white"/>
</clipPath>
</defs>
</svg>
