<svg width="170" height="170" viewBox="0 0 170 170" fill="none" xmlns="http://www.w3.org/2000/svg">
<path d="M169.18 0H0V169.18H169.18V0Z" fill="#7A7A7A"/>
<path d="M35.2145 25.9268V54.4038H30.3898V32.5827L26.9795 36.0917V31.0977L31.3657 25.9283L35.2145 25.9268ZM37.4076 25.9268H49.3238V30.3897L43.1018 54.4038H38.3694L44.7654 29.8712H37.4029L37.4076 25.9268ZM120.384 99.6172C120.384 89.7155 112.5 81.6544 102.683 81.3035C100.141 74.2073 93.3075 69.0379 85.3326 69.0379C81.5282 69.0382 77.8175 70.2174 74.7109 72.4133C71.6044 74.6093 69.2547 77.714 67.9853 81.3003C58.1713 81.6512 50.2841 89.7123 50.2841 99.6141C50.2867 102.405 50.9276 105.159 52.1578 107.665C53.388 110.171 55.1749 112.362 57.3818 114.071C56.9219 115.726 56.6859 117.435 56.68 119.153C56.6794 121.57 57.155 123.963 58.0796 126.196C59.0042 128.429 60.3597 130.459 62.0687 132.168C63.7777 133.877 65.8066 135.232 68.0397 136.157C70.2727 137.082 72.6661 137.558 75.0831 137.557C78.7796 137.558 82.3876 136.426 85.4218 134.315C88.1938 136.154 91.4126 137.207 94.7355 137.362C98.0584 137.516 101.361 136.767 104.292 135.194C107.223 133.62 109.672 131.282 111.38 128.427C113.087 125.572 113.988 122.307 113.987 118.98C113.981 117.292 113.746 115.612 113.286 113.987C117.673 110.746 120.383 105.488 120.383 99.6172M100.054 87.4378C100.054 94.8003 94.6234 100.844 87.5225 101.895C87.4171 101.14 87.3585 100.379 87.347 99.6172C87.347 92.2548 92.7796 86.2113 99.8789 85.1602C99.9838 85.9151 100.042 86.6757 100.053 87.4378M85.5096 129.584C84.1002 128.219 82.9788 126.584 82.2114 124.778C81.4441 122.972 81.0464 121.031 81.042 119.068C81.0632 115.167 82.6026 111.427 85.3341 108.642C86.7332 109.998 87.8488 111.619 88.616 113.41C89.3831 115.202 89.7866 117.128 89.8029 119.076C89.8192 121.025 89.4481 122.957 88.711 124.761C87.974 126.565 86.8858 128.204 85.5096 129.584ZM70.9616 85.1602C78.0594 86.2113 83.4935 92.2579 83.4935 99.6172C83.4787 100.379 83.4201 101.14 83.3181 101.895C76.2203 100.844 70.7862 94.7971 70.7862 87.4378C70.7862 86.6546 70.7862 85.8604 70.9616 85.1602ZM81.9145 106.189C79.4614 111.009 74.552 114.334 68.8594 114.334C66.5087 114.335 64.1931 113.763 62.1126 112.669C64.5657 107.851 69.4751 104.523 75.2554 104.523C77.5754 104.545 79.8573 105.116 81.9145 106.189ZM88.9245 106.101C90.6555 105.192 92.5516 104.641 94.5 104.481C96.4485 104.32 98.4093 104.553 100.266 105.166C102.122 105.78 103.836 106.76 105.305 108.05C106.775 109.339 107.97 110.911 108.819 112.672C106.734 113.756 104.421 114.327 102.072 114.337C99.3273 114.345 96.6365 113.575 94.3108 112.118C91.985 110.66 90.1193 108.574 88.9292 106.101M85.4218 72.7176C91.4685 72.7176 96.6379 76.3095 98.8278 81.5666C95.9254 82.0819 93.1906 83.2911 90.8564 85.0913C88.5221 86.8915 86.6577 89.2292 85.4218 91.9054C84.1863 89.229 82.322 86.891 79.9877 85.0908C77.6534 83.2906 74.9184 82.0815 72.0159 81.5666C73.1371 78.94 75.0056 76.7008 77.389 75.1275C79.7725 73.5542 82.5659 72.7162 85.4218 72.7176ZM54.1408 99.6172C54.1408 92.0824 59.9242 85.8604 67.1974 85.0724C67.0953 85.8571 67.0368 86.6467 67.0219 87.4378C67.0215 89.9901 67.5503 92.5148 68.5748 94.8524C69.5994 97.19 71.0975 99.2898 72.9746 101.019C70.0273 101.358 67.2055 102.404 64.7493 104.068C62.293 105.731 60.275 107.964 58.8668 110.575C57.3673 109.173 56.1731 107.476 55.3589 105.592C54.5446 103.707 54.1278 101.675 54.1345 99.6219M60.4505 119.244C60.4375 118.211 60.5549 117.18 60.7999 116.177C63.2546 117.317 65.8831 118.017 68.7748 118.017C71.8728 118.044 74.9237 117.258 77.6239 115.739C77.4113 116.866 77.2939 118.009 77.273 119.156C77.273 124.151 79.2891 128.621 82.4424 131.949C80.2163 133.276 77.6714 133.973 75.0799 133.965C67.0188 133.878 60.4474 127.306 60.4474 119.241M110.392 119.065C110.39 121.629 109.716 124.148 108.435 126.369C107.155 128.591 105.314 130.437 103.096 131.723C100.878 133.01 98.3612 133.691 95.7973 133.7C93.2333 133.708 90.7121 133.043 88.4859 131.771C91.6392 128.451 93.5723 124.065 93.5723 119.156C93.5903 117.978 93.4726 116.802 93.2214 115.652C95.9508 117.17 99.0271 117.955 102.15 117.929C104.912 117.923 107.638 117.294 110.124 116.09C110.211 117.141 110.387 118.105 110.387 119.067M97.855 100.842C99.7105 99.1189 101.19 97.0307 102.2 94.7087C103.21 92.3866 103.73 89.8808 103.726 87.3485C103.711 86.5574 103.653 85.7678 103.551 84.9831C106.357 85.2884 109.015 86.3984 111.205 88.1795C113.395 89.9607 115.023 92.337 115.893 95.0222C116.764 97.7074 116.839 100.587 116.111 103.314C115.382 106.041 113.881 108.5 111.787 110.393C109.159 105.311 103.989 101.63 97.855 100.838" fill="white"/>
<path d="M59.0564 25.9271H61.9482C63.8749 25.9271 64.5767 26.892 64.5767 28.4695V30.9226C64.5767 32.5 63.8749 33.5511 61.9482 33.5511H60.9832V37.494H59.0564V25.9271ZM61.0709 27.5045V32.0614H61.7727C62.4729 32.0614 62.7361 31.7105 62.7361 31.098V28.4695C62.7361 27.8554 62.4729 27.5045 61.7727 27.5045H61.0709ZM64.8399 37.494L67.033 26.0148H69.226L71.4191 37.494H69.3952L69.0459 35.3902H67.022L66.6711 37.494H64.8399ZM67.293 33.8143H68.8626L68.0794 29.1697L67.293 33.8143ZM74.3907 32.1491V37.4063H72.4545V25.9271H75.2586C77.1853 25.9271 77.8871 26.892 77.8871 28.4695V29.9576C77.8871 31.1858 77.4485 31.886 76.3097 32.1507L78.1503 37.4078H76.1311L74.3907 32.1491ZM74.3907 27.5045V31.098H75.0032C75.7034 31.098 75.9666 30.7471 75.9666 30.1331V28.4695C75.9666 27.8554 75.7034 27.5045 75.0032 27.5045H74.3907ZM78.5952 25.9271H83.7645V27.5045H82.1808V37.4063H80.2525V27.5045H78.6751V25.9271H78.5952ZM86.5701 30.2208V37.494H84.9034V26.0148H86.8302L88.9339 32.594V26.0148H90.5114V37.494H88.84L86.5701 30.2208ZM92.1781 25.9271H96.8087V27.5045H94.0971V30.8349H96.0254V32.4123H94.0986V35.9165H96.8087V37.494H92.1703L92.1781 25.9271ZM99.9761 32.1491V37.4063H98.0399V25.9271H100.844C102.772 25.9271 103.472 26.892 103.472 28.4695V29.9576C103.472 31.1858 103.034 31.886 101.895 32.1507L103.736 37.4078H101.72L99.9761 32.1491ZM99.9761 27.5045V31.098H100.589C101.29 31.098 101.552 30.7471 101.552 30.1331V28.4695C101.552 27.8554 101.29 27.5045 100.589 27.5045H99.9761ZM104.444 34.9516V33.4634H106.284V35.0393C106.284 35.6534 106.547 36.092 107.248 36.092C107.862 36.092 108.125 35.6534 108.125 35.0393V34.6023C108.125 33.9005 107.862 33.5511 107.248 32.9371L106.101 31.7998C104.962 30.7487 104.524 30.0469 104.524 28.7326V28.3833C104.524 26.9735 105.401 25.8409 107.24 25.8409C109.168 25.8409 109.956 26.8059 109.956 28.471V29.4344H108.205V28.471C108.205 27.7693 107.942 27.5061 107.328 27.5061C106.803 27.5061 106.452 27.7693 106.452 28.471V28.7326C106.452 29.3467 106.803 29.7853 107.328 30.3101L108.554 31.5367C109.607 32.5893 110.132 33.2895 110.132 34.513V35.0377C110.132 36.6152 109.256 37.754 107.328 37.754C105.225 37.5817 104.436 36.529 104.436 34.9516H104.444ZM115.047 32.4123H113.199V37.494H111.184V26.0148H113.111V30.9226H114.952V26.0148H116.878V37.494H114.952V32.4123H115.047ZM118.288 25.9271H120.217V37.4063H118.28L118.288 25.9271ZM121.443 25.9271H124.335C126.262 25.9271 126.963 26.892 126.963 28.4695V30.9226C126.963 32.5 126.262 33.5511 124.335 33.5511H123.458V37.494H121.531L121.443 25.9271ZM123.458 27.5045V32.0614H124.159C124.86 32.0614 125.123 31.7105 125.123 31.098V28.4695C125.123 27.8554 124.86 27.5045 124.159 27.5045H123.458ZM127.751 34.9516V33.4634H129.592V35.0393C129.592 35.6534 129.855 36.092 130.555 36.092C131.169 36.092 131.433 35.6534 131.433 35.0393V34.6023C131.433 33.9005 131.169 33.5511 130.555 32.9371L129.409 31.7998C128.27 30.7471 127.825 30.0454 127.825 28.7311V28.3818C127.825 26.9719 128.702 25.8394 130.541 25.8394C132.47 25.8394 133.258 26.8043 133.258 28.4695V29.4329H131.512V28.4695C131.512 27.7677 131.249 27.5045 130.635 27.5045C130.11 27.5045 129.76 27.7677 129.76 28.4695V28.7311C129.76 29.3451 130.11 29.7838 130.635 30.3085L131.862 31.5351C132.915 32.5878 133.439 33.288 133.439 34.5114V35.0362C133.439 36.6136 132.564 37.7525 130.635 37.7525C128.533 37.5817 127.744 36.529 127.744 34.9516H127.751Z" fill="white"/>
<path d="M59.0564 42.6633H63.5992V44.2408H60.9754V47.5695H62.9037V49.147H60.9754V54.2287H59.0564V42.6633ZM64.3135 51.2508V45.6428C64.3135 43.8022 65.1892 42.5756 67.2053 42.5756C69.2213 42.5756 70.1816 43.8899 70.1816 45.6428V51.2508C70.1816 53.0037 69.3044 54.3164 67.2053 54.3164C65.1814 54.3164 64.3057 53.0037 64.3057 51.2508H64.3135ZM68.2564 51.5139V45.2919C68.2564 44.5917 67.9932 44.0653 67.293 44.0653C66.5928 44.0653 66.3296 44.5917 66.3296 45.2919V51.5139C66.3296 52.2142 66.5912 52.7405 67.293 52.7405C67.8977 52.7405 68.2485 52.2142 68.2485 51.5139H68.2564ZM73.338 48.8838V54.1409H71.4113V42.6633H74.2153C76.142 42.6633 76.8438 43.6267 76.8438 45.2042V46.6939C76.8438 47.9204 76.4052 48.6222 75.2664 48.887L77.1054 54.1441H75.0831L73.338 48.8838ZM73.338 44.2408V47.8327H73.938C74.6382 47.8327 74.9014 47.4818 74.9014 46.8693V45.2042C74.9014 44.5917 74.6382 44.2408 73.938 44.2408H73.338ZM79.9972 42.6633H85.1666V44.2408H83.5828V54.1409H81.6545V44.2408H80.0771V42.6633H79.9972ZM89.8112 49.147H87.9643V54.2287H86.0359V42.751H87.9643V47.6573H89.8033V42.751H91.7317V54.2287H89.8033L89.8112 49.147ZM93.0491 42.6633H97.6922V44.2408H94.9727V47.5695H96.9011V49.147H94.9727V52.6528H97.689V54.2287H93.0491V42.6633ZM103.911 48.0912H106.627V54.224H105.225V52.999C104.962 53.8746 104.442 54.3994 103.385 54.3994C101.72 54.3994 100.932 53.0851 100.932 51.3338V45.7258C100.932 43.8852 101.807 42.6586 103.823 42.6586C105.926 42.6586 106.627 43.8852 106.627 45.5503V46.6015H104.874V45.4626C104.874 44.7608 104.611 44.3238 103.911 44.3238C103.211 44.3238 102.946 44.8486 102.946 45.5503V51.7708C102.946 52.4726 103.209 52.999 103.911 52.999C104.524 52.999 104.874 52.6481 104.874 51.8586V49.8488H103.999V48.0912H103.911ZM107.671 51.2461V45.6381C107.671 43.7975 108.546 42.5709 110.562 42.5709C112.578 42.5709 113.539 43.8852 113.539 45.6381V51.2461C113.539 52.999 112.661 54.3117 110.562 54.3117C108.642 54.3164 107.678 53.0037 107.678 51.2508L107.671 51.2461ZM111.613 51.5092V45.2919C111.613 44.5917 111.35 44.0653 110.65 44.0653C109.95 44.0653 109.687 44.5917 109.687 45.2919V51.5139C109.687 52.2142 109.948 52.7405 110.65 52.7405C111.352 52.7405 111.621 52.2142 111.621 51.5139L111.613 51.5092ZM114.154 54.224L116.347 42.7463H118.54L120.734 54.224H118.719L118.368 52.1217H116.352L116.003 54.224H114.154ZM116.52 50.5443H118.113L117.33 45.9012L116.52 50.5443ZM121.689 42.6586H123.616V52.5604H125.895V54.1362H121.698L121.689 42.6586ZM126.605 51.6941V50.1119H128.452V51.6941C128.452 52.3082 128.715 52.7468 129.415 52.7468C130.029 52.7468 130.291 52.3082 130.291 51.6941V51.257C130.291 50.5553 130.029 50.2059 129.415 49.5919L128.276 48.453C127.137 47.4019 126.699 46.7001 126.699 45.3859V45.035C126.699 43.633 127.574 42.4941 129.415 42.4941C131.343 42.4941 132.131 43.4575 132.131 45.1227V46.0861H130.372V45.1149C130.372 44.4146 130.11 44.1515 129.496 44.1515C128.97 44.1515 128.621 44.4146 128.621 45.1149V45.378C128.621 45.9921 128.97 46.4291 129.496 46.9555L130.723 48.182C131.774 49.2331 132.3 49.9349 132.3 51.1584V51.6941C132.3 53.2715 131.425 54.4104 129.496 54.4104C127.393 54.3164 126.605 53.2606 126.605 51.6941Z" fill="white"/>
</svg>
