<svg width="170" height="170" viewBox="0 0 170 170" fill="none" xmlns="http://www.w3.org/2000/svg">
<g clip-path="url(#clip0_1161_39)">
<path d="M169.18 0H0V169.18H169.18V0Z" fill="#7A7A7A"/>
<path d="M36.1857 54.4038H40.7285V49.7608H42.6569V45.9934H40.7285V25.9268H35.9978L27.7675 46.7813V49.6731H36.1857V54.4038ZM31.9797 45.9934L36.2719 34.2448V45.9934H31.9797Z" fill="white"/>
<path d="M75.9588 89.7153L50.6366 75.0828V122.398L75.9588 130.018V89.7153ZM78.6751 89.8031V130.018L104.171 122.311V75.0828L78.6751 89.8031ZM123.976 73.9377C123.976 73.1484 123.663 72.3913 123.104 71.8332C122.546 71.275 121.789 70.9614 121 70.9614C120.21 70.9614 119.453 71.275 118.895 71.8332C118.337 72.3913 118.024 73.1484 118.024 73.9377V77.1788H123.976V73.9377ZM118.807 121.517H118.024L121 131.943L123.976 121.517V79.4643H118.024V121.523L118.807 121.517Z" fill="white"/>
<path d="M109.607 77.1853L106.89 74.9922V123.625L78.7627 132.739H75.9587L47.9187 124.939V74.9953L45.2024 77.1884V126.783L75.7817 135.283H78.9366L107.063 126.345L109.605 125.561L109.607 77.1853Z" fill="white"/>
<path d="M54.4039 42.8386H59.0564V44.4161H56.3323V47.7449H58.259V49.3223H56.3323V52.8281H59.0564V54.404H54.4039V42.8386ZM65.9708 45.9058V51.2506C65.9708 53.0035 65.2691 54.3162 63.1668 54.3162H60.1905V42.8386H63.1668C65.2691 42.8386 65.9708 44.1529 65.9708 45.9058ZM62.9037 52.7404C63.6869 52.7404 64.0425 52.3018 64.0425 51.6015V45.5549C64.0425 44.8531 63.7793 44.4161 62.9037 44.4161H62.1204V52.7404H62.9037ZM72.8931 42.8386V51.5138C72.8931 53.2651 72.1099 54.4901 70.1768 54.4901C68.1608 54.4901 67.2851 53.3513 67.2851 51.5138V42.8386H69.2119V51.7676C69.2119 52.4694 69.4751 52.908 70.1768 52.908C70.8786 52.908 71.1402 52.4694 71.1402 51.7676V42.8386H72.8931ZM74.1197 51.3384V45.7304C74.1197 43.8897 74.9953 42.6632 77.0098 42.6632C79.1136 42.6632 79.7261 43.8897 79.7261 45.5549V46.9569H77.9748V45.4672C77.9748 44.7654 77.7116 44.3284 77.0098 44.3284C76.3081 44.3284 76.0465 44.8531 76.0465 45.5549V51.7754C76.0465 52.4772 76.3096 53.0035 77.0098 53.0035C77.7101 53.0035 77.9748 52.5649 77.9748 51.8631V49.7609H79.734V51.7754C79.734 53.4406 79.0337 54.6671 77.0177 54.6671C74.9953 54.4917 74.1197 53.1774 74.1197 51.3384ZM80.4279 54.3147L82.621 42.8371H84.8141L87.0071 54.3147H84.9848L84.6339 52.2125H82.6178L82.2685 54.3147H80.4279ZM82.7933 50.7227H84.3707L83.5875 46.0781L82.7933 50.7227ZM86.7361 42.8371H91.9055V44.4145H90.3296V54.3147H88.4013V44.4145H86.8239V42.8386L86.7361 42.8371ZM92.9582 42.8371H94.885V54.3147H92.9582V42.8371ZM96.1992 51.3368V45.7288C96.1992 43.8882 97.0765 42.6616 99.091 42.6616C101.105 42.6616 102.067 43.9759 102.067 45.7288V51.3368C102.067 53.0881 101.192 54.4024 99.091 54.4024C97.0765 54.4917 96.1992 53.1774 96.1992 51.3384V51.3368ZM100.142 51.694V45.4672C100.142 44.7654 99.8805 44.2406 99.1787 44.2406C98.4769 44.2406 98.2153 44.7654 98.2153 45.4672V51.694C98.2153 52.3957 98.4785 52.9221 99.1787 52.9221C99.7928 52.8281 100.142 52.3895 100.142 51.694ZM104.962 47.1386V54.404H103.297V42.9217H105.225L107.328 49.5009V42.9217H108.905V54.404H107.24L104.962 47.1386Z" fill="white"/>
<path d="M56.5938 38.1937V37.4105C55.018 37.1473 54.4008 36.0085 54.4008 34.4342V28.823C54.4008 26.984 55.2764 25.7559 57.2925 25.7559C59.3085 25.7559 60.2688 27.0717 60.2688 28.823V34.431C60.2688 35.6576 59.8302 36.7087 58.8668 37.1473L60.2688 37.4105V38.8203L56.5938 38.1937ZM58.3467 34.865V28.5552C58.3467 27.8549 58.0836 27.3286 57.3833 27.3286C56.6831 27.3286 56.42 27.8549 56.42 28.5552V34.865C56.42 35.5652 56.6816 36.0915 57.3833 36.0915C57.9958 36.0915 58.3467 35.5589 58.3467 34.865ZM67.1096 25.9266V34.6018C67.1096 36.3531 66.3264 37.5781 64.3933 37.5781C62.3773 37.5781 61.5016 36.4377 61.5016 34.6018V25.9266H63.43V34.865C63.43 35.5652 63.6916 36.0038 64.3933 36.0038C65.0951 36.0038 65.3567 35.5652 65.3567 34.865V25.9266H67.1096ZM67.8929 37.4058L70.0859 25.9266H72.279L74.4721 37.4058H72.4545L72.1036 35.302H70.0891L69.7382 37.4058H67.8929ZM70.2598 33.8138H71.8373L71.054 29.1692L70.2598 33.8138ZM75.3478 25.9266H77.2745V35.8283H79.5538V37.4058H75.3478V25.9266ZM80.5172 25.9266H82.4439V37.4058H80.5172V25.9266ZM83.4089 25.9266H88.5783V27.5041H86.9993V37.4058H85.0725V27.5041H83.4935L83.4089 25.9266ZM93.2229 33.0243V37.4105H91.293V33.0243L89.0999 25.9266H91.1144L92.2548 30.3128L93.3936 25.9266H95.2421L93.2229 33.0243Z" fill="white"/>
</g>
<defs>
<clipPath id="clip0_1161_39">
<rect width="169.18" height="169.18" fill="white"/>
</clipPath>
</defs>
</svg>
