<svg width="170" height="170" viewBox="0 0 170 170" fill="none" xmlns="http://www.w3.org/2000/svg">
<g clip-path="url(#clip0_1161_31)">
<path d="M169.18 0H0V169.18H169.18V0Z" fill="#7A7A7A"/>
<path d="M41.5243 47.3953V44.2404C41.5243 41.5241 40.5594 39.508 38.3694 38.5447C40.2978 37.5813 41.1734 35.9161 41.1734 33.6384V32.4996C41.1734 28.0304 38.8958 25.665 34.4266 25.665C30.0404 25.665 27.7675 28.0304 27.7675 32.4996V33.6384C27.7675 35.9161 28.6431 37.6674 30.4838 38.5447C28.2907 39.508 27.3289 41.521 27.3289 44.2404V47.3076C27.3289 51.6013 29.3449 54.67 34.4266 54.67C39.4205 54.7577 41.5243 51.6937 41.5243 47.3984M32.2366 32.1518C32.2366 30.3989 32.8491 29.4356 34.3389 29.4356C35.9163 29.4356 36.5319 30.3989 36.5319 32.1518V34.0786C36.5319 35.8315 35.9194 36.7949 34.3389 36.7949C32.7583 36.7949 32.2366 35.7438 32.2366 34.0786V32.1518ZM36.7043 47.9232C36.7043 49.6761 36.0918 50.8995 34.3389 50.8995C32.6753 50.8995 32.0612 49.6729 32.0612 47.9232V43.2754C32.0612 41.5241 32.6753 40.3853 34.3389 40.3853C36.0918 40.3853 36.7043 41.6118 36.7043 43.2754V47.9232Z" fill="white"/>
<path d="M111.972 83.4936L97.6013 97.1627C97.0765 97.6875 96.8181 98.1261 96.8181 99.1772V137.381C96.8181 137.588 96.9006 137.788 97.0475 137.934C97.1943 138.081 97.3936 138.164 97.6013 138.164H112.411C112.619 138.164 112.818 138.081 112.965 137.934C113.112 137.788 113.194 137.588 113.194 137.381V83.8461C113.282 83.3197 112.931 82.5302 111.968 83.4952M70.7017 101.195L56.3323 114.864C55.806 115.389 55.5491 115.827 55.5491 116.878V137.294C55.5491 137.502 55.6316 137.701 55.7785 137.848C55.9254 137.995 56.1246 138.078 56.3323 138.078H71.1403C71.348 138.078 71.5472 137.995 71.6941 137.848C71.841 137.701 71.9235 137.502 71.9235 137.294V101.544C72.0097 101.107 71.6603 100.318 70.6954 101.195" fill="white"/>
<path d="M118.544 66.9342C118.557 66.8106 118.525 66.6863 118.456 66.5833C118.421 66.55 118.38 66.5249 118.334 66.5097C118.289 66.4945 118.24 66.4897 118.193 66.4956H118.017L107.064 68.9503H106.89C106.824 68.96 106.763 68.9907 106.715 69.038C106.674 69.0775 106.641 69.125 106.618 69.1776C106.595 69.2303 106.584 69.287 106.584 69.3442C106.584 69.4015 106.595 69.4582 106.618 69.5108C106.641 69.5635 106.674 69.611 106.715 69.6505L109.34 72.279L84.4584 97.1642L72.9808 85.6866C72.9158 85.6436 72.8395 85.6207 72.7615 85.6207C72.6835 85.6207 72.6073 85.6436 72.5422 85.6866L69.3951 88.8399L50.9874 107.24C50.9444 107.305 50.9215 107.381 50.9215 107.459C50.9215 107.537 50.9444 107.613 50.9874 107.678L54.1423 110.833C54.2071 110.876 54.2831 110.899 54.3608 110.899C54.4385 110.899 54.5145 110.876 54.5794 110.833L72.8054 92.695L84.2767 104.171C84.3421 104.213 84.4182 104.236 84.496 104.236C84.5738 104.236 84.65 104.213 84.7153 104.171L112.943 75.9587L115.572 78.5873C115.611 78.6287 115.659 78.6617 115.712 78.6843C115.764 78.7069 115.821 78.7185 115.878 78.7185C115.935 78.7185 115.992 78.7069 116.045 78.6843C116.097 78.6617 116.145 78.6287 116.184 78.5873C116.218 78.5527 116.243 78.5111 116.258 78.4656C116.273 78.4201 116.278 78.3717 116.272 78.3241L118.727 67.1096L118.544 66.9342Z" fill="white"/>
<path d="M91.4685 103.648L84.5462 110.658C84.4814 110.702 84.405 110.725 84.3269 110.725C84.2487 110.725 84.1723 110.702 84.1076 110.658L77.7993 104.26C76.6605 103.122 76.3973 104.087 76.3973 104.524V137.47C76.3973 137.678 76.4799 137.877 76.6267 138.024C76.7736 138.171 76.9729 138.253 77.1806 138.253H91.9901C92.1978 138.253 92.397 138.171 92.5439 138.024C92.6908 137.877 92.7733 137.678 92.7733 137.47V103.999C92.7733 103.385 92.4224 102.597 91.4591 103.648" fill="white"/>
<path d="M57.8219 28.9938V34.3386C57.8219 36.0915 57.1202 37.4058 55.0179 37.4058H52.0416V25.9266H55.0179C57.1202 25.9266 57.8219 27.2409 57.8219 28.9938ZM54.7548 35.8283C55.538 35.8283 55.8936 35.3897 55.8936 34.6895V28.6429C55.8936 27.9427 55.6304 27.5041 54.7548 27.5041H53.9715V35.8283H54.7548ZM59.0563 25.9266H63.6994V27.5041H60.9753V30.8344H62.9036V32.4118H60.9753V35.9161H63.6916V37.4935H59.0563V25.9266ZM64.6643 34.4263V28.823C64.6643 26.984 65.54 25.7559 67.5561 25.7559C69.6583 25.7559 70.2724 26.984 70.2724 28.6476V30.0574H68.5116V28.469C68.5116 27.7672 68.2485 27.3286 67.5482 27.3286C66.848 27.3286 66.5833 27.8549 66.5833 28.5552V34.7757C66.5833 35.4759 66.8465 36.0022 67.5482 36.0022C68.25 36.0022 68.5116 35.5636 68.5116 34.8634V32.7612H70.2645V34.7757C70.2645 36.4393 69.5627 37.6658 67.5482 37.6658C65.5322 37.5812 64.6565 36.1855 64.6565 34.4263H64.6643ZM71.4989 25.9266H76.131V27.5041H73.4178V30.8344H75.3478V32.4118H73.4178V35.9161H76.131V37.4935H71.4911L71.4989 25.9266ZM78.8614 30.1326V37.4058H77.1852V25.9266H79.1073L81.2095 32.5058V25.9266H82.787V37.4058H81.1281L78.8614 30.1326ZM83.8569 25.9266H89.0263V27.5041H87.4379V37.4058H85.5095V27.5041H83.9321V25.9266H83.8569ZM96.1224 30.3128L95.0713 37.4105H93.2213L91.6392 25.9266H93.4798L94.3555 33.1998L95.3188 25.9266H96.8963L97.9474 33.1998L98.8231 25.9266H100.488L99.0016 37.4058H97.2503L96.1224 30.3128ZM101.292 34.431V28.823C101.292 26.984 102.168 25.7559 104.184 25.7559C106.2 25.7559 107.16 27.0717 107.16 28.823V34.431C107.16 36.1839 106.284 37.4982 104.184 37.4982C102.158 37.5812 101.282 36.1855 101.282 34.4263L101.292 34.431ZM105.138 34.7757V28.5552C105.138 27.8549 104.874 27.3286 104.174 27.3286C103.474 27.3286 103.209 27.8549 103.209 28.5552V34.7757C103.209 35.4759 103.472 36.0022 104.174 36.0022C104.874 35.9161 105.138 35.4774 105.138 34.7757ZM110.307 32.1471V37.4042H108.38V25.9266H111.184C113.111 25.9266 113.813 26.8916 113.813 28.469V29.9572C113.813 31.1853 113.374 31.8855 112.235 32.1502L114.074 37.4074H112.06L110.307 32.1471ZM110.307 27.5025V31.096H110.921C111.621 31.096 111.884 30.7451 111.884 30.131V28.469C111.884 27.8549 111.621 27.5041 110.921 27.5041L110.307 27.5025ZM116.966 31.7993V37.4074H115.039V25.9266H116.966V31.0161L119.068 25.9329H120.997L118.719 31.1023L120.997 37.4105H118.981L116.966 31.7993ZM123.713 37.4074L125.906 25.9282H128.099L130.292 37.4074H128.27L127.919 35.3036H125.904L125.554 37.4074H123.713ZM126.166 33.7277H127.743L126.96 29.0831L126.166 33.7277ZM132.564 30.1342V37.4074H130.898V25.9266H132.827L134.929 32.5058V25.9266H136.505V37.4058H134.841L132.564 30.1342ZM143.603 28.9953V34.3402C143.603 36.0931 142.902 37.4074 140.799 37.4074H137.822V25.9266H140.799C142.902 25.9266 143.603 27.2409 143.603 28.9938V28.9953ZM140.537 35.8299C141.32 35.8299 141.676 35.3913 141.676 34.6911V28.6445C141.676 27.9442 141.413 27.5056 140.537 27.5056H139.754V35.8299H140.537Z" fill="white"/>
<path d="M52.0386 42.8385H56.6816V44.416H53.9669V47.7448H55.8937V49.3222H53.9669V52.828H56.6816V54.4039H52.0386V42.8385ZM57.4711 51.3383V45.7303C57.4711 43.8896 58.3468 42.6631 60.3629 42.6631C62.4651 42.6631 63.0791 43.8896 63.0791 45.5548V46.9568H61.3262V45.4671C61.3262 44.7653 61.0631 44.3283 60.3629 44.3283C59.6626 44.3283 59.3979 44.853 59.3979 45.5548V51.7753C59.3979 52.4771 59.6611 53.0034 60.3629 53.0034C61.0646 53.0034 61.3262 52.5648 61.3262 51.863V49.7608H63.0791V51.7753C63.0791 53.4405 62.3774 54.667 60.3629 54.667C58.3468 54.4916 57.4711 53.1773 57.4711 51.3383ZM64.1303 51.3383V45.7303C64.1303 43.8896 65.0059 42.6631 67.022 42.6631C69.038 42.6631 69.9983 43.9774 69.9983 45.7303V51.3383C69.9983 53.0896 69.1226 54.4039 67.022 54.4039C65.0936 54.4916 64.1303 53.1773 64.1303 51.3383ZM68.0731 51.6939V45.4671C68.0731 44.7653 67.8099 44.2405 67.1097 44.2405C66.4095 44.2405 66.1463 44.7653 66.1463 45.4671V51.6939C66.1463 52.3956 66.4079 52.922 67.1097 52.922C67.8099 52.828 68.0731 52.3894 68.0731 51.6939ZM72.8054 47.1385V54.4039H71.1403V42.9216H73.0686L75.1708 49.5008V42.9216H76.7483V54.4039H75.0831L72.8054 47.1385ZM77.8871 51.3445V45.7365C77.8871 43.8959 78.7628 42.6694 80.7788 42.6694C82.7949 42.6694 83.7551 43.9836 83.7551 45.7365V51.3445C83.7551 53.0959 82.8779 54.4101 80.7788 54.4101C78.7628 54.4916 77.8871 53.1773 77.8871 51.3383V51.3445ZM81.7422 51.6939V45.4671C81.7422 44.7653 81.479 44.2405 80.7788 44.2405C80.0786 44.2405 79.8139 44.7653 79.8139 45.4671V51.6939C79.8139 52.3956 80.077 52.922 80.7788 52.922C81.479 52.828 81.7422 52.3894 81.7422 51.6939ZM90.1542 46.8754L88.7522 54.3224H87.8797L86.4699 46.8754V54.3224H84.9034V42.8385H87.1748L88.4013 49.3222L89.5402 42.8385H91.9948V54.3161H90.2419L90.1542 46.8754ZM93.0491 42.8385H94.9759V54.3161H93.0491V42.8385ZM96.0254 51.3383V45.7303C96.0254 43.8896 96.9026 42.6631 98.9171 42.6631C101.021 42.6631 101.633 43.8896 101.633 45.5548V46.9568H99.8805V45.4671C99.8805 44.7653 99.6173 44.3283 98.9156 44.3283C98.2138 44.3283 97.9522 44.853 97.9522 45.5548V51.7753C97.9522 52.4771 98.2153 53.0034 98.9156 53.0034C99.6158 53.0034 99.8805 52.5648 99.8805 51.863V49.7608H101.632V51.7753C101.632 53.4405 100.932 54.667 98.9156 54.667C96.9011 54.4916 96.0254 53.1773 96.0254 51.3383ZM107.943 48.1834H110.659V54.3161H109.257V53.0896C108.994 53.9668 108.474 54.4916 107.417 54.4916C105.752 54.4916 104.964 53.1773 104.964 51.426V45.818C104.964 43.9774 105.839 42.7508 107.855 42.7508C109.958 42.7508 110.659 43.9774 110.659 45.6425V46.6936H108.905V45.5548C108.905 44.853 108.642 44.416 107.942 44.416C107.241 44.416 106.978 44.9407 106.978 45.6425V51.863C106.978 52.5648 107.24 53.0896 107.942 53.0896C108.554 53.0896 108.905 52.7403 108.905 51.9508V49.9363H108.029V48.1834H107.943ZM113.896 49.059V54.3161H111.972V42.8385H114.776C116.703 42.8385 117.405 43.8019 117.405 45.3794V46.8691C117.405 48.0956 116.966 48.7974 115.827 49.0622L117.666 54.3193H115.652L113.896 49.059ZM113.896 44.416V48.0079H114.51C115.21 48.0079 115.473 47.657 115.473 47.0445V45.3794C115.473 44.7653 115.21 44.416 114.51 44.416H113.896ZM118.282 51.3383V45.7303C118.282 43.8896 119.158 42.6631 121.174 42.6631C123.19 42.6631 124.15 43.9774 124.15 45.7303V51.3383C124.15 53.0896 123.273 54.4039 121.174 54.4039C119.156 54.4916 118.28 53.1773 118.28 51.3383H118.282ZM122.223 51.6939V45.4671C122.223 44.7653 121.96 44.2405 121.26 44.2405C120.56 44.2405 120.296 44.7653 120.296 45.4671V51.6939C120.296 52.3956 120.558 52.922 121.26 52.922C121.96 52.828 122.223 52.3894 122.223 51.6939ZM129.146 47.2262L128.094 54.3224H126.259L124.676 42.8385H126.517L127.393 50.1117L128.358 42.8385H129.935L130.986 50.1117L131.862 42.8385H133.527L132.037 54.3161H130.197L129.146 47.2262ZM134.229 42.8401H139.398V44.4175H137.821V54.3177H135.805V44.4175H134.229V42.8401ZM143.784 49.236H141.939V54.3177H140.011V42.8385H141.939V47.7448H143.778V42.8385H145.706V54.3161H143.778L143.784 49.236Z" fill="white"/>
</g>
<defs>
<clipPath id="clip0_1161_31">
<rect width="169.18" height="169.18" fill="white"/>
</clipPath>
</defs>
</svg>
