<svg width="170" height="170" viewBox="0 0 170 170" fill="none" xmlns="http://www.w3.org/2000/svg">
<g clip-path="url(#clip0_1161_6)">
<path d="M169.18 0H0V169.18H169.18V0Z" fill="#7A7A7A"/>
<path d="M39.9454 33.0248C39.9454 28.6387 38.017 25.4023 33.0231 25.4023C27.9414 25.4023 26.0131 28.2063 26.0131 32.5878V36.7922C26.0131 41.4369 27.8537 43.8022 31.2717 43.8022C33.2862 43.8022 34.5128 42.8389 35.213 41.5246V47.6574C35.213 49.4103 34.5128 50.5491 32.8476 50.5491C31.0963 50.5491 30.4822 49.5857 30.4822 47.7451V45.8183H26.0961V47.308C26.0961 51.514 27.5858 54.4042 32.9306 54.4042C37.9246 54.4042 39.9407 51.1631 39.9407 46.694L39.9454 33.0248ZM35.213 37.411C35.1253 38.9884 34.4298 40.0396 32.9353 40.0396C31.2717 40.0396 30.6577 39.0746 30.6577 37.1478V32.2369C30.6577 30.3963 31.3579 29.3452 32.9353 29.3452C34.5128 29.3452 35.1284 30.3963 35.1284 32.2369V37.4063L35.213 37.411ZM119.856 106.806L103.122 97.1645V77.7996C103.122 77.361 102.946 77.0164 102.509 76.8362L85.1603 66.8468C84.9827 66.7602 84.7877 66.7152 84.5901 66.7152C84.3925 66.7152 84.1975 66.7602 84.0199 66.8468L66.6711 76.8362C66.4963 76.9324 66.3485 77.0711 66.2415 77.2395C66.1344 77.4079 66.0715 77.6005 66.0586 77.7996V97.1645L49.3223 106.803C49.1478 106.901 49.0008 107.041 48.8951 107.211C48.7894 107.381 48.7284 107.575 48.7177 107.774V127.744C48.7177 128.182 48.8915 128.527 49.3302 128.709L66.6711 138.697C66.8575 138.807 67.0689 138.867 67.2852 138.872C67.499 138.855 67.7072 138.795 67.8977 138.697L84.634 129.058L101.37 138.697C101.554 138.811 101.767 138.872 101.984 138.872C102.2 138.872 102.413 138.811 102.597 138.697L119.946 128.709C120.121 128.612 120.268 128.473 120.375 128.305C120.482 128.136 120.545 127.943 120.558 127.744V107.774C120.383 107.328 120.209 106.978 119.858 106.803L119.856 106.806ZM83.4074 125.817L69.4751 117.754L83.4074 109.695V125.817ZM99.6174 97.777L85.6866 105.838V89.8036L99.6174 97.777ZM83.4074 105.75L69.4751 97.6892L83.4074 89.6281V105.75ZM86.9116 107.774L101.978 99.0912L117.054 107.774L101.978 116.44L86.9116 107.774ZM100.756 95.7703L86.8239 87.7092L100.756 79.6402V95.7703ZM82.2717 87.7969L68.3394 95.858V79.8141L82.2717 87.7969ZM66.1463 135.805L51.0752 127.131V109.782L66.1463 118.456V135.805ZM68.424 135.805V119.77L82.3563 127.825L68.424 135.805ZM118.113 127.131L103.042 135.805V118.456L118.113 109.782V127.131Z" fill="white"/>
<path d="M47.3955 26.1024H49.2346V36.7921H47.3955V26.1024ZM51.7817 30.1329V36.8798H50.2841V26.1901H52.0386L53.9669 32.3245V26.1901H55.4535V36.8798H53.887L51.7817 30.1329ZM61.9466 28.9941V33.9928C61.9466 35.6579 61.2448 36.8845 59.318 36.8845H56.514V26.1901H59.318C61.3262 26.1024 61.9403 27.3289 61.9403 28.9941H61.9466ZM59.1426 35.3901C59.8428 35.3901 60.1937 34.9515 60.1937 34.339V28.7309C60.1937 28.1185 59.9305 27.6798 59.1426 27.6798H58.3593V35.4778L59.1426 35.3901ZM68.3425 26.1024V34.1635C68.3425 35.8287 67.6423 36.8798 65.8017 36.8798C63.8733 36.8798 63.0854 35.8287 63.0854 34.1635V26.1024H64.926V34.339C64.926 34.9515 65.1876 35.3901 65.8017 35.3901C66.4157 35.3901 66.6773 34.9515 66.6773 34.339V26.1024H68.3425ZM69.3059 34.5144V33.1046H70.9617V34.5943C70.9617 35.2068 71.2248 35.5577 71.8389 35.5577C72.3637 35.5577 72.6221 35.2068 72.6221 34.5943V34.1557C72.6221 33.5432 72.359 33.1923 71.8389 32.6675L70.7862 31.6148C69.7351 30.5637 69.2965 29.9497 69.2965 28.7231V28.3738C69.2965 27.0595 70.0797 26.0068 71.8389 26.0068C73.678 26.0068 74.3797 26.8841 74.3797 28.4615V29.3372H72.7177V28.3738C72.7177 27.7597 72.4545 27.4966 71.842 27.4966C71.3157 27.4966 70.9648 27.7597 70.9648 28.3738V28.6354C70.9648 29.2495 71.3157 29.6003 71.842 30.1251L72.9809 31.2655C73.9443 32.2289 74.469 32.8414 74.469 34.068V34.5943C74.469 36.084 73.6858 37.1351 71.842 37.1351C70.0014 36.9691 69.2996 35.9164 69.2996 34.5144H69.3059ZM74.9139 26.1024H79.734V27.5921H78.2458V36.7921H76.3974V27.5921H74.9076L74.9139 26.1024ZM82.3625 31.8858V36.7921H80.6034V26.1024H83.2319C85.0725 26.1024 85.685 26.9796 85.685 28.4693V29.8713C85.685 31.0102 85.248 31.7104 84.2752 31.9736L86.0281 36.7921H84.1076L82.3625 31.8858ZM82.3625 27.5921V30.9225H82.975C83.5891 30.9225 83.8523 30.5716 83.8523 30.0452V28.4693C83.8523 27.8553 83.5891 27.5921 82.975 27.5921H82.3625ZM89.8973 32.7615V36.7921H88.052V32.7615L86.0359 26.1024H87.8797L88.9308 30.1329L89.9819 26.1024H91.7348L89.8973 32.7615ZM93.6569 35.2146L92.7812 37.6677H91.7301L91.9933 35.1269H93.6569V35.2146ZM96.5486 26.1024H98.3908V36.7921H96.5502L96.5486 26.1024ZM100.935 30.1329V36.8798H99.445V26.1901H101.195L103.122 32.3245V26.1901H104.611V36.8798H103.034L100.935 30.1329ZM107.243 30.1329V36.8798H105.753V26.1901H107.506L109.434 32.3245V26.1901H110.924V36.8798H109.34L107.243 30.1329ZM112.063 34.0758V28.9064C112.063 27.2412 112.846 26.0147 114.779 26.0147C116.712 26.0147 117.486 27.2412 117.486 28.9064V34.0758C117.486 35.741 116.703 36.9675 114.77 36.9675C112.837 36.9675 112.06 35.741 112.06 34.0758H112.063ZM115.743 34.339V28.5555C115.743 27.943 115.48 27.4167 114.779 27.4167C114.165 27.4167 113.904 27.8553 113.904 28.5555V34.339C113.904 34.9515 114.165 35.4778 114.779 35.4778C115.393 35.4778 115.74 35.0392 115.74 34.339H115.743ZM124.418 26.1024L122.402 36.7921H120.47L118.456 26.1024H120.296L121.523 33.551L122.75 26.1024H124.418ZM124.155 36.7921L126.169 26.1024H128.185L130.2 36.7921H128.358L128.007 34.8653H126.166L125.817 36.7921H124.155ZM126.348 33.4633H127.758L127.042 29.1696L126.348 33.4633ZM130.029 26.1008H134.848V27.5905H133.358V36.7905H131.512V27.5921H130.018L130.029 26.1008ZM135.723 26.1008H137.564V36.7905H135.717L135.723 26.1008ZM138.7 34.0742V28.9048C138.7 27.2397 139.483 26.0131 141.416 26.0131C143.349 26.0131 144.132 27.2397 144.132 28.9048V34.0742C144.132 35.7394 143.349 36.9659 141.416 36.9659C139.483 36.9659 138.696 35.741 138.696 34.0758L138.7 34.0742ZM142.291 34.3374V28.5555C142.291 27.943 142.03 27.4167 141.328 27.4167C140.714 27.4167 140.452 27.8553 140.452 28.5555V34.339C140.452 34.9515 140.714 35.4778 141.328 35.4778C142.027 35.4778 142.288 35.0392 142.288 34.339L142.291 34.3374ZM146.761 30.1314V36.8782H145.271V26.1901H147.024L148.952 32.3245V26.1901H150.442V36.8798H148.861L146.761 30.1314Z" fill="white"/>
<path d="M47.0446 53.7913L49.059 43.1017H51.0751L53.0896 53.7913H51.2506L50.8997 51.863H49.059L48.7176 53.7913H47.0446ZM49.3222 50.3733H50.7242L50.024 46.0795L49.3222 50.3733ZM55.3673 47.0445V53.7913H53.8869V43.1017H55.6383L57.5666 49.2344V43.1017H59.0563V53.7913H57.4711L55.3673 47.0445ZM65.5322 45.9057V50.8996C65.5322 52.5648 64.832 53.7913 62.9036 53.7913H60.0996V43.1017H62.9036C64.832 43.1017 65.5322 44.3313 65.5322 45.9057ZM62.7282 52.3016C63.43 52.3016 63.7793 51.863 63.7793 51.2505V45.6425C63.7793 45.0284 63.5177 44.5914 62.7282 44.5914H61.9449V52.3893L62.7282 52.3016ZM68.3362 43.1017H70.1784V53.7913H68.3362V43.1017ZM72.8054 47.0445V53.7913H71.3156V43.1017H73.0685L74.9953 49.2344V43.1017H76.485V53.7913H74.9076L72.8054 47.0445ZM77.6239 43.1017H81.8299V44.5914H79.3768V47.657H81.2158V49.1467H79.3768V53.8869H77.5408L77.6239 43.1017ZM84.4584 48.8835V53.7913H82.6178V43.1017H85.2479C87.087 43.1017 87.701 43.9773 87.701 45.467V46.869C87.701 48.0079 87.2624 48.7097 86.2912 48.9713L88.0441 53.7913H86.1236L84.4584 48.8835ZM84.4584 44.4974V47.8262H85.0725C85.685 47.8262 85.9481 47.4753 85.9481 46.9505V45.3793C85.9481 44.7653 85.685 44.5037 85.0725 44.5037L84.4584 44.4974ZM88.5767 53.7851L90.5928 43.0954H92.6073L94.6233 53.7851H92.7827L92.4318 51.8567H90.505L90.1542 53.7851H88.5767ZM90.7698 50.367H92.1718L91.47 46.0733L90.7698 50.367ZM95.2421 51.4259V50.0161H96.9073V51.5058C96.9073 52.1183 97.1704 52.4692 97.7829 52.4692C98.3092 52.4692 98.5662 52.1183 98.5662 51.5058V51.0672C98.5662 50.4532 98.303 50.1038 97.7829 49.5775L96.7318 48.5264C95.6807 47.4737 95.2421 46.8612 95.2421 45.6347V45.2838C95.2421 43.9695 96.0253 42.9184 97.7829 42.9184C99.6235 42.9184 100.324 43.794 100.324 45.3715V46.2472H98.6523V45.2838C98.6523 44.6697 98.3907 44.4081 97.7766 44.4081C97.2503 44.4081 96.901 44.6697 96.901 45.2838V45.5469C96.901 46.1594 97.2503 46.5103 97.7766 47.0367L98.9155 48.1755C99.8804 49.1389 100.405 49.7529 100.405 50.9795V51.5058C100.405 52.9956 99.622 54.0467 97.7766 54.0467C95.9313 54.0467 95.2421 52.8279 95.2421 51.4259ZM100.938 43.1017H105.756V44.5914H104.267V53.7913H102.421V44.5914H100.932L100.938 43.1017ZM108.473 48.8835V53.7913H106.627V43.1017H109.256C111.096 43.1017 111.709 43.9773 111.709 45.467V46.869C111.709 48.0079 111.27 48.7097 110.299 48.9713L112.052 53.7913H110.131L108.473 48.8835ZM108.473 44.4974V47.8262H109.087C109.701 47.8262 109.962 47.4753 109.962 46.9505V45.3793C109.962 44.7653 109.701 44.5037 109.087 44.5037L108.473 44.4974ZM118.028 43.0876V51.1487C118.028 52.8138 117.328 53.865 115.487 53.865C113.561 53.865 112.771 52.8138 112.771 51.1487V43.1017H114.612V51.3382C114.612 51.9507 114.875 52.3893 115.487 52.3893C116.1 52.3893 116.363 51.9507 116.363 51.3382V43.1017L118.028 43.0876ZM119.167 50.9732V45.8038C119.167 44.1387 119.95 42.9121 121.883 42.9121C123.899 42.9121 124.426 44.0509 124.426 45.6284V46.8549H122.75V45.4529C122.75 44.7512 122.486 44.4018 121.872 44.4018C121.258 44.4018 120.997 44.8389 120.997 45.5407V51.3241C120.997 51.9366 121.26 52.463 121.872 52.463C122.485 52.463 122.75 52.0243 122.75 51.4118V49.4099H124.415V51.2505C124.415 52.7402 123.801 53.8791 121.872 53.8791C119.944 53.8791 119.156 52.6525 119.156 50.9873L119.167 50.9732ZM124.775 43.0876H129.595V44.5773H128.105V53.7772H126.258V44.5914H124.769L124.775 43.0876ZM135.728 43.0876V51.1487C135.728 52.8138 135.028 53.865 133.187 53.865C131.26 53.865 130.471 52.8138 130.471 51.1487V43.1017H132.311V51.3382C132.311 51.9507 132.574 52.3893 133.187 52.3893C133.799 52.3893 134.064 51.9507 134.064 51.3382V43.1017L135.728 43.0876ZM138.62 48.8694V53.7772H136.768V43.1017H139.397C141.237 43.1017 141.851 43.9773 141.851 45.467V46.869C141.851 48.0079 141.413 48.7097 140.449 48.9713L142.201 53.7913H140.274L138.62 48.8694ZM138.62 44.4833V47.8121H139.234C139.846 47.8121 140.109 47.4612 140.109 46.9364V45.3793C140.109 44.7653 139.846 44.5037 139.234 44.5037L138.62 44.4833ZM143.006 43.0735H147.299V44.5632H144.831V47.6288H146.582V49.1185H144.831V52.3611H147.284V53.8869H142.99L143.006 43.0735Z" fill="white"/>
</g>
<defs>
<clipPath id="clip0_1161_6">
<rect width="169.18" height="169.18" fill="white"/>
</clipPath>
</defs>
</svg>
