<svg width="179" height="151" viewBox="0 0 179 151" fill="none" xmlns="http://www.w3.org/2000/svg">
<g clip-path="url(#clip0_316_23)">
<path d="M178.017 0H0.713867V151H178.017V0Z" fill="#7A7A7A"/>
<path d="M44.2319 42.3023V39.4865C44.2319 37.0621 43.2206 35.2627 40.9255 34.4028C42.9464 33.5429 43.8641 32.0567 43.8641 30.0238V29.0073C43.8641 25.0184 41.4771 22.9072 36.7934 22.9072C32.1966 22.9072 29.8145 25.0184 29.8145 29.0073V30.0238C29.8145 32.0567 30.7322 33.6198 32.6612 34.4028C30.3629 35.2627 29.3549 37.0593 29.3549 39.4865V42.224C29.3549 46.0564 31.4677 48.7953 36.7934 48.7953C42.0271 48.8736 44.2319 46.1389 44.2319 42.3051M34.4983 28.697C34.4983 27.1324 35.1402 26.2726 36.7014 26.2726C38.3546 26.2726 38.9998 27.1324 38.9998 28.697V30.4167C38.9998 31.9812 38.3579 32.8411 36.7014 32.8411C35.045 32.8411 34.4983 31.9029 34.4983 30.4167V28.697ZM39.1804 42.7735C39.1804 44.338 38.5385 45.43 36.7014 45.43C34.958 45.43 34.3144 44.3352 34.3144 42.7735V38.6252C34.3144 37.0621 34.958 36.0456 36.7014 36.0456C38.5385 36.0456 39.1804 37.1404 39.1804 38.6252V42.7735Z" fill="white"/>
<path d="M118.062 74.521L103.001 86.7213C102.451 87.1896 102.18 87.5811 102.18 88.5193V122.617C102.18 122.803 102.267 122.981 102.421 123.112C102.575 123.243 102.783 123.316 103.001 123.316H118.522C118.739 123.316 118.948 123.243 119.102 123.112C119.256 122.981 119.343 122.803 119.343 122.617V74.8356C119.434 74.3658 119.067 73.6612 118.057 74.5224M74.81 90.3201L59.7508 102.52C59.1992 102.989 58.9299 103.38 58.9299 104.318V122.54C58.9299 122.726 59.0164 122.904 59.1704 123.035C59.3243 123.166 59.5331 123.24 59.7508 123.24H75.2697C75.4874 123.24 75.6962 123.166 75.8501 123.035C76.0041 122.904 76.0905 122.726 76.0905 122.54V90.6319C76.1808 90.2418 75.8147 89.5371 74.8034 90.3201" fill="white"/>
<path d="M124.949 59.7413C124.963 59.6309 124.93 59.52 124.857 59.4281C124.821 59.3984 124.777 59.376 124.73 59.3624C124.682 59.3489 124.631 59.3446 124.581 59.3498H124.397L112.919 61.5407H112.736C112.667 61.5494 112.602 61.5768 112.553 61.619C112.509 61.6543 112.474 61.6967 112.451 61.7437C112.427 61.7906 112.415 61.8412 112.415 61.8923C112.415 61.9435 112.427 61.9941 112.451 62.041C112.474 62.088 112.509 62.1304 112.553 62.1657L115.304 64.5118L89.2274 86.7228L77.1987 76.4785C77.1305 76.4402 77.0506 76.4197 76.9689 76.4197C76.8872 76.4197 76.8072 76.4402 76.7391 76.4785L73.4409 79.293L54.1494 95.7157C54.1043 95.7737 54.0803 95.8418 54.0803 95.9114C54.0803 95.981 54.1043 96.0491 54.1494 96.1071L57.4557 98.923C57.5237 98.9612 57.6033 98.9816 57.6848 98.9816C57.7662 98.9816 57.8458 98.9612 57.9138 98.923L77.0149 82.7338L89.037 92.9767C89.1055 93.0144 89.1853 93.0344 89.2668 93.0344C89.3484 93.0344 89.4282 93.0144 89.4966 92.9767L119.08 67.796L121.835 70.1421C121.876 70.1791 121.926 70.2086 121.981 70.2287C122.036 70.2489 122.096 70.2593 122.156 70.2593C122.216 70.2593 122.275 70.2489 122.33 70.2287C122.385 70.2086 122.435 70.1791 122.477 70.1421C122.511 70.1113 122.538 70.0742 122.554 70.0335C122.57 69.9929 122.575 69.9497 122.569 69.9072L125.141 59.8979L124.949 59.7413Z" fill="white"/>
<path d="M96.5739 92.5097L89.3192 98.7664C89.2514 98.8055 89.1713 98.8264 89.0894 98.8264C89.0075 98.8264 88.9274 98.8055 88.8596 98.7664L82.2485 93.0564C81.055 92.0399 80.7792 92.9012 80.7792 93.2913V122.697C80.7792 122.883 80.8657 123.06 81.0196 123.191C81.1735 123.323 81.3823 123.396 81.6 123.396H97.1206C97.3383 123.396 97.5471 123.323 97.701 123.191C97.8549 123.06 97.9414 122.883 97.9414 122.697V92.8229C97.9414 92.2748 97.5737 91.5716 96.564 92.5097" fill="white"/>
<path d="M61.312 25.8783V30.6487C61.312 32.2133 60.5765 33.3863 58.3734 33.3863H55.2542V23.1407H58.3734C60.5765 23.1407 61.312 24.3137 61.312 25.8783ZM58.0976 31.9784C58.9184 31.9784 59.2911 31.5869 59.2911 30.9619V25.5651C59.2911 24.9401 59.0153 24.5486 58.0976 24.5486H57.2767V31.9784H58.0976ZM62.6056 23.1407H67.4716V24.5486H64.6167V27.5211H66.6376V28.929H64.6167V32.0567H67.4634V33.4646H62.6056V23.1407ZM68.4829 30.727V25.7259C68.4829 24.0844 69.4006 22.9883 71.5135 22.9883C73.7166 22.9883 74.3602 24.0844 74.3602 25.5693V26.8276H72.5149V25.4099C72.5149 24.7835 72.2391 24.392 71.5053 24.392C70.7714 24.392 70.494 24.8618 70.494 25.4868V31.0388C70.494 31.6638 70.7698 32.1336 71.5053 32.1336C72.2407 32.1336 72.5149 31.7421 72.5149 31.1171V29.2408H74.3519V31.0388C74.3519 32.5237 73.6165 33.6184 71.5053 33.6184C69.3924 33.5429 68.4747 32.2972 68.4747 30.727H68.4829ZM75.6456 23.1407H80.5001V24.5486H77.6567V27.5211H79.6792V28.929H77.6567V32.0567H80.5001V33.4646H75.6374L75.6456 23.1407ZM83.3616 26.8947V33.3863H81.6049V23.1407H83.6193L85.8224 29.0129V23.1407H87.4756V33.3863H85.7371L83.3616 26.8947ZM88.5969 23.1407H94.0145V24.5486H92.3498V33.3863H90.3289V24.5486H88.6757V23.1407H88.5969ZM101.451 27.0555L100.35 33.3905H98.4109L96.7528 23.1407H98.6818L99.5995 29.6323L100.609 23.1407H102.262L103.364 29.6323L104.282 23.1407H106.027L104.469 33.3863H102.633L101.451 27.0555ZM106.869 30.7312V25.7259C106.869 24.0844 107.787 22.9883 109.9 22.9883C112.012 22.9883 113.019 24.1627 113.019 25.7259V30.7312C113.019 32.2958 112.101 33.4688 109.9 33.4688C107.777 33.5429 106.859 32.2972 106.859 30.727L106.869 30.7312ZM110.899 31.0388V25.4868C110.899 24.8618 110.623 24.392 109.89 24.392C109.156 24.392 108.878 24.8618 108.878 25.4868V31.0388C108.878 31.6638 109.154 32.1336 109.89 32.1336C110.623 32.0567 110.899 31.6652 110.899 31.0388ZM116.317 28.6927V33.3849H114.298V23.1407H117.236C119.256 23.1407 119.991 24.0019 119.991 25.4099V26.7381C119.991 27.8343 119.531 28.4592 118.338 28.6955L120.265 33.3877H118.154L116.317 28.6927ZM116.317 24.5472V27.7546H116.96C117.694 27.7546 117.97 27.4414 117.97 26.8933V25.4099C117.97 24.8618 117.694 24.5486 116.96 24.5486L116.317 24.5472ZM123.296 28.3823V33.3877H121.276V23.1407H123.296V27.6833L125.499 23.1463H127.52L125.133 27.7602L127.52 33.3905H125.407L123.296 28.3823ZM130.366 33.3877L132.665 23.1421H134.963L137.262 33.3877H135.142L134.774 31.51H132.663L132.295 33.3877H130.366ZM132.937 30.1035H134.591L133.77 25.9579L132.937 30.1035ZM139.642 26.8961V33.3877H137.897V23.1407H139.918L142.121 29.0129V23.1407H143.773V33.3863H142.029L139.642 26.8961ZM151.211 25.8797V30.6501C151.211 32.2147 150.477 33.3877 148.272 33.3877H145.153V23.1407H148.272C150.477 23.1407 151.211 24.3137 151.211 25.8783V25.8797ZM147.998 31.9798C148.819 31.9798 149.192 31.5883 149.192 30.9633V25.5665C149.192 24.9415 148.916 24.55 147.998 24.55H147.177V31.9798H147.998Z" fill="white"/>
<path d="M55.2509 38.2352H60.1168V39.6431H57.2718V42.6142H59.2911V44.0221H57.2718V47.1512H60.1168V48.5577H55.2509V38.2352ZM60.9442 45.8216V40.8162C60.9442 39.1734 61.8619 38.0786 63.9748 38.0786C66.178 38.0786 66.8215 39.1734 66.8215 40.6596V41.9109H64.9844V40.5813C64.9844 39.9549 64.7086 39.5648 63.9748 39.5648C63.241 39.5648 62.9635 40.0332 62.9635 40.6596V46.2116C62.9635 46.838 63.2393 47.3078 63.9748 47.3078C64.7103 47.3078 64.9844 46.9163 64.9844 46.2899V44.4136H66.8215V46.2116C66.8215 47.6979 66.086 48.7926 63.9748 48.7926C61.8619 48.636 60.9442 47.463 60.9442 45.8216ZM67.9231 45.8216V40.8162C67.9231 39.1734 68.8408 38.0786 70.9536 38.0786C73.0665 38.0786 74.0728 39.2517 74.0728 40.8162V45.8216C74.0728 47.3847 73.1551 48.5577 70.9536 48.5577C68.9327 48.636 67.9231 47.463 67.9231 45.8216ZM72.0552 46.1389V40.5813C72.0552 39.9549 71.7794 39.4865 71.0456 39.4865C70.3117 39.4865 70.0359 39.9549 70.0359 40.5813V46.1389C70.0359 46.7653 70.3101 47.2351 71.0456 47.2351C71.7794 47.1512 72.0552 46.7597 72.0552 46.1389ZM77.0148 42.0731V48.5577H75.2696V38.3093H77.2906L79.4937 44.1815V38.3093H81.1469V48.5577H79.4018L77.0148 42.0731ZM82.3404 45.8271V40.8218C82.3404 39.179 83.2581 38.0842 85.371 38.0842C87.4838 38.0842 88.4902 39.2573 88.4902 40.8218V45.8271C88.4902 47.3903 87.5708 48.5633 85.371 48.5633C83.2581 48.636 82.3404 47.463 82.3404 45.8216V45.8271ZM86.3806 46.1389V40.5813C86.3806 39.9549 86.1048 39.4865 85.371 39.4865C84.6371 39.4865 84.3597 39.9549 84.3597 40.5813V46.1389C84.3597 46.7653 84.6355 47.2351 85.371 47.2351C86.1048 47.1512 86.3806 46.7597 86.3806 46.1389ZM95.1965 41.8382L93.7272 48.485H92.8128L91.3352 41.8382V48.485H89.6935V38.2352H92.074L93.3594 44.0221L94.5529 38.2352H97.1255V48.4794H95.2884L95.1965 41.8382ZM98.2303 38.2352H100.25V48.4794H98.2303V38.2352ZM101.35 45.8216V40.8162C101.35 39.1734 102.269 38.0786 104.38 38.0786C106.585 38.0786 107.227 39.1734 107.227 40.6596V41.9109H105.39V40.5813C105.39 39.9549 105.114 39.5648 104.378 39.5648C103.643 39.5648 103.369 40.0332 103.369 40.6596V46.2116C103.369 46.838 103.645 47.3078 104.378 47.3078C105.112 47.3078 105.39 46.9163 105.39 46.2899V44.4136H107.225V46.2116C107.225 47.6979 106.491 48.7926 104.378 48.7926C102.267 48.636 101.35 47.463 101.35 45.8216ZM113.84 43.0057H116.686V48.4794H115.217V47.3847C114.941 48.1677 114.396 48.636 113.288 48.636C111.543 48.636 110.717 47.463 110.717 45.8999V40.8945C110.717 39.2517 111.635 38.1569 113.748 38.1569C115.951 38.1569 116.686 39.2517 116.686 40.7379V41.676H114.848V40.6596C114.848 40.0332 114.572 39.6431 113.838 39.6431C113.104 39.6431 112.828 40.1115 112.828 40.7379V46.2899C112.828 46.9163 113.102 47.3847 113.838 47.3847C114.48 47.3847 114.848 47.0729 114.848 46.3682V44.5702H113.93V43.0057H113.84ZM120.078 43.7873V48.4794H118.062V38.2352H121.001C123.02 38.2352 123.755 39.0951 123.755 40.503V41.8326C123.755 42.9274 123.296 43.5538 122.102 43.79L124.03 48.4822H121.918L120.078 43.7873ZM120.078 39.6431V42.8491H120.722C121.455 42.8491 121.731 42.5359 121.731 41.9892V40.503C121.731 39.9549 121.455 39.6431 120.722 39.6431H120.078ZM124.675 45.8216V40.8162C124.675 39.1734 125.592 38.0786 127.705 38.0786C129.818 38.0786 130.824 39.2517 130.824 40.8162V45.8216C130.824 47.3847 129.905 48.5577 127.705 48.5577C125.591 48.636 124.673 47.463 124.673 45.8216H124.675ZM128.805 46.1389V40.5813C128.805 39.9549 128.529 39.4865 127.796 39.4865C127.062 39.4865 126.786 39.9549 126.786 40.5813V46.1389C126.786 46.7653 127.06 47.2351 127.796 47.2351C128.529 47.1512 128.805 46.7597 128.805 46.1389ZM136.06 42.1514L134.958 48.485H133.034L131.376 38.2352H133.305L134.223 44.7268L135.234 38.2352H136.887L137.989 44.7268L138.907 38.2352H140.652L139.09 48.4794H137.161L136.06 42.1514ZM141.387 38.2366H146.805V39.6445H145.152V48.4808H143.039V39.6445H141.387V38.2366ZM151.401 43.9452H149.468V48.4808H147.447V38.2352H149.468V42.6142H151.395V38.2352H153.416V48.4794H151.395L151.401 43.9452Z" fill="white"/>
</g>
<defs>
<clipPath id="clip0_316_23">
<rect width="177.303" height="151" fill="white" transform="translate(0.713867)"/>
</clipPath>
</defs>
</svg>
