<svg width="178" height="151" viewBox="0 0 178 151" fill="none" xmlns="http://www.w3.org/2000/svg">
<path d="M178 0H0.697266V151H178V0Z" fill="#7A7A7A"/>
<path d="M37.6025 23.1406V48.5576H32.5461V29.0814L28.9721 32.2132V27.7559L33.5689 23.142L37.6025 23.1406ZM39.9009 23.1406H52.3892V27.124L45.8684 48.5576H40.9089L47.6119 26.6612H39.896L39.9009 23.1406ZM126.861 88.9123C126.861 80.0746 118.599 72.8797 108.31 72.5666C105.646 66.233 98.4846 61.6191 90.1268 61.6191C86.1398 61.6193 82.2509 62.6718 78.9952 64.6318C75.7395 66.5917 73.277 69.3629 71.9467 72.5638C61.6615 72.8769 53.3956 80.0718 53.3956 88.9095C53.3983 91.4009 54.07 93.8589 55.3593 96.0953C56.6485 98.3318 58.5212 100.288 60.8341 101.813C60.3521 103.29 60.1047 104.816 60.0986 106.349C60.098 108.506 60.5964 110.642 61.5654 112.635C62.5344 114.628 63.9549 116.439 65.746 117.965C67.537 119.49 69.6634 120.7 72.0037 121.526C74.3439 122.351 76.8522 122.776 79.3852 122.775C83.2592 122.776 87.0404 121.766 90.2204 119.881C93.1254 121.523 96.4987 122.463 99.9812 122.601C103.464 122.739 106.925 122.07 109.997 120.666C113.068 119.262 115.635 117.174 117.424 114.626C119.213 112.078 120.158 109.164 120.157 106.195C120.151 104.688 119.904 103.188 119.423 101.738C124.02 98.8448 126.86 94.1526 126.86 88.9123M105.555 78.0417C105.555 84.613 99.8637 90.0071 92.4219 90.9452C92.3114 90.2715 92.25 89.5925 92.238 88.9123C92.238 82.341 97.9314 76.947 105.372 76.0088C105.481 76.6826 105.542 77.3615 105.554 78.0417M90.3123 115.659C88.8353 114.44 87.66 112.982 86.8558 111.37C86.0516 109.758 85.6349 108.025 85.6302 106.273C85.6524 102.791 87.2658 99.4533 90.1284 96.967C91.5947 98.1777 92.7638 99.6244 93.5678 101.223C94.3718 102.822 94.7947 104.541 94.8118 106.28C94.8289 108.019 94.4399 109.744 93.6675 111.354C92.895 112.964 91.7546 114.428 90.3123 115.659ZM75.0659 76.0088C82.5044 76.947 88.1994 82.3438 88.1994 88.9123C88.1839 89.5924 88.1225 90.2711 88.0156 90.9452C80.5771 90.0071 74.882 84.6102 74.882 78.0417C74.882 77.3426 74.882 76.6338 75.0659 76.0088ZM86.5446 94.7775C83.9737 99.0797 78.8287 102.048 72.8628 102.048C70.3991 102.049 67.9724 101.538 65.792 100.562C68.3629 96.261 73.5079 93.2913 79.5658 93.2913C81.9972 93.3108 84.3886 93.8201 86.5446 94.7775ZM93.8912 94.6992C95.7053 93.8881 97.6925 93.3963 99.7344 93.253C101.776 93.1097 103.831 93.3179 105.777 93.8652C107.722 94.4125 109.519 95.2877 111.059 96.4386C112.599 97.5896 113.851 98.9927 114.741 100.564C112.556 101.532 110.132 102.042 107.67 102.051C104.793 102.057 101.973 101.37 99.5361 100.07C97.0986 98.7686 95.1433 96.9068 93.8961 94.6992M90.2204 64.9033C96.5573 64.9033 101.975 68.1093 104.27 72.8015C101.228 73.2613 98.3621 74.3406 95.9158 75.9473C93.4695 77.5541 91.5155 79.6406 90.2204 82.0292C88.9255 79.6404 86.9717 77.5537 84.5253 75.9469C82.0789 74.3401 79.2126 73.261 76.1708 72.8015C77.3458 70.4571 79.304 68.4585 81.8019 67.0543C84.2998 65.65 87.2273 64.902 90.2204 64.9033ZM57.4374 88.9123C57.4374 82.1872 63.4986 76.6338 71.1209 75.9305C71.014 76.6308 70.9526 77.3356 70.9371 78.0417C70.9366 80.3197 71.4907 82.5731 72.5645 84.6595C73.6382 86.7459 75.2083 88.6201 77.1755 90.1637C74.0867 90.4661 71.1295 91.3995 68.5553 92.8844C65.9811 94.3693 63.8662 96.3618 62.3904 98.6924C60.8189 97.4409 59.5674 95.9268 58.714 94.2448C57.8607 92.5627 57.4238 90.7488 57.4309 88.9165M64.0502 106.43C64.0365 105.508 64.1595 104.588 64.4163 103.692C66.9888 104.71 69.7435 105.335 72.7741 105.335C76.0208 105.359 79.2182 104.658 82.048 103.302C81.8252 104.308 81.7022 105.328 81.6803 106.351C81.6803 110.81 83.7931 114.799 87.0979 117.77C84.7649 118.954 82.0979 119.576 79.3819 119.57C70.9338 119.491 64.0469 113.626 64.0469 106.427M116.389 106.27C116.388 108.559 115.681 110.807 114.339 112.79C112.997 114.772 111.067 116.42 108.743 117.568C106.419 118.716 103.781 119.325 101.094 119.332C98.4069 119.34 95.7646 118.746 93.4315 117.611C96.7362 114.648 98.7621 110.733 98.7621 106.351C98.781 105.3 98.6576 104.251 98.3943 103.224C101.255 104.579 104.479 105.279 107.752 105.257C110.647 105.251 113.503 104.69 116.108 103.615C116.2 104.553 116.384 105.413 116.384 106.272M103.25 90.0057C105.195 88.4675 106.745 86.6037 107.804 84.5312C108.863 82.4587 109.408 80.2222 109.404 77.962C109.388 77.2559 109.327 76.5511 109.22 75.8508C112.161 76.1232 114.946 77.114 117.241 78.7037C119.536 80.2935 121.243 82.4144 122.155 84.8111C123.067 87.2077 123.146 89.7779 122.383 92.212C121.619 94.646 120.046 96.8402 117.852 98.5302C115.097 93.9946 109.679 90.7089 103.25 90.0015" fill="white"/>
<path d="M62.5891 23.1408H65.6196C67.6389 23.1408 68.3744 24.0021 68.3744 25.41V27.5995C68.3744 29.0074 67.6389 29.9456 65.6196 29.9456H64.6084V33.4647H62.5891V23.1408ZM64.7003 24.5487V28.6159H65.4358C66.1696 28.6159 66.4454 28.3028 66.4454 27.7561V25.41C66.4454 24.8619 66.1696 24.5487 65.4358 24.5487H64.7003ZM68.6502 33.4647L70.9486 23.2191H73.2469L75.5453 33.4647H73.4242L73.0581 31.587H70.9371L70.5693 33.4647H68.6502ZM71.2211 30.1805H72.8661L72.0452 26.035L71.2211 30.1805ZM78.6596 28.6942V33.3864H76.6305V23.1408H79.5691C81.5884 23.1408 82.3239 24.0021 82.3239 25.41V26.7382C82.3239 27.8344 81.8642 28.4594 80.6707 28.6956L82.5997 33.3878H80.4835L78.6596 28.6942ZM78.6596 24.5487V27.7561H79.3015C80.0353 27.7561 80.3111 27.4429 80.3111 26.8948V25.41C80.3111 24.8619 80.0353 24.5487 79.3015 24.5487H78.6596ZM83.0659 23.1408H88.4835V24.5487H86.8237V33.3864H84.8028V24.5487H83.1496V23.1408H83.0659ZM91.4238 26.9731V33.4647H89.677V23.2191H91.6963L93.9011 29.0913V23.2191H95.5542V33.4647H93.8026L91.4238 26.9731ZM97.301 23.1408H102.154V24.5487H99.3121V27.5212H101.333V28.9291H99.3137V32.0568H102.154V33.4647H97.2928L97.301 23.1408ZM105.473 28.6942V33.3864H103.444V23.1408H106.383C108.404 23.1408 109.138 24.0021 109.138 25.41V26.7382C109.138 27.8344 108.678 28.4594 107.484 28.6956L109.413 33.3878H107.301L105.473 28.6942ZM105.473 24.5487V27.7561H106.115C106.851 27.7561 107.125 27.4429 107.125 26.8948V25.41C107.125 24.8619 106.851 24.5487 106.115 24.5487H105.473ZM110.155 31.1955V29.8673H112.084V31.2738C112.084 31.8219 112.36 32.2134 113.094 32.2134C113.738 32.2134 114.013 31.8219 114.013 31.2738V30.8837C114.013 30.2574 113.738 29.9456 113.094 29.3975L111.892 28.3825C110.699 27.4443 110.239 26.8179 110.239 25.6449V25.3331C110.239 24.0748 111.159 23.0639 113.086 23.0639C115.107 23.0639 115.933 23.9252 115.933 25.4114V26.2712H114.097V25.4114C114.097 24.785 113.821 24.5501 113.178 24.5501C112.628 24.5501 112.26 24.785 112.26 25.4114V25.6449C112.26 26.193 112.628 26.5844 113.178 27.0528L114.463 28.1476C115.566 29.0871 116.116 29.7121 116.116 30.804V31.2724C116.116 32.6804 115.199 33.6968 113.178 33.6968C110.975 33.543 110.147 32.6035 110.147 31.1955H110.155ZM121.268 28.9291H119.331V33.4647H117.22V23.2191H119.239V27.5995H121.168V23.2191H123.187V33.4647H121.168V28.9291H121.268ZM124.665 23.1408H126.686V33.3864H124.657L124.665 23.1408ZM127.971 23.1408H131.002C133.021 23.1408 133.756 24.0021 133.756 25.41V27.5995C133.756 29.0074 133.021 29.9456 131.002 29.9456H130.082V33.4647H128.063L127.971 23.1408ZM130.082 24.5487V28.6159H130.818C131.552 28.6159 131.827 28.3028 131.827 27.7561V25.41C131.827 24.8619 131.552 24.5487 130.818 24.5487H130.082ZM134.582 31.1955V29.8673H136.511V31.2738C136.511 31.8219 136.787 32.2134 137.521 32.2134C138.164 32.2134 138.44 31.8219 138.44 31.2738V30.8837C138.44 30.2574 138.164 29.9456 137.521 29.3975L136.319 28.3825C135.126 27.4429 134.659 26.8165 134.659 25.6435V25.3317C134.659 24.0734 135.579 23.0625 137.506 23.0625C139.527 23.0625 140.353 23.9238 140.353 25.41V26.2699H138.524V25.41C138.524 24.7836 138.248 24.5487 137.605 24.5487C137.055 24.5487 136.687 24.7836 136.687 25.41V25.6435C136.687 26.1916 137.055 26.583 137.605 27.0514L138.89 28.1462C139.993 29.0857 140.543 29.7107 140.543 30.8026V31.271C140.543 32.679 139.625 33.6954 137.605 33.6954C135.401 33.543 134.574 32.6035 134.574 31.1955H134.582Z" fill="white"/>
<path d="M62.5891 38.0787H67.35V39.4867H64.6002V42.4577H66.6211V43.8657H64.6002V48.4013H62.5891V38.0787ZM68.0986 45.7434V40.738C68.0986 39.0952 69.0163 38.0004 71.1292 38.0004C73.242 38.0004 74.2484 39.1735 74.2484 40.738V45.7434C74.2484 47.3079 73.329 48.4796 71.1292 48.4796C69.0081 48.4796 68.0904 47.3079 68.0904 45.7434H68.0986ZM72.2307 45.9783V40.4248C72.2307 39.7999 71.9549 39.3301 71.2211 39.3301C70.4873 39.3301 70.2115 39.7999 70.2115 40.4248V45.9783C70.2115 46.6032 70.4856 47.073 71.2211 47.073C71.8548 47.073 72.2225 46.6032 72.2225 45.9783H72.2307ZM77.5564 43.6308V48.323H75.5371V38.0787H78.4757C80.495 38.0787 81.2305 38.9386 81.2305 40.3465V41.6762C81.2305 42.7709 80.7708 43.3973 79.5773 43.6336L81.5047 48.3258H79.3852L77.5564 43.6308ZM77.5564 39.4867V42.6926H78.1852C78.919 42.6926 79.1948 42.3794 79.1948 41.8328V40.3465C79.1948 39.7999 78.919 39.4867 78.1852 39.4867H77.5564ZM84.5352 38.0787H89.9528V39.4867H88.293V48.323H86.2721V39.4867H84.6189V38.0787H84.5352ZM94.8204 43.8657H92.8849V48.4013H90.8639V38.157H92.8849V42.536H94.8122V38.157H96.8331V48.4013H94.8122L94.8204 43.8657ZM98.2138 38.0787H103.08V39.4867H100.23V42.4577H102.251V43.8657H100.23V46.9947H103.076V48.4013H98.2138V38.0787ZM109.597 42.9233H112.444V48.3971H110.975V47.3037C110.699 48.0853 110.154 48.5537 109.046 48.5537C107.301 48.5537 106.475 47.3806 106.475 45.8175V40.8121C106.475 39.1693 107.392 38.0745 109.505 38.0745C111.708 38.0745 112.444 39.1693 112.444 40.6555V41.5937H110.607V40.5772C110.607 39.9509 110.331 39.5608 109.597 39.5608C108.863 39.5608 108.586 40.0292 108.586 40.6555V46.2076C108.586 46.8339 108.862 47.3037 109.597 47.3037C110.239 47.3037 110.607 46.9905 110.607 46.2859V44.492H109.689V42.9233H109.597ZM113.537 45.7392V40.7338C113.537 39.091 114.455 37.9962 116.568 37.9962C118.681 37.9962 119.687 39.1693 119.687 40.7338V45.7392C119.687 47.3037 118.768 48.4754 116.568 48.4754C114.555 48.4796 113.546 47.3079 113.546 45.7434L113.537 45.7392ZM117.669 45.9741V40.4248C117.669 39.7999 117.394 39.3301 116.66 39.3301C115.926 39.3301 115.65 39.7999 115.65 40.4248V45.9783C115.65 46.6032 115.924 47.073 116.66 47.073C117.395 47.073 117.678 46.6032 117.678 45.9783L117.669 45.9741ZM120.332 48.3971L122.631 38.1528H124.929L127.227 48.3971H125.116L124.748 46.5208H122.636L122.27 48.3971H120.332ZM122.811 45.1128H124.481L123.66 40.9687L122.811 45.1128ZM128.229 38.0745H130.248V46.9122H132.637V48.3188H128.239L128.229 38.0745ZM133.38 46.1391V44.7269H135.316V46.1391C135.316 46.6871 135.592 47.0786 136.326 47.0786C136.969 47.0786 137.243 46.6871 137.243 46.1391V45.749C137.243 45.1226 136.969 44.8108 136.326 44.2627L135.132 43.2463C133.939 42.3081 133.479 41.6818 133.479 40.5087V40.1955C133.479 38.9442 134.397 37.9277 136.326 37.9277C138.347 37.9277 139.172 38.7876 139.172 40.2738V41.1337H137.329V40.2668C137.329 39.6419 137.055 39.407 136.411 39.407C135.859 39.407 135.493 39.6419 135.493 40.2668V40.5017C135.493 41.0498 135.859 41.4399 136.411 41.9097L137.696 43.0044C138.798 43.9426 139.35 44.5689 139.35 45.6609V46.1391C139.35 47.547 138.432 48.5634 136.411 48.5634C134.206 48.4796 133.38 47.5372 133.38 46.1391Z" fill="white"/>
</svg>
