<svg width="180" height="151" viewBox="0 0 180 151" fill="none" xmlns="http://www.w3.org/2000/svg">
<path d="M179.996 0H0.776367V151H179.996V0Z" fill="#7A7A7A"/>
<path d="M30.1916 29.0816V48.4795H35.2048V23.1409H31.2122L26.4794 27.6835V32.1408H26.5707L30.1916 29.0816ZM53.7689 41.9851V29.7108C53.7689 25.7219 51.4457 22.8291 46.25 22.8291C41.1439 22.8291 38.824 25.7219 38.824 29.7108V41.9893C38.824 45.9041 41.1472 48.871 46.25 48.871C51.3544 48.7927 53.7689 45.8999 53.7689 41.9893M43.8355 42.6143V29.0075C43.8355 27.443 44.486 26.351 46.25 26.351C48.014 26.351 48.6628 27.4458 48.6628 29.0075V42.6143C48.6628 44.1788 48.014 45.2708 46.25 45.2708C44.486 45.2708 43.8355 44.176 43.8355 42.6143Z" fill="white"/>
<path d="M65.463 28.6941V33.3863H63.4219V23.0694H66.3923C68.4334 23.0694 69.1768 23.9306 69.1768 25.3386V26.6682C69.1768 27.763 68.7122 28.3879 67.5058 28.6256L69.4556 33.3178H67.3199L65.463 28.6941ZM65.463 24.4703V27.6833H66.1135C66.8553 27.6833 67.134 27.3701 67.134 26.822V25.3316C67.134 24.7835 66.8553 24.4703 66.1135 24.4703H65.463ZM70.5691 23.0694H75.4893V24.4675H72.6102V27.44H74.653V28.8479H72.6102V31.9756H75.4893V33.3835H70.5691V23.0694ZM82.449 25.8852V30.6557C82.449 32.2203 81.7072 33.3933 79.4803 33.3933H76.3273V23.0694H79.4803C81.7072 23.0694 82.449 24.2354 82.449 25.8783V25.8852ZM79.2015 31.9784C80.0312 31.9784 80.4079 31.5869 80.4079 30.9619V25.5651C80.4079 24.9401 80.1291 24.5486 79.2015 24.5486H78.3718V31.9784H79.2015ZM89.7821 23.0694V30.8123C89.7821 32.3754 88.9524 33.4688 86.9046 33.4688C84.7706 33.4688 83.8413 32.4509 83.8413 30.8123V23.0694H85.884V31.0388C85.884 31.6638 86.1628 32.0553 86.9046 32.0553C87.6464 32.0553 87.9268 31.6638 87.9268 31.0388V23.0694H89.7821ZM91.0831 30.734V25.7259C91.0831 24.0844 92.0107 22.9883 94.1447 22.9883C96.3734 22.9883 97.0239 24.0844 97.0239 25.5693V26.8276H95.167V25.4099C95.167 24.7835 94.8882 24.392 94.1447 24.392C93.4013 24.392 93.1242 24.8618 93.1242 25.4868V31.0388C93.1242 31.6638 93.403 32.1336 94.1447 32.1336C94.8865 32.1336 95.167 31.7421 95.167 31.1171V29.2408H97.0239V31.0388C97.0239 32.5237 96.2804 33.6184 94.1447 33.6184C92.0107 33.4646 91.0831 32.2972 91.0831 30.727V30.734ZM98.3232 23.0694H103.242V24.4675H100.364V27.44H102.405V28.8479H100.364V31.9756H103.242V33.3835H98.3232V23.0694ZM110.668 25.8852V30.6557C110.668 32.2203 109.924 33.3933 107.697 33.3933H104.544V23.0694H107.697C109.924 23.0694 110.668 24.2354 110.668 25.8783V25.8852ZM107.419 31.9854C108.248 31.9854 108.625 31.5939 108.625 30.9689V25.5721C108.625 24.9471 108.346 24.5556 107.419 24.5556H106.589V31.9854H107.419Z" fill="white"/>
<path d="M63.4219 38.0787H65.463V48.323H63.4219V38.0787ZM68.5263 41.8328V48.323H66.7623V38.0787H68.8134L71.042 43.944V38.0787H72.7114V48.323H70.9408L68.5263 41.8328ZM73.9112 38.0787H78.8298V39.4867H75.949V42.4577H77.9918V43.8657H75.949V46.9947H78.8265V48.4013H73.9112V38.0787ZM81.8931 49.0276V48.3286C80.222 48.0951 79.5699 47.0786 79.5699 45.6721V40.6667C79.5699 39.0239 80.4975 37.9291 82.6315 37.9291C84.7656 37.9291 85.7845 39.1022 85.7845 40.6667V45.6721C85.7845 46.7668 85.3198 47.705 84.2993 48.0965L85.7845 48.33V49.5813L81.8931 49.0276ZM83.7484 46.0566V40.4248C83.7484 39.7999 83.4712 39.3301 82.7278 39.3301C81.9844 39.3301 81.7072 39.7999 81.7072 40.4248V46.0566C81.7072 46.6815 81.986 47.1513 82.7278 47.1513C83.3783 47.073 83.7484 46.6815 83.7484 46.0566ZM92.8454 38.0787V45.8217C92.8454 47.3848 92.0157 48.4782 89.9679 48.4782C87.8339 48.4782 86.9046 47.4617 86.9046 45.8217V38.0787H88.9474V46.0566C88.9474 46.6815 89.2262 47.073 89.9679 47.073C90.7097 47.073 90.9901 46.6815 90.9901 46.0566V38.0787H92.8454ZM93.4959 48.323L95.8191 38.0787H98.1423L100.466 48.323H98.3232L97.9515 46.4467H95.8158L95.4457 48.323H93.4959ZM96.0946 45.0387H97.7656L96.9359 40.8946L96.0946 45.0387ZM101.385 38.0787H103.428V46.9164H105.84V48.323H101.385V38.0787ZM106.768 38.0787H108.806V48.323H106.768V38.0787ZM109.738 38.0787H115.215V39.4867H113.545V48.323H111.502V39.4867H109.831V38.0787H109.738ZM116.144 38.0787H118.187V48.323H116.144V38.0787ZM119.393 38.0787H124.312V39.4867H121.436V42.4577H123.477V43.8657H121.436V46.9947H124.312V48.4013H119.393V38.0787ZM125.148 46.1391V44.7269H127.096V46.1391C127.096 46.6871 127.375 47.0786 128.118 47.0786C128.767 47.0786 129.046 46.6871 129.046 46.1391V45.749C129.046 45.1226 128.767 44.8108 128.118 44.2627L126.91 43.2463C125.704 42.3081 125.241 41.6818 125.241 40.5087V40.1955C125.241 38.9442 126.169 37.9277 128.118 37.9277C130.16 37.9277 130.996 38.7876 130.996 40.2738V41.1337H129.139V40.2668C129.139 39.6419 128.86 39.407 128.211 39.407C127.654 39.407 127.282 39.6419 127.282 40.2668V40.5017C127.282 41.0498 127.654 41.4399 128.211 41.9097L129.511 43.0044C130.624 43.9426 131.182 44.5689 131.182 45.6609V46.1391C131.182 47.547 130.252 48.5634 128.211 48.5634C125.898 48.4796 125.148 47.4631 125.148 46.1391Z" fill="white"/>
<path d="M64.9967 81.3263L50.9811 93.135L64.9967 105.019V81.3263ZM115.865 105.022L129.881 93.1378L115.865 81.3291V105.022ZM104.541 71.7853L90.4359 59.9766L76.4203 71.7853H104.541ZM76.417 114.569L90.4326 126.377L104.538 114.569H76.417ZM75.2106 82.1134H105.744V89.23H75.2106V82.1134ZM75.2106 96.815H105.744V104.245H75.2106V96.815Z" fill="white"/>
</svg>
