<svg width="178" height="151" viewBox="0 0 178 151" fill="none" xmlns="http://www.w3.org/2000/svg">
<g clip-path="url(#clip0_316_59)">
<path d="M177.73 0H0.0625V150.498H177.73V0Z" fill="#7A7A7A"/>
<path d="M42.0119 29.3779C42.0119 25.4761 39.9868 22.5972 34.7423 22.5972C29.4057 22.5972 27.3806 25.0915 27.3806 28.9891V32.7293C27.3806 36.861 29.3136 38.9652 32.9031 38.9652C35.0187 38.9652 36.3068 38.1082 37.0421 36.939V42.3946C37.0421 43.9539 36.3068 44.967 34.5581 44.967C32.7189 44.967 32.074 44.11 32.074 42.4726V40.7586H27.4678V42.0838C27.4678 45.8254 29.0323 48.3964 34.6453 48.3964C39.8898 48.3964 42.007 45.5132 42.007 41.5376L42.0119 29.3779ZM37.0421 33.2797C36.95 34.683 36.2196 35.618 34.6502 35.618C32.9031 35.618 32.2583 34.7596 32.2583 33.0456V28.677C32.2583 27.0396 32.9936 26.1046 34.6502 26.1046C36.3068 26.1046 36.9533 27.0396 36.9533 28.677V33.2755L37.0421 33.2797ZM125.932 95.0116L108.358 86.4346V69.2082C108.358 68.8181 108.173 68.5115 107.715 68.3512L89.4953 59.4649C89.3088 59.3879 89.104 59.3479 88.8965 59.3479C88.689 59.3479 88.4842 59.3879 88.2977 59.4649L70.0785 68.3512C69.8949 68.4368 69.7398 68.5602 69.6273 68.71C69.5149 68.8597 69.4489 69.0311 69.4353 69.2082V86.4346L51.8593 95.0088C51.676 95.0958 51.5217 95.2206 51.4107 95.3716C51.2997 95.5227 51.2355 95.6951 51.2243 95.8728V113.637C51.2243 114.027 51.4069 114.334 51.8675 114.495L70.0785 123.38C70.2742 123.478 70.4962 123.532 70.7234 123.536C70.9479 123.521 71.1666 123.468 71.3666 123.38L88.9426 114.806L106.519 123.38C106.712 123.482 106.935 123.537 107.163 123.537C107.39 123.537 107.613 123.482 107.807 123.38L126.026 114.495C126.21 114.41 126.365 114.286 126.477 114.136C126.59 113.986 126.656 113.814 126.669 113.637V95.8728C126.485 95.4756 126.302 95.1649 125.934 95.0088L125.932 95.0116ZM87.6545 111.923L73.0232 104.751L87.6545 97.5812V111.923ZM104.678 86.9795L90.0481 94.1504V79.8866L104.678 86.9795ZM87.6545 94.0724L73.0232 86.9015L87.6545 79.7305V94.0724ZM91.3345 95.8728L107.157 88.1486L122.989 95.8728L107.157 103.582L91.3345 95.8728ZM105.874 85.1944L91.2424 78.0235L105.874 70.8456V85.1944ZM86.4618 78.1015L71.8305 85.2725V71.0003L86.4618 78.1015ZM69.5274 120.808L53.7002 113.092V97.6592L69.5274 105.375V120.808ZM71.9193 120.808V106.544L86.5506 113.71L71.9193 120.808ZM124.101 113.092L108.274 120.808V105.375L124.101 97.6592V113.092Z" fill="white"/>
<path d="M49.8358 23.2198H51.7671V32.729H49.8358V23.2198ZM54.442 26.8052V32.807H52.8693V23.2978H54.7118L56.7369 28.7547V23.2978H58.2981V32.807H56.653L54.442 26.8052ZM65.1169 25.7922V30.2388C65.1169 31.7201 64.3799 32.8112 62.3565 32.8112H59.4118V23.2978H62.3565C64.4655 23.2198 65.1103 24.3109 65.1103 25.7922H65.1169ZM62.1722 31.4818C62.9076 31.4818 63.2761 31.0916 63.2761 30.5468V25.5581C63.2761 25.0132 62.9997 24.623 62.1722 24.623H61.3497V31.5598L62.1722 31.4818ZM71.8337 23.2198V30.3907C71.8337 31.872 71.0984 32.807 69.1654 32.807C67.1403 32.807 66.3129 31.872 66.3129 30.3907V23.2198H68.2458V30.5468C68.2458 31.0916 68.5206 31.4818 69.1654 31.4818C69.8103 31.4818 70.085 31.0916 70.085 30.5468V23.2198H71.8337ZM72.8455 30.7028V29.4487H74.5843V30.7739C74.5843 31.3188 74.8607 31.6309 75.5056 31.6309C76.0567 31.6309 76.3281 31.3188 76.3281 30.7739V30.3837C76.3281 29.8389 76.0517 29.5267 75.5056 29.0599L74.4001 28.1235C73.2962 27.1884 72.8356 26.6422 72.8356 25.5511V25.2403C72.8356 24.0712 73.6581 23.1348 75.5056 23.1348C77.4369 23.1348 78.1739 23.9151 78.1739 25.3184V26.0973H76.4284V25.2403C76.4284 24.6941 76.1521 24.46 75.5088 24.46C74.9561 24.46 74.5876 24.6941 74.5876 25.2403V25.4731C74.5876 26.0193 74.9561 26.3314 75.5088 26.7983L76.7048 27.8127C77.7165 28.6697 78.2676 29.2146 78.2676 30.3057V30.7739C78.2676 32.0991 77.4451 33.0342 75.5088 33.0342C73.5759 32.8865 72.8389 31.95 72.8389 30.7028H72.8455ZM78.7348 23.2198H83.7967V24.545H82.2339V32.729H80.2927V24.545H78.7283L78.7348 23.2198ZM86.5572 28.3646V32.729H84.7097V23.2198H87.4702C89.4031 23.2198 90.0464 24.0001 90.0464 25.3253V26.5725C90.0464 27.5856 89.5874 28.2085 88.5658 28.4426L90.4066 32.729H88.3898L86.5572 28.3646ZM86.5572 24.545V27.5076H87.2004C87.8453 27.5076 88.1216 27.1954 88.1216 26.7272V25.3253C88.1216 24.7791 87.8453 24.545 87.2004 24.545H86.5572ZM94.47 29.1435V32.729H92.5321V29.1435L90.4149 23.2198H92.3511L93.455 26.8052L94.5588 23.2198H96.3996L94.47 29.1435ZM98.4181 31.3257L97.4985 33.508H96.3947L96.6711 31.2477H98.4181V31.3257ZM101.455 23.2198H103.39V32.729H101.457L101.455 23.2198ZM106.061 26.8052V32.807H104.497V23.2978H106.334L108.358 28.7547V23.2978H109.922V32.807H108.266L106.061 26.8052ZM112.686 26.8052V32.807H111.121V23.2978H112.962L114.987 28.7547V23.2978H116.552V32.807H114.889L112.686 26.8052ZM117.748 30.3127V25.7141C117.748 24.2328 118.57 23.1417 120.6 23.1417C122.63 23.1417 123.443 24.2328 123.443 25.7141V30.3127C123.443 31.794 122.62 32.8851 120.59 32.8851C118.56 32.8851 117.744 31.794 117.744 30.3127H117.748ZM121.612 30.5468V25.402C121.612 24.8571 121.336 24.3889 120.6 24.3889C119.955 24.3889 119.681 24.7791 119.681 25.402V30.5468C119.681 31.0916 119.955 31.5598 120.6 31.5598C121.245 31.5598 121.609 31.1697 121.609 30.5468H121.612ZM130.722 23.2198L128.605 32.729H126.577L124.461 23.2198H126.394L127.682 29.8458L128.97 23.2198H130.722ZM130.446 32.729L132.562 23.2198H134.679L136.794 32.729H134.86L134.491 31.015H132.558L132.192 32.729H130.446ZM132.749 29.7678H134.23L133.478 25.9482L132.749 29.7678ZM136.615 23.2184H141.675V24.5436H140.111V32.7276H138.173V24.545H136.604L136.615 23.2184ZM142.595 23.2184H144.528V32.7276H142.588L142.595 23.2184ZM145.721 30.3113V25.7127C145.721 24.2314 146.543 23.1403 148.573 23.1403C150.603 23.1403 151.426 24.2314 151.426 25.7127V30.3113C151.426 31.7926 150.603 32.8837 148.573 32.8837C146.543 32.8837 145.717 31.794 145.717 30.3127L145.721 30.3113ZM149.493 30.5454V25.402C149.493 24.8571 149.218 24.3889 148.481 24.3889C147.836 24.3889 147.561 24.7791 147.561 25.402V30.5468C147.561 31.0916 147.836 31.5598 148.481 31.5598C149.215 31.5598 149.489 31.1697 149.489 30.5468L149.493 30.5454ZM154.186 26.8038V32.8056H152.622V23.2978H154.463L156.488 28.7547V23.2978H158.052V32.807H156.392L154.186 26.8038Z" fill="white"/>
<path d="M49.4674 47.8512L51.583 38.342H53.7002L55.8157 47.8512H53.8844L53.5159 46.1358H51.583L51.2243 47.8512H49.4674ZM51.8593 44.8106H53.3317L52.5963 40.991L51.8593 44.8106ZM58.2077 41.8494V47.8512H56.6531V38.342H58.4923L60.5174 43.7975V38.342H62.0818V47.8512H60.417L58.2077 41.8494ZM68.8826 40.8363V45.2788C68.8826 46.7601 68.1472 47.8512 66.1221 47.8512H63.1775V38.342H66.1221C68.1472 38.342 68.8826 39.4358 68.8826 40.8363ZM65.9379 46.526C66.6749 46.526 67.0417 46.1358 67.0417 45.5909V40.6022C67.0417 40.056 66.767 39.6672 65.9379 39.6672H65.1154V46.604L65.9379 46.526ZM71.8273 38.342H73.7619V47.8512H71.8273V38.342ZM76.5206 41.8494V47.8512H74.9562V38.342H76.797L78.8205 43.7975V38.342H80.3849V47.8512H78.7283L76.5206 41.8494ZM81.5809 38.342H85.9979V39.6672H83.4217V42.3942H85.3531V43.7195H83.4217V47.9362H81.4937L81.5809 38.342ZM88.7584 43.4853V47.8512H86.8254V38.342H89.5875C91.5188 38.342 92.1637 39.1209 92.1637 40.4461V41.6933C92.1637 42.7064 91.703 43.3307 90.6831 43.5634L92.5239 47.8512H90.5071L88.7584 43.4853ZM88.7584 39.5836V42.5447H89.4032C90.0465 42.5447 90.3228 42.2326 90.3228 41.7658V40.3681C90.3228 39.8218 90.0465 39.5891 89.4032 39.5891L88.7584 39.5836ZM93.0833 47.8456L95.2005 38.3364H97.316L99.4332 47.8456H97.5003L97.1318 46.1302H95.1083L94.7398 47.8456H93.0833ZM95.3864 44.805H96.8587L96.1217 40.9854L95.3864 44.805ZM100.083 45.747V44.4928H101.832V45.8181C101.832 46.3629 102.108 46.6751 102.751 46.6751C103.304 46.6751 103.574 46.3629 103.574 45.8181V45.4279C103.574 44.8816 103.298 44.5709 102.751 44.1027L101.648 43.1676C100.544 42.2312 100.083 41.6863 100.083 40.5952V40.2831C100.083 39.1139 100.906 38.1789 102.751 38.1789C104.684 38.1789 105.42 38.9579 105.42 40.3611V41.1401H103.664V40.2831C103.664 39.7368 103.39 39.5041 102.745 39.5041C102.192 39.5041 101.825 39.7368 101.825 40.2831V40.5172C101.825 41.0621 102.192 41.3742 102.745 41.8424L103.941 42.8555C104.954 43.7125 105.505 44.2587 105.505 45.3498V45.8181C105.505 47.1433 104.683 48.0783 102.745 48.0783C100.807 48.0783 100.083 46.9942 100.083 45.747ZM106.065 38.342H111.125V39.6672H109.56V47.8512H107.622V39.6672H106.058L106.065 38.342ZM113.977 43.4853V47.8512H112.039V38.342H114.8C116.733 38.342 117.376 39.1209 117.376 40.4461V41.6933C117.376 42.7064 116.915 43.3307 115.896 43.5634L117.736 47.8512H115.719L113.977 43.4853ZM113.977 39.5836V42.5447H114.622C115.267 42.5447 115.542 42.2326 115.542 41.7658V40.3681C115.542 39.8218 115.267 39.5891 114.622 39.5891L113.977 39.5836ZM124.012 38.3294V45.5003C124.012 46.9816 123.277 47.9167 121.344 47.9167C119.321 47.9167 118.491 46.9816 118.491 45.5003V38.342H120.424V45.669C120.424 46.2138 120.701 46.604 121.344 46.604C121.987 46.604 122.264 46.2138 122.264 45.669V38.342L124.012 38.3294ZM125.208 45.3443V40.7457C125.208 39.2644 126.031 38.1733 128.061 38.1733C130.178 38.1733 130.731 39.1864 130.731 40.5897V41.6808H128.971V40.4336C128.971 39.8093 128.694 39.4986 128.049 39.4986C127.404 39.4986 127.13 39.8873 127.13 40.5116V45.6564C127.13 46.2013 127.406 46.6695 128.049 46.6695C128.693 46.6695 128.971 46.2793 128.971 45.7345V43.9536H130.719V45.5909C130.719 46.9161 130.074 47.9292 128.049 47.9292C126.024 47.9292 125.197 46.8381 125.197 45.3568L125.208 45.3443ZM131.098 38.3294H136.16V39.6546H134.595V47.8386H132.656V39.6672H131.091L131.098 38.3294ZM142.6 38.3294V45.5003C142.6 46.9816 141.865 47.9167 139.932 47.9167C137.908 47.9167 137.079 46.9816 137.079 45.5003V38.342H139.012V45.669C139.012 46.2138 139.288 46.604 139.932 46.604C140.575 46.604 140.853 46.2138 140.853 45.669V38.342L142.6 38.3294ZM145.637 43.4728V47.8386H143.692V38.342H146.453C148.386 38.342 149.031 39.1209 149.031 40.4461V41.6933C149.031 42.7064 148.57 43.3307 147.558 43.5634L149.397 47.8512H147.374L145.637 43.4728ZM145.637 39.571V42.5322H146.282C146.925 42.5322 147.201 42.2201 147.201 41.7532V40.3681C147.201 39.8218 146.925 39.5891 146.282 39.5891L145.637 39.571ZM150.243 38.3169H154.752V39.6421H152.16V42.3692H153.999V43.6944H152.16V46.5789H154.736V47.9362H150.227L150.243 38.3169Z" fill="white"/>
</g>
<defs>
<clipPath id="clip0_316_59">
<rect width="177.668" height="150.498" fill="white" transform="translate(0.0625)"/>
</clipPath>
</defs>
</svg>
