<svg width="178" height="151" viewBox="0 0 178 151" fill="none" xmlns="http://www.w3.org/2000/svg">
<g clip-path="url(#clip0_316_56)">
<path d="M177.668 0H0V150.498H177.668V0Z" fill="#7A7A7A"/>
<path d="M38.0012 48.3963H42.7719V44.266H44.797V40.9147H42.7719V23.064H37.8037L29.1605 41.6156V44.188H38.0012V48.3963ZM33.5841 40.9147L38.0916 30.4634V40.9147H33.5841Z" fill="white"/>
<path d="M79.7696 79.8084L53.177 66.7918V108.882L79.7696 115.66V79.8084ZM82.6222 79.8865V115.66L109.397 108.804V66.7918L82.6222 79.8865ZM130.196 65.7731C130.196 65.0709 129.867 64.3975 129.281 63.901C128.694 63.4044 127.899 63.1255 127.07 63.1255C126.241 63.1255 125.446 63.4044 124.86 63.901C124.274 64.3975 123.945 65.0709 123.945 65.7731V68.6563H130.196V65.7731ZM124.767 108.098H123.945L127.07 117.373L130.196 108.098V70.6894H123.945V108.103L124.767 108.098Z" fill="white"/>
<path d="M115.106 68.6618L112.253 66.7109V109.973L82.7143 118.081H79.7696L50.3228 111.143V66.7137L47.4702 68.6646V112.783L79.5837 120.344H82.8969L112.434 112.393L115.104 111.696L115.106 68.6618Z" fill="white"/>
<path d="M57.1334 38.1081H62.0193V39.5114H59.1585V42.4726H61.182V43.8758H59.1585V46.9945H62.0193V48.3963H57.1334V38.1081ZM69.2807 40.8366V45.5912C69.2807 47.1505 68.5437 48.3183 66.336 48.3183H63.2103V38.1081H66.336C68.5437 38.1081 69.2807 39.2773 69.2807 40.8366ZM66.0596 46.9164C66.8821 46.9164 67.2556 46.5263 67.2556 45.9034V40.5245C67.2556 39.9002 66.9792 39.5114 66.0596 39.5114H65.2371V46.9164H66.0596ZM76.5502 38.1081V45.8253C76.5502 47.3833 75.7277 48.473 73.6977 48.473C71.5805 48.473 70.6609 47.4599 70.6609 45.8253V38.1081H72.6843V46.0511C72.6843 46.6754 72.9607 47.0655 73.6977 47.0655C74.4347 47.0655 74.7094 46.6754 74.7094 46.0511V38.1081H76.5502ZM77.8383 45.6693V40.6805C77.8383 39.0432 78.7579 37.9521 80.8735 37.9521C83.0828 37.9521 83.726 39.0432 83.726 40.5245V41.7717H81.8869V40.4464C81.8869 39.8221 81.6105 39.4334 80.8735 39.4334C80.1365 39.4334 79.8618 39.9002 79.8618 40.5245V46.058C79.8618 46.6823 80.1381 47.1505 80.8735 47.1505C81.6088 47.1505 81.8869 46.7604 81.8869 46.1361V44.266H83.7343V46.058C83.7343 47.5393 82.9989 48.6304 80.8817 48.6304C78.7579 48.4744 77.8383 47.3052 77.8383 45.6693ZM84.463 48.3169L86.7661 38.1068H89.0692L91.3723 48.3169H89.2486L88.8801 46.4468H86.7628L86.396 48.3169H84.463ZM86.9471 45.1216H88.6037L87.7811 40.9899L86.9471 45.1216ZM91.0878 38.1068H96.5165V39.51H94.8616V48.3169H92.8365V39.51H91.1799V38.1081L91.0878 38.1068ZM97.622 38.1068H99.6454V48.3169H97.622V38.1068ZM101.026 45.6679V40.6792C101.026 39.0418 101.947 37.9507 104.062 37.9507C106.178 37.9507 107.188 39.1198 107.188 40.6792V45.6679C107.188 47.2258 106.268 48.3949 104.062 48.3949C101.947 48.4744 101.026 47.3052 101.026 45.6693V45.6679ZM105.166 45.9856V40.4464C105.166 39.8221 104.892 39.3553 104.155 39.3553C103.418 39.3553 103.143 39.8221 103.143 40.4464V45.9856C103.143 46.6099 103.419 47.0781 104.155 47.0781C104.799 46.9945 105.166 46.6043 105.166 45.9856ZM110.228 41.9333V48.3963H108.479V38.182H110.505L112.712 44.0347V38.182H114.369V48.3963H112.62L110.228 41.9333Z" fill="white"/>
<path d="M59.4332 33.9765V33.2797C57.7783 33.0456 57.1301 32.0325 57.1301 30.6321V25.6406C57.1301 24.0046 58.0497 22.9121 60.1669 22.9121C62.2841 22.9121 63.2926 24.0826 63.2926 25.6406V30.6293C63.2926 31.7204 62.832 32.6554 61.8202 33.0456L63.2926 33.2797V34.5339L59.4332 33.9765ZM61.2741 31.0153V25.4023C61.2741 24.7794 60.9977 24.3112 60.2623 24.3112C59.527 24.3112 59.2506 24.7794 59.2506 25.4023V31.0153C59.2506 31.6382 59.5254 32.1064 60.2623 32.1064C60.9056 32.1064 61.2741 31.6326 61.2741 31.0153ZM70.4766 23.064V30.7812C70.4766 32.3391 69.6541 33.4288 67.6241 33.4288C65.5068 33.4288 64.5872 32.4144 64.5872 30.7812V23.064H66.6123V31.0153C66.6123 31.6382 66.8871 32.0284 67.6241 32.0284C68.361 32.0284 68.6358 31.6382 68.6358 31.0153V23.064H70.4766ZM71.2992 33.2755L73.6023 23.064H75.9054L78.2085 33.2755H76.0896L75.7211 31.4041H73.6055L73.237 33.2755H71.2992ZM73.7849 30.0803H75.4414L74.6189 25.9485L73.7849 30.0803ZM79.1281 23.064H81.1515V31.8723H83.5451V33.2755H79.1281V23.064ZM84.5568 23.064H86.5802V33.2755H84.5568V23.064ZM87.5936 23.064H93.0224V24.4673H91.3641V33.2755H89.3407V24.4673H87.6824L87.5936 23.064ZM97.9 29.3779V33.2797H95.8733V29.3779L93.5702 23.064H95.6857L96.8833 26.9658L98.0793 23.064H100.02L97.9 29.3779Z" fill="white"/>
</g>
<defs>
<clipPath id="clip0_316_56">
<rect width="177.668" height="150.498" fill="white"/>
</clipPath>
</defs>
</svg>
