<svg width="179" height="151" viewBox="0 0 179 151" fill="none" xmlns="http://www.w3.org/2000/svg">
<g clip-path="url(#clip0_316_48)">
<path d="M178.651 0.812012H0.390381V151H178.651V0.812012Z" fill="#7A7A7A"/>
<path d="M33.9877 23.8284V49.1087H28.9105V29.7372L25.4014 32.8522H25.3139V28.4189L29.9355 23.8298L33.9877 23.8284ZM50.6056 29.352V31.5297C50.6056 33.6296 49.2207 35.03 47.1905 35.6516C49.6829 36.1188 50.8828 37.5985 50.8828 39.9305V43.6644C50.8828 47.1646 48.6678 49.4202 43.589 49.4202C38.5102 49.4202 36.6566 46.931 36.6566 43.1193V39.7748H41.2782V43.3529C41.2782 44.8311 41.9236 45.8421 43.589 45.8421C45.1587 45.8421 45.8057 44.909 45.8057 43.5865V39.3854C45.8057 38.0629 45.0663 37.3634 43.3117 37.3634H41.1891V34.0968H43.1268C44.789 34.0968 45.8057 33.4015 45.8057 32.0735V29.352C45.8057 27.9516 45.2511 27.0964 43.6814 27.0964C42.1117 27.0964 41.5572 27.9516 41.5572 29.5856V32.1514H36.9356V29.8958C36.9356 26.1619 38.7809 23.5962 43.9521 23.5962C48.5737 23.5962 50.599 25.7739 50.599 29.352M144.039 91.7357C140.162 87.1466 122.435 68.6332 89.4747 68.6332C56.5146 68.6332 38.8799 87.0688 34.9103 91.7357C34.7798 91.93 34.6254 92.1123 34.4498 92.2795C34.5422 92.4352 34.7271 92.591 34.9103 92.8246C38.7875 97.4137 56.5146 115.927 89.4747 115.927C122.342 115.927 140.07 97.4915 144.039 92.8246C144.17 92.6299 144.324 92.4472 144.5 92.2795C144.315 92.1237 144.222 91.8915 144.039 91.7357ZM71.1023 80.3006C71.3796 79.9126 72.3947 78.9016 72.4871 78.7458C72.7644 78.4343 73.2266 78.4343 73.5946 78.3565C73.9627 78.2786 74.4199 78.4343 74.4199 78.668C74.5123 78.9016 74.3275 79.7568 74.1426 79.9126C73.6805 80.3006 72.3881 80.9236 71.7427 80.8457C71.2805 80.7678 71.0032 80.4563 71.0957 80.3006M69.9881 82.2475C70.0806 82.1696 70.0806 82.1696 70.0806 82.0917C70.4487 81.7023 71.2805 81.6245 71.9259 81.5466C72.4805 81.4701 73.22 81.7023 73.3107 82.0138C73.4015 82.3253 71.9259 82.9469 71.5578 83.1027C70.7326 83.7257 69.526 84.9689 68.7882 85.1247C68.6967 85.158 68.5956 85.1684 68.4973 85.1546C68.3989 85.1408 68.3073 85.1034 68.2336 85.0468C68.6958 84.1916 69.3411 83.1806 69.9881 82.2475ZM82.2667 103.56C81.8045 105.039 81.344 105.582 80.8819 106.049C80.4197 106.517 78.7593 107.138 77.7458 107.06C76.7324 106.983 76.5458 104.649 76.5458 103.482C76.5458 103.093 75.808 104.338 75.4383 101.772C75.161 100.138 73.9611 101.928 73.8686 100.837C73.7762 99.7472 73.1308 99.9822 72.4838 99.2827C71.8368 98.5832 71.0065 99.3606 70.173 99.6707C69.2487 99.9822 69.6184 100.216 68.4185 99.8264H68.326C67.0956 97.4465 66.4666 94.8768 66.479 92.2809C66.4636 91.6309 66.4944 90.9808 66.5715 90.334C66.5746 90.2935 66.5951 90.2554 66.6291 90.2267C66.6631 90.1981 66.7083 90.1808 66.7563 90.1782C67.9563 88.9336 67.9563 88.7 67.9563 88.7L69.3411 88.312C70.6214 88.5038 71.886 88.7635 73.1275 89.0894C74.4199 89.4787 76.5425 90.4897 77.7491 90.0225C78.6734 89.711 79.3188 89.3272 79.2264 88.7C79.1339 87.9226 78.4011 87.7669 77.5659 88.2341C77.1962 88.3885 76.5491 87.0674 75.9962 87.1439C75.4433 87.2203 76.6416 88.7779 76.1811 88.7779C75.7189 88.8557 74.7946 87.1439 74.6114 86.9116C74.4282 86.6794 73.7861 85.9771 73.1341 86.5223C71.7493 87.6111 69.625 87.5332 69.1629 87.8447C67.778 88.7 67.5007 87.5332 67.5007 86.9116C67.5932 86.7559 67.5932 86.6001 67.6856 86.4444C68.1478 86.055 69.7175 85.9006 70.272 86.2108C70.8266 86.5209 71.2871 86.1329 71.5644 85.9006C71.8417 85.6684 71.7493 85.3555 71.5644 85.1219C71.3796 84.8883 71.8401 84.656 72.2098 84.5781C72.4871 84.5003 73.5022 83.8828 73.9644 83.7229C74.3341 83.4893 76.4567 83.3335 77.4735 83.7229C77.8542 83.8874 78.2899 83.9384 78.7094 83.8677C79.129 83.797 79.5078 83.6087 79.7843 83.3335C80.2288 82.8465 80.7944 82.4473 81.4414 82.164C81.8111 82.0083 80.6161 81.153 79.6885 82.0861C78.7659 83.0971 78.3037 83.175 77.8415 83.175C77.3794 83.175 74.7946 82.6313 74.4265 81.9304C74.1492 81.2351 75.2518 80.6788 76.2719 80.2964C77.2919 79.914 79.9658 79.9084 80.6112 79.7527C81.996 79.519 83.7473 78.8974 84.6732 79.4412C85.5975 79.9084 80.9809 80.8415 82.4582 81.541C83.0111 81.7746 85.4127 80.3743 86.2429 79.9863C88.1823 79.1297 84.3052 78.8195 84.8581 77.1077C85.4127 75.1608 80.0566 75.8631 77.4735 76.0967C81.1623 74.0933 85.464 73.0389 89.8527 73.0623C94.993 73.0614 99.9838 74.5192 104.02 77.2005C108.057 79.8819 110.904 83.6305 112.102 87.842C112.102 88.2313 112.01 88.5373 112.01 88.6972C111.825 89.3925 110.255 90.0197 109.333 88.853C109.055 88.5415 108.133 87.7641 108.133 89.1645C108.133 90.4869 109.702 90.6427 108.225 91.4201C106.748 92.1974 106.471 92.0431 105.824 92.1974C105.178 92.431 104.531 93.7535 104.624 94.5323C104.808 95.2276 106.84 97.2538 105.363 97.1745C104.993 97.1745 102.227 95.5419 101.762 94.5323C101.301 93.442 100.746 92.431 100.377 91.5758C100.009 90.7984 98.9935 90.5648 98.2541 91.0307C97.4288 91.4979 98.4389 91.9652 97.8844 92.9776C97.3298 93.9899 96.8693 94.8438 96.039 94.0664C93.8223 91.8887 90.5922 92.9776 90.0376 90.5662C89.7603 89.2437 88.4679 89.3995 87.3587 88.6193C86.2512 87.924 85.6058 87.4526 85.4209 87.9977C85.2361 88.4636 88.9284 90.9528 89.2057 91.5758C89.5754 92.5089 88.0981 93.3642 86.9906 93.5227C85.8814 93.7563 85.4209 92.979 84.3134 92.0458C83.2059 91.1127 82.7437 90.4118 82.7437 91.1892C82.6513 92.2781 83.7588 93.8314 84.8663 94.3793C85.7907 94.8452 86.8058 95.0746 86.5285 95.9341C86.2512 96.7128 86.5285 96.2456 85.5134 97.1856C84.4966 98.0423 84.3134 98.3523 84.3134 99.5205C84.4042 100.772 84.0361 100.772 83.7588 101.776C83.2967 102.943 82.7437 102.086 82.2733 103.564M106.925 95.8631C107.662 95.7866 108.862 96.7197 108.402 97.0312C107.941 97.3428 106.832 97.2635 106.185 96.8755C105.632 96.4861 106.555 95.8631 106.925 95.8631ZM105.908 95.236C105.632 95.1581 105.447 94.9244 105.262 94.4586C105.078 93.9927 105.54 93.6798 106 93.9135C106.461 94.1471 107.109 94.6908 107.109 95.0023C107.109 95.3917 106.185 95.3917 105.908 95.236ZM95.7535 95.236C95.2913 95.5475 94.1838 95.4696 93.5368 95.0802C92.9838 94.6908 93.9065 94.0692 94.2762 94.0692C95.1015 93.9913 96.214 94.9245 95.7617 95.236M86.436 99.0477C86.1587 99.5149 85.2361 102.704 84.6815 102.314C84.1269 101.925 84.9588 98.5804 85.0512 98.2703C85.9739 96.9478 87.9133 97.0187 86.436 99.0477ZM89.5721 111.648C87.3863 111.63 85.213 111.369 83.1085 110.871C82.8328 110.637 82.648 110.326 82.8329 109.938C83.5707 108.382 85.6949 107.759 87.3554 107.604C91.0494 107.293 95.9383 109.626 96.7735 109.237C97.513 108.849 99.0843 107.137 101.395 107.215C102.963 107.293 102.963 107.526 103.518 107.681C99.5065 110.251 94.6066 111.643 89.5672 111.645M105.725 106.045C105.484 105.955 105.237 105.877 104.985 105.812C103.693 105.267 103.878 106.123 103.231 105.967C102.584 105.812 103.97 104.567 102.031 105.578C100.185 106.589 100.646 105.422 99.908 103.712C99.0827 102 100.831 100.056 102.308 99.5886C104.338 98.967 105.54 98.8933 106.462 98.6555C109.232 98.1118 109.787 96.7086 110.34 97.5667L110.617 98.0339C110.861 98.419 110.988 98.849 110.987 99.2855C109.808 101.824 108.016 104.128 105.725 106.052M111.997 96.329C111.351 96.1732 108.765 93.2181 110.889 91.1948C111.259 90.8833 110.242 89.9502 110.519 89.8723C111.629 89.7944 112.182 90.4174 112.551 91.1948V92.2836C112.463 93.6403 112.278 94.9912 111.997 96.329ZM62.6167 31.4519V26.4734C62.6167 24.8408 63.5394 23.7506 65.6637 23.7506C67.8787 23.7506 68.5257 24.8408 68.5257 26.3177V27.5692H66.6705V26.2467C66.6705 25.6251 66.3932 25.2357 65.6554 25.2357C64.9176 25.2357 64.6387 25.703 64.6387 26.3246V31.8468C64.6387 32.4698 64.916 32.9371 65.6554 32.9371C66.3949 32.9371 66.6705 32.5477 66.6705 31.9247V30.0515H68.5175V31.8399C68.5175 33.3181 67.778 34.407 65.6554 34.407C63.5311 34.1747 62.6167 33.0066 62.6167 31.4519ZM69.8181 23.8284H71.8483V32.6186H74.2499V34.019H69.8099L69.8181 23.8284ZM75.4499 23.8284H77.4718V34.019H75.4416L75.4499 23.8284ZM84.5891 27.4065L83.1118 34.019H82.1891L80.7119 27.4065V34.019H79.0415V23.8284H81.4414L82.7355 29.5856L83.9354 23.8284H86.5202V34.019H84.6732L84.5891 27.4065ZM87.5403 34.0968L89.8511 23.9063H92.1618L94.4726 34.0968H92.3368L91.9671 32.2292H89.8511L89.4813 34.0968H87.5403ZM90.0343 30.8303H91.6964L90.8711 26.707L90.0343 30.8303ZM94.1887 23.8284H99.6356V25.2288H97.9685V34.019H95.9383V25.2288H94.2762L94.1887 23.8284ZM100.743 23.8284H105.637V25.2288H102.77V28.1853H104.8V29.5856H102.77V32.6965H105.632V34.0968H100.745L100.743 23.8284ZM62.2387 48.8751L64.5495 38.6859H66.8603L69.1711 48.8751H67.1409L66.7712 47.0089H64.6387L64.2673 48.8751H62.2387ZM64.8235 45.6085H66.4856L65.6604 41.4867L64.8235 45.6085ZM69.8099 46.2315V41.253C69.8099 39.619 70.7326 38.5302 72.8568 38.5302C75.0719 38.5302 75.7189 39.619 75.7189 41.0973V42.3419H73.8719V41.0194C73.8719 40.3978 73.5946 40.0084 72.8568 40.0084C72.119 40.0084 71.8401 40.4743 71.8401 41.0973V46.6209C71.8401 47.2425 72.1174 47.7097 72.8568 47.7097C73.5963 47.7097 73.8719 47.3204 73.8719 46.6974V44.8311H75.7189V46.6209C75.7189 48.0977 74.9795 49.1866 72.8568 49.1866C70.6401 49.0308 69.8099 47.7876 69.8099 46.2315ZM76.4567 38.6859H81.9036V40.0863H80.2415V48.8751H78.2113V40.0863H76.5491L76.4567 38.6859ZM83.0111 38.6859H85.043V48.8751H83.0111V38.6859ZM86.4278 46.2315V41.253C86.4278 39.619 87.3504 38.5302 89.4747 38.5302C91.599 38.5302 92.6108 39.6969 92.6108 41.253V46.2315C92.6108 47.7876 91.6881 48.953 89.4747 48.953C87.3504 49.0308 86.4278 47.7876 86.4278 46.2315ZM90.4898 46.543V41.0194C90.4898 40.3978 90.2142 39.9305 89.4747 39.9305C88.7353 39.9305 88.4596 40.3978 88.4596 41.0194V46.543C88.4596 47.1646 88.7369 47.6319 89.4747 47.6319C90.2142 47.554 90.4898 47.1646 90.4898 46.543ZM95.661 42.4198V48.8751H93.9065V38.6859H95.9383L98.1534 44.5196V38.6859H99.8155V48.8751H98.061L95.661 42.4198Z" fill="white"/>
</g>
<defs>
<clipPath id="clip0_316_48">
<rect width="178.261" height="150.188" fill="white" transform="translate(0.390381 0.812012)"/>
</clipPath>
</defs>
</svg>
