<svg width="178" height="151" viewBox="0 0 178 151" fill="none" xmlns="http://www.w3.org/2000/svg">
<g clip-path="url(#clip0_316_42)">
<path d="M177.344 0H0.041748V150.188H177.344V0Z" fill="#7A7A7A"/>
<path d="M25.4699 27.6066V32.0399L29.0504 28.9249V48.2185H34.1019V23.0161H30.0601L25.4699 27.6066ZM36.855 27.6066V32.0399H36.947L40.4372 28.9249V48.2185H45.4871V23.0161H41.4469L36.855 27.6066Z" fill="white"/>
<path d="M39.2437 107.803H61.4657C61.6088 107.795 61.7436 107.743 61.845 107.657C61.9465 107.571 62.0077 107.457 62.0173 107.336C62.0159 107.276 61.9987 107.216 61.9669 107.163C61.9351 107.109 61.8895 107.062 61.8334 107.024L50.8144 94.8912L50.7224 94.8133C50.6796 94.765 50.6241 94.7257 50.5603 94.6987C50.4964 94.6716 50.4261 94.6576 50.3547 94.6576C50.2833 94.6576 50.2129 94.6716 50.1491 94.6987C50.0853 94.7257 50.0298 94.765 49.987 94.8133L49.8031 94.9691L38.9679 106.947L38.7857 107.102C38.7508 107.133 38.7245 107.17 38.7086 107.21C38.6927 107.251 38.6876 107.294 38.6938 107.336C38.7033 107.457 38.7643 107.571 38.8654 107.657C38.9665 107.743 39.1009 107.795 39.2437 107.803ZM61.3737 109.514H39.0598C38.9167 109.522 38.7819 109.574 38.6805 109.66C38.5791 109.746 38.5179 109.86 38.5082 109.981V124.761C38.5182 124.882 38.5796 124.995 38.681 125.081C38.7824 125.167 38.917 125.218 39.0598 125.226H46.2225V115.97C46.2322 115.849 46.2935 115.735 46.3949 115.65C46.4964 115.564 46.6312 115.512 46.7742 115.505H53.3853C53.5282 115.512 53.663 115.564 53.7645 115.65C53.8659 115.735 53.9272 115.849 53.9369 115.97V125.226H61.2769C61.4197 125.218 61.5543 125.167 61.6557 125.081C61.7571 124.995 61.8185 124.882 61.8285 124.761V109.981C61.9335 109.747 61.7415 109.514 61.3737 109.514ZM138.326 105.62H116.288C116.145 105.628 116.011 105.679 115.909 105.765C115.808 105.851 115.746 105.965 115.737 106.086V124.916C115.747 125.037 115.808 125.151 115.909 125.237C116.011 125.322 116.145 125.374 116.288 125.382H138.326C138.469 125.374 138.604 125.322 138.705 125.237C138.807 125.151 138.868 125.037 138.878 124.916V106.091C138.881 106.029 138.869 105.968 138.842 105.91C138.815 105.852 138.775 105.8 138.723 105.756C138.671 105.712 138.609 105.678 138.541 105.655C138.473 105.633 138.4 105.623 138.326 105.625M126.296 117.994C126.286 118.115 126.225 118.228 126.124 118.314C126.023 118.4 125.889 118.451 125.746 118.46H119.135C118.992 118.452 118.858 118.4 118.756 118.314C118.655 118.229 118.593 118.115 118.583 117.994V114.57C118.593 114.449 118.655 114.335 118.756 114.25C118.858 114.164 118.992 114.112 119.135 114.104H125.746C125.889 114.112 126.023 114.164 126.124 114.25C126.225 114.335 126.286 114.449 126.296 114.57V117.994ZM126.296 111.693C126.286 111.814 126.225 111.927 126.124 112.013C126.023 112.099 125.889 112.151 125.746 112.159H119.135C118.992 112.151 118.858 112.099 118.756 112.013C118.655 111.928 118.593 111.814 118.583 111.693V108.269C118.593 108.148 118.655 108.034 118.756 107.949C118.858 107.863 118.992 107.811 119.135 107.803H125.746C125.889 107.811 126.023 107.863 126.124 107.949C126.225 108.034 126.286 108.148 126.296 108.269V111.693ZM136.399 117.994C136.389 118.115 136.328 118.229 136.226 118.314C136.125 118.4 135.99 118.452 135.847 118.46H129.243C129.1 118.451 128.966 118.399 128.865 118.314C128.764 118.228 128.703 118.115 128.693 117.994V114.57C128.703 114.449 128.764 114.336 128.865 114.25C128.966 114.164 129.1 114.113 129.243 114.104H135.856C135.999 114.112 136.133 114.164 136.234 114.25C136.336 114.335 136.397 114.449 136.407 114.57L136.399 117.994ZM136.399 111.693C136.389 111.814 136.328 111.928 136.226 112.013C136.125 112.099 135.99 112.151 135.847 112.159H129.243C129.1 112.15 128.966 112.098 128.865 112.013C128.764 111.927 128.703 111.814 128.693 111.693V108.269C128.703 108.148 128.764 108.035 128.865 107.949C128.966 107.863 129.1 107.812 129.243 107.803H135.856C135.999 107.811 136.133 107.863 136.234 107.949C136.336 108.034 136.397 108.148 136.407 108.269L136.399 111.693ZM87.0859 61.9082H65.5978C65.4548 61.9164 65.3203 61.9683 65.2191 62.0542C65.1179 62.1402 65.0571 62.2543 65.0478 62.3755V124.838C65.0574 124.959 65.1185 125.073 65.2196 125.159C65.3207 125.244 65.4551 125.296 65.5978 125.304H87.1778C87.3207 125.296 87.4553 125.245 87.5567 125.159C87.6581 125.073 87.7195 124.959 87.7294 124.838V62.3768C87.6375 62.0653 87.4536 61.9096 87.0859 61.9096M74.3217 118.148C74.3273 118.18 74.324 118.212 74.312 118.243C74.3001 118.273 74.28 118.301 74.2532 118.324C74.2264 118.346 74.1937 118.363 74.1577 118.374C74.1217 118.384 74.0834 118.386 74.0459 118.382H69.088C69.0505 118.386 69.0123 118.384 68.9763 118.374C68.9403 118.363 68.9076 118.346 68.8808 118.324C68.854 118.301 68.8338 118.273 68.8219 118.243C68.81 118.212 68.8067 118.18 68.8122 118.148V113.476C68.8067 113.444 68.81 113.411 68.8219 113.381C68.8338 113.35 68.854 113.323 68.8808 113.3C68.9076 113.277 68.9403 113.26 68.9763 113.25C69.0123 113.24 69.0505 113.237 69.088 113.242H74.0459C74.0834 113.237 74.1217 113.24 74.1577 113.25C74.1937 113.26 74.2264 113.277 74.2532 113.3C74.28 113.323 74.3001 113.35 74.312 113.381C74.324 113.411 74.3273 113.444 74.3217 113.476V118.148ZM74.3217 107.414C74.3273 107.446 74.324 107.478 74.312 107.508C74.3001 107.539 74.28 107.567 74.2532 107.589C74.2264 107.612 74.1937 107.629 74.1577 107.639C74.1217 107.649 74.0834 107.652 74.0459 107.647H69.088C69.0505 107.652 69.0123 107.649 68.9763 107.639C68.9403 107.629 68.9076 107.612 68.8808 107.589C68.854 107.567 68.8338 107.539 68.8219 107.508C68.81 107.478 68.8067 107.446 68.8122 107.414V102.747C68.8067 102.715 68.81 102.683 68.8219 102.652C68.8338 102.622 68.854 102.594 68.8808 102.571C68.9076 102.549 68.9403 102.532 68.9763 102.521C69.0123 102.511 69.0505 102.509 69.088 102.513H74.0459C74.0834 102.509 74.1217 102.511 74.1577 102.521C74.1937 102.532 74.2264 102.549 74.2532 102.571C74.28 102.594 74.3001 102.622 74.312 102.652C74.324 102.683 74.3273 102.715 74.3217 102.747V107.414ZM74.3217 96.6795C74.3273 96.7113 74.324 96.7437 74.312 96.7742C74.3001 96.8047 74.28 96.8324 74.2532 96.8551C74.2264 96.8778 74.1937 96.8949 74.1577 96.905C74.1217 96.915 74.0834 96.9179 74.0459 96.9132H69.088C69.0505 96.9179 69.0123 96.915 68.9763 96.905C68.9403 96.8949 68.9076 96.8778 68.8808 96.8551C68.854 96.8324 68.8338 96.8047 68.8219 96.7742C68.81 96.7437 68.8067 96.7113 68.8122 96.6795V92.0126C68.8067 91.9808 68.81 91.9484 68.8219 91.9179C68.8338 91.8874 68.854 91.8597 68.8808 91.837C68.9076 91.8143 68.9403 91.7973 68.9763 91.7872C69.0123 91.7771 69.0505 91.7743 69.088 91.779H74.0459C74.0834 91.7743 74.1217 91.7771 74.1577 91.7872C74.1937 91.7973 74.2264 91.8143 74.2532 91.837C74.28 91.8597 74.3001 91.8874 74.312 91.9179C74.324 91.9484 74.3273 91.9808 74.3217 92.0126V96.6795ZM74.3217 86.0231C74.3273 86.0549 74.324 86.0873 74.312 86.1178C74.3001 86.1483 74.28 86.176 74.2532 86.1987C74.2264 86.2214 74.1937 86.2385 74.1577 86.2486C74.1217 86.2586 74.0834 86.2614 74.0459 86.2568H69.088C69.0505 86.2614 69.0123 86.2586 68.9763 86.2486C68.9403 86.2385 68.9076 86.2214 68.8808 86.1987C68.854 86.176 68.8338 86.1483 68.8219 86.1178C68.81 86.0873 68.8067 86.0549 68.8122 86.0231V81.352C68.8067 81.3202 68.81 81.2878 68.8219 81.2573C68.8338 81.2269 68.854 81.1992 68.8808 81.1765C68.9076 81.1538 68.9403 81.1367 68.9763 81.1266C69.0123 81.1165 69.0505 81.1137 69.088 81.1184H74.0459C74.0834 81.1137 74.1217 81.1165 74.1577 81.1266C74.1937 81.1367 74.2264 81.1538 74.2532 81.1765C74.28 81.1992 74.3001 81.2269 74.312 81.2573C74.324 81.2878 74.3273 81.3202 74.3217 81.352V86.0231ZM74.3217 75.2889C74.3273 75.3206 74.324 75.353 74.312 75.3835C74.3001 75.414 74.28 75.4417 74.2532 75.4644C74.2264 75.4871 74.1937 75.5042 74.1577 75.5143C74.1217 75.5244 74.0834 75.5272 74.0459 75.5225H69.088C69.0505 75.5272 69.0123 75.5244 68.9763 75.5143C68.9403 75.5042 68.9076 75.4871 68.8808 75.4644C68.854 75.4417 68.8338 75.414 68.8219 75.3835C68.81 75.353 68.8067 75.3206 68.8122 75.2889V70.6219C68.8067 70.5901 68.81 70.5577 68.8219 70.5272C68.8338 70.4968 68.854 70.4691 68.8808 70.4464C68.9076 70.4237 68.9403 70.4066 68.9763 70.3965C69.0123 70.3864 69.0505 70.3836 69.088 70.3883H74.0459C74.0834 70.3836 74.1217 70.3864 74.1577 70.3965C74.1937 70.4066 74.2264 70.4237 74.2532 70.4464C74.28 70.4691 74.3001 70.4968 74.312 70.5272C74.324 70.5577 74.3273 70.5901 74.3217 70.6219V75.2889ZM83.9634 118.148C83.9689 118.18 83.9656 118.212 83.9537 118.243C83.9418 118.273 83.9216 118.301 83.8948 118.324C83.868 118.346 83.8353 118.363 83.7994 118.374C83.7634 118.384 83.7251 118.386 83.6876 118.382H78.7297C78.6922 118.386 78.6539 118.384 78.6179 118.374C78.582 118.363 78.5493 118.346 78.5225 118.324C78.4957 118.301 78.4755 118.273 78.4636 118.243C78.4517 118.212 78.4484 118.18 78.4539 118.148V113.476C78.4484 113.444 78.4517 113.411 78.4636 113.381C78.4755 113.35 78.4957 113.323 78.5225 113.3C78.5493 113.277 78.582 113.26 78.6179 113.25C78.6539 113.24 78.6922 113.237 78.7297 113.242H83.6876C83.7251 113.237 83.7634 113.24 83.7994 113.25C83.8353 113.26 83.868 113.277 83.8948 113.3C83.9216 113.323 83.9418 113.35 83.9537 113.381C83.9656 113.411 83.9689 113.444 83.9634 113.476V118.148ZM83.9634 107.414C83.9689 107.446 83.9656 107.478 83.9537 107.508C83.9418 107.539 83.9216 107.567 83.8948 107.589C83.868 107.612 83.8353 107.629 83.7994 107.639C83.7634 107.649 83.7251 107.652 83.6876 107.647H78.7297C78.6922 107.652 78.6539 107.649 78.6179 107.639C78.582 107.629 78.5493 107.612 78.5225 107.589C78.4957 107.567 78.4755 107.539 78.4636 107.508C78.4517 107.478 78.4484 107.446 78.4539 107.414V102.747C78.4484 102.715 78.4517 102.683 78.4636 102.652C78.4755 102.622 78.4957 102.594 78.5225 102.571C78.5493 102.549 78.582 102.532 78.6179 102.521C78.6539 102.511 78.6922 102.509 78.7297 102.513H83.6876C83.7251 102.509 83.7634 102.511 83.7994 102.521C83.8353 102.532 83.868 102.549 83.8948 102.571C83.9216 102.594 83.9418 102.622 83.9537 102.652C83.9656 102.683 83.9689 102.715 83.9634 102.747V107.414ZM83.9634 96.6795C83.9689 96.7113 83.9656 96.7437 83.9537 96.7742C83.9418 96.8047 83.9216 96.8324 83.8948 96.8551C83.868 96.8778 83.8353 96.8949 83.7994 96.905C83.7634 96.915 83.7251 96.9179 83.6876 96.9132H78.7297C78.6922 96.9179 78.6539 96.915 78.6179 96.905C78.582 96.8949 78.5493 96.8778 78.5225 96.8551C78.4957 96.8324 78.4755 96.8047 78.4636 96.7742C78.4517 96.7437 78.4484 96.7113 78.4539 96.6795V92.0126C78.4484 91.9808 78.4517 91.9484 78.4636 91.9179C78.4755 91.8874 78.4957 91.8597 78.5225 91.837C78.5493 91.8143 78.582 91.7973 78.6179 91.7872C78.6539 91.7771 78.6922 91.7743 78.7297 91.779H83.6876C83.7251 91.7743 83.7634 91.7771 83.7994 91.7872C83.8353 91.7973 83.868 91.8143 83.8948 91.837C83.9216 91.8597 83.9418 91.8874 83.9537 91.9179C83.9656 91.9484 83.9689 91.9808 83.9634 92.0126V96.6795ZM83.9634 86.0231C83.9689 86.0549 83.9656 86.0873 83.9537 86.1178C83.9418 86.1483 83.9216 86.176 83.8948 86.1987C83.868 86.2214 83.8353 86.2385 83.7994 86.2486C83.7634 86.2586 83.7251 86.2614 83.6876 86.2568H78.7297C78.6922 86.2614 78.6539 86.2586 78.6179 86.2486C78.582 86.2385 78.5493 86.2214 78.5225 86.1987C78.4957 86.176 78.4755 86.1483 78.4636 86.1178C78.4517 86.0873 78.4484 86.0549 78.4539 86.0231V81.352C78.4484 81.3202 78.4517 81.2878 78.4636 81.2573C78.4755 81.2269 78.4957 81.1992 78.5225 81.1765C78.5493 81.1538 78.582 81.1367 78.6179 81.1266C78.6539 81.1165 78.6922 81.1137 78.7297 81.1184H83.6876C83.7251 81.1137 83.7634 81.1165 83.7994 81.1266C83.8353 81.1367 83.868 81.1538 83.8948 81.1765C83.9216 81.1992 83.9418 81.2269 83.9537 81.2573C83.9656 81.2878 83.9689 81.3202 83.9634 81.352V86.0231ZM83.9634 75.2889C83.9689 75.3206 83.9656 75.353 83.9537 75.3835C83.9418 75.414 83.9216 75.4417 83.8948 75.4644C83.868 75.4871 83.8353 75.5042 83.7994 75.5143C83.7634 75.5244 83.7251 75.5272 83.6876 75.5225H78.7297C78.6922 75.5272 78.6539 75.5244 78.6179 75.5143C78.582 75.5042 78.5493 75.4871 78.5225 75.4644C78.4957 75.4417 78.4755 75.414 78.4636 75.3835C78.4517 75.353 78.4484 75.3206 78.4539 75.2889V70.6219C78.4484 70.5901 78.4517 70.5577 78.4636 70.5272C78.4755 70.4968 78.4957 70.4691 78.5225 70.4464C78.5493 70.4237 78.582 70.4066 78.6179 70.3965C78.6539 70.3864 78.6922 70.3836 78.7297 70.3883H83.6876C83.7251 70.3836 83.7634 70.3864 83.7994 70.3965C83.8353 70.4066 83.868 70.4237 83.8948 70.4464C83.9216 70.4691 83.9418 70.4968 83.9537 70.5272C83.9656 70.5577 83.9689 70.5901 83.9634 70.6219V75.2889ZM138.878 103.758C138.882 103.81 138.872 103.862 138.85 103.91C138.828 103.959 138.795 104.003 138.751 104.04C138.708 104.077 138.656 104.105 138.598 104.124C138.541 104.142 138.48 104.15 138.418 104.147H116.196C116.135 104.15 116.074 104.142 116.016 104.124C115.959 104.105 115.907 104.077 115.863 104.04C115.82 104.003 115.786 103.959 115.764 103.91C115.743 103.862 115.733 103.81 115.737 103.758V100.025C115.733 99.9735 115.743 99.9215 115.764 99.8729C115.786 99.8243 115.82 99.7801 115.863 99.7433C115.907 99.7066 115.959 99.678 116.016 99.6595C116.074 99.641 116.135 99.633 116.196 99.636H138.418C138.48 99.633 138.541 99.641 138.598 99.6595C138.656 99.678 138.708 99.7066 138.751 99.7433C138.795 99.7801 138.828 99.8243 138.85 99.8729C138.872 99.9215 138.882 99.9735 138.878 100.025V103.758ZM113.166 73.6549C113.134 73.5552 113.06 73.4687 112.959 73.4115C112.858 73.3542 112.735 73.33 112.614 73.3434C112.563 73.338 112.511 73.3427 112.463 73.3569C112.414 73.3711 112.37 73.3945 112.333 73.4254L112.151 73.5812L90.9422 96.3708L90.8519 96.4487C90.7369 96.5553 90.6716 96.6937 90.6681 96.8381V124.838C90.6777 124.959 90.7387 125.073 90.8398 125.159C90.941 125.244 91.0753 125.296 91.218 125.304H112.798C112.941 125.296 113.076 125.245 113.177 125.159C113.278 125.073 113.34 124.959 113.35 124.838V73.8106C113.258 73.8106 113.258 73.7327 113.166 73.6549ZM104.258 86.0231L104.442 85.8674C105.919 84.3113 108.298 81.7456 109.492 80.5009L109.676 80.3452C109.801 80.2478 109.965 80.1924 110.135 80.1894C110.411 80.1894 110.687 80.3452 110.687 80.5788V86.3346C110.687 86.6448 110.411 86.8005 110.135 86.8784H104.81C104.442 86.8784 104.258 86.6448 104.258 86.3346C104.213 86.2915 104.189 86.2362 104.189 86.1789C104.189 86.1216 104.213 86.0662 104.258 86.0231ZM100.86 117.916C100.85 118.037 100.789 118.15 100.688 118.236C100.586 118.322 100.452 118.373 100.31 118.382H93.8809C93.7383 118.373 93.6041 118.322 93.503 118.236C93.402 118.15 93.3408 118.037 93.3309 117.916V114.492C93.3424 114.372 93.4042 114.26 93.5051 114.176C93.606 114.091 93.7393 114.04 93.8809 114.032H100.31C100.452 114.04 100.586 114.092 100.688 114.178C100.789 114.263 100.85 114.377 100.86 114.498V117.916ZM100.86 111.693C100.85 111.814 100.789 111.927 100.688 112.013C100.586 112.098 100.452 112.15 100.31 112.159H93.8809C93.7383 112.15 93.6041 112.098 93.503 112.013C93.402 111.927 93.3408 111.814 93.3309 111.693V108.269C93.3408 108.148 93.402 108.035 93.503 107.949C93.6041 107.863 93.7383 107.812 93.8809 107.803H100.31C100.452 107.812 100.586 107.863 100.688 107.949C100.789 108.035 100.85 108.148 100.86 108.269V111.693ZM100.86 105.392C100.85 105.513 100.789 105.627 100.688 105.712C100.587 105.798 100.452 105.85 100.31 105.858H93.8809C93.7382 105.85 93.6038 105.798 93.5027 105.712C93.4015 105.627 93.3405 105.513 93.3309 105.392V101.97C93.3405 101.848 93.4014 101.734 93.5025 101.649C93.6036 101.563 93.738 101.511 93.8809 101.502H100.31C100.453 101.511 100.587 101.563 100.688 101.649C100.789 101.734 100.85 101.848 100.86 101.97V105.392ZM100.952 91.5453V99.013C100.942 99.134 100.881 99.248 100.78 99.3339C100.679 99.4198 100.545 99.4718 100.402 99.4803H93.9728C93.83 99.4718 93.6956 99.4198 93.5945 99.3339C93.4934 99.248 93.4324 99.134 93.4228 99.013V97.8463C93.4226 97.836 93.4248 97.8258 93.4294 97.8163C93.4339 97.8067 93.4407 97.7981 93.4493 97.7908C93.4578 97.7835 93.4681 97.7778 93.4793 97.774C93.4906 97.7701 93.5026 97.7682 93.5148 97.7684C93.5145 97.7581 93.5168 97.7479 93.5213 97.7384C93.5259 97.7289 93.5326 97.7202 93.5412 97.7129C93.5498 97.7057 93.56 97.6999 93.5713 97.6961C93.5825 97.6922 93.5946 97.6903 93.6067 97.6905C94.4275 96.6795 98.1066 92.79 99.6662 91.2352L99.8566 91.0864C99.9825 90.989 100.146 90.9336 100.316 90.9307C100.59 90.9307 100.866 91.0864 100.866 91.3201V91.5523L100.952 91.5453ZM110.777 117.916C110.768 118.037 110.707 118.151 110.605 118.236C110.504 118.322 110.37 118.374 110.227 118.382H103.797C103.654 118.374 103.52 118.322 103.418 118.236C103.317 118.151 103.256 118.037 103.247 117.916V114.492C103.258 114.372 103.32 114.26 103.421 114.175C103.522 114.091 103.655 114.04 103.797 114.032H110.226C110.368 114.04 110.503 114.092 110.604 114.177C110.705 114.263 110.766 114.377 110.776 114.498L110.777 117.916ZM110.777 111.693C110.768 111.814 110.707 111.927 110.605 112.013C110.504 112.099 110.37 112.151 110.227 112.159H103.797C103.654 112.151 103.52 112.099 103.418 112.013C103.317 111.927 103.256 111.814 103.247 111.693V108.269C103.256 108.148 103.317 108.034 103.418 107.949C103.52 107.863 103.654 107.811 103.797 107.803H110.226C110.368 107.811 110.503 107.863 110.604 107.949C110.705 108.034 110.766 108.148 110.776 108.269L110.777 111.693ZM110.777 105.392C110.768 105.513 110.707 105.627 110.606 105.713C110.505 105.798 110.37 105.85 110.227 105.858H103.797C103.654 105.85 103.519 105.798 103.418 105.713C103.317 105.627 103.256 105.513 103.247 105.392V101.97C103.256 101.848 103.317 101.734 103.418 101.648C103.519 101.562 103.654 101.51 103.797 101.502H110.226C110.369 101.51 110.503 101.562 110.604 101.648C110.705 101.734 110.766 101.848 110.776 101.97L110.777 105.392ZM110.777 99.0909C110.768 99.212 110.707 99.3262 110.606 99.4121C110.505 99.4981 110.37 99.55 110.227 99.5582H103.797C103.654 99.55 103.519 99.4981 103.418 99.4121C103.317 99.3262 103.256 99.212 103.247 99.0909V95.6755C103.256 95.5544 103.317 95.4402 103.418 95.3543C103.519 95.2683 103.654 95.2164 103.797 95.2083H110.226C110.369 95.2164 110.503 95.2683 110.604 95.3543C110.705 95.4402 110.766 95.5544 110.776 95.6755L110.777 99.0909ZM110.777 92.79C110.768 92.9111 110.707 93.0252 110.606 93.1112C110.505 93.1971 110.37 93.249 110.227 93.2572H103.797C103.654 93.249 103.519 93.1971 103.418 93.1112C103.317 93.0252 103.256 92.9111 103.247 92.79V89.3676C103.256 89.2465 103.317 89.1323 103.418 89.0464C103.519 88.9604 103.654 88.9085 103.797 88.9004H110.226C110.369 88.9085 110.503 88.9604 110.604 89.0464C110.705 89.1323 110.766 89.2465 110.776 89.3676L110.777 92.79Z" fill="white"/>
<path d="M55.2223 31.028V29.629H57.1496V31.028C57.1496 31.5731 57.4254 31.9625 58.1593 31.9625C58.8028 31.9625 59.0786 31.5731 59.0786 31.028V30.64C59.0786 30.0184 58.8028 29.7069 58.1593 29.1618L56.9658 28.1508C55.7723 27.2177 55.3142 26.5947 55.3142 25.4279V25.1178C55.3142 23.8663 56.2319 22.8608 58.1593 22.8608C60.1802 22.8608 61.006 23.7175 61.006 25.1957V26.0509H59.1706V25.1957C59.1706 24.5727 58.8948 24.3391 58.2512 24.3391C57.7012 24.3391 57.3335 24.5727 57.3335 25.1957V25.4279C57.3335 25.9731 57.7012 26.3624 58.2512 26.8283L59.5367 27.9172C60.6399 28.8517 61.1898 29.4733 61.1898 30.5594V31.0252C61.1898 32.4256 60.2721 33.4366 58.2512 33.4366C56.2303 33.4366 55.2223 32.3505 55.2223 31.028ZM67.8026 23.0166V30.7179C67.8026 32.2726 66.9817 33.3601 64.9559 33.3601C62.843 33.3601 61.9253 32.3477 61.9253 30.7179V23.0166H63.9446V30.9515C63.9446 31.5731 64.2204 31.9625 64.9559 31.9625C65.6914 31.9625 65.9655 31.5731 65.9655 30.9515V23.0166H67.8026ZM68.9041 31.028V29.629H70.8331V31.028C70.8331 31.5731 71.1073 31.9625 71.8428 31.9625C72.4863 31.9625 72.7605 31.5731 72.7605 31.028V30.64C72.7605 30.0184 72.4863 29.7069 71.8428 29.1618L70.6493 28.1508C69.4558 27.2177 68.9961 26.5947 68.9961 25.4279V25.1178C68.9961 23.8663 69.8169 22.8608 71.8428 22.8608C73.8686 22.8608 74.6895 23.7175 74.6895 25.1957V26.0509H72.8524V25.1957C72.8524 24.5727 72.5766 24.3391 71.9347 24.3391C71.3831 24.3391 71.017 24.5727 71.017 25.1957V25.4279C71.017 25.9731 71.3831 26.3624 71.9347 26.8283L73.2202 27.9172C74.3217 28.8517 74.8733 29.4733 74.8733 30.5594V31.0252C74.8733 32.4256 73.9556 33.4366 71.9347 33.4366C69.638 33.3629 68.9041 32.3505 68.9041 31.028ZM75.1426 23.0166H80.5602V24.417H78.9135V33.2071H76.8926V24.417H75.2411V23.0166H75.1426ZM80.1924 33.2071L82.4908 23.0166H84.7892L87.0875 33.2071H84.9747L84.6069 31.3395H82.4941L82.1263 33.2071H80.1924ZM82.7633 29.9405H84.4247L83.6039 25.8173L82.7633 29.9405ZM87.9067 23.0166H89.926V33.2071H87.9067V23.0166ZM92.7727 26.7504V33.2071H91.0342V23.0166H93.0551L95.2599 28.8572V23.0166H96.9114V33.2071H95.1679L92.7727 26.7504ZM97.6403 33.2071L99.9387 23.0166H102.237L104.535 33.2071H102.421L102.053 31.3395H99.942L99.5742 33.2071H97.6403ZM100.218 29.9405H101.871L101.05 25.8173L100.218 29.9405ZM105.176 23.0166H108.114C110.135 23.0166 110.777 23.7953 110.777 25.2736V26.2832C110.777 27.1384 110.411 27.6835 109.584 27.9158C110.595 28.1494 111.061 28.6945 111.061 29.6277V30.9501C111.061 32.427 110.327 33.2057 108.306 33.2057H105.187L105.176 23.0166ZM107.197 27.2956H107.93C108.574 27.2956 108.85 26.9841 108.85 26.4403V25.1957C108.85 24.6506 108.574 24.3391 107.839 24.3391H107.105L107.197 27.2956ZM107.197 28.6181V31.8068H108.114C108.758 31.8068 109.126 31.4953 109.126 30.9515V29.3954C109.126 28.8517 108.85 28.5402 108.114 28.5402H107.197V28.6181ZM111.972 23.0166H113.992V31.8068H116.38V33.2071H111.972V23.0166ZM117.206 23.0166H122.072V24.417H119.229V27.3734H121.248V28.7738H119.229V31.8846H122.074V33.285H117.206V23.0166ZM125.467 30.5622V25.5879C125.467 23.9553 126.385 22.865 128.498 22.865C130.701 22.865 131.344 23.9553 131.344 25.4321V26.6837H129.51V25.2736C129.51 24.6506 129.235 24.2612 128.501 24.2612C127.767 24.2612 127.491 24.7285 127.491 25.3501V30.8723C127.491 31.4939 127.765 31.9611 128.501 31.9611C129.236 31.9611 129.51 31.5718 129.51 30.9501V29.0839H131.348V30.8723C131.348 32.3491 130.612 33.438 128.501 33.438C126.296 33.3629 125.467 32.1238 125.467 30.5622ZM132.262 23.0166H134.283V33.2071H132.265L132.262 23.0166ZM135.017 23.0166H140.434V24.417H138.786V33.2071H136.765V24.417H135.112V23.0166H135.017ZM141.255 23.0166H143.274V33.2071H141.255V23.0166ZM144.374 23.0166H149.24V24.417H146.407V27.3734H148.428V28.7738H146.407V31.8846H149.253V33.285H144.387L144.374 23.0166ZM149.7 31.028V29.629H151.629V31.028C151.629 31.5731 151.905 31.9625 152.639 31.9625C153.282 31.9625 153.556 31.5731 153.556 31.028V30.64C153.556 30.0184 153.282 29.7069 152.639 29.1618L151.445 28.1508C150.252 27.2177 149.792 26.5947 149.792 25.4279V25.1178C149.792 23.8663 150.71 22.8608 152.639 22.8608C154.66 22.8608 155.485 23.7175 155.485 25.1957V26.0509H153.661V25.1957C153.661 24.5727 153.387 24.3391 152.744 24.3391C152.192 24.3391 151.826 24.5727 151.826 25.1957V25.4279C151.826 25.9731 152.192 26.3624 152.744 26.8283L154.029 27.9172C155.131 28.8517 155.682 29.4733 155.682 30.5594V31.0252C155.682 32.4256 154.765 33.4366 152.744 33.4366C150.723 33.4366 149.713 32.3505 149.713 31.028H149.7Z" fill="white"/>
<path d="M55.2223 48.2189L57.5207 38.0297H59.819L62.1174 48.2189H60.0883L59.7205 46.3526H57.6093L57.2416 48.2189H55.2223ZM57.7932 45.0301H59.4447L58.6239 40.9069L57.7932 45.0301ZM64.6883 41.8414V48.2967H62.935V38.1034H64.9559L67.159 43.9441V38.1034H68.8122V48.2967H67.0671L64.6883 41.8414ZM76.0751 40.7526V45.4974C76.0751 47.0535 75.3412 48.2189 73.1364 48.2189H70.0172V38.0297H73.1364C75.2411 38.0297 76.0668 39.1964 76.0668 40.7526H76.0751ZM72.8606 46.8199C73.6815 46.8199 74.0541 46.4305 74.0541 45.8089V40.4411C74.0541 39.8181 73.78 39.4301 72.8606 39.4301H72.0398V46.8199H72.8606ZM79.0071 45.5753V40.5968C79.0071 38.9628 79.9248 37.874 82.0377 37.874C84.2408 37.874 84.8844 38.9628 84.8844 40.4411V41.6857H83.0457V40.3632C83.0457 39.7402 82.7699 39.3522 82.036 39.3522C81.3022 39.3522 81.0248 39.8181 81.0248 40.4411V45.9633C81.0248 46.5863 81.3006 47.0535 82.036 47.0535C82.7715 47.0535 83.0457 46.6641 83.0457 46.0411V44.1749H84.8827V45.9633C84.8827 47.4415 84.1473 48.5304 82.036 48.5304C79.828 48.3746 79.0071 47.2079 79.0071 45.5753ZM85.986 45.5753V40.5968C85.986 38.9628 86.9037 37.874 89.0165 37.874C91.1294 37.874 92.1357 39.0407 92.1357 40.5968V45.5753C92.1357 47.13 91.2164 48.2967 89.0165 48.2967C86.902 48.3746 85.9843 47.2079 85.9843 45.5753H85.986ZM90.0245 45.8909V40.3632C90.0245 39.7402 89.7487 39.2743 89.0149 39.2743C88.281 39.2743 88.0036 39.7402 88.0036 40.3632V45.8909C88.0036 46.5139 88.2794 46.9812 89.0149 46.9812C89.7487 46.8978 90.0245 46.5084 90.0245 45.8909ZM98.8404 41.6134L97.3711 48.2244H96.4534L94.9841 41.6134V48.2244H93.3309V38.0297H95.7179L97.0033 43.7855L98.1969 38.0297H100.768V48.2189H98.9323L98.8404 41.6134ZM107.377 41.6134L105.9 48.2244H104.98L103.511 41.6134V48.2244H101.871V38.0297H104.258L105.543 43.7855L106.737 38.0297H109.308V48.2189H107.472V41.6078L107.377 41.6134ZM116.285 38.0353V45.7366C116.285 47.2913 115.464 48.3788 113.438 48.3788C111.325 48.3788 110.408 47.3678 110.408 45.7366V38.0297H112.427V45.9563C112.427 46.5793 112.703 46.9687 113.438 46.9687C114.174 46.9687 114.448 46.5793 114.448 45.9563V38.0297L116.285 38.0353ZM119.04 41.847V48.2967H117.298V38.1034H119.319L121.527 43.9441V38.1034H123.169V48.2967H121.43L119.04 41.847ZM124.365 38.0353H126.385V48.2244H124.365V38.0353ZM127.304 38.0353H132.722V39.4356H131.072V48.2244H128.961V39.4356H127.307L127.304 38.0353ZM133.639 38.0353H135.66V48.2244H133.643L133.639 38.0353ZM136.759 38.0353H141.626V39.4356H138.786V42.3907H140.805V43.7911H138.786V46.9033H141.633V48.2967H136.765L136.759 38.0353ZM142.452 46.0467V44.6394H144.381V46.0397C144.381 46.5849 144.655 46.9742 145.391 46.9742C146.034 46.9742 146.308 46.5849 146.308 46.0397V45.6518C146.308 45.0287 146.034 44.7172 145.391 44.1735L144.197 43.1625C143.004 42.228 142.544 41.6064 142.544 40.4397V40.1282C142.544 38.8835 143.365 37.8726 145.391 37.8726C147.416 37.8726 148.237 38.7278 148.237 40.206V41.0613H146.407V40.206C146.407 39.5844 146.131 39.3508 145.489 39.3508C144.937 39.3508 144.571 39.5844 144.571 40.206V40.4397C144.571 40.9834 144.937 41.3728 145.489 41.84L146.775 42.9289C147.876 43.862 148.428 44.485 148.428 45.5711V46.037C148.428 47.4373 147.51 48.4483 145.489 48.4483C143.284 48.3746 142.459 47.3636 142.459 46.0411L142.452 46.0467Z" fill="white"/>
</g>
<defs>
<clipPath id="clip0_316_42">
<rect width="177.303" height="150.188" fill="white" transform="translate(0.041748)"/>
</clipPath>
</defs>
</svg>
